<svg viewBox="0 0 40 24" xmlns="http://www.w3.org/2000/svg"><path d="m22.640625 4.800781c.480469.078125.960937.160157 1.359375.238281 1.761719.320313 3.121094 1.601563 3.601562 3.28125.238282 1.28125.078126 2.640626-.5625 3.757813-.71875 1.441406-1.679687 2.640625-2.960937 3.601563-1.679687 1.441406-3.679687 2.558593-5.839844 3.28125-.476562.160156-1.039062.238281-1.519531.238281-.878906.082031-1.679688-.558594-1.757812-1.4375v-.402344c.160156-1.679687 1.359374-3.039063 3.039062-3.519531.398438 0 .800781 0 1.121094.160156.398437.160156.640625.640625.480468 1.121094-.082031.160156-.160156.238281-.242187.320312-.320313.320313-.640625.636719-.960937.878906-.320313.238282-.558594.480469-.796876.800782-.160156.160156-.242187.320312-.320312.480468-.160156.320313 0 .476563.320312.476563.160157 0 .320313 0 .476563-.078125 2.800781-1.039062 5.042969-2.960938 6.480469-5.519531.242187-.402344.320312-.800781.320312-1.28125.082032-1.359375-.800781-2.160157-2.078125-1.757813-.960937.320313-2 .71875-2.878906 1.199219-.960937.480469-1.921875 1.121094-2.882813 1.597656-.71875.402344-1.519531.640625-2.398437.722657-.402344.078124-.800781 0-1.121094-.082032-.800781-.078125-1.441406-.878906-1.28125-1.839844 0-.078124 0-.160156.082031-.238281.398438-1.121093 1.121094-2.160156 2.078126-2.800781 1.839843-1.441406 4-2.480469 6.320312-2.960938.402344-.078124.882812-.160156 1.28125-.238281zm0 0" fill="#eb2227"/></svg>