<svg viewBox="0 0 40 24" xmlns="http://www.w3.org/2000/svg"><path d="m27.242188 16.90625c-1.910157 1.648438-4.675782 2.527344-7.058594 2.527344-3.339844 0-6.351563-1.449219-8.625-3.855469-.179688-.191406-.019532-.449219.195312-.300781 2.457032 1.671875 5.492188 2.679687 8.628906 2.679687 2.113282 0 4.441407-.511719 6.582032-1.578125.324218-.160156.59375.25.277344.523438zm.792968-1.066406c-.242187-.367188-1.613281-.171875-2.226562-.085938-.1875.023438-.214844-.164062-.046875-.300781 1.089843-.902344 2.882812-.640625 3.089843-.339844.210938.300781-.050781 2.40625-1.078124 3.410157-.160157.152343-.308594.070312-.238282-.132813.230469-.671875.746094-2.183594.503906-2.550781zm0 0" fill="#f90"/><path d="m21.863281 10.902344c0 .785156.019531 1.441406-.363281 2.136718-.308594.566407-.800781.914063-1.347656.914063-.746094 0-1.179688-.589844-1.179688-1.460937 0-1.714844 1.484375-2.023438 2.890625-2.023438zm1.960938 4.910156c-.125.113281-.3125.132812-.457031.046875-.648438-.554687-.761719-.8125-1.117188-1.339844-1.066406 1.125-1.820312 1.460938-3.207031 1.460938-1.636719 0-2.910157-1.042969-2.910157-3.136719 0-1.632812.855469-2.746094 2.074219-3.289062 1.058594-.484376 2.53125-.570313 3.65625-.699219v-.261719c0-.480469.035157-1.046875-.234375-1.460938-.238281-.371093-.691406-.523437-1.089844-.523437-.746093 0-1.40625.394531-1.566406 1.210937-.035156.179688-.164062.359376-.339844.367188l-1.886718-.210938c-.15625-.035156-.332032-.167968-.289063-.421874.433594-2.367188 2.503907-3.078126 4.351563-3.078126.945312 0 2.183594.257813 2.929687 1 .945313.914063.855469 2.136719.855469 3.464844v3.136719c0 .941406.378906 1.359375.734375 1.867187.125.179688.152344.398438-.003906.535157-.398438.34375-1.101563.980469-1.492188 1.335937z" fill="#221f1f" fill-rule="evenodd"/></svg>