<svg viewBox="0 0 40 24" xmlns="http://www.w3.org/2000/svg"><g fill="#ec1c24"><path d="m24.328125 9.832031c.628906 0 1.238281.25 1.683594.695313.5.496094.75 1.1875.691406 1.886718-.0625.699219-.433594 1.332032-1.011719 1.734376-.636718.441406-1.453125.546874-2.183594.28125v3.746093c1.734376.234375 3.488282-.285156 4.8125-1.433593 1.320313-1.140626 2.078126-2.796876 2.078126-4.539063 0-2.34375-1.363282-4.476563-3.5-5.464844-2.136719-.992187-4.652344-.664062-6.464844.839844.957031.953125 1.582031 2.191406 1.78125 3.527344.414062-.785157 1.226562-1.273438 2.113281-1.273438"/><path d="m15.679688 18.230469c.605468 0 1.210937-.089844 1.789062-.269531v-4.1875c-.765625.859374-2.03125 1.054687-3.019531.464843-.984375-.589843-1.410157-1.796875-1.003907-2.871093.410157-1.070313 1.527344-1.699219 2.664063-1.496094 1.132813.207031 1.957031 1.1875 1.957031 2.332031v6.027344h3.691406v-6.03125c0-3.328125-2.722656-6.03125-6.078124-6.03125-3.359376 0-6.078126 2.703125-6.078126 6.03125 0 3.332031 2.71875 6.03125 6.078126 6.03125"/></g></svg>