<svg viewBox="0 0 40 24" xmlns="http://www.w3.org/2000/svg"><path d="m13.554688 11.183594c.015624 1.53125 1.398437 2.039062 1.414062 2.042968-.011719.039063-.21875.726563-.730469 1.441407-.4375.613281-.894531 1.226562-1.613281 1.242187-.703125.011719-.933594-.402344-1.738281-.402344-.808594 0-1.058594.386719-1.726563.414063-.695312.023437-1.222656-.667969-1.667968-1.28125-.902344-1.253906-1.597657-3.546875-.667969-5.09375.464843-.765625 1.289062-1.253906 2.183593-1.265625.679688-.011719 1.324219.4375 1.738282.4375.417968 0 1.199218-.542969 2.019531-.460938.34375.011719 1.308594.132813 1.929687 1-.050781.03125-1.152343.648438-1.140624 1.925782m-1.328126-3.757813c.367188-.425781.617188-1.019531.550782-1.613281-.53125.019531-1.171875.339844-1.554688.765625-.339844.378906-.640625.984375-.558594 1.566406.589844.042969 1.195313-.289062 1.5625-.71875m5.332032-.730469c.296875-.050781.597656-.089843.902344-.121093.359374-.039063.722656-.058594 1.085937-.054688.5625 0 1.050781.0625 1.460937.195313.40625.132812.742188.320312 1.007813.566406.226563.21875.40625.484375.527344.777344.128906.300781.191406.644531.191406 1.035156 0 .476562-.085937.886719-.261719 1.242188-.167968.347656-.410156.652343-.710937.894531-.300781.242187-.660157.421875-1.074219.539062-.414062.117188-.863281.175781-1.351562.175781-.445313 0-.816407-.03125-1.117188-.09375v3.929688h-.660156zm.660156 4.582032c.160156.046875.339844.078125.539062.097656.195313.015625.40625.027344.632813.027344.847656 0 1.503906-.191406 1.96875-.574219s.699219-.941406.699219-1.675781c0-.355469-.0625-.664063-.183594-.929688-.117188-.257812-.296875-.480468-.523438-.648437-.226562-.167969-.492187-.296875-.804687-.382813-.308594-.085937-.652344-.128906-1.03125-.128906-.300781 0-.558594.011719-.773437.035156-.21875.023438-.390626.046875-.523438.074219zm9.789062 2.949218c0 .261719.003907.527344.015626.789063.007812.265625.035156.519531.082031.765625h-.621094l-.097656-.929688h-.027344c-.09375.140626-.203125.265626-.324219.382813-.296875.285156-.65625.488281-1.050781.601563-.238281.0625-.480469.097656-.726563.09375-.328124 0-.621093-.054688-.867187-.15625-.25-.105469-.457031-.242188-.617187-.410157-.15625-.164062-.277344-.363281-.359376-.578125-.078124-.210937-.117187-.433594-.117187-.65625 0-.773437.335937-1.367187 1.007813-1.785156.671874-.421875 1.6875-.621094 3.039062-.601562v-.179688c0-.171875-.015625-.367188-.046875-.589844-.035156-.226562-.109375-.441406-.21875-.636718-.113281-.199219-.285156-.367188-.507813-.503907-.226562-.136719-.53125-.203125-.917968-.203125-.292969 0-.582032.042969-.867188.128906-.277344.082032-.542968.203126-.78125.359376l-.214844-.476563c.285157-.191406.601563-.335937.933594-.429687.324219-.085938.660156-.128907 1-.128907.46875 0 .855469.078125 1.148438.230469.296875.15625.53125.355469.699218.601562.167969.246094.285157.519532.347657.824219.058593.304688.089843.609375.089843.90625zm-.664062-1.953124c-.355469-.007813-.730469.003906-1.121094.042968-.390625.035156-.75.113282-1.078125.238282-.332031.121093-.601562.300781-.820312.539062-.214844.234375-.324219.546875-.324219.941406 0 .460938.136719.804688.410156 1.019532.273438.21875.578125.328124.917969.328124.273437 0 .515625-.035156.734375-.109374.390625-.125.726562-.371094.964844-.707032.109375-.15625.191406-.3125.246094-.476562.046874-.183594.070312-.316406.070312-.398438zm1.960938-3.042969 1.71875 4.257812c.097656.234375.1875.480469.269531.730469.085937.25.160156.480469.226562.6875h.027344c.066406-.199219.140625-.425781.226563-.675781.085937-.25.179687-.507813.28125-.769531l1.609374-4.230469h.703126l-1.957032 4.804687c-.179687.460938-.367187.921875-.558594 1.382813-.160156.378906-.335937.753906-.53125 1.117187-.175781.332032-.359374.625-.542968.882813-.175782.246093-.382813.46875-.613282.667969-.261718.226562-.503906.390624-.726562.496093-.144531.070313-.292969.136719-.441406.199219l-.226563-.53125c.167969-.074219.355469-.167969.5625-.289062.222657-.128907.425781-.285157.605469-.464844.171875-.160156.355469-.378906.558594-.644532.203125-.269531.382812-.59375.542968-.976562.058594-.144531.085938-.242188.085938-.285156 0-.066406-.027344-.160156-.085938-.289063l-2.441406-6.070312zm0 0" fill-rule="evenodd"/></svg>