<svg viewBox="0 0 40 24" xmlns="http://www.w3.org/2000/svg"><path d="m27.894531 7.601562-1.390625.433594v1.308594h-.808594v1.167969h.808594v3.007812c0 .867188.449219 1.503907 1.519532 1.503907h.980468v-1.167969h-.417968c-.496094 0-.691407-.238281-.691407-.773438v-2.570312h1.28125v-1.167969h-1.28125zm4.5625 1.566407c-1.484375 0-2.746093 1.109375-2.746093 3.050781 0 1.675781 1.019531 2.980469 2.738281 2.980469 1.6875 0 2.75-1.308594 2.75-3.027344 0-1.929687-1.214844-3.003906-2.742188-3.003906zm-24.757812.121093c-.84375 0-1.824219.054688-1.824219.054688v1.078125s1.050781-.054687 1.539062-.054687c.578126 0 1.058594.171874 1.058594.855468v.132813l-.988281.03125c-1.398437.046875-2.285156.71875-2.285156 1.894531 0 1.117188.78125 1.859375 1.789062 1.859375.726563 0 1.226563-.285156 1.585938-.621094l.113281.503907h1.289062c-.082031-.265626-.105468-.6875-.105468-1.503907v-2.203125c0-1.488281-.816406-2.027344-2.171875-2.027344zm14.949219 0c-.839844 0-1.816407.054688-1.816407.054688v1.078125s1.050781-.054687 1.542969-.054687c.578125 0 1.054688.171874 1.054688.855468v.132813l-.988282.03125c-1.398437.046875-2.289062.71875-2.289062 1.894531 0 1.117188.785156 1.859375 1.792968 1.859375.726563 0 1.226563-.285156 1.585938-.621094l.113281.503907h1.28125c-.082031-.265626-.097656-.6875-.097656-1.503907v-2.203125c0-1.488281-.824219-2.027344-2.179687-2.027344zm-11.589844.054688v5.679688h1.402344v-3.953126c.324218-.316406.71875-.375 1.042968-.375.109375 0 .242188.015626.390625.0625v-1.414062c-.519531 0-.953125.070312-1.503906.597656l-.144531-.597656zm3.378906 0 2.230469 5.679688h1.058593l2.277344-5.679688h-1.433594l-1.316406 3.683594-1.273437-3.683594zm17.996094.957031c.855468 0 1.339844.785157 1.339844 1.878907 0 1.070312-.433594 1.910156-1.300782 1.910156-.847656 0-1.34375-.804688-1.34375-1.910156 0-1.054688.425782-1.882813 1.304688-1.882813zm-23.960938 2.046875v1.292969c-.183594.167969-.507812.359375-.996094.359375-.578124 0-.890624-.359375-.890624-.824219 0-.480469.339843-.78125 1.089843-.804687zm14.957032 0v1.292969c-.183594.167969-.515626.359375-1.003907.359375-.578125 0-.886719-.359375-.886719-.824219 0-.480469.335938-.78125 1.085938-.804687zm0 0" fill="#0979b8"/></svg>