<svg viewBox="0 0 40 24" xmlns="http://www.w3.org/2000/svg"><g fill-rule="evenodd"><path d="m14.027344 9.183594c.265625 0 .496094.046875.6875.140625.195312.09375.355468.21875.484375.378906.125.160156.222656.347656.28125.5625.0625.214844.089843.445313.089843.695313 0 .378906-.066406.738281-.210937 1.078124-.132813.328126-.328125.628907-.578125.882813-.246094.253906-.539062.457031-.863281.597656-.332031.144531-.691407.21875-1.078125.21875-.050782 0-.136719-.003906-.261719-.003906-.144531-.003906-.285156-.019531-.425781-.039063-.175782-.023437-.34375-.058593-.511719-.097656-.179687-.042968-.347656-.105468-.511719-.183594l1.4375-6.007812 1.285156-.199219-.515624 2.132813c.109374-.046875.21875-.085938.332031-.117188.113281-.023437.230469-.039062.359375-.039062zm-1.082032 3.539062c.195313 0 .378907-.046875.550782-.140625s.324218-.222656.445312-.378906.222656-.332031.292969-.53125c.074219-.199219.109375-.40625.109375-.621094 0-.261719-.042969-.46875-.132812-.621093-.089844-.148438-.253907-.222657-.492188-.222657-.078125 0-.175781.015625-.300781.042969s-.242188.089844-.339844.171875l-.546875 2.265625c.035156.007812.0625.011719.089844.015625.058594.011719.117187.019531.175781.019531h.152344zm3.960938.898438h-1.226562l1.035156-4.347656h1.238281zm.597656-4.875c-.171875 0-.324218-.050782-.464844-.152344-.136718-.101562-.207031-.257812-.207031-.46875 0-.113281.023438-.222656.070313-.324219.089844-.199219.253906-.359375.457031-.445312.101563-.042969.210937-.0625.328125-.0625.171875 0 .328125.050781.464844.152343.140625.101563.207031.257813.207031.464844 0 .117188-.023437.226563-.070313.328125-.089843.199219-.253906.359375-.457031.441407-.101562.042968-.214843.066406-.328125.066406zm1.527344-.554688 1.289062-.199218-.316406 1.28125h1.378906l-.25 1.007812h-1.371093l-.363281 1.523438c-.035157.113281-.054688.234374-.058594.355468-.007813.109375.007812.203125.039062.285156.035156.078126.09375.140626.179688.183594.085937.042969.207031.066406.371094.066406.132812 0 .261718-.011718.386718-.039062.121094-.023438.25-.058594.375-.101562l.09375.941406c-.175781.066406-.359375.117187-.542968.160156-.191407.042969-.421876.0625-.6875.0625-.382813 0-.679688-.054688-.890626-.167969-.210937-.113281-.359374-.265625-.449218-.460937-.085938-.195313-.125-.421875-.113282-.675782.011719-.253906.050782-.519531.113282-.800781zm2.296875 3.695313c0-.375.0625-.726563.183594-1.058594.113281-.320313.292969-.617187.523437-.867187.230469-.25.511719-.453126.824219-.585938.324219-.144531.6875-.214844 1.085937-.214844.222657-.003906.449219.019532.667969.070313.183594.042969.363281.105469.535157.183593l-.421876.960938c-.113281-.046875-.226562-.085938-.347656-.121094-.117187-.035156-.261718-.054687-.433594-.054687-.410156 0-.734374.140625-.976562.421875s-.363281.660156-.363281 1.132812c0 .28125.0625.507813.183593.683594.121094.171875.347657.257812.671876.257812.296874 0 .59375-.058593.867187-.171874l.089844.980468c-.15625.0625-.328125.117188-.515625.164063s-.410156.070312-.671875.070312c-.34375 0-.632813-.050781-.871094-.148437-.238281-.101563-.4375-.234375-.589844-.402344-.15625-.167969-.273437-.371094-.335937-.589844-.070313-.230468-.105469-.472656-.105469-.710937zm5.460937 1.851562c-.292968 0-.546874-.046875-.765624-.132812-.203126-.082031-.386719-.207031-.535157-.371094-.144531-.167969-.253906-.359375-.320312-.566406-.074219-.234375-.109375-.476563-.105469-.722657 0-.332031.054688-.664062.160156-.992187.105469-.324219.265625-.625.480469-.890625.210937-.269531.472656-.488281.769531-.652344.304688-.167968.65625-.25 1.046875-.25.289063 0 .542969.042969.761719.132813.21875.085937.398438.210937.539062.371093.140626.160157.246094.347657.320313.566407.070313.214843.105469.457031.105469.722656 0 .328125-.050782.660156-.15625.992187-.101563.320313-.257813.625-.464844.890626-.207031.269531-.46875.488281-.769531.648437-.304688.167969-.664063.253906-1.066407.253906zm.613282-3.539062c-.171875 0-.339844.054687-.480469.15625-.140625.109375-.257813.246093-.347656.398437-.09375.160156-.164063.335938-.214844.523438-.042969.179687-.066406.359375-.070313.542968 0 .277344.046876.488282.132813.644532.089844.152344.25.230468.484375.230468.183594 0 .34375-.050781.480469-.15625.136719-.105468.253906-.238281.347656-.398437.09375-.15625.167969-.332031.214844-.523437.046875-.1875.070312-.371094.070312-.539063 0-.277344-.046875-.492187-.132812-.644531-.089844-.15625-.25-.234375-.484375-.234375zm3.183594 3.421875h-1.230469l1.039062-4.347656h1.238281zm.597656-4.875c-.171875 0-.324219-.050782-.464844-.152344-.136719-.101562-.207031-.257812-.207031-.46875 0-.113281.023437-.222656.070312-.324219.046875-.101562.109375-.191406.1875-.265625.078125-.074218.167969-.132812.269531-.179687.101563-.042969.210938-.0625.328126-.0625.171874 0 .328124.050781.464843.152343.140625.101563.207031.257813.207031.464844 0 .117188-.023437.226563-.070312.328125-.089844.199219-.253906.359375-.457031.441407-.101563.042968-.210938.066406-.328125.066406zm1.335937.726562c.09375-.027344.199219-.058594.308594-.09375.28125-.085937.566406-.144531.859375-.175781.171875-.019531.371094-.027344.59375-.027344.644531 0 1.09375.1875 1.339844.5625s.289062.886719.128906 1.535157l-.5625 2.347656h-1.238281l.546875-2.296875c.03125-.144531.058594-.28125.078125-.417969.019531-.117188.019531-.238281-.003907-.355469-.019531-.097656-.074218-.1875-.152343-.246093-.082031-.066407-.203125-.097657-.371094-.097657-.160156 0-.324219.019531-.488281.050781l-.808594 3.363282h-1.238281zm-14.855469 6.738282-.242187.4375h-.257813c.320313-.582032.675782-1.148438 1.054688-1.699219h.234375c.023437.125.046875.246093.066406.371093.046875.277344.085938.554688.117188.832032.019531.152344.035156.316406.054687.496094h-.238281c-.007813-.074219-.015625-.148438-.023437-.222657-.007813-.070312-.011719-.140625-.023438-.214843zm.722657-.191407c-.027344-.265625-.0625-.53125-.105469-.796875-.179688.257813-.347656.523438-.507812.796875zm1.179687.664063c-.105468 0-.203125-.015625-.28125-.046875-.078125-.027344-.148437-.070313-.203125-.132813-.058593-.058594-.097656-.128906-.125-.207031-.027343-.085937-.039062-.179687-.039062-.269531 0-.148438.023437-.289063.070312-.421875.046875-.132813.113281-.253907.199219-.355469s.191406-.1875.3125-.246094c.121094-.0625.257812-.09375.40625-.09375.128906 0 .230469.015625.304688.039063.078124.027343.132812.050781.164062.074219l-.097656.195312c-.117188-.070312-.25-.105469-.382813-.101562-.113281 0-.214843.027343-.304687.078124-.089844.054688-.167969.125-.230469.207032-.0625.085937-.109375.179687-.144531.285156-.03125.101562-.046875.207031-.046875.3125 0 .316406.136719.476562.414062.476562.058594 0 .113281-.003906.160157-.011718.046874-.007813.085937-.019532.125-.027344.035156-.011719.066406-.023438.09375-.039062l.074218-.03125.03125.203124c-.019531.011719-.046875.023438-.078125.039063-.035156.011719-.074219.027344-.113281.035156-.101562.027344-.203125.039063-.308594.039063zm1.382813 0c-.097657.003906-.191407-.011719-.28125-.046875-.078125-.027344-.148438-.070313-.203125-.132813-.054688-.058594-.097656-.128906-.121094-.207031-.03125-.085937-.042969-.179687-.042969-.269531 0-.148438.023438-.289063.070313-.421875.046875-.132813.113281-.253907.199218-.355469.085938-.101562.191407-.1875.3125-.246094.121094-.0625.257813-.09375.40625-.09375.128907 0 .230469.015625.304688.039063.078125.027343.132812.050781.164062.074219l-.097656.195312c-.117187-.070312-.25-.105469-.382812-.101562-.113282 0-.214844.027343-.304688.078124-.089844.054688-.167968.125-.230468.207032-.0625.085937-.109376.179687-.144532.285156-.03125.101562-.046875.207031-.046875.3125 0 .316406.136719.476562.414063.476562.058594 0 .113281-.003906.160156-.011718.046875-.007813.085938-.019532.125-.027344.035156-.011719.066406-.023438.09375-.039062l.074219-.03125.03125.203124c-.019531.011719-.046875.023438-.078125.039063-.035156.011719-.074219.027344-.113282.035156-.101562.027344-.203124.039063-.308593.039063zm.660156-.035156.410156-1.699219h1.003907l-.046876.199219h-.769531l-.121093.511718h.683593l-.046875.195313h-.683594l-.144531.59375h.828125l-.046875.199219zm2.128906-1.714844c.199219 0 .347657.039062.449219.113281s.152344.183594.152344.328125c0 .109375-.023438.207031-.0625.285156-.042969.082032-.105469.152344-.179688.203125-.078125.050781-.171875.089844-.277344.113281-.121093.027344-.242187.039063-.363281.039063h-.167969l-.15625.632813h-.238281l.40625-1.675782c.070313-.015625.144531-.027344.21875-.03125.070313-.003906.144531-.007812.21875-.007812zm-.03125.199218c-.117187 0-.1875.003907-.210937.011719l-.160156.671875h.152343c.070313 0 .140625-.003906.210938-.015625.074219-.015625.136719-.035156.195312-.066406.058594-.03125.105469-.074219.140625-.128906.039063-.0625.058594-.136719.058594-.210938 0-.09375-.035156-.160156-.105469-.199219-.070312-.042968-.160156-.0625-.28125-.0625zm2.085938-.183593-.046875.199219h-.511719l-.363281 1.5h-.238282l.363282-1.5h-.515625l.046875-.199219zm-.21875 1.699219.40625-1.699219h1.007812l-.046875.199219h-.769531l-.125.511718h.683594l-.042969.195313h-.683594l-.144531.59375h.828125l-.046875.199219zm2.121093-1.714844c.253907 0 .445313.058594.566407.175781.125.121094.1875.28125.1875.480469 0 .140625-.019531.273437-.066407.40625-.042968.128906-.113281.242187-.207031.34375-.097656.101562-.222656.183594-.355469.238281-.144531.058594-.320312.085937-.523437.085937-.066406 0-.140625-.003906-.222656-.007812-.070313-.007812-.140625-.019531-.210938-.035156l.394531-1.648438c.070313-.015625.144532-.027344.21875-.03125.078126-.003906.152344-.007812.21875-.007812zm-.019531.199218c-.121093 0-.195312.003907-.21875.011719l-.316406 1.308594c.011719 0 .035156.003906.066406.007813.03125 0 .082031.003906.152344.003906.128906 0 .246094-.023438.351563-.066406.105468-.042969.191406-.101563.265624-.179688.074219-.082031.128907-.175781.167969-.277344.039063-.105468.058594-.222656.058594-.351562 0-.144532-.042969-.253906-.125-.335938-.085937-.078125-.21875-.121094-.402344-.121094zm2.613281 1.515626h-.238281l.1875-.789063h-.789062l-.1875.789063h-.238281l.40625-1.699219h.238281l-.171875.710937h.789062l.175782-.710937h.238281zm.375 0 .410157-1.699219h1.007812l-.046875.199219h-.773437l-.121094.511718h.683594l-.046875.195313h-.679688l-.144531.59375h.824219l-.046875.199219zm2.128907-1.714844c.183593 0 .328125.035156.433593.109375.105469.074219.160157.183593.160157.324219 0 .144531-.042969.261718-.125.359374-.085938.097657-.203125.167969-.355469.210938.019531.035156.039062.078125.066406.132812.0625.121094.113282.246094.164063.375.027343.070313.046875.136719.066406.203126h-.242187c-.023438-.0625-.046876-.125-.070313-.191407-.023437-.0625-.050781-.121093-.074219-.183593-.046875-.101563-.09375-.203126-.148437-.300782-.042969.003906-.085938.007813-.128907.007813h-.1875l-.160156.667969h-.238281l.402344-1.675782c.070312-.015625.140625-.027344.21875-.03125s.152343-.007812.21875-.007812zm-.027344.199218c-.117187 0-.1875.003907-.214844.011719l-.152343.640625h.144531c.066406 0 .136719-.003906.207031-.015625.070312-.007812.132812-.027343.191406-.054687s.105469-.070313.144532-.121094c.035156-.050781.054687-.121094.054687-.203125 0-.09375-.035156-.160156-.105469-.199219-.070312-.039062-.160156-.058594-.269531-.058594zm.640625 1.515626.40625-1.699219h1.007812l-.046874.199219h-.769532l-.125.511718h.683594l-.046875.195313h-.679687l-.144532.59375h.824219l-.046875.199219zm0 0" fill="#4d4d4d"/><path d="m7.691406 13.738281c-1.8125 0-3.28125-1.464843-3.28125-3.265625 0-1.800781 1.46875-3.265625 3.28125-3.265625s3.28125 1.464844 3.28125 3.265625c0 1.800782-1.46875 3.265625-3.28125 3.265625zm1.445313-3.730469c.066406-.433593-.265625-.667968-.722657-.824218l.148438-.589844-.359375-.089844-.144531.574219c-.09375-.023437-.191406-.046875-.289063-.066406l.144531-.578125-.359374-.089844-.144532.589844c-.078125-.019532-.15625-.035156-.230468-.054688l-.496094-.125-.097656.382813s.265624.0625.261718.066406c.144532.035156.171875.128906.167969.207031l-.167969.671875c.011719 0 .023438.003907.039063.011719l-.039063-.011719-.234375.941407c-.019531.042968-.066406.109374-.167969.082031.003907.007812-.261718-.0625-.261718-.0625l-.179688.410156.46875.117187c.089844.019532.175782.042969.257813.066407l-.148438.59375.359375.089843.148438-.589843c.097656.027343.191406.050781.285156.074219l-.144531.585937.359375.089844.148437-.59375c.613281.113281 1.074219.066406 1.269531-.484375.15625-.445313-.007812-.703125-.332031-.871094.238281-.050781.414063-.207031.460938-.523438zm-.820313 1.148438c-.113281.445312-.867187.203125-1.109375.144531l.199219-.789062c.242188.058593 1.023438.179687.910156.644531zm.109375-1.15625c-.101562.40625-.726562.199219-.929687.148438l.179687-.714844c.203125.050781.855469.144531.75.566406zm0 0" fill="#f7931a"/></g></svg>