<svg viewBox="0 0 40 24" xmlns="http://www.w3.org/2000/svg"><path d="m28 12c0 4.417969-3.582031 8-8 8s-8-3.582031-8-8 3.582031-8 8-8 8 3.582031 8 8zm0 0" fill="#8dc451"/><path d="m22.21875 11.433594c.164062-.324219.230469-.714844.160156-1.121094-.226562-1.285156-1.03125-1.933594-2.152344-1.738281l-.269531-1.539063c-.011719-.054687-.058593-.09375-.109375-.085937l-.535156.09375c-.050781.011719-.082031.0625-.074219.117187l.273438 1.539063-.71875.128906-.269531-1.539063c-.011719-.058593-.058594-.097656-.109376-.089843l-.535156.097656c-.050781.007813-.078125.058594-.070312.113281l.269531 1.542969-1.523437.269531c-.046876.007813-.078126.058594-.070313.117188l.109375.613281c.011719.058594.058594.097656.105469.089844l.089843-.015625c.398438-.070313.78125.238281.863282.695312l.578125 3.28125c.078125.429688-.148438.832032-.507813.933594-.039062.007812-.0625.046875-.066406.089844l-.027344.644531c0 .03125.011719.058594.03125.082031.023438.023438.050782.03125.078125.027344l1.5-.261719.269531 1.542969c.011719.054688.058594.089844.105469.082031l.539063-.09375c.050781-.007812.082031-.0625.070312-.121093l-.269531-1.539063.714844-.125.273437 1.542969c.011719.054687.058594.089844.105469.082031l.539063-.09375c.050781-.007813.078124-.0625.070312-.117187l-.269531-1.539063.355469-.066406c1.121093-.195313 1.65625-1.082031 1.429687-2.367188-.105469-.597656-.484375-1.066406-.953125-1.273437zm-3.207031-1.375 1.074219-.1875c.394531-.070313.78125.242187.859374.695312.082032.453125-.175781.875-.570312.945313l-1.074219.191406zm2.15625 3.851562-1.433594.253906-.289063-1.640624 1.433594-.253907c.394532-.070312.78125.242188.859375.695313.082031.453125-.175781.875-.570312.945312zm0 0" fill="#fff"/></svg>