<svg viewBox="0 0 40 24" xmlns="http://www.w3.org/2000/svg"><path d="m9.960938 5.0625h.664062v5.949219h-.664062zm-1.726563 0h.660156v5.949219h-.660156zm6.851563 0h1.792968v5.949219h-1.792968zm9.167968 0h.898438v5.949219h-.894532v-5.949219zm2.195313 0h.898437v5.949219h-.898437zm3.589843 0h1.152344v5.949219h-1.152344zm-1.296874 0h.371093v5.949219h-.371093zm-6.03125 0h.375v5.949219h-.375zm-.796876 0h.371094v5.949219h-.371094zm-2.59375 0h.375v5.949219h-.375zm-5.957031 0h.375v5.949219h-.375zm-1.097656 0h.691406v5.949219h-.691406zm-4.03125 13.558594v-6.117188h2.296875c.464844 0 .839844.058594 1.121094.183594.285156.125.503906.316406.664062.574219.160156.253906.242188.523437.242188.808593 0 .257813-.074219.503907-.214844.734376-.15625.246093-.378906.4375-.640625.5625.371094.105468.65625.292968.851563.554687.199218.261719.300781.570313.300781.925781 0 .289063-.0625.554688-.183594.800782-.101563.222656-.253906.417968-.449219.566406-.175781.132812-.398437.234375-.667968.304687-.324219.074219-.65625.109375-.988282.101563zm.8125-3.546875h1.324219c.355468 0 .613281-.023438.769531-.070313.183594-.046875.347656-.15625.464844-.304687.109375-.15625.164062-.347657.15625-.535157.003906-.191406-.046875-.378906-.144531-.539062-.097657-.152344-.246094-.265625-.417969-.316406-.179688-.058594-.492188-.085938-.929688-.085938h-1.222656zm0 2.828125h1.523437c.261719 0 .445313-.007813.550782-.027344.1875-.035156.34375-.089844.46875-.167969.132812-.085937.238281-.203125.308594-.34375.082031-.148437.121093-.320312.121093-.515625 0-.226562-.058593-.425781-.175781-.597656-.117188-.167969-.289062-.292969-.488281-.355469-.207031-.066406-.503907-.101562-.894531-.101562h-1.414063zm4.542969-1.5c0-.816406.226562-1.425782.683594-1.820313.382812-.324219.847656-.488281 1.394531-.488281.609375 0 1.105469.199219 1.492187.597656.386719.398438.582032.945313.582032 1.648438 0 .570312-.085938 1.019531-.257813 1.34375-.167969.324218-.425781.589844-.746094.761718-.328125.179688-.695312.273438-1.070312.269532-.617188 0-1.121094-.199219-1.503907-.59375-.382812-.398438-.574218-.972656-.574218-1.71875zm.769531.003906c0 .566406.125.992188.371094 1.273438.25.28125.5625.421874.9375.421874s.683593-.140624.933593-.425781c.246094-.28125.371094-.714843.371094-1.292969 0-.546874-.125-.960937-.375-1.242187-.230468-.273437-.570312-.429687-.929687-.421875-.375 0-.6875.136719-.9375.417969-.246094.28125-.371094.703125-.371094 1.269531zm4.246094 2.214844v-6.117188h.75v6.117188zm4.9375-1.433594.777343.101562c-.121093.453126-.347656.800782-.679687 1.050782-.328125.25-.75.375-1.265625.375-.644531 0-1.15625-.199219-1.535156-.597656-.378906-.398438-.570313-.957032-.570313-1.675782 0-.742187.191407-1.320312.574219-1.730468.382812-.414063.878906-.617188 1.492188-.617188.589843 0 1.070312.199219 1.445312.601562.375.402344.5625.96875.5625 1.699219l-.003906.199219h-3.300782c.03125.488281.167969.859375.414063 1.117188.238281.253906.574219.398437.921875.386718.277344 0 .511719-.070312.707031-.214844.195313-.148437.347657-.378906.460938-.699218zm-2.460938-1.207031h2.46875c-.03125-.371094-.128906-.652344-.28125-.839844-.226562-.28125-.570312-.441406-.929687-.433594-.34375 0-.632813.117188-.867188.347657-.234375.230468-.363281.539062-.390625.925781zm5.820313 1.96875.101562.664062c-.183594.042969-.375.066407-.566406.070313-.269531 0-.480469-.042969-.632812-.128906-.148438-.089844-.253907-.203126-.316407-.34375-.058593-.140626-.089843-.4375-.089843-.886719v-2.554688h-.554688v-.582031h.554688v-1.097656l.75-.449219v1.546875h.753906v.582031h-.753906v2.597657c0 .214843.015624.351562.039062.414062.027344.0625.070312.113281.128906.148438.078125.039062.167969.058593.257813.050781l.328125-.027344zm.460937-1.546875c0-.816406.226563-1.425782.683594-1.816406.378906-.328126.84375-.492188 1.390625-.492188.609375 0 1.109375.199219 1.496094.597656.386718.398438.578125.945313.578125 1.648438 0 .570312-.085938 1.019531-.253907 1.34375-.167968.324218-.429687.589844-.75.761718-.324218.179688-.695312.273438-1.066406.269532-.621094 0-1.121094-.199219-1.507812-.59375-.382813-.398438-.570313-.972656-.570313-1.71875zm.765625.003906c0 .566406.125.992188.371094 1.273438.25.28125.5625.421874.941406.421874.371094 0 .683594-.140624.929688-.425781.25-.28125.375-.714843.375-1.292969 0-.546874-.125-.960937-.375-1.242187-.230469-.273437-.574219-.429687-.929688-.421875-.378906 0-.691406.136719-.941406.417969-.246094.28125-.371094.703125-.371094 1.269531zm0 0" fill="#221f1f"/></svg>