<svg viewBox="0 0 40 24" xmlns="http://www.w3.org/2000/svg"><path d="m20 4.71875c4.019531 0 7.28125 3.261719 7.28125 7.28125s-3.261719 7.28125-7.28125 7.28125-7.28125-3.261719-7.28125-7.28125c.011719-4.015625 3.265625-7.269531 7.28125-7.28125zm0 0" fill="#fe0000"/><path d="m22.871094 17.40625-3.742188-4.460938v2.398438c0 .800781-.652344 1.453125-1.453125 1.453125s-1.453125-.652344-1.453125-1.453125v-6.464844c0-.800781.652344-1.449218 1.453125-1.449218s1.453125.648437 1.453125 1.449218v1.113282l1.910156-2.128907c.53125-.59375 1.445313-.65625 2.050782-.136719.285156.257813.460937.617188.484375 1.003907.019531.382812-.113281.761719-.375 1.046875l-1.597657 1.695312 3.375 4c1.785157-2.542968 1.386719-6.019531-.929687-8.089844-2.316406-2.070312-5.816406-2.082031-8.144531-.023437s-2.746094 5.53125-.976563 8.082031c1.769531 2.554688 5.171875 3.378906 7.914063 1.917969zm0 0" fill="#fff"/></svg>