<svg viewBox="0 0 40 24" xmlns="http://www.w3.org/2000/svg"><path d="m7.574219 10.253906c-.230469 0-.253907-.082031-.253907-.667968v-.097657c0-.589843.023438-.667969.253907-.667969h5.285156c.234375 0 .253906.078126.253906.664063v.101563c0 .585937-.023437.667968-.253906.667968zm0-2.582031c-.230469 0-.253907-.078125-.253907-.664063v-.101562c0-.589844.023438-.667969.253907-.667969h5.285156c.234375 0 .253906.078125.253906.667969v.101562c0 .585938-.023437.664063-.253906.664063zm.789062 7.664063c0-.972657.476563-1.503907 1.1875-1.503907.269531 0 .484375.078125.753907.210938.097656.050781.175781.03125.304687-.273438l.09375-.207031c.09375-.25.097656-.351562-.011719-.40625-.332031-.195312-.84375-.316406-1.28125-.316406-1.257812 0-2.210937.996094-2.210937 2.496094s.953125 2.496093 2.207031 2.496093c.441406 0 .964844-.121093 1.296875-.316406.109375-.054687.101563-.160156.011719-.40625l-.089844-.21875c-.128906-.304687-.210938-.320313-.308594-.273437-.269531.132812-.496094.210937-.765625.210937-.710937 0-1.183593-.519531-1.183593-1.492187zm14.980469 2.265624c0 .132813-.046875.167969-.421875.167969h-.035156c-.394531 0-.449219-.019531-.480469-.113281-.019531-.066406-.035156-.132812-.050781-.199219-.207031.246094-.457031.378907-.839844.378907-.925781 0-1.484375-.679688-1.484375-1.773438 0-1.179688.621094-1.882812 1.539062-1.882812.261719 0 .5.082031.683594.226562v-1.535156c0-.101563.011719-.144532.527344-.144532h.035156c.480469 0 .527344.042969.527344.144532zm-1.089844-2.332031c-.128906-.140625-.308594-.21875-.496094-.21875-.414062 0-.609374.355469-.609374 1.011719 0 .378906.082031.617188.195312.742188.105469.128906.265625.171874.417969.171874.191406 0 .339843-.046874.40625-.136718.058593-.066406.085937-.167969.085937-.40625zm6.65625 2.355469c0 .101562-.046875.144531-.527344.144531h-.035156c-.515625 0-.527344-.042969-.527344-.144531v-4.753906c0-.101563.011719-.144532.527344-.144532h.035156c.480469 0 .527344.042969.527344.144532zm-3.839844-1.265625c.058594.433594.332032.640625.753907.640625.324219 0 .632812-.074219.988281-.226562.074219-.027344.140625 0 .21875.242187l.058594.136719c.078125.246094.070312.304687-.015625.351562-.421875.234375-.863281.332032-1.355469.332032-1.085938 0-1.765625-.660157-1.765625-1.789063 0-1.101563.625-1.867187 1.699219-1.867187 1.0625 0 1.605468.753906 1.605468 1.800781 0 .34375-.027343.378906-.152343.378906zm1.097657-.671875c-.019531-.363281-.164063-.679688-.527344-.679688-.3125 0-.542969.234376-.582031.679688zm4.441406.671875c.0625.433594.332031.640625.753906.640625.324219 0 .632813-.074219.988281-.226562.074219-.027344.140626 0 .222657.242187l.054687.136719c.078125.246094.070313.304687-.011718.351562-.425782.234375-.867188.332032-1.359376.332032-1.082031 0-1.761718-.660157-1.761718-1.789063 0-1.101563.621094-1.867187 1.695312-1.867187 1.0625 0 1.609375.753906 1.609375 1.800781 0 .34375-.03125.378906-.15625.378906zm1.097656-.671875c-.019531-.363281-.164062-.679688-.527343-.679688-.3125 0-.539063.234376-.582032.679688zm-13.417969-.394531c-.113281-.148438-.289062-.234375-.472656-.234375-.410156 0-.609375.355468-.609375.992187 0 .542969.148438.941407.59375.941407.167969 0 .289063-.042969.375-.128907.082031-.082031.113281-.199219.113281-.453125zm1.101563 2.308593c0 .132813-.046875.167969-.421875.167969h-.050781c-.390625 0-.445313-.019531-.476563-.113281-.019531-.066406-.039062-.132812-.050781-.199219-.207031.246094-.457031.378907-.839844.378907-.890625 0-1.460937-.667969-1.460937-1.757813 0-1.214844.707031-1.898437 1.542968-1.898437.335938 0 .628907.140624.789063.34375l.019531-.152344c.003906-.074219.023438-.121094.429688-.121094h.042968c.417969 0 .476563.027344.476563.140625zm-5.117187-4.378906c.410156 0 .433593.007813.433593.140625v.886719h.707031c.097657 0 .128907.015625.128907.351562v.046876c0 .335937-.03125.355468-.128907.355468h-.707031v1.589844c0 .265625.046875.40625.292969.40625.128906 0 .242188-.023438.351562-.0625.117188-.042969.160157.011719.238282.292969l.019531.066406c.085937.304687.058594.328125-.050781.382813-.21875.101562-.515625.15625-.789063.15625-.871093 0-1.117187-.4375-1.117187-1.195313v-1.636719h-.410156c-.105469 0-.132813-.023437-.132813-.355468v-.046876c0-.335937.027344-.351562.132813-.351562h.460937c.046875-.285156.132813-.6875.1875-.886719.03125-.117187.050781-.140625.382813-.140625zm-2.28125 1.027344c.476562 0 .519531.042969.519531.144531v3.230469c0 .109375-.042969.144531-.519531.144531h-.03125c-.527344 0-.539063-.035156-.539063-.144531v-3.230469c0-.101562.011719-.144531.539063-.144531zm-.03125-1.578125c.34375 0 .59375.265625.59375.570313-.003907.152343-.066407.296874-.179688.402343-.109375.109375-.261719.164063-.414062.160157-.34375 0-.597657-.265626-.597657-.5625 0-.304688.253907-.570313.597657-.570313zm0 0" fill="#ee293d"/></svg>