<svg viewBox="0 0 40 24" xmlns="http://www.w3.org/2000/svg"><path d="m0 0h40v24h-40z" fill="#582e87"/><path d="m12.058594 7.550781c-1.113282 0-2.019532.910157-2.019532 1.921875 0 .910156.707032 1.921875 2.019532 1.921875 1.207031 0 2.015625-1.011719 2.015625-1.921875 0-1.011718-.90625-1.921875-2.015625-1.921875zm0 3.234375c-.808594 0-1.3125-.605468-1.3125-1.3125 0-.707031.503906-1.316406 1.3125-1.316406.804687 0 1.308594.609375 1.308594 1.316406 0 .707032-.605469 1.3125-1.3125 1.3125zm2.621094-4.246094h.707031v4.753907h-.707031zm1.714843 0h.707031v4.753907h-.707031zm13.621094 1.011719c-1.109375 0-2.019531.910157-2.019531 1.921875 0 .910156.707031 1.921875 2.019531 1.921875 1.210937 0 2.015625-1.011719 2.015625-1.921875 0-1.011718-.90625-1.921875-2.015625-1.921875zm0 3.234375c-.808594 0-1.3125-.605468-1.3125-1.3125 0-.707031.503906-1.316406 1.3125-1.316406.804687 0 1.308594.609375 1.308594 1.316406 0 .707032-.601563 1.3125-1.308594 1.3125zm3.328125-2.726562v-.304688h-.605469v3.742188h.707031v-2.023438c0-.503906.199219-.808594.402344-.910156s.40625-.101562.503906-.101562v-.910157c-.199218 0-.707031 0-1.007812.507813zm-25.324219.199218c.507813 0 .808594.203126 1.113281.609376l.503907-.507813c-.40625-.503906-1.011719-.808594-1.617188-.808594-1.109375 0-2.015625.910157-2.015625 1.921875 0 .910156.707032 1.921875 2.015625 1.921875.707031 0 1.210938-.304687 1.617188-.808593l-.503907-.40625c-.203124.304687-.605468.605468-1.113281.605468-.804687 0-1.308593-.605468-1.308593-1.3125 0-.605468.503906-1.214844 1.3125-1.214844zm15.941407 0c.503906 0 .808593.203126 1.109374.609376l.503907-.40625c-.402344-.503907-.90625-.808594-1.613281-.808594-1.109376 0-2.015626.910156-2.015626 1.921875 0 .910156.703126 1.921875 2.015626 1.921875.707031 0 1.210937-.304688 1.613281-.808594l-.503907-.40625c-.199218.304688-.605468.605469-1.109374.605469-.804688 0-1.3125-.605469-1.3125-1.3125 0-.710938.503906-1.316407 1.3125-1.316407zm-4.238282-.707031c-1.007812 0-1.914062.808594-1.914062 1.921875 0 1.011719.804687 1.921875 1.914062 1.921875.503906 0 1.3125-.304687 1.714844-1.113281h-.703125c-.203125.304688-.507813.503906-.910156.503906-.503907 0-1.007813-.300781-1.210938-1.007812h3.027344v-.304688c-.101563-1.113281-1.007813-1.921875-1.917969-1.921875zm-1.210937 1.71875c0-.503906.507812-1.113281 1.210937-1.113281.707032 0 1.113282.507812 1.210938 1.113281zm8.777343-2.730469h-.703124v1.113282h-.605469v.707031h.605469v3.035156h.703124v-3.035156h.605469v-.707031h-.605469zm-18.863281 6.976563c-.503906 0-.910156.203125-1.3125.507813v-1.417969h-.605469v4.753906h.707032v-.40625c.300781.304687.804687.507813 1.3125.507813 1.210937 0 2.015625-1.011719 2.015625-1.921876-.101563-1.113281-.90625-2.023437-2.117188-2.023437zm0 3.238281c-.808593 0-1.3125-.609375-1.3125-1.316406s.503907-1.3125 1.3125-1.3125c.804688 0 1.3125.605469 1.3125 1.3125s-.507812 1.316406-1.3125 1.316406zm6.355469-1.316406v-1.820312h-.707031v.40625c-.300781-.304688-.808594-.507813-1.3125-.507813-1.109375 0-2.015625.910156-2.015625 1.921875 0 .910156.707031 1.921875 2.015625 1.921875.503906 0 1.011719-.203125 1.3125-.507813v.40625h.707031zm-2.019531 1.316406c-.804688 0-1.308594-.609375-1.308594-1.316406s.503906-1.3125 1.308594-1.3125c.808593 0 1.3125.605469 1.3125 1.3125s-.503907 1.316406-1.3125 1.316406zm4.339843-3.238281c-.101562 0-.707031 0-1.109374.507813v-.40625h-.605469v3.742187h.707031v-2.023437c0-.707032.402344-1.109376 1.007812-1.109376.90625 0 .90625.90625.90625 1.109376v2.023437h.707032v-2.222656c0-.40625-.101563-.710938-.203125-.914063-.332031-.445312-.855469-.707031-1.410157-.707031zm2.21875-1.011719h.707032v2.53125l1.410156-1.417968h.808594l-1.613282 1.617187 1.714844 2.023437h-.808594l-1.511718-1.921874v1.921874h-.707032zm0 0" fill="#fff"/></svg>