<svg viewBox="0 0 40 24" xmlns="http://www.w3.org/2000/svg"><path d="m23.042969 9.601562-.148438-.152343c-.246093-.238281-.335937-.613281-.230469-.953125.0625-.269532.210938-.511719.421876-.691406.136718-.136719.300781-.242188.476562-.3125.15625-.0625.324219-.101563.492188-.117188h.96875c.210937-.003906.421874.050781.609374.152344.03125.03125.082032.03125.113282 0 .121094-.09375.269531-.140625.417968-.132813h2.179688c.074219-.011719.152344-.011719.230469 0 .113281.035157.203125.125.246093.238281.027344.105469.027344.21875 0 .320313l-.113281.722656-.125.855469c0 .078125 0 .097656.074219.097656h1.773438c.160156-.003906.316406.070313.421874.203125h.089844c.089844-.070312.1875-.125.296875-.167969.089844-.03125.1875-.046874.285157-.042968h1.941406c.140625-.015625.285156-.015625.425781 0 .140625 0 .261719.105468.289063.257812.027343.085938.027343.183594 0 .273438-.066407.144531-.15625.277344-.238282.417968l-.445312.765626-.140625.242187-.238281.417969c-.121094.203125-.230469.417968-.351563.621094-.125.207031-.222656.410156-.347656.605468-.121094.195313-.246094.4375-.375.652344-.132813.210938-.15625.273438-.230469.417969l-.4375.746093-.304688.535157c-.121093.203125-.230468.417969-.351562.613281-.125.195312-.246094.445312-.386719.667969-.140625.222656-.105469.1875-.164062.285156-.152344.230469-.394531.367187-.65625.371094h-2.320313c-.132812.007812-.261718-.0625-.335937-.175781l-.074219.097656c-.0625.082031-.160156.128906-.261719.125h-2.875c-.097656-.027344-.195312-.027344-.289062 0-.148438.007812-.296875.007812-.445313 0h-2.382812c-.082032-.03125-.175782-.03125-.261719 0-.082031.011718-.164063.011718-.246094 0h-3.074219c-.109374-.007813-.21875-.007813-.328124 0-.238282.015625-.476563.015625-.714844 0h-.757813c-.085937.003906-.171875-.035156-.222656-.105469-.054687-.074219-.078125-.171875-.054687-.261719 0-.203125.066406-.410156.097656-.621094.019531-.070312.019531-.144531 0-.214843 0-.050781 0-.0625-.074219 0l-.269531.257812c-.082032.082031-.179688.144531-.273438.222657-.253906.199218-.53125.363281-.820312.5-.238282.082031-.480469.152343-.722656.203124-.195313.070313-.398438.121094-.601563.160157-.269531.054687-.550781.089843-.820313.109375h-1.042968c-.449219 0-.898438-.03125-1.339844-.101563-.246094-.023437-.484375-.082031-.714844-.167969-.214844-.09375-.425781-.203124-.625-.328124-.234375-.148438-.441406-.339844-.609375-.5625-.121093-.160157-.210937-.339844-.269531-.53125-.03125-.175782-.03125-.351563 0-.527344.019531-.175782.0625-.34375.128906-.507813l.4375-1.171875c0-.097656.082032-.199218.125-.304687v-.070313c.023438-.035156.023438-.082031 0-.117187-.289062-.273438-.53125-.597657-.714844-.949219-.15625-.300781-.265624-.617188-.332031-.945312-.082031-.246094-.148437-.5-.195312-.757813-.019531-.277344-.003907-.558594.046875-.835937.050781-.253907.121094-.503907.207031-.746094.097656-.265625.21875-.515625.371094-.746094.207031-.332031.457031-.632812.746093-.890625.109376-.09375.226563-.179687.347657-.257813.203125-.148437.425781-.269531.65625-.367187.265625-.113281.539062-.203125.820312-.265625.140625 0 .28125-.070312.429688-.089844.269531-.042968.546875-.070312.820312-.078125.140625.007813.28125.007813.417969 0 .113281-.007812.226562-.007812.339844 0 .351562-.003906.707031.019531 1.058594.070313.347656.042968.691406.113281 1.027343.210937.230469.078125.460938.164063.683594.269531.082031.050782.164063.113282.246094.175782l.449219.304687.289062.230469c.117188.097656.226562.199219.328125.3125.265625.269531.488281.578125.664063.914062.144531.285157.257812.582032.347656.890626.0625.191406.113281.386718.148437.589843v.050781h.046875l.058594-.0625c.265625-.296874.589844-.53125.953125-.691406.425781-.179687.894531-.230468 1.347656-.152344.105469.011719.214844.011719.320313 0h3.648437zm0 0" fill="#361910"/><path d="m21.480469 16.089844c.027343-.011719.046875-.03125.058593-.054688-.074218-.042968-.082031-.007812-.066406.0625zm0 0" fill="#fff"/><path d="m10.675781 8.988281c.175781-.019531.355469-.019531.535157 0 .117187.015625.230468.042969.34375.078125.144531.058594.289062.121094.425781.195313.203125.105469.390625.242187.550781.410156.140625.148437.261719.316406.371094.488281.03125.050782.054687.105469.074218.160156.070313.167969.136719.339844.1875.519532.027344.09375.046876.1875.058594.285156.007813.121094.007813.246094 0 .371094.019532.285156.003906.566406-.046875.847656-.035156.167969-.085937.332031-.148437.488281-.175782.429688-.414063.828125-.714844 1.183594-.195312.222656-.421875.417969-.667969.578125-.125.085938-.261719.15625-.402343.214844-.324219.136718-.691407.136718-1.019532 0-.234375-.078125-.386718-.324219-.359375-.589844.011719-.238281.074219-.46875.179688-.683594.097656-.214844.179687-.425781.261719-.648437l.371093-.9375c.113281-.300781.230469-.59375.328125-.886719.042969-.136719.097656-.257812.132813-.402344.015625-.085937-.007813-.175781-.066407-.238281l-.082031-.082031c-.160156-.140625-.34375-.25-.542969-.320313-.121093-.046875-.25-.082031-.378906-.105469-.136718-.011718-.273437-.011718-.410156 0h-.320312c-.179688-.007812-.34375.117188-.402344.300782-.097656.28125-.203125.5625-.320313.835937-.117187.277344-.042969 0-.066406 0-.03125-.046875-.058594-.097656-.082031-.148437-.050782-.121094-.082032-.246094-.097656-.375-.003907-.066406-.003907-.132813 0-.195313 0-.148437.042968-.292969.113281-.417969.128906-.226562.316406-.417968.542969-.542968.207031-.117188.433593-.207032.667968-.257813.210938-.0625.425782-.101562.648438-.117187.109375-.007813.222656-.011719.335937-.007813zm2.382813 2.667969c.007812-.0625.007812-.125 0-.1875-.011719-.171875-.039063-.34375-.074219-.515625-.050781-.253906-.144531-.496094-.277344-.71875-.347656-.621094-.976562-.996094-1.644531-.988281-.167969-.015625-.335938-.015625-.5 0-.152344.019531-.304688.0625-.445312.125h-.082032l.476563.078125c.28125.058593.558593.148437.820312.269531.109375.050781.207031.113281.3125.175781.15625.082031.289063.203125.386719.355469.007812.035156.007812.074219 0 .109375.023438.089844.023438.191406 0 .28125l-.066406.199219c-.113282.371094-.261719.726562-.394532 1.09375-.128906.363281-.269531.675781-.402343 1.015625-.074219.183593-.148438.371093-.230469.558593-.089844.1875-.144531.394532-.15625.605469-.011719.144531.054688.285157.175781.363281.035157.027344.082031.027344.121094 0 .246094-.105468.472656-.25.675781-.425781.242188-.210937.453125-.457031.621094-.730469.101562-.164062.195312-.339843.28125-.515624.074219-.136719.128906-.285157.171875-.433594.101563-.230469.179687-.472656.230469-.722656zm6.320312.453125c-.003906.214844-.066406.425781-.179687.605469-.085938.152344-.222657.261718-.386719.3125-.164062.0625-.347656.03125-.476562-.078125-.109376-.101563-.171876-.238281-.183594-.382813-.03125-.308594.074218-.613281.28125-.839844.113281-.125.273437-.195312.433594-.195312.113281-.011719.226562.023438.3125.097656.101562.089844.164062.210938.183593.347656.011719.042969.015625.089844.015625.132813zm-2.546875 3.980469c.007813.011718.007813.03125 0 .042968v.382813c0 .125 0 .097656-.089843.097656-.148438 0-.132813 0-.09375-.140625l.109374-.292968c.015626-.035157.042969-.066407.074219-.089844zm6.710938-.011719v.464844c0 .117187 0 .0625-.054688.070312h-.117187s-.046875 0 0-.050781c0-.027344 0-.054688 0-.082031l.140625-.355469zm-3.113281.011719c.011718.148437.011718.300781 0 .453125 0 .054687 0 .070312-.066407.070312h-.113281s-.042969 0 0-.0625c.027344-.101562.0625-.203125.105469-.300781.015625-.058594.042969-.113281.074219-.160156zm0 0" fill="#361910"/><path d="m10.085938 17.683594c-.222657.011718-.445313.011718-.667969 0-.324219-.027344-.644531-.101563-.945313-.222656l-.113281-.046876c-.292969-.113281-.566406-.265624-.824219-.445312-.105468-.097656-.207031-.203125-.292968-.320312-.054688-.066407-.105469-.136719-.148438-.210938-.0625-.101562-.113281-.210938-.148438-.320312-.046874-.140626-.0625-.289063-.050781-.4375.023438-.195313.078125-.382813.15625-.558594.140625-.394532.289063-.785156.445313-1.175782.058594-.152343.113281-.304687.171875-.464843.011719-.007813.015625-.023438.015625-.039063s-.003906-.03125-.015625-.039062c-.066407-.054688-.125-.113282-.179688-.179688-.160156-.152344-.308593-.316406-.4375-.496094 0-.0625-.074219-.117187-.113281-.171874-.121094-.199219-.21875-.414063-.289062-.640626-.058594-.167968-.105469-.339843-.140626-.515624 0-.152344-.046874-.300782-.0625-.453126-.019531-.152343 0-.203124 0-.3125-.011718-.125-.011718-.25 0-.371093.027344-.304688.097657-.605469.203126-.890625.058593-.164063.121093-.328125.199218-.480469.144532-.289063.332032-.554687.550782-.792969.148437-.171875.304687-.332031.476562-.480468.125-.105469.265625-.195313.410156-.277344.179688-.101563.367188-.1875.558594-.265625l.402344-.132813c.171875-.046875.34375-.097656.515625-.132812.175781-.039063.394531-.054688.59375-.0625.195312-.011719.394531 0 .589843 0h.394532c.246094.011718.492187.042968.734375.085937.1875.039063.375.089844.558593.152344.15625.054687.3125.113281.457032.179687.160156.078126.3125.167969.460937.265626.238281.148437.46875.3125.683594.5.199219.175781.386719.371093.550781.585937.21875.269531.398438.570313.535156.890625.113282.285156.203126.585938.269532.890625.054687.25.097656.507813.125.765625.015625.230469.015625.46875 0 .703125v.605469c-.019532.242187-.0625.484375-.125.71875-.078125.378906-.1875.75-.320313 1.113281-.101562.234375-.210937.46875-.335937.691406-.160156.292969-.347656.566407-.566406.8125-.125.132813-.238282.273438-.363282.410157-.246094.261718-.523437.492187-.820312.691406-.183594.117187-.375.222656-.570313.3125-.335937.183594-.691406.324218-1.058593.417968-.339844.082032-.6875.136719-1.035157.160157zm0 0" fill="#f1db32"/><path d="m10.675781 8.988281c-.113281-.003906-.226562 0-.335937.007813-.226563.007812-.449219.042968-.667969.097656-.230469.054688-.457031.140625-.664063.257812-.226562.128907-.414062.316407-.542968.542969-.074219.128907-.113282.273438-.113282.417969-.003906.066406-.003906.132812 0 .195312.011719.128907.046876.257813.097657.375.019531.054688.046875.105469.082031.152344h.066406c.113282-.277344.222656-.554687.320313-.835937.058593-.1875.222656-.308594.402343-.304688h.3125c.136719-.007812.273438-.007812.410157 0 .128906.023438.253906.058594.378906.109375.195313.066406.378906.175782.542969.316406l.082031.082032c.066406.0625.09375.164062.074219.257812 0 .132813-.09375.265625-.132813.402344-.101562.296875-.210937.59375-.328125.886719l-.320312.960937c-.082032.214844-.171875.4375-.265625.652344-.105469.210938-.167969.445312-.179688.683594-.023437.265625.125.511718.363281.589844.324219.136718.691407.136718 1.019532 0 .140625-.058594.273437-.128907.402344-.214844.242187-.183594.457031-.398438.640624-.640625.300782-.355469.539063-.753907.714844-1.183594.0625-.15625.113282-.320313.148438-.488281.050781-.28125.066406-.5625.046875-.847656.007812-.125.007812-.25 0-.375-.011719-.09375-.03125-.1875-.054688-.28125-.054687-.179688-.117187-.351563-.191406-.519532-.019531-.054687-.042969-.109375-.074219-.160156-.105468-.171875-.230468-.335938-.367187-.488281-.164063-.15625-.355469-.28125-.5625-.375-.132813-.058594-.273438-.113281-.417969-.160157-.113281-.035156-.226562-.0625-.34375-.078124-.179688-.03125-.359375-.042969-.542969-.035157zm0 0" fill="#361910"/><path d="m20.199219 14.753906h-.664063c-.101562.011719-.203125-.023437-.273437-.097656-.046875-.050781-.066407-.117188-.054688-.1875v-.214844c0-.050781 0 0-.042969 0l-.261718.199219c-.226563.167969-.488282.285156-.765625.34375-.34375.0625-.695313.027344-1.019531-.105469-.234376-.101562-.441407-.257812-.597657-.460937-.179687-.230469-.304687-.492188-.371093-.777344-.058594-.25-.082032-.507813-.066407-.761719.011719-.195312.039063-.390625.074219-.582031v-.183594c.074219-.292969.183594-.574219.328125-.839843.136719-.230469.300781-.445313.484375-.640626.351562-.375.804688-.617187 1.292969-.691406.238281-.035156.480469-.035156.722656 0 .246094.035156.476563.148438.648437.328125.042969.042969.078126.089844.105469.140625v-.015625c.03125-.234375.21875-.402343.4375-.390625h1.3125c.0625-.019531.128907-.019531.191407 0 .105468.0625.160156.1875.140624.308594 0 .222656-.066406.445312-.109374.679688-.039063.230468-.082032.566406-.128907.886718-.09375.472656-.148437.953125-.230469 1.433594 0 .230469-.066406.472656-.117187.703125-.046875.230469-.066406.390625-.097656.585937-.035157.207032-.203125.351563-.394531.347657h-.542969zm0 0" fill="#f1db32"/><path d="m19.378906 12.085938c.019532-.179688-.046875-.359376-.179687-.480469-.085938-.078125-.199219-.113281-.3125-.097657-.167969 0-.328125.070313-.4375.195313-.207031.226563-.308594.527344-.277344.835937.007813.148438.074219.285157.179687.382813.136719.113281.316407.140625.476563.078125.160156-.046875.296875-.15625.386719-.308594.105468-.171875.160156-.375.164062-.582031zm0 0" fill="#361910"/><path d="m30.191406 11.390625.207032-.328125.484374-.75c.050782-.09375.113282-.183594.179688-.265625.105469-.121094.246094-.199219.394531-.214844.15625-.007812.3125-.007812.46875 0h1.109375c.050782.007813.097656.039063.121094.085938.023438.050781.019531.105469-.003906.15625l-.058594.105469c-.15625.25-.289062.515624-.445312.765624l-.210938.375-.484375.886719c-.199219.347657-.386719.695313-.59375 1.035157-.207031.335937-.261719.472656-.410156.703124-.148438.230469-.15625.285157-.238281.425782l-.410157.703125-.289062.507812-.558594.960938-.289063.5c-.113281.207031-.324218.332031-.550781.328125h-1.4375c-.0625.003906-.125-.03125-.152343-.089844-.03125-.058594-.03125-.128906.003906-.1875 0-.078125.074218-.160156.125-.230469.050781-.070312.230468-.398437.335937-.597656l.4375-.753906c.089844-.160157.171875-.3125.261719-.464844s.207031-.382813.320312-.558594c.105469-.167969.160157-.363281.15625-.5625.007813-.050781.007813-.105469 0-.160156 0-.132813-.058593-.273437-.097656-.410156-.035156-.117188-.066406-.242188-.089844-.363281-.050781-.199219-.097656-.398438-.140624-.597657-.042969-.195312-.058594-.222656-.074219-.335937-.015625-.117188 0-.109375-.042969-.160156l-.203125-.890626-.125-.515624c-.035156-.125-.0625-.253907-.082031-.382813-.007813-.066406.007812-.132813.046875-.1875.039062-.050781.097656-.085937.160156-.089844h1.378906c.082031-.007812.160157-.007812.238281 0 .15625.023438.285157.144531.320313.3125 0 .152344.058594.3125.089844.472657l.125.675781c0 .035156.007812.066406.023437.097656zm-4.535156 3.363281h-.730469c-.042969.011719-.089843.011719-.132812 0-.117188-.050781-.179688-.191406-.140625-.320312 0-.195313.058594-.390625.09375-.597656.054687-.355469.121094-.71875.171875-1.074219.046875-.355469.128906-.835938.195312-1.253907.066407-.421874.179688-1.050781.265625-1.585937.046875-.3125.105469-.613281.152344-.890625.050781-.277344.117188-.667969.164062-1.003906.035157-.222656.207032-.386719.414063-.394532h1.488281c.109375.023438.195313.121094.203125.242188.007813.066406.007813.136719 0 .203125-.082031.492187-.15625.972656-.238281 1.460937-.113281.648438-.203125 1.300782-.320312 1.949219-.09375.539063-.179688 1.078125-.253907 1.621094-.074219.53125-.140625.835937-.214843 1.253906v.089844c-.027344.210937-.195313.367187-.394532.363281h-.714844zm-2.746094 0h-.722656c-.101562.003906-.199219-.058594-.246094-.152344-.015625-.050781-.015625-.105468 0-.160156.011719-.128906.03125-.253906.058594-.382812 0-.132813 0-.257813.058594-.390625l.089844-.515625.148437-.933594c.046875-.3125.089844-.625.15625-.890625.0625-.265625.082031-.507813.121094-.765625 0-.105469 0-.222656.050781-.328125.023438-.167969.132812-.304687.277344-.355469.058594-.011718.117187-.011718.171875 0h1.398437c.109375-.007812.207032.050782.253906.148438.027344.074218.027344.152344 0 .222656 0 .089844 0 .1875-.039062.277344l-.199219 1.246094-.253906 1.59375c-.058594.34375-.105469.691406-.164063 1.039062-.011718.140625-.082031.265625-.195312.347656-.066406.042969-.140625.0625-.214844.0625h-.75zm.796875-5.171875c-.171875 0-.347656-.046875-.5-.132812-.203125-.109375-.347656-.316407-.394531-.558594-.015625-.09375-.015625-.1875 0-.277344.03125-.207031.125-.402343.261719-.558593.121093-.125.261719-.226563.414062-.304688.1875-.097656.402344-.152344.613281-.152344.320313-.023437.628907.128906.824219.402344.085938.121094.128907.273438.121094.425781-.003906.300781-.128906.582031-.351563.785157-.195312.1875-.441406.320312-.707031.382812-.09375.007812-.1875.003906-.28125-.011719zm-5.066406 6.453125c.039063-.074218.070313-.15625.097656-.238281.046875-.136719.097657-.269531.140625-.402344.023438-.109375.117188-.183593.21875-.175781h.429688c.089844 0 .121094 0 .113281.140625s0 .167969 0 .25l-.261719 1.554687c-.003906.089844-.074218.160157-.15625.160157h-.261718c-.085938 0-.109376 0-.117188-.132813-.003906-.074218-.003906-.148437 0-.222656l.050781-.300781c.007813-.015625.007813-.039063 0-.054688-.015625.027344-.03125.054688-.042969.082031l-.128906.398438c-.019531.058594-.042968.117188-.074218.167969-.027344.046875-.074219.074219-.125.074219h-.15625c-.082032 0-.105469 0-.121094-.117188-.007813-.09375-.007813-.191406 0-.285156v-.308594c-.023438.085938-.039063.175781-.050782.265625 0 .097656 0 .195313-.050781.292969-.046875.097656-.082031.1875-.195312.179687h-.214844c-.097656 0-.132813-.054687-.113281-.160156l.113281-.695313.140625-.890624v-.195313c0-.097656.058594-.132813.148438-.144531.152343-.007813.304687-.007813.457031 0 .042969 0 .082031.015625.105469.046875.027343.03125.042968.074219.035156.113281v.605469c.007812 0 .011718-.003907.015625-.007813zm6.285156.410156v.054688l-.066406.398438c0 .097656 0 .195312-.058594.292968-.007812.082032-.074219.140625-.148437.132813h-.253906c-.03125.003906-.066407-.007813-.085938-.035157-.019531-.027343-.027344-.0625-.019531-.097656v-.257812l.15625-.953125c0-.195313.066406-.390625.097656-.578125.03125-.183594.066406-.160156.179687-.160156h.207032c.105468 0 .148437.074218.132812.171874-.03125.179688-.058594.359376-.082031.542969-.007813.035157-.007813.070313 0 .105469 0-.070312.070313-.125.097656-.179688.023438-.050781.164063-.320312.238281-.480468.035157-.097656.132813-.160156.238282-.148438h.246094c.089843 0 .113281.0625.074218.132813l-.082031.160156c-.117187.210937-.207031.425781-.328125.632813-.023438.050781-.023438.113281 0 .167968l.097656.480469.074219.355469v.054687c0 .070313 0 .097657-.082031.105469h-.3125c-.082032.003906-.15625-.0625-.164063-.152344l-.132812-.710937zm-3.140625.878907h-.484375c-.15625 0-.148437-.070313-.140625-.183594-.003906-.074219-.003906-.144531 0-.214844.011719-.0625.039063-.121093.074219-.167969l.609375-.890624s.050781-.054688 0-.089844 0-.019532 0-.019532h-.335938c-.058593 0-.082031 0-.082031-.105468.003907-.109375.023438-.222656.046875-.328125.015625-.066407.074219-.113281.140625-.105469h1.050781c.089844 0 .132813 0 .117188.132812-.011719.101563-.027344.203126-.050781.300782-.019531.058594-.050781.113281-.089844.160156l-.460937.648438c-.046876.074218-.097657.160156-.15625.234374-.054688.070313 0 0 0 .042969s0 0 .042968 0h.378906c.070313 0 .105469 0 .105469.117188-.007812.113281-.027343.226562-.058593.335937 0 .082032-.089844.097656-.15625.097656h-.515626l-.035156.039063zm-4.816406-2.097657h.207031c.035157-.003906.070313.011719.09375.035157.023438.027343.039063.0625.039063.097656v1.816406c0 .097657 0 .140625-.125.140625h-.296875c-.054688 0-.105469-.039062-.113281-.097656v-.152344c-.03125-.007812-.066407-.007812-.097657 0h-.148437c-.042969-.003906-.082032.023438-.089844.0625v.0625c-.023438.085938-.101562.144532-.191406.144532h-.238282c-.089843 0-.121093-.046876-.089843-.144532.070312-.203125.140625-.40625.222656-.605468.082031-.195313.238281-.648438.363281-.976563l.097656-.242187c.023438-.078126.105469-.132813.1875-.125h.191407l-.007813-.015626zm0 0" fill="#f1db32"/><path d="m16.832031 16.117188c-.019531.027343-.035156.054687-.042969.085937l-.105468.296875c-.050782.132812-.058594.132812.089844.140625.074218 0 .089843 0 .089843-.097656v-.382813c.011719-.011718.011719-.03125.003907-.046875-.007813-.015625-.019532-.023437-.035157-.023437zm0 0" fill="#361910"/><path d="m23.675781 15.234375h.199219c.105469 0 .144531 0 .152344.152344.011718.152343 0 .238281 0 .363281v1.433594c0 .1875 0 .152344-.136719.152344h-.253906c-.101563 0-.140625 0-.148438-.152344v-.0625c-.003906-.027344-.027343-.042969-.050781-.042969h-.230469c-.027343 0-.046875.019531-.058593.042969v.089844c-.027344.074218-.097657.125-.179688.125h-.277344c-.074218 0-.109375-.054688-.09375-.132813 0-.039063 0-.078125 0-.117187.132813-.339844.257813-.675782.378906-1.023438.125-.347656.171876-.453125.253907-.683594.023437-.089844.109375-.152344.199219-.144531zm0 0" fill="#f1db32"/><path d="m23.542969 16.078125-.136719.359375c-.003906.023438-.003906.050781 0 .078125v.054687h.082031c.054688 0 .054688 0 .054688-.070312v-.347656c0-.117188.042969-.027344 0-.074219zm0 0" fill="#361910"/><path d="m20.914062 15.761719v1.402343c.003907.03125.003907.0625 0 .089844-.007812.058594-.054687.101563-.105468.097656h-.296875c-.089844 0-.132813-.070312-.140625-.167968-.007813-.097656 0-.089844-.082032-.089844h-.089843c-.042969 0-.078125.03125-.089844.070312-.03125.132813-.15625.21875-.277344.1875h-.214843c-.074219 0-.089844 0-.082032-.105468-.003906-.03125-.003906-.058594 0-.089844.105469-.285156.222656-.570312.320313-.890625.097656-.320313.214843-.578125.320312-.886719.023438-.105468.113281-.179687.214844-.171875h.375c.125 0 .148437.054688.148437.160157 0 .109374.007813.25 0 .394531zm0 0" fill="#f1db32"/><path d="m20.429688 16.105469c-.03125.050781-.058594.105469-.074219.160156-.042969.101563-.078125.199219-.105469.304687v.0625h.113281c.050781 0 .058594 0 .066407-.070312.015624-.160156.015624-.316406 0-.472656zm0 0" fill="#361910"/><path d="m15.269531 17.324219h-.097656c-.109375 0-.148437-.042969-.132813-.167969.015626-.125 0-.222656.058594-.335938l.058594-.3125c.015625-.082031.015625-.167968 0-.25-.050781-.195312-.09375-.382812-.140625-.578124l-.074219-.320313c0-.089844 0-.132813.089844-.132813h.238281c.082031.003907.152344.066407.164063.152344l.058594.230469v.0625c0 .007813 0 0 .039062-.046875.042969-.042969.109375-.167969.15625-.257812.042969-.101563.144531-.167969.253906-.167969h.214844c.097656 0 .125.042969.074219.140625l-.164063.285156-.402344.722656c-.007812.039063-.007812.078125 0 .117188l-.105468.640625v.058593c-.011719.082032-.074219.140626-.148438.136719h-.140625zm10.683594.011719h-.109375c-.050781 0-.097656-.046876-.097656-.109376-.003906-.035156-.003906-.070312 0-.105468l.164062-.980469.109375-.675781c-.003906-.03125-.003906-.0625 0-.097656.007813-.070313.066407-.121094.136719-.125.097656-.003907.191406-.003907.289062 0 .066407 0 .097657 0 .089844.125-.007812.125-.046875.367187-.082031.554687l-.164063.996094c0 .085937 0 .1875-.050781.273437 0 .042969-.019531.082032-.046875.109375-.03125.027344-.070312.039063-.109375.035157zm0 0" fill="#f1db32"/></svg>