<svg viewBox="0 0 40 24" xmlns="http://www.w3.org/2000/svg"><path d="m0 0h40v24h-40z" fill="#d8232a"/><path d="m26.007812 8.398438c-.097656.042968-2.203124 3.445312-2.203124 3.445312l.164062-3.445312h-4.542969s-.230469 2.039062-.289062 2.988281c-.214844-1.085938-1.894531-2.988281-4.226563-2.988281h-6.511718v8h6.828124c1.269532 0 2.453126-.824219 3.175782-2.015626.257812-.441406.460937-.894531.636718-1.363281-.089843 1.089844-.132812 2.277344-.25 3.378907 1.546876-.011719 4.785157 0 4.785157 0 .027343-1.359376.1875-4.195313.1875-4.195313l2.710937 4.195313h5.925782c-1.128907-1.355469-2.292969-2.957032-3.289063-4.417969l.011719-.0625c1.046875-1.1875 2.121094-2.449219 3.277344-3.519531zm-14.28125 5.335937v-2.660156c.863282.066406 3.113282-.046875 3.113282 1.328125s-2.253906 1.289062-3.113282 1.332031zm0 0" fill="#fff"/></svg>