<svg viewBox="0 0 40 24" xmlns="http://www.w3.org/2000/svg"><path d="m8.726562 11.710938c0 1.035156-.570312 1.542968-1.851562 1.542968h-2.007812v-3.863281h1.945312c1.542969 0 1.914062.730469 1.914062 1.527344zm.824219-.03125v-.660157c0-2.109375-1.714843-2.191406-2.863281-2.191406h-2.652344v5h2.878906c2.265626 0 2.636719-1.191406 2.636719-2.148437zm4.488281.914062c0 .289062-.027343.554688-.371093.675781-.199219.074219-.488281.097657-.964844.097657-.480469 0-.765625-.042969-.933594-.148438-.117187-.070312-.164062-.183594-.164062-.425781 0-.300781.078125-.46875.226562-.539063.148438-.070312.335938-.082031.921875-.082031h1.285156zm.777344 1.234375v-1.964844c0-.371093 0-.628906-.03125-.816406-.039062-.195313-.105468-.335937-.265625-.453125-.378906-.285156-1.300781-.292969-1.753906-.292969-.34375 0-1.277344.039063-1.621094.324219-.117187.09375-.144531.207031-.144531.34375 0 .089844.015625.207031.019531.367188h.761719c.011719-.089844.03125-.304688.117188-.390626.101562-.09375.277343-.132812.796874-.132812.597657 0 1.011719.019531 1.1875.113281.160157.085938.15625.277344.15625.421875v.339844h-1.753906c-.472656 0-1.015625.011719-1.316406.410156-.136719.167969-.195312.390625-.195312.671875 0 .832031.527343 1.109375 1.875 1.109375.699218 0 1.160156-.109375 1.441406-.339844l.070312.289063zm4.695313 0v-1.914063c0-.660156-.03125-.800781-.195313-.917968-.15625-.113282-.464844-.183594-.941406-.183594-.414062 0-.84375.050781-1.242188.15625v2.859375h-.773437v-3.5h.695313l.050781.25c.15625-.082031.273437-.144531.433593-.1875.261719-.074219.585938-.113281 1.019532-.113281.492187 0 .875.074218 1.167968.203125.285157.117187.441407.34375.5.609375.039063.183594.058594.339844.058594.734375v2.003906zm5.726562-.214844c-.355469.175781-.941406.25-1.699219.25-.523437 0-.960937-.035156-1.296874-.125-.363282-.082031-.542969-.246093-.5625-.546875-.015626-.15625 0-.296875.019531-.484375h.746093c.023438.175781.023438.234375.03125.269531.027344.164063.011719.253907.214844.316407.191406.054687.503906.082031.902344.082031.492188 0 .835938-.050781 1.0625-.152344.160156-.070312.238281-.195312.238281-.433594 0-.277343-.058593-.390624-.355469-.433593-.089843-.019531-.183593-.019531-.28125-.027344-.050781-.003906-.21875-.003906-.492187-.011719-.128906 0-.277344-.011718-.453125-.019531-.773438-.035156-1.589844-.066406-1.589844-.941406 0-.796875.5-1.070313 1.875-1.070313.351563 0 .777344.023438 1.039063.054688.296875.039062.523437.089844.6875.175781.179687.101563.238281.257813.238281.535156 0 .078125 0 .152344-.011719.269531h-.753906l-.03125-.15625c-.039063-.1875-.050781-.226562-.117187-.269531-.109376-.082031-.441407-.121093-.90625-.121093-.46875 0-.734376.019531-.949219.097656-.199219.066406-.289063.191406-.289063.445312 0 .167969.0625.292969.148438.351563.199218.121093 1.261718.105469 1.625.113281.390625.007812.644531.039062.863281.113281.398437.132813.550781.382813.550781.894531 0 .410157-.132812.667969-.453125.824219zm4.761719.214844-1.863281-1.65625h-.269531v1.65625h-.777344v-5h.777344v2.847656h.273437l1.542969-1.347656h.90625l-1.796875 1.542969 2.238281 1.957031zm4.871094-2.089844h-2.484375c.027343-.441406.125-.636719.296875-.761719.183594-.125.515625-.1875 1-.1875.675781 0 .992187.144532 1.109375.445313.046875.125.078125.246094.078125.503906zm.714844.992188h-.765626c-.027343.109375-.039062.378906-.144531.480469-.113281.113281-.347656.164062-.972656.164062-.613281 0-.953125-.082031-1.128906-.253906-.128907-.125-.207031-.390625-.207031-.796875v-.09375h3.238281c.007812-.171875.019531-.214844.019531-.355469 0-.578125-.085938-.898438-.34375-1.144531-.292969-.296875-.855469-.441407-1.636719-.441407-.992187 0-1.601562.222657-1.851562.707032-.152344.277344-.234375.664062-.234375 1.152344 0 .761718.207031 1.238281.667968 1.476562.285157.152344.777344.238281 1.40625.246094.527344 0 .949219-.023438 1.40625-.15625.449219-.140625.558594-.386719.558594-.59375 0-.050782 0-.21875-.011718-.390625zm0 0" fill="#03426a"/></svg>