<svg viewBox="0 0 40 24" xmlns="http://www.w3.org/2000/svg"><path d="m0 0h40v24h-40z" fill="#fff"/><path d="m21.730469 19.171875c3.894531.019531 7.445312-3.203125 7.445312-7.125 0-4.285156-3.550781-7.25-7.445312-7.246094h-3.347657c-3.941406-.003906-7.183593 2.960938-7.183593 7.246094 0 3.921875 3.242187 7.144531 7.183593 7.125zm0 0" fill="#0079be"/><path d="m18.398438 5.394531c-3.601563 0-6.515626 2.945313-6.519532 6.578125.003906 3.632813 2.917969 6.578125 6.519532 6.578125 3.597656 0 6.515624-2.945312 6.515624-6.578125 0-3.632812-2.917968-6.578125-6.515624-6.578125zm-4.132813 6.578125c0-1.71875 1.050781-3.265625 2.652344-3.890625v7.78125c-1.601563-.625-2.652344-2.171875-2.652344-3.890625zm5.609375 3.890625v-7.78125c1.601562.625 2.65625 2.171875 2.652344 3.890625.003906 1.71875-1.050782 3.265625-2.652344 3.890625zm0 0" fill="#fff"/><path d="m21.730469 19.171875c3.894531.019531 7.445312-3.203125 7.445312-7.125 0-4.285156-3.550781-7.25-7.445312-7.246094h-3.347657c-3.941406-.003906-7.183593 2.960938-7.183593 7.246094 0 3.921875 3.242187 7.144531 7.183593 7.125zm0 0" fill="#0079be"/><path d="m18.398438 5.394531c-3.601563 0-6.515626 2.945313-6.519532 6.578125.003906 3.632813 2.917969 6.578125 6.519532 6.578125 3.597656 0 6.515624-2.945312 6.515624-6.578125 0-3.632812-2.917968-6.578125-6.515624-6.578125zm-4.132813 6.578125c0-1.71875 1.050781-3.265625 2.652344-3.890625v7.78125c-1.601563-.625-2.652344-2.171875-2.652344-3.890625zm5.609375 3.890625v-7.78125c1.601562.625 2.65625 2.171875 2.652344 3.890625.003906 1.71875-1.050782 3.265625-2.652344 3.890625zm0 0" fill="#fff"/></svg>