<svg viewBox="0 0 40 24" xmlns="http://www.w3.org/2000/svg"><g fill-rule="evenodd"><path d="m9.644531 24h30.355469v-10.519531s-10.71875 7.265625-30.355469 10.519531zm0 0" fill="#e6772f"/><path d="m7.316406 11.929688c-.300781.257812-.683594.367187-1.292968.367187h-.253907v-3.0625h.253907c.609374 0 .976562.105469 1.292968.375.324219.277344.519532.707031.519532 1.152344 0 .445312-.195313.890625-.519532 1.167969zm-1.105468-3.480469h-1.386719v4.632812h1.378906c.734375 0 1.265625-.167969 1.726563-.535156.554687-.4375.878906-1.097656.878906-1.78125 0-1.367187-1.066406-2.316406-2.597656-2.316406zm3.035156 0h.941406v4.632812h-.941406zm3.25 1.777343c-.566406-.199218-.734375-.332031-.734375-.585937 0-.289063.296875-.511719.707031-.511719.28125 0 .515625.109375.761719.375l.492187-.617187c-.394531-.335938-.898437-.519531-1.421875-.515625-.855469 0-1.507812.570312-1.507812 1.324218 0 .640626.300781.96875 1.1875 1.277344.371093.121094.558593.207032.65625.261719.1875.117187.28125.285156.28125.476563 0 .378906-.3125.65625-.734375.65625-.449219 0-.8125-.214844-1.027344-.621094l-.609375.566406c.433594.609375.957031.882812 1.675781.882812.980469 0 1.667969-.628906 1.667969-1.523437 0-.738281-.316406-1.070313-1.394531-1.445313m1.695312.539063c0 1.363281 1.117188 2.421875 2.554688 2.421875.40625 0 .753906-.078125 1.183594-.273438v-1.0625c-.378907.363282-.710938.507813-1.140626.507813-.953124 0-1.625-.660156-1.625-1.597656 0-.890625.695313-1.589844 1.582032-1.589844.449218 0 .789062.148437 1.183594.519531v-1.0625c-.414063-.203125-.753907-.285156-1.164063-.285156-1.429687 0-2.574219 1.078125-2.574219 2.421875m11.386719.792969-1.289063-3.109375h-1.03125l2.054688 4.75h.503906l2.09375-4.75h-1.019531zm2.761719 1.523437h2.675781v-.785156h-1.730469v-1.25h1.667969v-.785156h-1.667969v-1.027344h1.730469v-.785156h-2.675781zm4.523437-2.503906h-.277343v-1.398437h.292968c.589844 0 .902344.234374.902344.6875 0 .464843-.3125.710937-.917969.710937zm1.890625-.761719c0-.867187-.621094-1.367187-1.710937-1.367187h-1.402344v4.632812h.945313v-1.863281h.125l1.304687 1.863281h1.160156l-1.523437-1.953125c.710937-.136718 1.101562-.605468 1.101562-1.3125zm0 0" fill="#1a1919"/><path d="m23.390625 10.777344c0 1.335937-1.128906 2.417968-2.523437 2.417968-1.394532 0-2.523438-1.082031-2.523438-2.417968 0-1.332032 1.128906-2.414063 2.523438-2.414063 1.394531 0 2.523437 1.082031 2.523437 2.414063" fill="#e6772f"/></g></svg>