<svg viewBox="0 0 40 24" xmlns="http://www.w3.org/2000/svg"><path d="m0 0h40v24h-40z" fill="#007582"/><path d="m27.316406 15.347656h-2.011718v-2.988281h2.289062c1 0 1.695312.574219 1.695312 1.390625 0 .394531 0 1.597656-1.972656 1.597656zm-2.011718-6.296875h1.699218c.601563 0 1.050782.105469 1.332032.308594.183593.132813.429687.382813.429687 1.03125 0 1.160156-.894531 1.25-1.171875 1.25h-2.289062zm4.484374 5.765625c.140626-.304687.210938-.664062.210938-1.066406 0-.609375-.253906-1.160156-.71875-1.546875-.125-.101563-.257812-.191406-.398438-.261719l-.039062-.023437.03125-.027344c.273438-.246094.601562-.703125.601562-1.5 0-.726563-.246093-1.273437-.730468-1.621094-.410156-.296875-.980469-.441406-1.738282-.441406h-2.183593c-.125.003906-.230469.109375-.226563.234375v7.273438c0 .128906.101563.234374.226563.234374h2.492187c.785156 0 1.414063-.171874 1.867188-.507812.261718-.195312.46875-.449219.605468-.746094zm-7.117187 1.289063c.121094-.003907.21875-.101563.21875-.222657v-10.683593h-.710937v9.234375l-4.679688-6.070313c-.054688-.078125-.152344-.109375-.242188-.078125-.089843.027344-.152343.113282-.148437.210938v10.703125h.710937v-9.253907l4.675782 6.066407c.042968.058593.105468.089843.175781.09375zm-10.375-.757813h-1.585937v-6.296875h1.585937c.585937 0 1.402344.15625 1.992187.886719.628907.789062.675782 1.964844.675782 2.308594 0 .511718-.085938 1.476562-.675782 2.214844-.589843.734374-1.40625.886718-1.992187.886718zm2.539063-.429687c.730468-.910157.839843-2.066407.839843-2.671875 0-.515625-.082031-1.816406-.839843-2.761719-.316407-.398437-.730469-.707031-1.199219-.898437-.425781-.171876-.878907-.257813-1.339844-.253907h-2.066406c-.128907 0-.230469.105469-.230469.234375v7.269532c0 .128906.101562.234374.230469.234374h2.066406c.480469 0 .929687-.085937 1.339844-.253906.46875-.191406.882812-.5 1.199219-.898437zm0 0" fill="#fff"/></svg>