<svg viewBox="0 0 40 24" xmlns="http://www.w3.org/2000/svg"><path d="m0 0h40v24h-40z" fill="#fff"/><path d="m27.667969 12c0 4.234375-3.433594 7.667969-7.667969 7.667969s-7.667969-3.433594-7.667969-7.667969 3.433594-7.667969 7.667969-7.667969 7.667969 3.433594 7.667969 7.667969zm0 0" fill="#cba747"/><path d="m24.414062 11.003906c-.296874-1.753906-1.699218-2.648437-2.410156-2.878906-.710937-.226562-5.414062-.132812-5.414062-.132812-.105469.128906-.039063 1.898437-.039063 1.898437l1.070313-.003906.019531 1.355469h-.921875c-.03125 0-.058594.011718-.078125.03125-.019531.019531-.03125.046874-.03125.074218v1.339844c0 .058594.046875.105469.109375.105469h.9375c.003906.726562-.007812 1.304687-.035156 1.316406-.082032.03125-.949219-.046875-1.035156.015625-.082032.054688-.039063 1.101562-.039063 1.503906-.003906.398438.105469.382813.105469.382813 4.984375-.125 4.863281.332031 6.269531-.511719 1.40625-.839844 1.792969-2.742188 1.492187-4.496094zm-5.308593 3.097656v-1.324218l1.601562.019531c.058594 0 .109375-.046875.109375-.109375v-1.339844c0-.058594-.050781-.105468-.109375-.105468l-1.601562.003906v-1.480469s3.667969-.40625 3.667969 2.34375c0 2.644531-3.667969 1.992187-3.667969 1.992187zm0 0" fill="#fff"/></svg>