<svg viewBox="0 0 40 24" xmlns="http://www.w3.org/2000/svg"><path d="m0 0h40v24h-40z" fill="#f37421"/><path d="m13.707031 10.839844c-.359375-.390625-.898437-.59375-1.617187-.605469h-1.644532v4.746094h1.644532c.71875-.019531 1.257812-.222657 1.617187-.617188.371094-.378906.550781-.972656.550781-1.761719 0-.785156-.179687-1.367187-.550781-1.761718zm-.148437 2.625c-.050782.207031-.15625.402344-.304688.5625-.136718.148437-.320312.242187-.539062.316406-.214844.0625-.46875.097656-.773438.097656h-.847656v-3.601562h.847656c.304688 0 .558594.035156.769532.097656.222656.074219.40625.167969.542968.316406.136719.148438.242188.332032.304688.5625.066406.222656.105468.5.105468.828125 0 .320313-.03125.597657-.105468.820313zm-5.070313-.976563c-.277343-.40625-.617187-.765625-.921875-1.160156-.308594-.402344-.636718-.792969-.859375-1.25-.316406-.648437-.382812-1.550781.464844-2.15625l-2.519531 1.148437c-.570313.265626-.847656.730469-.835938 1.367188.011719.605469.265625 1.125.636719 1.582031.351563.433594.710937.855469 1.078125 1.273438l.074219.097656.011719.007813-.605469.277343-.421875.191407c-.761719.339843-1.027344.996093-.710938 1.816406.191406.488281.625.792968 1.132813.792968l.328125-.039062.011718-.011719c.113282-.039062.21875-.09375.316407-.160156.832031-.371094 1.660156-.75 2.480469-1.144531.539062-.265625.75-.753906.761718-1.339844.011719-.488281-.148437-.890625-.421875-1.292969zm-3.222656 3.671875-.253906.03125c-.390625 0-.71875-.234375-.867188-.617187-.265625-.667969-.0625-1.167969.5625-1.453125l.421875-.191406c.210938-.09375.425782-.199219.644532-.285157l.042968-.023437.222656.351562c.117188.222656.203126.488282.179688.785156-.03125.511719-.304688 1.136719-.953125 1.402344zm19.542969-4.492187c-.085938-.285157-.226563-.550781-.414063-.785157-.191406-.230468-.429687-.417968-.699219-.550781-.273437-.128906-.601562-.203125-.972656-.203125s-.699218.074219-.984375.203125c-.269531.132813-.507812.320313-.699219.550781-.1875.234376-.328124.5-.414062.785157-.09375.304687-.140625.617187-.136719.933593 0 .332032.042969.648438.136719.9375.085938.285157.226562.550782.414062.785157.1875.230469.425782.414062.699219.539062.285157.140625.613281.203125.984375.203125s.699219-.0625.972656-.203125c.273438-.125.511719-.308593.699219-.539062.1875-.234375.328125-.5.414063-.785157.09375-.289062.136718-.605468.136718-.9375 0-.328124-.042968-.636718-.136718-.933593zm-.75 1.53125c-.066406.199219-.148438.378906-.265625.550781-.117188.164062-.269531.296875-.445313.394531-.179687.09375-.402344.148438-.65625.148438s-.476562-.054688-.65625-.148438c-.179687-.097656-.335937-.230469-.457031-.394531-.117187-.167969-.203125-.355469-.253906-.550781-.054688-.210938-.082031-.421875-.085938-.636719 0-.214844.03125-.425781.085938-.628906.050781-.199219.148437-.390625.253906-.550782.121094-.164062.277344-.296874.457031-.394531.179688-.09375.402344-.148437.65625-.148437s.476563.054687.65625.148437c.179688.097657.328125.234375.445313.394531.113281.160157.199219.351563.265625.550782.054687.207031.082031.414062.082031.628906 0 .210938-.03125.421875-.082031.636719zm10.335937-2.964844h-.804687l-1.738282 4.171875h-2.148437v-4.171875h-.625v4.746094h3.386719l.574218-1.476563h1.917969l.484375 1.476563h.816406zm-1.21875 2.878906.878907-2.25.6875 2.25zm-12.625-2.867187-1.304687 4.746094h-.484375v-.011719h-.171875l-1.121094-3.9375-1.113281 3.949219h-.484375v-.011719h-.183594l-1.3125-4.746094h.488281v.011719h.179688l.996093 3.855468 1.070313-3.867187h.5625v.011719h.167969l1.082031 3.855468 1.003906-3.867187h.445313v.011719zm8.070313 4.160156v.574219h-3.101563v-4.746094h.699219v4.171875zm0 0" fill="#fff"/></svg>