<svg viewBox="0 0 40 24" xmlns="http://www.w3.org/2000/svg"><path d="m0 0h40v24h-40z" fill="#fff"/><path d="m35.535156 12.980469c.183594 0 .316406-.023438.398438-.066407.085937-.046874.125-.121093.125-.226562 0-.101562-.042969-.183594-.132813-.25-.089843-.0625-.238281-.132812-.445312-.210938-.117188-.042968-.230469-.089843-.34375-.144531-.097657-.046875-.191407-.109375-.273438-.179687-.074219-.070313-.136719-.15625-.179687-.25-.042969-.097656-.066406-.21875-.066406-.359375 0-.277344.101562-.492188.304687-.652344.203125-.15625.476563-.238281.824219-.238281.167968 0 .335937.015625.503906.050781.128906.023437.230469.050781.308594.074219.027344.011718.046875.042968.039062.074218l-.097656.4375c-.003906.015626-.015625.03125-.03125.039063s-.035156.011719-.050781.003906c-.203125-.074219-.421875-.113281-.636719-.109375-.140625 0-.257812.023438-.34375.070313-.085938.042969-.136719.128906-.132812.21875 0 .050781.007812.09375.027343.132812.019531.042969.050781.078125.085938.105469.042969.035156.097656.066406.167969.097656.066406.035156.152343.066406.25.101563.164062.0625.304687.121093.417968.179687.117188.0625.210938.128906.285156.203125.074219.074219.128907.160157.164063.253907.03125.097656.050781.210937.050781.34375 0 .289062-.105468.503906-.320312.652343-.210938.144531-.511719.21875-.90625.21875-.261719 0-.472656-.019531-.632813-.066406-.097656-.023437-.195312-.054687-.289062-.085937-.027344-.011719-.046875-.039063-.039063-.070313l.09375-.457031c.003906-.015625.015625-.03125.03125-.039063.015625-.011719.035156-.011719.050782-.003906.085937.03125.1875.0625.304687.09375.140625.039063.304687.054687.488281.054687zm-3.199218-3.300781.570312-.097657c.015625 0 .035156.003907.046875.015625.015625.011719.023437.027344.023437.046875v.769531c0 .035157.027344.0625.0625.0625h.941407c.03125 0 .058593.027344.058593.0625v.457032c0 .015625-.003906.03125-.015624.042968-.011719.011719-.027344.019532-.042969.019532h-.941407c-.015624 0-.035156.003906-.042968.015625-.011719.011719-.019532.027343-.019532.046875v1.15625c0 .242187.039063.414062.113282.519531.078125.101563.207031.152344.390625.152344.113281.003906.222656-.011719.332031-.039063.066406-.019531.121094-.035156.167969-.050781.015625-.007813.035156-.003906.050781.003906.015625.007813.027344.023438.027344.042969l.089844.429688c.007812.027343-.007813.058593-.035157.070312-.089843.03125-.175781.0625-.269531.085938-.148438.039062-.300781.058593-.457031.054687-.210938 0-.390625-.027344-.535157-.085937-.132812-.050782-.25-.136719-.339843-.25-.085938-.117188-.148438-.253907-.175781-.394532-.035157-.175781-.054688-.355468-.050782-.53125v-2.546875c0-.03125.019532-.054687.050782-.058593zm-3.289063.941406c0-.027344.019531-.050782.042969-.058594.128906-.035156.285156-.066406.476562-.097656.234375-.035156.472656-.050782.710938-.050782.242187 0 .449218.035157.613281.101563s.292969.160156.390625.28125.164062.265625.207031.433594c.039063.183593.058594.371093.058594.5625v1.621093c0 .019532-.007813.035157-.019531.046876-.011719.011718-.027344.015624-.042969.015624h-.570313c-.03125 0-.058593-.027343-.058593-.0625v-1.515624c0-.160157-.011719-.296876-.03125-.410157-.015625-.097656-.050781-.191406-.105469-.273437-.046875-.070313-.113281-.125-.191406-.15625-.097656-.035156-.199219-.050782-.300782-.046875-.09375 0-.183593.003906-.277343.015625-.0625.007812-.117188.015625-.160157.023437-.027343.003907-.050781.027344-.050781.058594v2.304687c0 .035157-.027343.0625-.0625.0625h-.566406c-.015625 0-.03125-.003906-.042969-.015624-.011718-.011719-.019531-.027344-.019531-.046876zm-1.488281 1.0625c.035156 0 .0625-.03125.0625-.066406-.003906-.070313-.019532-.140626-.039063-.207032-.023437-.082031-.0625-.15625-.117187-.222656-.050782-.0625-.117188-.113281-.1875-.148438-.085938-.039062-.175782-.058593-.265625-.054687-.1875-.007813-.363281.074219-.484375.214844-.054688.066406-.101563.144531-.128906.226562-.023438.058594-.039063.121094-.050782.183594-.003906.015625 0 .035156.011719.050781s.03125.023438.046875.023438zm-1.945313.308594c0-.265626.039063-.496094.117188-.695313s.183593-.363281.3125-.496094c.125-.128906.277343-.230469.445312-.296875.164063-.066406.339844-.101562.515625-.101562.414063 0 .734375.128906.964844.386718.230469.253907.347656.636719.347656 1.144532 0 .066406-.003906.136718-.007812.203125-.003906.03125-.03125.054687-.0625.054687h-1.847656c-.019532 0-.035157.007813-.046876.023438-.011718.011718-.015624.027344-.015624.046875.03125.207031.113281.371093.25.492187.148437.128906.367187.195313.652343.195313.167969 0 .320313-.015625.460938-.046875.089843-.015625.175781-.039063.261719-.070313.015624-.003906.035156-.003906.050781.007813.015625.007812.027343.023437.027343.042968l.074219.445313c.003907.027344-.011719.054687-.039062.066406-.035157.015625-.074219.027344-.113281.039063-.074219.023437-.148438.042968-.226563.058594-.085937.015624-.179687.03125-.277344.042968-.101562.011719-.203125.015625-.304687.015625-.261719 0-.492188-.039062-.683594-.117187-.183594-.070313-.347656-.179688-.480469-.324219-.128906-.144531-.226562-.3125-.28125-.496094-.0625-.199219-.09375-.410156-.09375-.621093zm-3.078125-.09375c0-.3125-.039062-.539063-.117187-.679688-.078125-.136719-.222657-.207031-.4375-.207031-.074219 0-.160157.003906-.25.015625-.0625.007812-.113281.015625-.15625.023437-.027344.003907-.050781.027344-.050781.058594v2.304687c0 .035157-.027344.0625-.0625.0625h-.566407c-.035156 0-.0625-.027343-.0625-.0625v-2.792968c0-.027344.019531-.050782.046875-.058594.125-.035156.285156-.066406.476563-.097656.226562-.035156.453125-.050782.683593-.050782.207032 0 .375.027344.507813.082032.113281.046875.210937.105468.292969.175781.019531.019531.050781.023437.074218.007813.105469-.066407.21875-.121094.335938-.164063.097656-.035156.195312-.0625.304688-.082031.058593-.011719.121093-.019532.183593-.019532.25-.003906.457031.03125.613281.101563.152344.066406.269532.160156.355469.28125.085938.121094.144531.265625.179688.433594.03125.1875.046875.375.046875.5625v1.621093c0 .019532-.007813.035157-.019532.046876-.011718.011718-.027343.015624-.042968.015624h-.566406c-.035157 0-.0625-.027343-.0625-.0625v-1.515624c0-.3125-.039063-.539063-.113282-.679688-.078125-.136719-.226562-.207031-.441406-.207031-.109375 0-.214844.015625-.316406.054687-.0625.019532-.121094.046875-.179688.078125-.023437.015625-.039062.042969-.027344.074219.023438.082031.039063.167969.046876.257812.011718.105469.019531.222657.019531.34375v1.59375c0 .035157-.027344.0625-.0625.0625h-.570313c-.015625 0-.03125-.003906-.042968-.015624-.011719-.011719-.019532-.027344-.019532-.046876zm-2.308594-1.421876c.039063 0 .070313.039063.058594.078126-.304687 1.109374-.65625 2.117187-1.054687 3.019531-.0625.152343-.144531.300781-.234375.441406-.070313.117187-.164063.21875-.269532.304687-.097656.082032-.207031.140626-.332031.175782-.140625.039062-.289062.058594-.4375.054687-.105469-.003906-.207031-.015625-.308593-.035156-.0625-.015625-.125-.03125-.183594-.054687-.027344-.011719-.042969-.039063-.035156-.070313l.097656-.4375c.003906-.019531.015625-.03125.03125-.039063.015625-.011718.03125-.011718.050781-.003906.113281.035156.230469.054688.34375.054688.179687 0 .316406-.042969.421875-.128906.09375-.082032.179688-.207032.253906-.371094.007813-.015625.007813-.035156-.003906-.054688-.222656-.4375-.429688-.890625-.613281-1.347656-.199219-.492188-.371094-.996094-.515625-1.503906-.003906-.019532 0-.039063.011718-.054688.011719-.015625.027344-.027344.046876-.027344h.609374c.027344 0 .054688.019532.058594.046876.035156.148437.078125.308593.128906.476562.117188.386719.246094.769531.390626 1.148438.050781.132812.101562.265624.152343.386718.023438.050782.097657.050782.117188-.003906.105469-.308594.203125-.621094.289062-.9375.101563-.367188.195313-.722656.277344-1.070312.007813-.027344.03125-.046876.0625-.046876zm-4.292968 2.511719c.144531.003907.292968-.003906.4375-.023437.027344-.003906.050781-.03125.050781-.0625v-.667969c0-.027344-.019531-.050781-.046875-.058594-.117188-.027343-.238281-.042969-.359375-.039062-.078125 0-.152344.003906-.234375.015625-.070312.011718-.140625.03125-.210938.0625-.058593.03125-.113281.074218-.148437.128906-.042969.0625-.0625.136719-.058594.210938 0 .164062.050781.277343.15625.339843.101563.0625.242188.09375.414063.09375zm-.054688-2.585937c.226563 0 .421875.03125.578125.085937.15625.058594.28125.140625.375.242188.089844.101562.160157.226562.199219.375.039062.148437.058594.308593.058594.484375v1.769531c0 .027344-.019532.054687-.046875.058594-.144531.027343-.289063.050781-.4375.074219-.214844.03125-.457031.046874-.726563.046874-.167968.003907-.332031-.015624-.492187-.050781-.136719-.027343-.265625-.085937-.378907-.164062-.109374-.078125-.191406-.179688-.25-.300781-.058593-.121094-.085937-.273438-.085937-.453126 0-.171874.03125-.316406.097656-.433593.066407-.121094.160157-.214844.273438-.289063.121093-.078125.257812-.132812.398437-.164062.234375-.046875.472656-.058594.710938-.03125.085937.007812.171875.023437.269531.046875v-.113281c0-.078126-.007813-.15625-.027344-.230469-.019531-.070313-.054687-.136719-.101562-.191407-.050781-.058593-.117188-.101562-.1875-.128906-.097657-.035156-.195313-.050781-.296875-.046875-.160156 0-.304688.011719-.441406.035157-.085938.015624-.171876.03125-.257813.058593-.015625.003907-.035156 0-.050781-.007812-.015625-.007813-.023438-.023438-.027344-.042969l-.066406-.4375c-.003906-.03125.015625-.058594.042968-.070312.28125-.078126.574219-.121094.871094-.121094zm-2.421875 1.589844c0-.308594-.070312-.550782-.207031-.722657-.140625-.171875-.363281-.257812-.671875-.257812-.070313 0-.136719.003906-.203125.007812-.054688.003907-.109375.011719-.164062.027344-.027344.003906-.046876.03125-.046876.058594v1.632812c0 .019531.011719.039063.03125.050781.054688.035157.125.070313.214844.101563.097656.035156.207032.054687.320313.054687.253906 0 .4375-.085937.554687-.257812.113282-.171875.171875-.40625.171875-.695312zm.710938-.011719c0 .230469-.03125.441406-.089844.628906-.050781.179687-.136719.347656-.253906.496094-.109375.136719-.253907.246093-.414063.320312-.175781.078125-.371094.117188-.5625.113281-.140625 0-.273437-.015624-.390625-.050781-.070312-.019531-.140625-.042969-.207031-.070312-.015625-.011719-.039062-.007813-.058594.003906-.015625.011719-.027344.03125-.027344.050781v1.003906c0 .035157-.027343.0625-.058593.0625h-.570313c-.015625 0-.03125-.007812-.042968-.019531-.011719-.011719-.019532-.027343-.019532-.042969v-3.851562c0-.03125.019532-.054688.046875-.0625.132813-.035156.289063-.066406.472657-.097656.21875-.035156.433593-.050782.652343-.050782.238281 0 .449219.035157.636719.109376.179688.070312.34375.175781.476562.3125.132813.136718.234376.300781.304688.492187.070312.195313.105469.410156.105469.652344zm0 0"/><path d="m7.304688 15.605469c.773437.0625 1.519531-.09375 1.992187-.417969.039063-.027344.074219-.058594.109375-.09375.03125-.03125.058594-.066406.085938-.097656.121093-.148438.210937-.304688.261718-.453125.015625-.050781.03125-.101563.039063-.15625l.003906-.019531c.007813-.046876.007813-.09375.007813-.144532 0-.035156-.007813-.070312-.015626-.105468-.101562.105468-.214843.207031-.332031.304687-.996093.820313-2.085937.882813-2.683593.835937-.199219-.015624-.398438-.046874-.59375-.097656-.460938-.132812-.859376-.339844-1.191407-.597656.199219.207031.421875.386719.667969.535156.464844.285156 1.035156.460938 1.648438.507813m-3.152344-5.558594c-.515625.480469-.84375 1.078125-.925782 1.675781-.007812.042969-.011718.089844-.015624.132813v.007812c-.003907.0625-.007813.128907-.007813.195313-.070313 2.023437 1.445313 3.742187 3.429687 3.886718l.027344.003907h.027344l.019531.003906c.011719 0 .023438 0 .035157.003906.71875.054688 1.382812-.0625 1.917968-.320312-.410156.117187-.882812.160156-1.367187.125-.636719-.050781-1.230469-.234375-1.714844-.53125-.949219-.582031-1.277344-1.363281-1.417969-1.699219l-.015625-.03125c-.222656-.488281-.316406-1.050781-.269531-1.667969l.003906-.078125h.003906c.109376-1.089844.78125-2.023437 1.695313-2.496094-.527344.164063-1.023437.433594-1.425781.789063m3.320312 1.226563c-.015625.21875-.144531.71875-.984375.652343-.027343 0-.058593-.003906-.085937-.007812.082031.207031.320312.574219.980468.625.804688.0625 1.390626-.496094 1.433594-1.058594.003906-.078125 0-.15625-.015625-.234375-.003906-.011719-.011719-.023438-.015625-.035156-.007812-.015625-.011718-.035156-.019531-.050782-.007813-.011718-.015625-.023437-.019531-.035156-.007813-.011718-.015625-.027344-.023438-.039062-.007812-.011719-.015625-.023438-.023437-.035156-.007813-.011719-.015625-.023438-.027344-.035157-.007813-.011719-.015625-.023437-.023437-.03125-.007813-.011719-.019532-.023437-.027344-.03125-.007813-.011719-.019532-.019531-.027344-.027343-.007812-.011719-.019531-.019532-.027344-.027344-.007812-.007813-.019531-.015625-.03125-.027344l-.027344-.019531c-.011718-.011719-.019531-.015625-.03125-.023438-.007812-.007812-.019531-.015625-.027343-.019531l-.035157-.019531c-.007812-.007813-.019531-.011719-.027343-.019531l-.03125-.015626c-.011719-.003906-.019531-.007812-.03125-.011718l-.03125-.015625-.0625-.023438-.03125-.007812c-.007813-.003907-.019531-.007813-.03125-.011719l-.027344-.007812-.027344-.003907-.03125-.007812-.027343-.003907-.027344-.007812-.046875-.003906h-.007813c-.0625-.007813-.125-.011719-.1875-.007813h-.035156c-.046875 0-.09375.003907-.136719.011719h-.015625c-.042968.007812-.085937.015625-.128906.023438l-.035156.007812c-.042969.011719-.089844.023438-.136719.039062l-.019531.003907c-.039063.015625-.078125.03125-.117188.046875l-.03125.011718-.015625.007813c.214844.058594.375.265625.359375.476563m-.214844 2.09375c-.046874-.003907-.09375-.011719-.140624-.019532v.003906c-1.28125-.175781-1.824219-.769531-2.050782-1.238281-.0625-.132812-.109375-.277343-.140625-.421875l-.003906-.03125-.003906-.023437c-.015625-.078125-.023438-.15625-.023438-.230469-.066406.179688-.105469.371094-.117187.5625-.089844 1.171875.773437 2.199219 1.925781 2.289062h.015625.019531.003907l.007812.003907c.066406.003906.128906.007812.195312.007812.839844-.109375 1.402344-.496093 1.777344-.949219.171875-.210937.320313-.445312.433594-.695312-.464844.554688-1.183594.835938-1.898438.742188m-1.039062-1.546876c.023438-.34375.171875-.679687.386719-.878906 0 0 .03125-.023437.039062-.03125.316407-.273437.773438-.433594 1.207031-.421875.058594 0 .117188.003907.171876.011719l.03125.007812c.019531 0 .039062.003907.054687.007813l.035156.007813c.015625.003906.03125.007812.046875.011718l.035156.007813.046876.015625.03125.011718c.015624.003907.03125.007813.042968.015626.011719.003906.023438.007812.03125.015624l.042969.015626c.007813.007812.019531.011718.03125.019531l.035156.019531.03125.019531.023438.011719c-.257813-.332031-.714844-.617188-1.417969-.667969-.835938-.066406-1.5625.265625-1.996094.914063-.035156.066406-.066406.171875-.078125.296875l-.003906.011719v.027343c-.003906.101563 0 .207031.015625.3125.023438.148438.066406.308594.148438.46875.175781.359375.554687.792969 1.363281 1.027344-.222657-.214844-.40625-.59375-.355469-1.257813m.863281-2.894531c-.082031-.003906-.164062-.007812-.246093-.011719h-.019532c-.058594 0-.113281 0-.167968 0l-.058594.003907c-.042969 0-.085938.003906-.125.003906-.035156.003906-.0625.007813-.09375.007813-.074219.007812-.144532.015624-.21875.023437l-.050782.007813c-.054687.007812-.105468.019531-.160156.027343l-.015625.003907c-1.035156.203124-1.859375.785156-2.355469 1.492187.640626-1.339844 2.03125-2.195313 3.613282-2.074219l.011718.003906h.019532l.078125.007813c.621093.0625 1.246093.324219 1.722656.71875l.019531.015625c.734375.617188 1.121094 1.5 1.050782 2.421875-.089844 1.21875-.921876 2.1875-2.070313 2.546875.285156-.164062.542969-.375.757813-.625.140624-.160156.261718-.332031.367187-.515625.394531-.664063.453125-1.230469.457031-1.289063.019532-.125.027344-.207031.027344-.222656.089844-1.175781-.824219-2.25-2.121094-2.496094-.0625-.007812-.175781-.023437-.25-.035156v-.003906l-.078125-.007812h-.050781c-.011719 0-.027344-.003907-.042969-.003907" fill="#e5353e"/></svg>