<svg viewBox="0 0 40 24" xmlns="http://www.w3.org/2000/svg"><path d="m0 0h40v24h-40z" fill="#fff"/><path d="m8.9375 8.460938h22.921875v7.085937h-22.921875zm0 0" fill="#fff"/><path d="m30.589844 4.800781h-20.378906c-.339844.003907-.667969.144531-.90625.386719-.238282.246094-.371094.574219-.367188.914062v2.359376h22.921875v-2.339844c.011719-.34375-.117187-.671875-.351563-.917969-.234374-.25-.558593-.394531-.902343-.402344h-.019531zm0 0" fill="#00b236"/><path d="m8.9375 17.878906c-.007812.34375.117188.671875.355469.917969.234375.25.558593.394531.902343.402344h20.394532c.339844-.003907.667968-.144531.90625-.386719.238281-.246094.371094-.574219.363281-.914062v-2.351563h-22.921875zm0 0" fill="#0095e3"/><path d="m9.519531 10.1875v3.390625h.6875v-1.480469h1.445313v-.65625h-1.445313v-.597656h1.46875v-.65625zm4.171875 2.90625v-1.09375c0-.367188-.1875-.828125-.988281-.828125-.253906-.003906-.507813.042969-.746094.132813v.597656c.195313-.121094.421875-.1875.65625-.183594.214844 0 .425781.070312.425781.324219-.121093-.042969-.25-.0625-.378906-.0625-.246094-.03125-.492187.042969-.675781.210937-.183594.164063-.28125.402344-.269531.648438-.003906.21875.085937.425781.25.570312.160156.144532.378906.210938.59375.1875.195312 0 .386718-.058594.542968-.175781.007813.054687.027344.109375.054688.15625h.679688c-.070313-.066406-.144532-.203125-.144532-.484375zm-1.328125-.324219c0-.1875.164063-.3125.394531-.3125.097657-.003906.195313.019531.285157.066407v.402343c-.097657.082031-.21875.128907-.347657.125-.214843 0-.332031-.121093-.332031-.28125zm15.402344.324219v-1.09375c0-.367188-.1875-.828125-.988281-.828125-.257813 0-.511719.046875-.75.136719v.601562c.199218-.125.425781-.1875.65625-.1875.21875 0 .429687.074219.429687.324219-.121093-.039063-.25-.058594-.378906-.058594-.242187-.035156-.488281.039063-.667969.203125-.183594.160156-.285156.394532-.28125.636719 0 .210937.085938.414063.242188.558594.152344.140625.363281.214843.574218.199219.195313.003906.386719-.058594.542969-.175782.007813.054688.027344.109375.054688.15625h.710937c-.085937-.054687-.144531-.191406-.144531-.472656zm-1.332031-.324219c0-.1875.160156-.3125.390625-.3125.097656-.003906.195312.019531.285156.066407v.402343c-.097656.082031-.21875.128907-.347656.125-.203125 0-.328125-.121093-.328125-.28125zm-9.863282-1.578125c-.257812-.019531-.507812.082032-.683593.273438-.148438-.179688-.371094-.28125-.601563-.273438-.222656-.007812-.4375.066406-.605468.214844v-.199219h-.601563v2.371094h.652344v-1.578125c.078125-.109375.207031-.175781.34375-.179688.191406 0 .308593.132813.308593.371094v1.398438h.664063v-1.621094c.078125-.105469.203125-.164062.335937-.160156.210938 0 .308594.148437.308594.371094v1.398437h.691406v-1.636719c.015626-.214844-.070312-.421875-.226562-.566406-.160156-.148438-.375-.214844-.585938-.183594zm2.316407-1.003906h.652343v3.390625h-.652343zm5.042969 1.054688-.863282-1.054688h-.710937v3.390625h.710937v-2.335937l.863282 1.136718.855468-1.136718v2.335937h.71875v-3.390625h-.71875zm-6.140626-.027344h.652344v2.363281h-.652344zm.320313-1.074219c-.234375 0-.421875.1875-.421875.417969 0 .234375.1875.421875.421875.421875.230469 0 .421875-.1875.421875-.421875 0-.230469-.191406-.417969-.421875-.417969zm10.636719 1.320313v-.246094h-.601563v2.371094h.652344v-1.488282c.113281-.144531.28125-.226562.464844-.230468.132812 0 .261719.042968.367187.121093v-.71875c-.09375-.058593-.203125-.085937-.3125-.085937-.222656-.007813-.4375.09375-.566406.277344zm2.257812 1.515624c-.203125 0-.28125-.15625-.28125-.335937v-.808594h.535156v-.601562h-.554687v-.910157l-.652344.277344v.597656h-.347656v.601563h.347656v.90625c0 .492187.199219.867187.777344.867187.148437.003907.292969-.015624.429687-.0625v-.625c-.070312.0625-.160156.097657-.253906.09375zm-10.683594 1.214844h.730469l1.097657-2.976562h-.710938l-.453125 1.277344-.492187-1.277344h-.742188l.898438 2.148437zm0 0" fill="#008cd6"/></svg>