<svg viewBox="0 0 40 24" xmlns="http://www.w3.org/2000/svg"><path d="m0 0h40v24h-40z" fill="#fff"/><path d="m28 12c0 4.417969-3.582031 8-8 8s-8-3.582031-8-8 3.582031-8 8-8 8 3.582031 8 8zm0 0" fill="#e2704d"/><path d="m17.867188 11.734375.089843-1.246094s.621094.089844.796875-.089843c.355469-.265626.355469-.796876.445313-1.066407.269531-1.242187 1.777343-1.953125 3.378906-1.507812l-.179687 1.242187s-.085938-.089844-.355469-.089844c-.976563-.085937-1.421875.179688-1.511719 1.511719h1.335938l-.179688.890625-2.132812 2.132813h1.246093c-1.066406 1.15625-2.488281 2.578125-3.378906 3.378906l1.15625-2.3125h-.976563c.886719-1.6875.886719-1.777344 1.507813-2.933594" fill="#fff"/></svg>