<svg viewBox="0 0 40 24" xmlns="http://www.w3.org/2000/svg"><path d="m0 0h40v24h-40z" fill="#fff"/><path d="m9.898438 6.238281h10.179687v11.867188h-10.179687zm0 0" fill="#fff"/><path d="m29.171875 5.601562h-18.476563c-.828124 0-1.496093.636719-1.496093 1.421876v10.351562c0 .78125.667969 1.425781 1.496093 1.425781h18.476563c.828125 0 1.496094-.644531 1.496094-1.425781v-10.351562c0-.789063-.667969-1.421876-1.496094-1.421876zm-9.238281 12.421876h-9.238282c-.375 0-.679687-.289063-.679687-.648438v-10.351562c0-.355469.304687-.648438.679687-.648438h9.238282zm0 0" fill="#213e7a"/><path d="m22.796875 12.578125c0 .339844-.171875.570313-.457031.570313-.25 0-.457032-.230469-.457032-.539063 0-.316406.183594-.554687.457032-.554687.292968 0 .457031.246093.457031.523437zm-1.667969 1.9375h.753906v-1.152344h.007813c.140625.253907.425781.347657.6875.347657.648437 0 .996094-.519532.996094-1.148438 0-.511719-.332031-1.066406-.933594-1.066406-.339844 0-.660156.132812-.808594.429687h-.007812v-.382812h-.695313zm3.472656-1.523437c0-.203126.199219-.28125.453126-.28125l.320312.011718c0 .246094-.183594.5-.464844.5-.175781 0-.308594-.085937-.308594-.230468zm1.515626.667968c-.03125-.164062-.042969-.332031-.042969-.5v-.785156c0-.648438-.480469-.878906-1.035157-.878906-.320312 0-.601562.042968-.867187.148437l.011719.496094c.207031-.113281.449218-.15625.691406-.15625.273438 0 .496094.074219.5.363281-.117188-.019531-.234375-.027344-.351562-.027344-.402344 0-1.125.078126-1.125.722657 0 .460937.382812.667969.816406.667969.308594 0 .515625-.117188.6875-.382813h.007812l.019532.332031zm.339843.855469c.152344.03125.308594.046875.464844.046875.691406 0 .851563-.515625 1.066406-1.046875l.796875-1.972656h-.75l-.449218 1.382812h-.007813l-.46875-1.382812h-.808594l.882813 2.167969c-.054688.1875-.195313.292968-.378906.292968-.101563 0-.203126-.015625-.296876-.046875zm0 0" fill="#fff"/><path d="m11.859375 12.585938c0-.289063.144531-.53125.425781-.53125.335938 0 .480469.265624.480469.5 0 .328124-.214844.546874-.480469.546874-.226562 0-.425781-.1875-.425781-.515624zm1.632813-1.042969h-.683594v.382812h-.007813c-.15625-.261719-.417969-.429687-.738281-.429687-.675781 0-.980469.46875-.980469 1.101562 0 .625.371094 1.0625.96875 1.0625.300781 0 .550781-.113281.730469-.363281h.007812v.117187c0 .414063-.234374.613282-.667968.613282-.3125 0-.503906-.066406-.734375-.175782l-.039063.578126c.175782.058593.472656.132812.832032.132812.878906 0 1.3125-.28125 1.3125-1.148438zm1.269531-.882813h-.75v.539063h.75zm-.75 3h.75v-2.117187h-.75zm2.84375-2.140625c-.082031-.015625-.167969-.023437-.253907-.023437-.324218 0-.515624.167968-.644531.4375h-.007812v-.390625h-.683594v2.117187h.75v-.890625c0-.417969.195313-.664062.546875-.664062.089844 0 .171875 0 .253906.023437zm1.296875 1.679688c-.347656 0-.488282-.28125-.488282-.59375 0-.320313.140626-.597657.488282-.597657.34375 0 .488281.28125.488281.597657 0 .3125-.144531.59375-.488281.59375zm0 .511719c.71875 0 1.265625-.40625 1.265625-1.105469 0-.703125-.546875-1.109375-1.265625-1.109375s-1.265625.40625-1.265625 1.109375c0 .699219.546875 1.105469 1.265625 1.105469zm0 0" fill="#ea2127"/></svg>