<svg viewBox="0 0 40 24" xmlns="http://www.w3.org/2000/svg"><path d="m0 0h40v24h-40z" fill="#fff"/><path d="m19.335938 8.035156v2.8125h1.742187c.417969 0 .761719-.140625 1.03125-.417968.28125-.277344.417969-.605469.417969-.988282 0-.375-.136719-.703125-.417969-.980468-.269531-.285157-.613281-.425782-1.03125-.425782zm0 3.804688v3.261718h-1.039063v-8.058593h2.761719c.699218 0 1.296875.234375 1.789062.699219.496094.464843.746094 1.03125.746094 1.699218 0 .683594-.25 1.253906-.746094 1.710938-.484375.457031-1.082031.683594-1.789062.683594h-1.722656zm5.308593 1.574218c0 .269532.117188.492188.347657.675782.230468.179687.5.269531.808593.269531.4375 0 .828125-.164063 1.171875-.484375.34375-.324219.511719-.703125.511719-1.136719-.324219-.253906-.777344-.382812-1.355469-.382812-.425781 0-.777344.101562-1.058594.304687-.285156.203125-.425781.453125-.425781.753906m1.347657-4.007812c.769531 0 1.378906.207031 1.824218.613281.445313.410157.667969.972657.667969 1.683594v3.398437h-.996094v-.765624h-.046875c-.429687.628906-1.003906.945312-1.71875.945312-.613281 0-1.125-.179688-1.535156-.539062-.410156-.363282-.617188-.8125-.617188-1.351563 0-.570313.21875-1.023437.652344-1.359375.433594-.339844 1.011719-.507812 1.734375-.507812.621094 0 1.128907.113281 1.53125.335937v-.234375c0-.363281-.144531-.667969-.433593-.917969-.273438-.246093-.636719-.382812-1.007813-.378906-.578125 0-1.039063.246094-1.378906.734375l-.917969-.574219c.507812-.71875 1.253906-1.082031 2.242188-1.082031m8.207031.179688-3.476563 7.945312h-1.074218l1.289062-2.78125-2.285156-5.164062h1.132812l1.652344 3.960937h.023438l1.605468-3.960937zm0 0" fill="#5f6368"/><path d="m15.128906 11.132812c0-.324218-.027344-.636718-.078125-.941406h-4.394531v1.785156h2.515625c-.105469.574219-.441406 1.085938-.929687 1.40625v1.15625h1.5c.878906-.804687 1.386718-1.996093 1.386718-3.40625" fill="#4285f4"/><path d="m10.65625 15.65625c1.257812 0 2.316406-.410156 3.085938-1.117188l-1.5-1.15625c-.417969.28125-.957032.441407-1.585938.441407-1.214844 0-2.246094-.8125-2.613281-1.910157h-1.546875v1.195313c.796875 1.566406 2.402344 2.550781 4.160156 2.546875" fill="#34a853"/><path d="m8.042969 11.914062c-.195313-.574218-.195313-1.195312 0-1.769531v-1.195312h-1.546875c-.328125.644531-.496094 1.359375-.496094 2.078125 0 .75.179688 1.453125.496094 2.078125zm0 0" fill="#fabb05"/><path d="m10.65625 8.230469c.6875 0 1.300781.238281 1.789062.695312l1.328126-1.320312c-.808594-.746094-1.859376-1.207031-3.117188-1.207031-1.757812 0-3.363281.984374-4.160156 2.550781l1.546875 1.195312c.367187-1.097656 1.398437-1.914062 2.613281-1.914062" fill="#e94235"/></svg>