<svg viewBox="0 0 40 24" xmlns="http://www.w3.org/2000/svg"><path d="m0 0h40v24h-40z" fill="#fff"/><path d="m24.777344 4c.753906 0 1.128906.660156 1.410156 1.316406 1.789062 4.332032 1.882812 8.660156.09375 13.082032l-.28125.660156c-.375.753906-1.222656 1.128906-1.976562.847656-.847657-.28125-1.222657-.941406-1.128907-1.882812l.28125-.753907c.847657-1.976562 1.222657-4.046875 1.128907-6.210937 0-.28125 0-.566406-.1875-.847656 0-1.222657-.46875-2.445313-.941407-3.574219-.1875-.378907-.375-.753907-.375-1.128907.09375-.847656.65625-1.507812 1.410157-1.507812zm0 0" fill="#98c74c"/><path d="m18.375 11.058594c-.09375-1.035156-.46875-1.976563-.941406-2.824219-.5625-.941406-.1875-1.976563.753906-2.351563.660156-.28125 1.320312 0 1.882812.5625.375.660157.753907 1.414063 1.035157 2.167969.472656 1.316407.566406 2.726563.566406 4.140625-.09375 1.597656-.566406 3.105469-1.414063 4.515625-.46875.753907-1.128906 1.128907-1.882812.941407-.75-.1875-1.222656-.847657-1.222656-1.789063 0-.28125.1875-.5625.28125-.75.847656-1.507813 1.132812-3.011719.941406-4.613281zm0 0" fill="#ce4549"/><path d="m18.375 11.058594c.1875 1.601562-.09375 3.199218-.941406 4.613281-.09375.1875-.28125.46875-.28125.75-.1875-.75-.28125-1.503906-.5625-2.164063-.660156-1.503906-1.695313-2.632812-3.109375-3.480468-.75-.378906-1.035157-1.035156-.9375-1.601563.1875-1.128906 1.316406-1.597656 2.257812-1.128906 1.316407.660156 2.445313 1.601563 3.292969 2.730469zm0 0" fill="#3086c8"/><path d="m21.578125 12.660156c0-1.414062-.097656-2.730468-.566406-4.140625-.28125-.753906-.660157-1.507812-1.035157-2.167969.1875-.09375.28125.09375.375.1875 1.34375.964844 2.519532 2.144532 3.484376 3.484376 0 .09375.09375.09375.1875.1875.1875.28125.09375.566406.1875.847656.09375 2.164062-.1875 4.234375-1.128907 6.210937l-.28125.753907c-.09375-1.222657-.09375-2.351563-.472656-3.484376-.1875-.65625-.375-1.316406-.75-1.878906zm0 0" fill="#ffdb43"/></svg>