<svg viewBox="0 0 40 24" xmlns="http://www.w3.org/2000/svg"><path d="m0 0h40v24h-40z" fill="#fff"/><g fill="#001548"><path d="m20.570312 4s1.277344 2.640625 6.476563 4.136719v1.847656s-3.832031.257813-8.183594-4.929687zm0 0"/><path d="m17.84375 5.496094s3.582031 5.273437 9.289062 5.71875v1.933594s-6.132812 0-10.820312-6.601563zm0 0"/><path d="m15.289062 7.164062s3.921876 6.421876 11.757813 7.210938v1.941406s-8.09375-.441406-13.378906-8.179687zm0 0"/></g><path d="m20.570312 20.398438s1.277344-2.585938 6.476563-4.082032v-1.894531s-3.832031-.265625-8.183594 4.921875zm0 0" fill="#ec1c24"/><path d="m17.84375 18.90625s3.582031-5.277344 9.289062-5.714844v-1.941406s-6.132812 0-10.820312 6.597656zm0 0" fill="#ec1c24"/><path d="m15.289062 17.234375s3.921876-6.421875 11.757813-7.214844v-1.933593s-8.09375.4375-13.378906 8.179687zm0 0" fill="#ec1c24"/></svg>