<svg viewBox="0 0 40 24" xmlns="http://www.w3.org/2000/svg"><path d="m0 0h40v24h-40z" fill="#fff"/><path d="m10.835938 19.160156c0-.003906 0-3.140625 0-6.96875l.003906-6.964844 4.878906-.003906c4.957031 0 5.101562 0 5.53125.023438 1.617188.082031 2.976562.367187 4.117188.867187 1.257812.554688 2.203124 1.347657 2.851562 2.394531.527344.84375.847656 1.863282.9375 2.980469.035156.46875.035156.9375 0 1.40625-.085938 1.046875-.339844 1.933594-.785156 2.742188-.410156.734375-.976563 1.371093-1.65625 1.863281-1.128906.824219-2.613282 1.347656-4.429688 1.558594-.488281.058594-.976562.09375-1.46875.105468-.339844.007813-9.976562.007813-9.980468-.003906zm9.957031-.667968c2.457031-.070313 4.3125-.613282 5.613281-1.644532.113281-.09375.34375-.296875.4375-.394531.863281-.867187 1.367188-1.976563 1.523438-3.339844.054687-.480469.066406-1.074219.027343-1.570312-.027343-.367188-.082031-.730469-.167969-1.085938-.371093-1.535156-1.265624-2.691406-2.683593-3.472656-.375-.199219-.769531-.371094-1.175781-.507813-.8125-.277343-1.710938-.449218-2.746094-.53125-.144532-.011718-.328125-.023437-.609375-.039062-.097657-.007812-1.324219-.007812-4.773438-.011719h-4.640625v12.605469h4.488282c2.917968 0 4.566406-.003906 4.707031-.007812zm-8.039063-1.011719c-.007812-.007813-.011718-.214844-.011718-2.1875 0-1.359375.003906-2.179688.007812-2.183594.007812-.007813.171875-.011719 1.390625-.011719.953125 0 1.390625 0 1.398437.003906.015626.007813.015626.035157.015626 2.195313 0 1.988281-.003907 2.1875-.011719 2.1875-.007813.003906-.632813.003906-1.394531.003906-1.246094 0-1.382813 0-1.394532-.007812zm4.199219 0c-.011719-.007813-.011719-.207031-.011719-2.574219 0-1.410156 0-2.566406.003906-2.574219.003907-.007812.03125-.007812.226563-.007812.382813 0 .542969-.011719.707031-.050781.449219-.101563.765625-.363282.921875-.761719.0625-.167969.09375-.335938.101563-.554688.011718-.3125-.046875-.570312-.171875-.800781-.109375-.199219-.277344-.367188-.480469-.476562-.179688-.09375-.378906-.152344-.585938-.171876-.125-.007812-.253906-.011718-.378906-.011718-.113281.003906-.222656 0-.335937-.007813-.007813-.003906-.007813-.269531-.007813-1.285156 0-.703125 0-1.28125.003906-1.285156.007813-.007813.371094-.007813 1.96875-.007813 2.121094.003906 2.054688.003906 2.511719.035156 2.152344.160157 3.703125.769532 4.671875 1.839844.582032.640625.949219 1.449219 1.097656 2.417969.027344.179687.050782.410156.046876.417969-.011719.011718-1.1875.007812-1.199219 0-.007813-.003906-.007813-.25-.007813-1.066406v-1.058594h-.785156v1.410156c0 1.289062.003906 1.410156.011719 1.414062.007812 0 .453125.003907.992187.003907h1.011719l-.003906.148437c-.015625.492188-.089844.980469-.21875 1.453125-.15625.566407-.421875 1.09375-.785157 1.550781-.144531.179688-.308593.347657-.484374.496094-.152344.132813-.234376.203125-.359376.289063-.945312.667969-2.261718 1.066406-3.941406 1.183593-.183594.015626-.371094.023438-.558594.03125-.09375.007813-.808593.007813-2.046874.011719-1.757813.003907-1.90625 0-1.914063-.007812zm4.386719-5.160157c.007812-.003906.011718-.039062.011718-.347656v-.34375h-.589843l-.589844-.003906v-.398438h.527344l.527343-.003906v-.6875h-.523437c-.433594 0-.519531 0-.527344-.007812-.003906-.007813-.007812-.054688-.003906-.171875v-.160157l.554687-.003906.558594-.003906v-.6875h-1.902344l-.003906 1.40625c0 1.339844 0 1.410156.011719 1.414062.019531.003907 1.9375.003907 1.949219 0zm1.238281-.011718c.003906-.007813.042969-.125.089844-.265625s.085937-.257813.089843-.261719c.007813-.003906.121094-.007812.539063-.003906h.527344l.089843.273437.09375.269531.398438.003907c.222656 0 .40625 0 .410156-.003907.003906 0-.023437-.085937-.078125-.246093-.289062-.851563-.582031-1.699219-.871093-2.550781l-.011719-.027344h-1.125l-.007813.011718c-.027344.074219-.050781.148438-.078125.222657-.257812.757812-.519531 1.519531-.78125 2.277343-.054687.164063-.101562.304688-.101562.308594 0 .007813.09375.007813.40625.007813h.40625zm.421875-1.238282c.003906-.027343.011719-.058593.019531-.082031.082031-.25.234375-.707031.242188-.714843.007812-.011719.046875-.011719.058593 0 .011719.011718.269532.792968.265626.800781-.097657.003906-.195313.007812-.292969.003906-.253907 0-.289063 0-.292969-.007813zm-9.070312 1.359376c-.363282-.039063-.707032-.1875-.988282-.417969-.273437-.226563-.457031-.539063-.515625-.886719-.019531-.144531-.019531-.289062-.003906-.433594.085937-.476562.390625-.875.867187-1.117187.25-.125.527344-.195313.808594-.195313.3125-.007812.570313.039063.847656.164063.515626.230469.863282.667969.9375 1.191406.011719.074219.011719.269531 0 .347656-.027343.183594-.085937.359375-.175781.519531-.101562.167969-.230469.320313-.386719.441407-.28125.222656-.621093.355469-.980468.390625-.136719.007812-.273438.007812-.410156-.003906zm3.019531-.808594c-.007813-.003906-.007813-.171875-.007813-.710938 0-.386718 0-.707031.003906-.710937.003907-.007813.070313-.007813.335938-.007813l.328125.003906.066406.015626c.199219.046874.320313.148437.386719.324218.042969.117188.0625.289063.050781.460938-.011719.167968-.035156.273437-.09375.378906-.023437.042969-.058593.085938-.097656.117188-.089844.078124-.1875.117187-.339844.128906-.101562.011718-.621093.011718-.632812 0zm0 0" fill="#e8a6cd"/><path d="m10.84375 19.164062c-.007812-.007812-.007812-1.5625-.007812-6.96875 0-5.910156 0-6.957031.007812-6.964843.015625-.007813 9.9375-.003907 10.144531.003906.578125.027344.84375.046875 1.222657.089844 2.121093.234375 3.785156.882812 4.953124 1.929687.277344.25.53125.523438.753907.824219.117187.152344.140625.1875.230469.320313.679687 1.039062 1.03125 2.332031 1.03125 3.78125 0 1.25-.242188 2.351562-.722657 3.285156-.628906 1.222656-1.636719 2.144531-3.023437 2.769531-.648438.289063-1.320313.5-2.097656.65625-.800782.160156-1.632813.25-2.609376.273437-.371093.007813-9.871093.007813-9.882812 0zm9.824219-.664062c.265625-.007812.429687-.011719.648437-.023438 2.035156-.121093 3.667969-.605468 4.839844-1.4375.308594-.222656.59375-.472656.847656-.75.386719-.421874.695313-.90625.921875-1.429687.332031-.78125.5-1.671875.496094-2.679687 0-1.699219-.480469-3.066407-1.449219-4.105469-1.191406-1.277344-3.136718-2.015625-5.703125-2.15625-.449219-.027344-.359375-.027344-5.113281-.027344h-4.5625l-.003906 6.300781c0 3.464844 0 6.300782.003906 6.304688 0 .007812.886719.007812 4.398438.007812 2.636718 0 4.511718 0 4.675781-.003906zm-7.914063-1.023438c0-.003906-.003906-.988281 0-2.1875v-2.183593h1.390625c1.019531 0 1.390625 0 1.398438.003906.007812.007813.011719.359375.011719 2.183594 0 1.195312-.003907 2.175781-.007813 2.179687-.003906.011719-.132813.011719-1.394531.011719-1.109375 0-1.394532 0-1.398438-.007813zm4.199219-2.574218v-2.574219h.265625c.289062 0 .40625-.003906.539062-.023437.511719-.074219.886719-.359376 1.050782-.800782.070312-.183594.101562-.367187.101562-.597656 0-.414062-.109375-.734375-.34375-.988281-.183594-.203125-.472656-.347657-.78125-.402344-.125-.019531-.171875-.019531-.496094-.023437l-.332031-.003907v-1.285156l-.003906-1.289063 1.945313.003907c2.070312.003906 2.015624 0 2.460937.03125 2.625.175781 4.390625 1.039062 5.261719 2.570312.3125.550781.515625 1.207031.59375 1.90625l.015625.15625c.003906.015625 0 .03125-.003907.035157-.003906.003906-.164062.007812-.589843.007812-.570313 0-.582031 0-.589844-.015625-.003906-.007813-.007813-.347656-.007813-1.0625v-1.058594h-.394531c-.359375 0-.398437.003907-.402343.011719-.003907.46875-.007813.941406-.003907 1.410156 0 1.109375 0 1.402344.007813 1.410156.007812.007813.078125.007813 1.007812.011719h1l-.003906.117188c-.007812.34375-.042969.683593-.109375 1.019531-.171875.914062-.554687 1.683594-1.128906 2.273438-.320313.324218-.683594.597656-1.082031.8125-.964844.527343-2.214844.828124-3.777344.90625-.324219.015624-.550782.015624-2.332032.015624h-1.867187zm4.402344-2.925782v-.351562l-.585938-.003906h-.589843l-.003907-.191406c0-.148438 0-.191407.007813-.195313.175781-.003906.351562-.003906.527344-.003906h.523437v-.351563c0-.191406-.003906-.351562-.003906-.351562-.175781 0-.351563-.003906-.527344-.003906l-.523437-.003907v-.320312l.554687-.003907h.558594v-.703124h-1.917969v1.410156c-.003906.777344 0 1.417968 0 1.421875.003906.003906.203125.003906.992188.003906h.984374zm1.230469.339844c.003906-.007812.042968-.128906.089843-.269531.046875-.136719.085938-.253906.089844-.257813.007813-.007812.117187-.007812.53125-.007812h.523437l.085938.265625c.046875.148437.089844.269531.097656.273437.003906.007813.085938.007813.414063.007813.25 0 .40625 0 .410156-.003906.003906-.003907-.898437-2.648438-.957031-2.804688l-.007813-.03125h-1.140625l-.007812.015625c-.003906.007813-.203125.589844-.445313 1.292969l-.480469 1.398437c-.011718.042969-.027343.085938-.035156.128907 0 .003906.101563.007812.414063.007812h.410156zm.421874-1.25c-.003906-.003906.246094-.765625.257813-.785156.007813-.007812.015625-.011719.03125-.011719l.019531.003907.128906.386718c.070313.210938.128907.390625.128907.398438v.015625h-.28125c-.175781 0-.28125-.003907-.285157-.007813zm-8.984374 1.367188c-.390626-.035156-.707032-.148438-.984376-.351563-.347656-.253906-.566406-.613281-.617187-1.007812-.011719-.117188-.011719-.234375 0-.351563.085937-.59375.546875-1.085937 1.1875-1.269531.433594-.125.894531-.097656 1.308594.082031.175781.074219.320312.167969.460937.289063.257813.222656.433594.53125.496094.867187.015625.101563.015625.332032 0 .433594-.0625.335938-.238281.640625-.496094.863281-.140625.121094-.296875.222657-.46875.292969-.226562.101562-.472656.152344-.722656.152344-.054688.003906-.109375.003906-.164062 0zm2.933593-.816406c-.003906-.234376-.003906-.46875-.003906-.703126v-.707031c0-.007812.019531-.011719.28125-.011719.367187 0 .441406.007813.5625.0625.046875.019532.085937.046876.121094.078126.039062.03125.074219.074218.097656.121093.070313.128907.089844.222657.089844.453125 0 .144532-.003907.175782-.015625.242188-.050782.234375-.15625.371094-.339844.429687-.105469.03125-.140625.035157-.476562.039063-.21875.003906-.3125 0-.316407-.003906zm0 0" fill="#9b9b9b"/><path d="m10.84375 19.15625c0-.003906 0-3.136719 0-6.964844v-6.957031h4.972656c5.175782 0 5.0625 0 5.511719.023437 1.945313.105469 3.527344.515626 4.777344 1.238282.554687.316406 1.058593.71875 1.488281 1.191406.3125.347656.582031.730469.804688 1.144531.515624.976563.773437 2.089844.773437 3.347657 0 1.359374-.28125 2.527343-.84375 3.511718-.40625.707032-.953125 1.320313-1.613281 1.796875-.84375.617188-1.914063 1.078125-3.15625 1.351563-.851563.1875-1.765625.292968-2.808594.316406-.375.011719-9.902344.007812-9.90625 0zm9.753906-.652344c.648438-.003906 1.292969-.054687 1.933594-.144531 1.613281-.230469 2.90625-.734375 3.878906-1.507813.117188-.089843.34375-.292968.441406-.390624.761719-.765626 1.242188-1.714844 1.453126-2.863282.136718-.71875.164062-1.542968.078124-2.308594-.253906-2.300781-1.542968-3.910156-3.796874-4.746093-.390626-.140625-.792969-.261719-1.203126-.351563-.742187-.164062-1.460937-.253906-2.457031-.296875-.222656-.011719-9.320312-.015625-9.332031-.003906-.007812.003906-.011719.945313-.011719 6.304687 0 4.894532.003907 6.304688.007813 6.308594.011718.007813 8.503906.011719 9.007812 0zm-7.835937-1.035156c-.003907-.003906-.003907-.984375-.003907-2.179688l.003907-2.175781h2.78125v4.363281h-1.390625c-1.105469 0-1.390625 0-1.390625-.007812zm4.191406-2.566406v-2.574219h.265625c.289062 0 .40625-.003906.539062-.023437.511719-.074219.886719-.359376 1.054688-.800782.070312-.183594.097656-.367187.097656-.597656 0-.414062-.109375-.734375-.34375-.988281-.183594-.203125-.472656-.347657-.78125-.402344-.125-.019531-.171875-.019531-.492187-.023437l-.335938-.003907v-1.285156l-.003906-1.289063 1.945313.003907c2.074218.003906 2.015624 0 2.460937.03125 2.625.175781 4.390625 1.039062 5.261719 2.570312.3125.550781.519531 1.207031.59375 1.90625l.015625.15625c.003906.015625 0 .03125-.003907.035157-.003906.003906-.164062.007812-.589843.007812-.566407 0-.582031 0-.589844-.015625-.003906-.007813-.007813-.347656-.007813-1.0625v-1.058594h-.394531c-.355469 0-.398437.003907-.402343.011719-.003907.46875-.003907.9375-.003907 1.410156 0 1.109375 0 1.402344.007813 1.410156.007812.007813.078125.007813 1.007812.011719h1v.117188c-.011718.34375-.046875.683593-.109375 1.019531-.175781.914062-.558593 1.683594-1.132812 2.273438-.320313.324218-.683594.597656-1.082031.8125-.960938.527343-2.214844.828124-3.773438.90625-.328125.015624-.554688.015624-2.335938.015624h-1.867187zm4.402344-2.925782v-.351562l-.585938-.003906h-.589843l-.003907-.191406c0-.148438 0-.191407.007813-.195313.175781-.003906.351562-.003906.53125-.003906h.519531v-.351563c0-.191406 0-.351562-.003906-.351562-.175781 0-.351563-.003906-.527344-.003906l-.523437-.003907v-.320312l.554687-.003907h.558594v-.703124h-1.917969v1.410156 1.421875c.003906.003906.203125.003906.992188.003906h.988281zm1.230469.339844c.003906-.007812.042968-.128906.089843-.269531.046875-.136719.085938-.253906.089844-.257813.007813-.007812.117187-.007812.53125-.007812h.523437l.085938.265625c.050781.148437.09375.269531.097656.273437.003906.007813.085938.007813.414063.007813.253906 0 .40625 0 .410156-.003906.003906-.003907-.894531-2.648438-.953125-2.804688l-.011719-.03125h-1.140625l-.007812.015625c-.003906.007813-.203125.589844-.445313 1.292969l-.480469 1.398437c-.011718.042969-.027343.085938-.035156.128907 0 .003906.101563.007812.414063.007812h.410156zm.421874-1.25c-.003906-.003906.246094-.765625.261719-.785156.003907-.007812.011719-.011719.027344-.011719l.019531.003907.128906.386718c.070313.210938.128907.390625.128907.398438v.015625h-.28125c-.175781 0-.28125-.003907-.285157-.007813zm-9.019531 1.359375c-.605469-.054687-1.121093-.367187-1.386719-.839843-.105468-.179688-.167968-.378907-.179687-.585938-.027344-.371094.101563-.734375.371094-1.039062.128906-.140626.285156-.261719.453125-.355469.4375-.230469.945312-.285157 1.421875-.152344.722656.199219 1.214843.785156 1.214843 1.453125 0 .382812-.152343.734375-.449218 1.027344-.261719.257812-.636719.429687-1.042969.484375-.136719.011719-.269531.015625-.402344.007812zm2.96875-.808593c-.003906-.234376-.003906-.46875-.003906-.703126v-.707031c0-.007812.019531-.011719.28125-.011719.367187 0 .441406.007813.566406.0625.042969.019532.082031.046876.117188.078126.039062.03125.074219.074218.097656.121093.070313.128907.089844.222657.089844.453125 0 .144532-.003907.175782-.015625.242188-.046875.234375-.15625.371094-.339844.429687-.105469.03125-.140625.035157-.476562.039063-.214844.003906-.3125 0-.316407-.003906zm0 0" fill="#d85a9f"/><path d="m10.84375 19.15625c0-.003906 0-3.136719 0-6.964844v-6.957031h4.972656c5.175782 0 5.0625 0 5.511719.023437 1.945313.105469 3.527344.515626 4.777344 1.238282.554687.316406 1.058593.71875 1.488281 1.191406.3125.347656.582031.730469.804688 1.144531.515624.976563.773437 2.089844.773437 3.347657 0 1.359374-.28125 2.527343-.84375 3.511718-.40625.707032-.953125 1.320313-1.613281 1.796875-.84375.617188-1.914063 1.078125-3.15625 1.351563-.851563.1875-1.765625.292968-2.808594.316406-.375.011719-9.902344.007812-9.90625 0zm9.753906-.652344c.648438-.003906 1.292969-.054687 1.933594-.144531 1.613281-.230469 2.90625-.734375 3.878906-1.507813.117188-.089843.34375-.292968.441406-.390624.761719-.765626 1.242188-1.714844 1.453126-2.863282.136718-.71875.164062-1.542968.078124-2.308594-.253906-2.300781-1.542968-3.910156-3.796874-4.746093-.390626-.140625-.792969-.261719-1.203126-.351563-.742187-.164062-1.460937-.253906-2.457031-.296875-.222656-.011719-9.320312-.015625-9.332031-.003906-.007812.003906-.011719.945313-.011719 6.304687 0 4.894532.003907 6.304688.007813 6.308594.011718.007813 8.503906.011719 9.007812 0zm-7.835937-1.035156c-.003907-.003906-.003907-.984375-.003907-2.179688l.003907-2.175781h2.78125v4.363281h-1.390625c-1.105469 0-1.390625 0-1.390625-.007812zm4.199219 0c-.003907-.003906-.007813-.679688-.003907-2.566406v-2.5625l.320313-.003906c.339844-.003907.410156-.011719.558594-.039063.40625-.078125.710937-.289063.894531-.605469.121093-.214844.179687-.441406.1875-.738281.007812-.167969-.011719-.335937-.054688-.5-.058593-.242187-.195312-.464844-.386719-.628906-.089843-.082031-.195312-.144531-.304687-.195313-.160156-.070312-.328125-.117187-.503906-.132812-.128907-.007813-.257813-.011719-.382813-.011719l-.328125-.003906v-2.554688h1.925781c1.988282 0 1.996094 0 2.398438.023438.96875.058593 1.851562.21875 2.582031.464843 1.472657.496094 2.460938 1.34375 2.980469 2.570313.148438.347656.261719.757813.332031 1.179687.027344.1875.054688.441407.046875.449219-.195312.003907-.390625.003907-.585937.003907l-.585938-.003907-.007812-2.125h-.800781l-.003907 1.417969c0 1.132812 0 1.421875.007813 1.425781.003906 0 .457031.003907 1.007812.003907h.996094v.066406c0 .128906-.019531.378906-.042969.59375-.175781 1.589844-.894531 2.75-2.160156 3.488281-.953125.550781-2.183594.867187-3.761719.964844-.4375.023437-.777344.027343-2.664062.027343-1.378906 0-1.652344 0-1.660156-.007812zm4.394531-5.136719c.007812-.003906.007812-.082031.007812-.359375l-.003906-.351562-1.171875-.007813v-.375h.523438l.527343-.003906v-.707031l-.527343-.003906-.523438-.003907-.003906-.160156-.003906-.15625h.554687c.417969 0 .550781-.003906.558594-.007813.007812-.007812.007812-.089843.007812-.351562s0-.347656-.007812-.351562c-.011719-.011719-1.90625-.011719-1.921875 0-.003906.003906-.007813.328124-.007813 1.417968 0 1.339844 0 1.414063.011719 1.417969.015625.007813 1.964844.007813 1.980469 0zm1.222656 0c.007813-.003906.046875-.113281.101563-.277343l.089843-.265626h.523438l.519531-.003906.144531.433594c.019531.058594.039063.109375.046875.113281.003906 0 .191406.003907.414063.003907.332031 0 .40625 0 .414062-.007813.003907-.007813-.105469-.335937-.472656-1.414063-.160156-.472656-.324219-.945312-.488281-1.417968l-.007813-.011719h-.570312c-.464844 0-.570313 0-.574219.007813-.003906.003906-.105469.296874-.226562.648437l-.480469 1.402344c-.089844.257812-.179688.515625-.261719.773437 0 .007813 0 .011719.003906.015625.007813.007813.8125.003907.824219-.003906zm.4375-1.28125.128906-.394531c.125-.367188.128907-.378906.144531-.378906.011719 0 .019532 0 .023438.007812.007812.015625.257812.761719.257812.773438 0 .007812-.035156.007812-.28125.007812h-.277343zm-9.027344 1.375c-.605469-.054687-1.121093-.367187-1.386719-.839843-.105468-.179688-.167968-.378907-.179687-.585938-.027344-.371094.101563-.734375.371094-1.039062.128906-.140626.285156-.261719.453125-.355469.4375-.230469.945312-.285157 1.421875-.152344.722656.199219 1.214843.785156 1.214843 1.453125 0 .382812-.152343.734375-.449218 1.027344-.261719.257812-.636719.429687-1.042969.484375-.136719.011719-.269531.015625-.402344.007812zm2.96875-.816406c-.003906-.234375-.003906-.46875 0-.707031v-.695313h.3125c.242188 0 .324219 0 .363281.007813.257813.046875.394532.179687.453126.453125.015624.082031.015624.386719 0 .472656-.0625.304687-.210938.441406-.515626.46875-.097656.011719-.609374.007813-.613281 0zm0 0" fill="#d13288"/><path d="m10.84375 19.15625c0-.003906 0-3.136719 0-6.964844v-6.957031h4.972656c5.175782 0 5.0625 0 5.511719.023437 1.945313.105469 3.527344.515626 4.777344 1.238282.554687.316406 1.058593.71875 1.488281 1.191406.3125.347656.582031.730469.804688 1.144531.515624.976563.773437 2.089844.773437 3.347657 0 1.359374-.28125 2.527343-.84375 3.511718-.40625.707032-.953125 1.320313-1.613281 1.796875-.84375.617188-1.914063 1.078125-3.15625 1.351563-.851563.1875-1.765625.292968-2.808594.316406-.375.011719-9.902344.007812-9.90625 0zm9.753906-.652344c.648438-.003906 1.292969-.054687 1.933594-.144531 1.613281-.230469 2.90625-.734375 3.878906-1.507813.117188-.089843.34375-.292968.441406-.390624.761719-.765626 1.242188-1.714844 1.453126-2.863282.136718-.71875.164062-1.542968.078124-2.308594-.253906-2.300781-1.542968-3.910156-3.796874-4.746093-.390626-.140625-.792969-.261719-1.203126-.351563-.742187-.164062-1.460937-.253906-2.457031-.296875-.222656-.011719-9.320312-.015625-9.332031-.003906-.007812.003906-.011719.945313-.011719 6.304687 0 4.894532.003907 6.304688.007813 6.308594.011718.007813 8.503906.011719 9.007812 0zm-7.835937-1.035156c-.003907-.003906-.003907-.984375-.003907-2.179688l.003907-2.175781h2.78125v4.363281h-1.390625c-1.105469 0-1.390625 0-1.390625-.007812zm4.203125-.003906c-.003906-.003906-.003906-1.160156-.003906-2.566406l.003906-2.558594.34375-.003906c.367187-.003907.398437-.007813.554687-.039063.5-.105469.855469-.421875.992188-.886719.050781-.175781.066406-.292968.066406-.511718 0-.242188-.023437-.386719-.09375-.570313-.070313-.203125-.195313-.382813-.359375-.515625-.203125-.171875-.449219-.273438-.765625-.316406-.082031-.011719-.132813-.015625-.417969-.015625l-.324218-.003907v-2.546874l.015624-.003907c.027344-.003906 3.1875-.003906 3.554688.003907.710938.011718 1.230469.050781 1.796875.132812 1.65625.242188 2.917969.816406 3.734375 1.707031.589844.644531.960938 1.457031 1.109375 2.414063.023437.152344.050781.378906.050781.421875 0 .003906-.261718.003906-.582031.003906h-.582031l-.003906-1.058594c0-.769531 0-1.058593-.007813-1.0625-.007813-.007812-.078125-.011719-.402344-.011719-.21875 0-.402343.003907-.40625.007813-.007812.003906-.007812.292969-.007812 1.425781l.003906 1.421875 1.003906.003907 1 .003906.003907.054687c0 .027344 0 .113281-.003907.191407-.046875.769531-.191406 1.410156-.453125 1.992187-.328125.726563-.835937 1.3125-1.523437 1.765625-.960938.632812-2.277344.996094-3.964844 1.097656-.453125.027344-.707031.03125-2.582031.03125-1.390625 0-1.746094-.003906-1.75-.007812zm5.621094-5.132813c.007812-.007812.039062-.085937.101562-.277343l.085938-.261719h.519531l.515625.003906.089844.261719c.046874.148437.09375.269531.097656.273437.007812.007813.832031.007813.84375 0 .007812-.007812.007812-.003906-.210938-.640625l-.683594-2c-.023437-.070312-.046874-.136718-.074218-.207031-.007813-.003906-.113282-.007813-.582032-.007813-.539062 0-.570312 0-.578124.011719-.003907.011719-.066407.1875-.289063.835938-.21875.644531-.441406 1.289062-.664063 1.933593-.019531.058594-.019531.078126-.003906.078126.007813.003906.191406.003906.414063.003906.375 0 .402343 0 .417969-.007813zm.433593-1.273437.195313-.59375c.058594-.179688.0625-.183594.078125-.183594.015625.003906.019531.011719.035156.0625l.125.378906c.058594.179688.109375.328125.109375.332032 0 .003906-.074219.007812-.273438.007812-.148437 0-.269531-.003906-.269531-.003906zm-1.648437.917968c0-.28125 0-.355468-.007813-.359374-.199219-.007813-.394531-.007813-.589843-.007813h-.585938v-.367187h.523438c.429687 0 .523437 0 .527343-.007813.007813-.007813.007813-.105469.007813-.363281l-.003906-.351563h-.527344l-.527344-.003906v-.304687h.546875c.363281 0 .550781-.003907.5625-.007813.011719-.007813.011719-.015625.011719-.359375s0-.351562-.011719-.359375c-.011719-.003906-.324219-.007813-.964844-.007813-.855469 0-.953125.003907-.960937.011719-.011719.007813-.011719.144531-.011719 1.417969 0 .777344 0 1.414062.003906 1.421875.003907.007813.097657.007813 1.003907.007813l1-.003907zm-7.382813.449219c-.605469-.054687-1.121093-.367187-1.386719-.839843-.105468-.179688-.167968-.378907-.179687-.585938-.027344-.371094.101563-.734375.371094-1.039062.128906-.140626.285156-.261719.453125-.355469.4375-.230469.945312-.285157 1.421875-.152344.722656.199219 1.214843.785156 1.214843 1.453125 0 .382812-.152343.734375-.449218 1.027344-.261719.257812-.636719.429687-1.042969.484375-.136719.011719-.269531.015625-.402344.007812zm2.976563-.820312c-.003906-.230469-.003906-.464844-.003906-.699219v-.695312h.292968c.3125 0 .371094.003906.464844.027343.207031.0625.320312.207031.367188.464844.011718.085937.011718.3125 0 .402344-.03125.1875-.089844.304687-.1875.386719-.050782.039062-.109376.070312-.167969.085937-.097657.027344-.167969.03125-.476563.03125-.097656.003906-.191406 0-.289062-.003906zm0 0" fill="#d30071"/><path d="m10.84375 19.15625c0-.003906 0-3.136719 0-6.964844v-6.957031h4.972656c5.175782 0 5.0625 0 5.511719.023437 1.945313.105469 3.527344.515626 4.777344 1.238282.554687.316406 1.058593.71875 1.488281 1.191406.3125.347656.582031.730469.804688 1.144531.515624.976563.773437 2.089844.773437 3.347657 0 1.359374-.28125 2.527343-.84375 3.511718-.40625.707032-.953125 1.320313-1.613281 1.796875-.84375.617188-1.914063 1.078125-3.15625 1.351563-.851563.1875-1.765625.292968-2.808594.316406-.375.011719-9.902344.007812-9.90625 0zm9.753906-.652344c.648438-.003906 1.292969-.054687 1.933594-.144531 1.613281-.230469 2.90625-.734375 3.878906-1.507813.117188-.089843.34375-.292968.441406-.390624.761719-.765626 1.242188-1.714844 1.453126-2.863282.136718-.71875.164062-1.542968.078124-2.308594-.253906-2.300781-1.542968-3.910156-3.796874-4.746093-.390626-.140625-.792969-.261719-1.203126-.351563-.742187-.164062-1.460937-.253906-2.457031-.296875-.222656-.011719-9.320312-.015625-9.332031-.003906-.007812.003906-.011719.945313-.011719 6.304687 0 4.894532.003907 6.304688.007813 6.308594.011718.007813 8.503906.011719 9.007812 0zm-7.835937-1.035156c-.003907-.003906-.003907-.984375-.003907-2.179688l.003907-2.175781h2.78125v4.363281h-1.390625c-1.105469 0-1.390625 0-1.390625-.007812zm1.226562-5.042969c-.605469-.054687-1.121093-.367187-1.386719-.839843-.105468-.179688-.167968-.378907-.179687-.585938-.027344-.371094.101563-.734375.371094-1.039062.128906-.140626.285156-.261719.453125-.355469.4375-.230469.945312-.285157 1.421875-.152344.722656.199219 1.214843.785156 1.214843 1.453125 0 .382812-.152343.734375-.449218 1.027344-.261719.257812-.636719.429687-1.042969.484375-.136719.011719-.269531.015625-.402344.007812zm0 0" fill="#585858"/><path d="m10.851562 19.152344c-.003906-.007813-.003906-3.136719 0-6.960938v-6.953125h4.953126c5.15625 0 5.054687 0 5.515624.023438 1.753907.097656 3.234376.445312 4.410157 1.039062.546875.277344 1 .582031 1.425781.964844.464844.410156.855469.898437 1.160156 1.4375.453125.796875.730469 1.71875.816406 2.742187.039063.4375.042969.96875.007813 1.410157-.140625 1.824219-.824219 3.269531-2.054687 4.324219-.503907.4375-1.070313.785156-1.742188 1.082031-.566406.246093-1.105469.417969-1.773438.566406-.878906.195313-1.765624.296875-2.851562.324219-.144531.003906-2.128906.003906-5.050781.003906-3.84375 0-4.8125 0-4.816407-.007812zm9.835938-.640625c1.972656-.046875 3.550781-.386719 4.785156-1.042969 1.960938-1.03125 2.964844-2.820312 2.964844-5.285156 0-1.1875-.234375-2.203125-.703125-3.078125-.421875-.773438-1.035156-1.421875-1.835937-1.929688-.578126-.367187-1.292969-.671875-2.0625-.878906-.925782-.25-1.929688-.382813-3.109376-.414063-.367187-.007812-9.132812-.007812-9.140624 0-.011719.011719-.011719 12.617188 0 12.628907.007812.007812 8.699218.007812 9.101562 0zm-7.921875-3.21875v-2.175781h2.769531v4.351562l-1.386718.003906h-1.382813zm1.230469-2.871094c-.335938-.027344-.660156-.144531-.9375-.335937-.320313-.226563-.539063-.566407-.613282-.949219-.019531-.152344-.019531-.308594 0-.460938.058594-.324219.230469-.625.484376-.839843.433593-.382813 1.058593-.53125 1.65625-.398438.640624.144531 1.132812.609375 1.257812 1.179688.070312.324218.019531.664062-.144531.953124-.082031.15625-.195313.296876-.332031.410157-.132813.121093-.289063.21875-.457032.289062-.167968.070313-.328125.117188-.503906.140625-.136719.015625-.273438.015625-.410156.011719zm0 0"/></svg>