<svg viewBox="0 0 40 24" xmlns="http://www.w3.org/2000/svg"><path d="m0 0h40v24h-40z" fill="#fff"/><g fill-rule="evenodd"><path d="m25.09375 12.695312h1.414062c.023438 0 .046876 0 .070313.003907.027344 0 .058594.003906.085937.011719h.007813c.039063.007812.082031.023437.117187.039062.09375.042969.171876.105469.234376.183594.054687.074218.097656.15625.117187.246094.035156.164062.011719.332031-.070313.476562-.050781.089844-.125.164062-.210937.214844-.058594.035156-.121094.0625-.1875.078125h-.007813c-.011718.003906-.027343.007812-.039062.007812-.039062.003907-.078125.007813-.117188.011719h-1.414062zm1.882812-1.441406c.027344.132813.011719.277344-.046874.402344-.050782.101562-.132813.1875-.234376.242188-.058593.03125-.121093.054687-.1875.066406h-.003906c-.015625.003906-.027344.003906-.042968.003906-.03125.003906-.0625.003906-.09375.007812h-1.273438v-1.175781h1.296875c.03125 0 .0625.003907.09375.007813h.019531l.003906.003906c.050782.007812.097657.023438.140626.042969.042968.019531.082031.039062.117187.066406.042969.035156.085937.074219.117187.121094.046876.0625.078126.132812.09375.210937zm2.898438-6.09375h.007812v12.066406c0 .308594-.058593.613282-.171874.898438-.066407.167969-.152344.328125-.257813.476562-.015625.023438-.03125.042969-.046875.066407l-.023438.027343c-.023437.03125-.046874.058594-.070312.089844l-.023438.027344-.023437.023438c-.015625.019531-.03125.035156-.046875.050781l-.023438.027343-.046874.046876-.023438.019531c-.035156.035156-.074219.070312-.117188.105469l-.023437.019531-.023437.015625-.046876.039062-.070312.046875-.023438.019531-.023437.015626-.019531.015624-.023438.011719c-.015625.011719-.03125.019531-.046875.03125l-.023437.011719c-.007813.003906-.015625.011719-.023438.015625l-.070312.035156-.023438.015625-.046875.023438-.023437.007812-.046875.023438-.023438.007812-.023437.011719-.023438.007813-.023437.011718-.023438.007813-.023437.011719-.046875.015624c-.007813 0-.015625.003907-.023438.007813l-.070312.023437-.023438.003907-.046875.015625-.023437.003906-.023438.007812-.023437.003907-.023438.007812-.046875.007813-.023437.007812-.140625.023438h-.023438l-.046875.007812h-.023437l-.023438.003906h-.023437l-.023438.003907h-.023437c-.007813 0-.015625 0-.023438.003906h-3.671875v-4.917969h3.789063l.023437-.003906h.023438.023437.023438l.023437-.003906h.023438l.023437-.003906h.023438l.023437-.003907h.023438l.210937-.035156c.007813-.003906.015625-.003906.023438-.007813l.023437-.003906c.03125-.007812.0625-.015625.09375-.027344l.023438-.007812c.023437-.007812.046875-.015625.070312-.023438l.046875-.015624.023438-.011719c.144531-.0625.277343-.144531.394531-.246094.0625-.054687.117188-.117187.164062-.183594.078126-.105469.132813-.226562.164063-.351562.023437-.09375.035156-.183594.035156-.277344 0-.089844-.011719-.179687-.035156-.269531-.039063-.148438-.109375-.285156-.210937-.398438-.058594-.074218-.132813-.136718-.207032-.191406-.074218-.054688-.152344-.097656-.234375-.136719-.023437-.011719-.046875-.019531-.070312-.03125l-.023438-.007812c-.007812-.003907-.015625-.007813-.023437-.007813l-.023438-.007812c-.03125-.011719-.0625-.023438-.09375-.03125l-.023437-.007813c-.046875-.011719-.09375-.023437-.140625-.035156l-.070313-.011719c-.007812-.003906-.015625-.003906-.023437-.003906l-.023438-.003906c-.007812-.003906-.015625-.003906-.023437-.003906l-.046875-.007813h-.023438l-.046875-.007813h-.023437l-.019532-.003906v-.027344h.019532l.023437-.007812.09375-.015625c.089844-.019531.175781-.046875.257813-.082031.097656-.039063.191406-.09375.28125-.15625.136718-.105469.25-.238282.324218-.394532.050782-.105468.082032-.222656.09375-.339843.007813-.074219.007813-.152344 0-.226563-.007812-.097656-.03125-.195312-.070312-.289062-.050781-.128906-.128906-.242188-.230469-.335938-.042969-.042968-.089843-.082031-.140625-.113281-.066406-.046875-.136718-.085937-.210937-.117187-.0625-.027344-.125-.050782-.1875-.070313l-.023438-.007813c-.015625-.003906-.03125-.007812-.046875-.011718l-.023437-.003906c-.015625-.003907-.03125-.007813-.046875-.011719l-.023438-.007813-.140625-.023437h-.023437l-.046875-.007813h-.023438l-.023437-.003906h-.023438l-.023437-.003906h-.046875l-.019532-.003906h-.046874l-.023438-.003907h-.070312l-.023438-.003906h-3.464844v-2.503906c0-.363281.082032-.71875.238282-1.042969.042968-.089844.089843-.171875.140624-.253906.015626-.023438.03125-.046875.046876-.070313l.023437-.03125c.015625-.023437.03125-.042969.046875-.066406l.023438-.027344.023437-.03125c.015625-.019531.03125-.035156.046875-.054687l.023438-.027344.023437-.023438c.023437-.027343.046875-.050781.070313-.074218l.046874-.046875.023438-.019531.023438-.023438.023437-.019531c.027344-.027344.058594-.054688.09375-.078125l.023437-.019532.023438-.015624c.011719-.011719.027344-.023438.046875-.035157l.019531-.015625c.007813-.007812.015625-.011718.027344-.019531l.019531-.015625.023438-.015625.023437-.011719.046875-.03125.023438-.011718.023437-.015626.046875-.023437.023438-.015625.09375-.046875c.007812-.003906.015625-.003906.023437-.007813l.046875-.023437.023438-.007813.023437-.011718.023438-.007813.023437-.011719.210938-.070312.023437-.003906.046875-.015625.046875-.007813.023438-.007812.070312-.011719.023438-.007813.046875-.007812h.023437l.09375-.015625h.023438l.023437-.003906h.023438l.023437-.003907h.019532.027343l.019531-.003906zm0 0" fill="#54b230"/><path d="m10.515625 13.535156v-5.964844c0-.359374.082031-.714843.238281-1.039062.054688-.113281.117188-.21875.1875-.324219l.070313-.09375.019531-.03125.027344-.03125c.011718-.015625.027344-.035156.042968-.054687l.023438-.027344c.007812-.007812.015625-.015625.023438-.023438l.023437-.027343c.015625-.015625.03125-.03125.046875-.046875l.046875-.046875.023437-.019531.023438-.023438.070312-.058594c.039063-.03125.078126-.0625.117188-.09375l.023438-.015625c.03125-.023437.0625-.042969.09375-.066406l.023437-.011719.046875-.03125.023438-.011718.023437-.015626.070313-.035156.023437-.015625.019531-.011719.027344-.011718c.003906-.003906.011719-.007813.019531-.011719l.023438-.007813.046875-.023437.023437-.007813.023438-.011718.023437-.007813.023438-.011719.210937-.070312.023438-.003906.046875-.015625.046875-.007813c.007812-.003906.015625-.003906.023437-.007812l.070313-.011719.023437-.007813.046875-.007812c.007813 0 .015625 0 .023438-.003906h.023437l.046875-.007813.019531-.003906h.027344l.019532-.003906h.023437l.023437-.003907h.023438l.023438-.003906h3.683593v12.066406c0 .273438-.046875.542969-.136719.800782-.089843.257812-.226562.5-.398437.710937l-.023437.027344c-.011719.019531-.027344.039063-.042969.054687l-.023438.027344-.023437.023438-.023438.027344c-.03125.03125-.0625.0625-.09375.089843l-.023437.023438-.140625.117187-.023438.015625-.023437.019531-.023438.015626-.023437.019531-.09375.0625c-.007813.003906-.015625.007812-.023438.011719l-.046875.03125-.023437.011718c-.007813.003906-.015625.011719-.023438.015625-.015625.007813-.03125.015625-.046875.023438l-.09375.046875-.019531.011718-.046875.023438-.023437.007812-.023438.011719-.023438.007813-.023437.011718-.140625.046876c-.007812.003906-.015625.007812-.023438.007812l-.046874.015625-.023438.003906-.046875.015625-.023437.003906-.023438.007813-.046875.007813-.023437.007812-.164063.027344h-.023437l-.046876.007812h-.023437l-.019531.003906h-.023438l-.023437.003907h-.046875l-.023438.003906h-3.644531v-5.085937l.050781.011718.023438.007813.023437.003906.023438.007813.046875.007812.023437.007812.046875.007813.023438.007813.046875.007812.023437.007812.09375.015626.023438.007812.046875.007812.019531.003907.027344.003906.019531.003906.117187.019531.023438.007813.09375.015625h.023438l.1875.03125h.023437l.09375.015625h.023437l.070313.011719h.023437l.046876.007812h.023437l.019531.003906.027344.003907h.019531l.046875.007812h.023438l.023437.003907h.023438l.023437.003906h.023438l.046875.007812h.023437l.023438.003906h.023437l.023438.003907h.046875l.023437.003906h.023438l.023437.003906h.023438l.023437.003907h.046875l.023438.003906h.070312l.023438.003906h.046875l.023437.003906h.09375l.019532.003906h.140624l.023438.003907h.234375l.023437-.003907h.140626l.023437-.003906h.070313l.023437-.003906h.046875l.023438-.003906h.042968l.023438-.003906h.046875l.023437-.003907h.023438l.023437-.003906h.023438l.023437-.003906h.023438l.046875-.007813h.023437l.046875-.007812h.023438l.070312-.011719h.023438l.28125-.046875c.007812-.003906.015625-.003906.023437-.007812l.023438-.003907.019531-.003906.023437-.003906.023438-.007813.023438-.003906.023437-.007812.046875-.007813.046875-.015625.023437-.003906.046876-.015625.023437-.003907.210937-.070312.023438-.011719.023438-.007812.023437-.011719.023437-.007812.023438-.011719.023438-.007813.046874-.023437c.007813-.003907.015626-.007813.023438-.011719l.023438-.007812.023437-.015626.046875-.023437c.023438-.011719.046875-.023437.066406-.039063l.023438-.011718.09375-.0625c.007812-.003906.015625-.011719.023437-.015625l.023438-.015625.023437-.019532c.023438-.019531.046875-.035156.070313-.054687l.023437-.019531.023438-.023438.023437-.019531.046875-.046875.023438-.023438.023437-.027343c.09375-.105469.171875-.222657.234375-.351563.035156-.078125.066406-.15625.09375-.242187.015625-.0625.03125-.128907.042969-.195313.027344-.132812.039063-.269531.035156-.40625v-2.800781h-2.0625l-.019531 2.800781c0 .097656-.007812.195313-.027344.289063-.015625.074219-.039062.148437-.070312.222656-.035156.085937-.082032.164063-.140625.238281-.058594.078125-.128907.144532-.207031.203125-.085938.0625-.183594.113281-.28125.148438-.039063.015625-.078126.027343-.117188.039062l-.023438.003907c-.046874.011718-.09375.023437-.140624.03125l-.023438.003906c-.015625 0-.03125.003906-.046875.003906l-.023437.003906h-.023438l-.023438.003906c-.015624 0-.03125 0-.046874.003907h-.230469l-.023438-.003907h-.070312l-.023438-.003906h-.023437l-.023438-.003906h-.023437l-.023438-.003906h-.023437l-.046875-.007813h-.023438l-.070312-.011719h-.023438l-.1875-.03125-.019531-.003906-.027344-.007812-.019531-.003906-.046875-.007813-.023438-.007813-.046874-.007812-.023438-.007812-.023438-.003907-.023437-.007812-.023437-.003907-.023438-.007812-.023438-.003906-.023437-.007813-.023437-.003906-.070313-.023437-.023437-.003907-.351563-.117187-.019531-.011719-.027344-.007813-.019531-.007812-.023438-.011719-.046875-.015625-.023437-.011718-.023438-.007813-.023437-.011719-.023438-.007812-.023437-.011719-.023438-.007813-.023437-.011718-.023438-.007813-.046875-.023437-.023437-.007813-.070313-.035156-.023437-.007813-.023438-.011718zm0 0" fill="#006cb9"/><path d="m17.265625 10.691406c-.019531.011719-.035156.027344-.050781.042969v-3.160156c0-.363281.082031-.71875.234375-1.042969.054687-.113281.117187-.21875.1875-.324219l.046875-.0625c.007812-.011719.015625-.023437.023437-.03125l.023438-.03125.023437-.027343c.015625-.019532.03125-.039063.046875-.058594l.023438-.023438.023437-.027344c.03125-.035156.0625-.066406.09375-.097656l.023438-.023437.023437-.019531.023438-.023438.070312-.058594c.042969-.039062.089844-.074218.140625-.109375.019532-.015625.042969-.03125.066406-.046875l.09375-.0625.023438-.011718.023438-.015626.070312-.035156.023438-.015625.046874-.023437.023438-.007813.070312-.035156.023438-.007813.023438-.011718.046874-.015625.023438-.011719.1875-.0625.023438-.003906.023437-.007813.023437-.003906.019532-.007813.023437-.003906.023438-.007812.257812-.042969h.023438l.023437-.003906h.023438l.023437-.003907h.023438l.023437-.003906h3.683594v12.066406c0 .273438-.046875.542969-.136719.800782-.054687.15625-.125.304687-.210937.445312-.015625.023438-.03125.050782-.046875.074219-.007813.011719-.015625.023437-.023438.035156-.035156.054688-.074219.105469-.117187.15625l-.09375.109375-.023438.023438-.023437.027344-.023438.023437c-.023437.023437-.042969.046875-.070312.066406l-.023438.023438-.046875.039062-.023437.023438-.019531.015625-.070313.058594-.046875.03125-.023438.019531-.117187.078125-.023437.011718-.023438.015626-.023438.011718c-.007812.007813-.015624.011719-.023437.015625l-.09375.046875-.023437.015625-.023438.007813c-.007812.003906-.015625.007812-.023438.011718l-.023437.011719c-.007813.003907-.015625.007813-.023437.011719l-.023438.007812-.023438.011719-.023437.007813-.023437.011718-.140626.046876c-.007812.003906-.015624.007812-.019531.007812l-.070312.023438-.023438.003906-.023437.007812-.023438.003906-.023437.007813-.046875.007813-.023438.007812-.164062.027344h-.023438l-.046875.007812h-.023437l-.023438.003906h-.023437l-.023438.003907h-.023437l-.023438.003906h-3.664062v-5.570313c.03125.023438.0625.050782.097656.078126l.046875.03125c.015625.011718.027344.023437.046875.035156l.019531.015625.070313.046875.023437.011718.046875.03125.046875.023438.023438.015625.1875.09375.023437.007813.023438.011718.023437.007813.046875.023437.046875.015625.023438.011719.070312.023438.023438.011718.070312.023438.019531.007812.027344.007813.019532.007812.023437.003907.070313.023437.023437.003906.046875.015625.023438.003906.023437.007813.023437.003906.023438.007813.023438.003906.023437.007812.046875.007813.023438.007813.046874.007812.023438.007812.210938.035157.023437.007812h.023437l.09375.015625.019532.003906.023437.003907h.023438l.070312.011719h.023438l.046875.007812h.023437l.023438.003906h.023437l.046875.007813h.023438l.023437.003906h.023438l.023437.003906h.046875l.023438.003907h.023437l.023438.003906h.046875l.023437.003906h.046875l.023438.003906h.09375l.023437.003906h.136719l.023438.003907h.28125l.023437-.003907h.140625l.023438-.003906h.09375l.023437-.003906h.070313l.023437-.003906h.046875l.019531-.003906h.023438l.023437-.003907h.023438l.023437-.003906h.023438l.023437-.003906h.023438l.023437-.003907h.023438l.023437-.003906h.023438l.023437-.003906h.023438l.046875-.007812h.023437l.046875-.007813h.023438l.070312-.011719h.023438l.09375-.015625h.023437l.09375-.015625.019531-.003906.070313-.011719h.023437l.210938-.035156.023438-.007813.1875-.03125.023437-.007812.09375-.015625.023437-.007813.070313-.011718.023437-.007813.046876-.007812.019531-.007813.046875-.007812.023437-.007813.046875-.007812.023438-.007813.023437-.003906.023438-.007812v-1.019532l-.070313.035156-.023437.007813-.09375.046875-.019531.011719-.023438.007812-.046875.023438-.023437.007812-.023438.011719-.023438.007812-.023437.011719-.023437.007813-.023438.011718-.023438.007813-.023437.011719-.046875.015625-.023438.011719-.070312.023437-.023438.011719-.210937.070312-.023437.003906-.070313.023438-.023437.003906-.046876.015625-.019531.003907-.023437.007812-.023438.003906-.023437.007813-.023438.003906-.023437.007813-.023438.003906-.023437.007812-.070313.011719-.023437.007813-.304688.050781h-.023437l-.070313.011719h-.023437l-.023438.003906h-.023437l-.023438.003906h-.019531l-.027344.003906h-.019531l-.023437.003906h-.046876l-.023437.003907h-.09375l-.023437.003906h-.09375l-.023438-.003906h-.070312l-.023438-.003907h-.046875l-.023437-.003906h-.023438l-.023438-.003906h-.023437l-.09375-.015625h-.023437l-.070313-.011719-.019531-.007812-.027344-.003906-.019531-.003907-.023438-.003906-.023437-.007813-.023438-.003906-.046875-.015625c-.007812 0-.015625-.003906-.023437-.003906l-.023438-.007813c-.015625-.003906-.03125-.011718-.046875-.015624l-.070312-.023438-.023438-.011719-.046875-.015625-.070312-.035156c-.015625-.007812-.03125-.015625-.046875-.023438l-.023438-.011718c-.007812-.003906-.015625-.007813-.023437-.011719-.023438-.015625-.046875-.027344-.070313-.042969-.007812-.003906-.015625-.007812-.023437-.015625l-.023438-.015625c-.015625-.011718-.03125-.019531-.046875-.03125l-.023437-.019531c-.007813-.007813-.015625-.011719-.023438-.019531l-.023437-.019532c-.023438-.019531-.046875-.039062-.066407-.0625-.011718-.007812-.019531-.015624-.023437-.023437-.042969-.042969-.082031-.085937-.117187-.136719-.054688-.070312-.101563-.148437-.140626-.226562-.039062-.078125-.070312-.15625-.09375-.238282-.019531-.066406-.035156-.128906-.046874-.195312-.042969-.253906-.042969-.507812 0-.761719.015624-.089843.039062-.179687.070312-.265625.027344-.074218.058594-.144531.09375-.210937.046875-.085938.101562-.167969.164062-.242188.042969-.050781.089844-.101562.140626-.144531.003906-.007812.011718-.015625.019531-.019531l.023437-.019531c.03125-.027344.0625-.050782.09375-.070313l.046875-.03125c.015625-.011719.03125-.019531.046875-.027344l.023438-.015625.046875-.023437c.015625-.007813.03125-.015625.046875-.023438l.070312-.035156.046875-.015625.023438-.011719.070312-.023437c.023438-.007813.046875-.015625.070313-.023438l.023437-.003906.023438-.007812c.007812-.003907.015625-.003907.023437-.007813l.023438-.003906.023437-.007813.023438-.003906.019531-.003906.027344-.003906.019531-.003907.023437-.007812.046876-.007813h.023437l.09375-.015625h.023437l.023438-.003906h.023438l.023437-.003906h.023437l.023438-.003907h.046875.023437.023438l.023438-.003906h.117187l.023437.003906h.070313l.023437.003907h.046876l.023437.003906h.019531l.027344.003906h.019531l.023438.003907h.023437l.023438.003906h.023437l.070313.011718h.023437l.328125.054688.023438.007812.046875.007813.023437.007813.046875.007812.023438.007812.023437.003907.023438.007812.023437.003907.019531.007812.023438.007812.023438.003907.046874.015625.023438.003906.304688.101562.023437.011719.046875.015625.023438.011719.046874.015625.023438.011719.023438.007812.046874.023438.023438.007812.023438.011719.023437.007812.046875.023438.023438.007812.019531.011719.09375.046875.023437.007813.070313.035156v-1.019531l-.023438-.007813-.023437-.003906-.023438-.007813-.046875-.007812-.023437-.007812-.046875-.007813-.019531-.007813-.046876-.007812-.023437-.007812-.070313-.011719-.023437-.007813-.117187-.019531-.023438-.007813-.1875-.03125-.023438-.007812-.210937-.035156h-.023437l-.046876-.007813-.019531-.003906-.09375-.015625h-.023437l-.09375-.015625h-.023438l-.070312-.011719h-.023438l-.046875-.007812h-.023437l-.046875-.007813h-.023438l-.023437-.003906h-.023438l-.023437-.003906h-.023438l-.046875-.007813h-.046875l-.023437-.003906h-.023438l-.023437-.003906h-.023438l-.023437-.003906h-.070313l-.023437-.003907h-.042969l-.023437-.003906h-.09375l-.023438-.003906h-.140625l-.023437-.003907h-.304688l-.023438.003907h-.113281l-.023437.003906h-.070313l-.023437.003906h-.070313l-.023437.003907h-.046875l-.023438.003906h-.023437l-.023438.003906h-.023437l-.023438.003906h-.046875l-.023437.003906h-.023438l-.046875.007813h-.023437l-.023438.003906h-.023437l-.046875.007813h-.023438l-.070312.011718h-.023438l-.023437.003907-.019532.003906-.351562.058594-.023438.007812-.046874.007813-.023438.007812-.046875.007813-.023437.007812-.023438.003907-.023438.007812-.023437.003906-.023437.007813-.023438.003906-.046875.015625-.023437.003906-.09375.03125-.019532.003906-.027344.007813-.019531.007813-.046875.015624-.023437.011719-.09375.03125-.023438.011719-.046875.015625-.046875.023437-.023437.007813-.023438.011719-.023437.007812-.1875.09375-.023438.015625-.023437.011719-.023438.015625-.023437.011719-.023438.015625-.023437.011719-.070313.046874-.019531.015626c-.015625.011718-.03125.023437-.046875.035156l-.023437.015625c-.023438.019531-.046876.035156-.070313.054687zm0 0" fill="#e10238"/></g></svg>