<svg viewBox="0 0 40 24" xmlns="http://www.w3.org/2000/svg"><path d="m0 0h40v24h-40z" fill="#fff"/><path d="m19.421875 5.382812c0-.148437.003906-.148437.519531-.148437h.523438v-.410156l1.289062.007812 1.285156.003907-.347656.171874c-.320312.15625-.394531.167969-.996094.167969h-.652343v.351563h-1.621094zm.921875 9.246094c.355469-1.753906.511719-3.460937.414062-4.53125-.121093-1.355468-.667968-3.046875-.902343-2.804687-.023438.019531-.007813.382812.023437.8125.175782 2.210937-.050781 4.308593-.722656 6.699219-.039062.132812-.03125.132812.542969.132812h.582031zm1.667969-.234375c.308593-1.433593.332031-1.65625.328125-2.992187 0-1.414063-.070313-1.902344-.433594-3.050782-.140625-.4375-.207031-.5625-.316406-.617187-.078125-.035156-.152344-.050781-.167969-.039063-.011719.015626.003906.40625.039063.871094.109374 1.414063-.050782 3.171875-.476563 5.261719-.066406.324219-.136719.648437-.207031.972656-.03125.117188-.011719.132813.214844.152344.140624.011719.398437.027344.570312.03125l.320312.011719zm-3.726563.601563c.128906 0 .269532-.023438.308594-.046875.039062-.027344.136719-.386719.214844-.804688.257812-1.394531.34375-2.21875.34375-3.386719.003906-1.285156-.101563-1.957031-.492188-3.167968-.195312-.613282-.246094-.71875-.351562-.71875-.105469 0-.113282.027344-.085938.21875.097656.621094.167969 2.199218.136719 3.085937-.050781 1.539063-.265625 2.902344-.671875 4.3125l-.167969.582031.261719-.039062c.148438-.019531.375-.035156.503906-.035156zm5.132813-.25c.222656-.726563.449219-1.707032.523437-2.253906.097656-.742188.046875-1.953126-.113281-2.570313-.226563-.875-.640625-1.824219-.792969-1.824219-.078125 0-.085937.0625-.042968.453125.027343.25.046874 1.019531.046874 1.710938-.003906 1.101562-.023437 1.371093-.164062 2.191406-.105469.585937-.226562 1.167969-.363281 1.742187-.113281.449219-.191407.820313-.179688.835938.015625.015625.503907.089844.890625.132812.039063.003907.125-.183593.195313-.417968zm-6.894531.457031c.265624-.050781.503906-.117187.527343-.15625.066407-.105469.28125-1.179687.410157-2.039063.15625-1.019531.167968-2.707031.027343-3.652343-.1875-1.230469-.679687-2.902344-.867187-2.941407-.121094-.023437-.121094.015626 0 1.160157.066406.589843.101562 1.441406.101562 2.453125.003906 1.351562-.011718 1.644531-.121094 2.28125-.117187.664062-.582031 2.628906-.683593 2.878906-.050781.125-.023438.125.605469.015625h-.003907zm-1.207032.066406c.445313-1.34375.605469-2.570312.550782-4.191406-.074219-2.207031-.414063-4.070313-.960938-5.289063-.144531-.320312-.179688-.359374-.417969-.4375-.253906-.085937-.257812-.09375-.210937-.273437l.046875-.183594.652343.171875c6.972657 1.839844 8.886719 2.359375 8.949219 2.414063.113281.109375.457031 1.136719.570313 1.707031.277344 1.402344.03125 3.625-.617188 5.574219-.285156.847656-.3125.890625-.566406.851562-.722656-.105469-2.042969-.175781-3.429688-.175781-1.660156 0-2.613281.089844-4.128906.378906-.207031.042969-.414062.078125-.625.113282-.015625 0 .066406-.296876.1875-.660157zm4.046875.691407c0-.136719.019531-.148438.261719-.148438.238281 0 .257812.015625.257812.148438 0 .132812-.019531.144531-.257812.144531s-.261719-.011719-.261719-.144531zm-3.457031 2.269531-.761719-.023438-.183593-.300781-.183594-.296875.542968.039063c1.558594.121093 2.332032.148437 4.128907.152343 1.082031 0 2.589843-.027343 3.347656-.0625.761719-.035156 1.394531-.050781 1.414063-.03125.015624.015625-.023438.121094-.09375.230469-.109376.183594-.148438.199219-.484376.234375-.429687.042969-6.632812.089844-7.726562.058594zm-1.261719 1.253906c-.527343-.117187-1.050781-.726563-1.785156-2.09375-.4375-.8125-.5625-1.207031-.5625-1.78125v-.496094h1.796875v.527344h-1.21875v.503906l.855469.132813c2.457031.386718 4.78125.527344 6.957031.421875 1.300781-.0625 2.785156-.1875 3.316406-.273438l.207032-.035156.734374-1.910156c.402344-1.050781.730469-1.929688.730469-1.953125 0-.023438-.078125-.042969-.167969-.042969-.242187 0-.34375-.054687-.320312-.164063.007812-.054687.03125-.175781.050781-.265624l.035157-.164063.363281.039063.367187.039062.078125-.1875c.074219-.179688.082031-.183594.339844-.144531.34375.046875.394531.101562.273437.285156-.035156.054687-.066406.109375-.09375.171875 0 .011719.234376.054688.523438.09375l.519531.070312v.292969c0 .289063-.003906.292969-.160156.261719-.480469-.097656-1.140625-.164062-1.15625-.117188-.011719.027344-.40625 1.011719-.871094 2.183594l-.851562 2.132813-.550781.070312c-3.429688.425781-7.121094.378907-10.191407-.121093-.273437-.042969-.503906-.074219-.515625-.0625-.035156.035156.570313 1.066406.832032 1.414062.464843.621094-.023438.566406 5.210937.585938 3.089844.011718 4.695313-.003907 4.941406-.042969.597657-.105469.960938-.300781 1.4375-.785157.675781-.679687.65625-.59375.65625-2.914062v-1.972656h.609375c.390625 0 .609375.023437.609375.0625 0 .035156-.03125.179687-.066406.320312-.0625.257813-.066406.261719-.316406.261719h-.25l-.019531 1.824219-.015626 1.828125-.15625.261719c-.214843.371093-1.175781 1.300781-1.53125 1.480468-.210937.097656-.433593.167969-.664062.207032-.472656.078124-9.667969.125-9.984375.054687zm0 0" fill="#c51130"/></svg>