<svg viewBox="0 0 40 24" xmlns="http://www.w3.org/2000/svg"><path d="m0 0h40v24h-40z" fill="#fff"/><path d="m22.273438 12.460938h1.984374c.171876 0 .171876.050781.171876.144531v.738281c0 .183594 0 .25-.300782.25h-1.828125c-.070312 0-.164062 0-.164062-.109375v-.574219c0-.09375 0-.128906-.128907-.128906h-.40625c-.058593 0-.121093 0-.121093.128906v1.023438c0 .335937.136719.546875.5625.546875h2.359375c.175781.015625.347656-.042969.472656-.167969.128906-.121094.195312-.296875.183594-.472656v-1.484375c0-.320313-.238282-.570313-.664063-.570313h-2.070312c-.101563 0-.195313 0-.195313-.164062v-.679688c0-.078125 0-.136718.171875-.136718h1.957031c.1875 0 .144532 0 .144532.171874v.355469c0 .105469.085937.105469.179687.105469h.367188c.101562 0 .117187-.050781.117187-.128906v-.597656c0-.601563-.203125-.808594-.6875-.808594h-2.070312c-.539063 0-.851563 0-.851563.808594v1.160156c0 .371094.230469.546875.800781.546875zm4.148437-.183594v-1.257813c0-.171875.09375-.207031.195313-.207031h1.898437c.128906 0 .171875 0 .171875.140625v2.496094c0 .144531-.085938.144531-.171875.144531h-1.90625c-.128906 0-.1875 0-.1875-.15625zm0 2.183594h2.1875c.484375 0 .730469-.164063.730469-.753907v-2.964843c0-.542969-.21875-.804688-.703125-.804688h-2.15625c-.453125 0-.722657.191406-.722657.804688v3.0625c0 .378906.167969.65625.671876.65625zm-20.949219-3.65625h.585938v2.78125h-.535156c-.058594 0-.101563.046874-.101563.105468v.667969c-.003906.027344.007813.054687.027344.074219.019531.019531.046875.03125.074219.027344h3.40625c.027343.003906.054687-.007813.074218-.027344.019532-.019532.03125-.046875.027344-.074219v-1.527344c0-.054687-.046875-.101562-.101562-.101562h-.441407c-.058593 0-.105469.046875-.105469.101562v.761719h-1.703124v-2.789062h.554687c.058594 0 .101563-.046876.101563-.105469v-.65625c0-.058594-.042969-.105469-.101563-.105469h-1.761719c-.058594 0-.101562.046875-.101562.105469v.667969c0 .054687.042968.101562.101562.101562zm6.480469.71875.5.929687h-1.019531zm-2.402344 2.9375h1.804688c.03125.007812.066406 0 .089843-.019532.023438-.019531.039063-.050781.039063-.082031v-.667969c0-.058594-.046875-.105468-.101563-.105468h-.589843l.265625-.46875h1.769531l.257813.46875h-.546876c-.054687 0-.101562.046874-.101562.105468v.667969c0 .054687.046875.101563.101562.101563h1.804688c.03125.003906.058594-.007813.078125-.027344.019531-.019532.027344-.046875.027344-.074219v-.667969c0-.058594-.046875-.105468-.105469-.105468h-.5l-1.507812-2.78125h.570312c.058594 0 .101562-.046876.101562-.105469v-.65625c0-.058594-.042968-.105469-.101562-.105469h-1.820312c-.058594 0-.105469.046875-.105469.105469v.667969c0 .054687.046875.101562.105469.101562h.5l-1.550782 2.78125h-.484375c-.054687 0-.101562.046875-.101562.105469v.667969c0 .058593.046875.105468.101562.105468zm4.164063-3.65625h.546875l1.351562 2.78125h-.554687c-.054688 0-.101563.046874-.101563.105468v.667969c0 .027344.007813.054687.027344.074219.019531.019531.046875.03125.074219.027344h1.808594c.054687 0 .101562-.046876.101562-.101563v-.667969c0-.058594-.046875-.105468-.101562-.105468h-.503907l.980469-2.035157.953125 2.042969h-.535156c-.058594 0-.105469.046875-.101563.105469v.667969c0 .058593.042969.105468.101563.105468h1.804687c.027344 0 .054688-.007812.074219-.03125.019531-.019531.03125-.046875.027344-.074218v-.667969c0-.058594-.046875-.105469-.101563-.105469h-.511718l1.335937-2.78125h.53125c.054687 0 .101563-.046875.101563-.101562v-.667969c0-.058594-.046876-.105469-.101563-.105469h-1.773437c-.054688 0-.101563.046875-.101563.105469v.667969c0 .054687.046875.101562.101563.101562h.546874l-.988281 2.046875-.996093-2.046875h.527343c.054688 0 .101563-.046875.101563-.101562v-.667969c0-.058594-.046875-.105469-.101563-.105469h-1.796875c-.058594 0-.101562.046875-.101562.105469v.667969c0 .054687.042968.101562.101562.101562h.527344l-.972656 2.027344-.984375-2.027344h.527343c.054688 0 .101563-.046875.101563-.101562v-.667969c0-.058594-.046875-.105469-.101563-.105469h-1.824218c-.054688 0-.101563.046875-.101563.105469v.667969c0 .054687.046875.101562.101563.101562zm16.164062 3.65625h1.804688c.027344.003906.054687-.007813.074218-.027344.019532-.019532.03125-.046875.027344-.074219v-.667969c0-.058594-.046875-.105468-.101562-.105468h-.613282v-1.992188l2.09375 1.992188h-.46875c-.054687 0-.101562.046874-.101562.105468v.667969c-.003906.027344.007812.054687.027344.074219.019531.019531.046875.03125.074218.027344h1.808594c.027344.003906.054688-.007813.074219-.027344.019531-.019532.027344-.046875.027344-.074219v-.667969c0-.058594-.046875-.105468-.101563-.105468h-.578125v-2.78125h.578125c.054688 0 .101563-.046876.101563-.105469v-.65625c0-.058594-.046875-.105469-.101563-.105469h-1.78125c-.058594 0-.101562.046875-.101562.105469v.667969c0 .054687.046875.101562.101562.101562h.570313v1.960938l-2.050781-1.960938h.449218c.058594 0 .105469-.046875.101563-.101562v-.667969c.003906-.058594-.042969-.105469-.101563-.105469h-1.8125c-.058594 0-.101562.046875-.101562.105469v.667969c0 .054687.046875.101562.101562.101562h.554688v2.78125h-.554688c-.058594.003906-.101562.046875-.101562.105469v.667969c-.003906.027343.007812.054687.027344.074218.019531.023438.046874.03125.074218.03125zm0 0" fill="#007bc2"/></svg>