<svg viewBox="0 0 40 24" xmlns="http://www.w3.org/2000/svg"><path d="m0 0h40v24h-40z" fill="#fff"/><path d="m7.953125 7.542969h23.339844v8.171875h-23.339844zm0 0" fill="#fff"/><path d="m30.542969 16.828125h-21.085938c-1.277343 0-2.257812-.964844-2.257812-2.226563v-5.203124c0-1.261719.980469-2.226563 2.257812-2.226563h21.085938c1.277343 0 2.257812.964844 2.257812 2.226563v5.203124c0 1.261719-.980469 2.226563-2.257812 2.226563zm0 0" fill="#263b80"/><path d="m10.589844 13.632812h1.65625v.59375h-2.484375v-3.710937h.75v3.117187zm4.214844-.148437h-1.355469l-.226563.742187h-.828125l1.429688-3.710937h.753906l1.429687 3.710937h-.828124zm-1.128907-.667969h.902344l-.449219-1.410156zm3.464844-.59375.75-1.632812h.828125l-1.203125 2.375v1.261718h-.753906v-1.335937l-1.203125-2.375h.828125zm3.011719.742188h-1.433594v-.59375h1.433594zm.601562 1.261718v-3.710937h1.277344c.453125 0 .828125.074219 1.054688.222656.226562.148438.378906.445313.378906.742188 0 .148437-.078125.371093-.152344.445312-.074219.148438-.226562.222657-.375.296875.226562.074219.375.148438.449219.296875.078125.148438.152343.296875.152343.519531 0 .371094-.152343.59375-.375.816407-.242187.242187-.566406.375-.90625.371093zm.753906-2.152343h.601563c.375 0 .601563-.148438.601563-.445313-.003907-.136718-.058594-.269531-.152344-.371094-.074219-.074218-.222656-.074218-.449219-.074218h-.601563zm0 .519531v.964844h.675782c.152344 0 .300781-.074219.453125-.148438.148437-.074218.148437-.222656.148437-.371094 0-.371093-.148437-.519531-.527344-.519531h-.75zm5.496094-2.078125v2.449219c0 .371094-.152344.742187-.378906.964844-.226562.226562-.601562.375-1.054688.375-.449218 0-.75-.148438-1.050781-.375-.304687-.222657-.378906-.519532-.378906-.964844v-2.449219h.753906v2.449219c0 .222656.074219.445312.148438.519531.152343.074219.304687.148437.453125.148437.453125 0 .679687-.222656.679687-.667968v-2.449219zm1.882813 1.707031.75-1.632812h.90625l-1.207031 2.375v1.261718h-.75v-1.335937l-1.28125-2.375h.828124zm0 0" fill="#fff"/></svg>