<svg viewBox="0 0 40 24" xmlns="http://www.w3.org/2000/svg"><path d="m0 0h40v24h-40z" fill="#fff"/><path d="m23.199219 12.199219c0 3.867187-3.132813 7-7 7-3.863281 0-7-3.132813-7-7 0-3.863281 3.136719-7 7-7 3.867187 0 7 3.136719 7 7zm0 0" fill="#eb001b"/><path d="m31.199219 12.199219c0 3.867187-3.132813 7-7 7-3.863281 0-7-3.132813-7-7 0-3.863281 3.136719-7 7-7 3.867187 0 7 3.136719 7 7zm0 0" fill="#00a2e5"/><path d="m23.199219 12.199219c0-2.398438-1.199219-4.5-3-5.699219-1.800781 1.300781-3 3.398438-3 5.699219s1.199219 4.5 3 5.699219c1.800781-1.199219 3-3.296876 3-5.699219zm0 0" fill="#7375cf"/></svg>