<svg viewBox="0 0 40 24" xmlns="http://www.w3.org/2000/svg"><path d="m0 0h40v24h-40z" fill="#fff"/><path d="m29.558594 17.847656c-.175782-.117187-.421875-.175781-.6875-.175781-.425782 0-.703125.203125-.703125.539063 0 .273437.207031.445312.582031.496093l.171875.023438c.203125.03125.296875.082031.296875.179687 0 .128906-.132812.203125-.382812.203125-.253907 0-.4375-.082031-.558594-.175781l-.175782.285156c.203126.148438.457032.21875.730469.21875.488281 0 .769531-.230468.769531-.550781 0-.296875-.222656-.449219-.589843-.503906l-.171875-.023438c-.160156-.023437-.285156-.054687-.285156-.167969 0-.121093.121093-.195312.320312-.195312.214844 0 .421875.082031.523438.144531zm-1.757813 0c-.175781-.117187-.421875-.175781-.6875-.175781-.425781 0-.703125.203125-.703125.539063 0 .273437.203125.445312.582032.496093l.171874.023438c.203126.03125.296876.082031.296876.179687 0 .128906-.132813.203125-.382813.203125-.253906 0-.4375-.082031-.5625-.175781l-.171875.285156c.199219.148438.453125.21875.730469.21875.484375 0 .765625-.230468.765625-.550781 0-.296875-.21875-.449219-.585938-.503906l-.171875-.023438c-.160156-.023437-.285156-.054687-.285156-.167969 0-.121093.117187-.195312.320313-.195312.214843 0 .421874.082031.523437.144531zm-4.199219.699219c0 .296875-.191406.539063-.507812.539063-.304688 0-.507812-.230469-.507812-.539063 0-.304687.203124-.535156.507812-.535156.316406 0 .507812.242187.507812.535156zm-1.363281 0v1.453125h.367188v-.8125c.117187.152344.292969.246094.53125.246094.472656 0 .84375-.371094.84375-.886719 0-.511719-.371094-.882813-.84375-.882813-.238281 0-.414063.097657-.53125.246094v-.203125h-.367188zm2.386719.003906c0-.292969.195312-.539062.511719-.539062.300781 0 .507812.234375.507812.539062 0 .308594-.207031.539063-.507812.539063-.316407 0-.511719-.242188-.511719-.539063zm1.363281 0v-.839843h-.367187v.203124c-.117188-.152343-.292969-.246093-.53125-.246093-.472656 0-.84375.371093-.84375.882812 0 .515625.371094.886719.84375.886719.238281 0 .414062-.097656.53125-.246094v.203125h.367187zm-12.214843 0c0-.292969.191406-.539062.507812-.539062.304688 0 .507812.234375.507812.539062 0 .308594-.203124.539063-.507812.539063-.316406 0-.507812-.242188-.507812-.539063zm1.363281 0v-.839843h-.367188v.203124c-.117187-.152343-.292969-.246093-.53125-.246093-.472656 0-.84375.371093-.84375.882812 0 .515625.371094.886719.84375.886719.238281 0 .414063-.097656.53125-.246094v.203125h.367188zm4.542969-.554687c.238281 0 .390624.148437.429687.410156h-.875c.039063-.246094.1875-.410156.445313-.410156zm.007812-.328125c-.492188 0-.839844.359375-.839844.882812 0 .535157.363282.886719.863282.886719.253906 0 .488281-.066406.691406-.238281l-.179688-.269531c-.140625.113281-.320312.175781-.488281.175781-.238281 0-.453125-.109375-.503906-.414063h1.25l.007812-.140625c-.003906-.523437-.328125-.882812-.800781-.882812zm-2.742188.175781c-.175781-.117188-.417968-.175781-.6875-.175781-.425781 0-.699218.203125-.699218.539062 0 .273438.203125.445313.582031.496094l.171875.027344c.199219.027343.296875.078125.296875.175781 0 .128906-.136719.203125-.386719.203125-.253906 0-.433594-.082031-.558594-.175781l-.171874.285156c.199218.148438.453124.21875.730468.21875.484375 0 .765625-.230469.765625-.550781 0-.296875-.222656-.449219-.585937-.503907l-.175782-.023437c-.15625-.023437-.285156-.054687-.285156-.167969 0-.121094.121094-.195312.320313-.195312.214843 0 .425781.082031.527343.144531zm4.726563-.175781c-.210937 0-.347656.097656-.445313.246093v-.203124h-.363281v1.683593h.367188v-.945312c0-.277344.121093-.433594.359375-.433594.074218 0 .152344.011719.230468.042969l.113282-.34375c-.085938-.03125-.171875-.046875-.261719-.046875zm-3.125.042969h-.597656v-.511719h-.371094v.511719h-.34375v.335937h.34375v.765625c0 .390625.152344.625.585937.625.15625 0 .339844-.050781.457032-.132812l-.105469-.3125c-.097656.058593-.210937.09375-.324219.097656-.183594 0-.246094-.113282-.246094-.285156v-.757813h.601563zm-5.476563 1.683593v-1.058593c0-.394532-.253906-.664063-.660156-.667969-.214844-.003907-.4375.0625-.59375.300781-.117187-.1875-.300781-.300781-.554687-.300781-.179688 0-.359375.054687-.496094.25v-.207031h-.367187v1.683593h.371093v-.933593c0-.292969.164063-.449219.414063-.449219.242187 0 .363281.160156.363281.445312v.9375h.371094v-.933593c0-.292969.171875-.449219.414062-.449219.25 0 .371094.160156.371094.445312v.9375zm0 0"/><path d="m14.601562 14.835938h10.796876v-9.191407h-10.796876zm0 0" fill="#ff5f00"/><path d="m17.734375 10.242188c0-1.863282.886719-3.523438 2.265625-4.59375-1.050781-.8125-2.339844-1.25-3.667969-1.246094-3.277343 0-5.933593 2.613281-5.933593 5.839844 0 3.230468 2.65625 5.84375 5.933593 5.84375 1.328125.003906 2.617188-.433594 3.667969-1.246094-1.378906-1.070313-2.265625-2.730469-2.265625-4.59375" fill="#ec001b"/><path d="m29.601562 10.242188c0 3.226562-2.65625 5.84375-5.933593 5.84375-1.328125.003906-2.617188-.433594-3.667969-1.246094 1.378906-1.070313 2.265625-2.730469 2.265625-4.597656 0-1.863282-.886719-3.523438-2.265625-4.59375 1.050781-.8125 2.339844-1.25 3.667969-1.246094 3.277343 0 5.933593 2.613281 5.933593 5.84375" fill="#f89e1b"/></svg>