<svg viewBox="0 0 40 24" xmlns="http://www.w3.org/2000/svg"><path d="m0 0h40v24h-40z" fill="#fff"/><path d="m17.21875 6.707031h5.925781v10.855469h-5.925781zm0 0" fill="#ff5f00"/><path d="m17.597656 12.136719c-.003906-2.121094.949219-4.125 2.582032-5.429688-2.773438-2.226562-6.757813-1.902343-9.15625.742188-2.394532 2.644531-2.394532 6.722656 0 9.367187 2.398437 2.644532 6.382812 2.96875 9.15625.746094-1.632813-1.308594-2.585938-3.308594-2.585938-5.425781zm0 0" fill="#eb001b"/><path d="m31.132812 12.136719c0 2.640625-1.480468 5.054687-3.808593 6.207031-2.332031 1.15625-5.105469.851562-7.144531-.78125 1.632812-1.308594 2.589843-3.308594 2.589843-5.429688 0-2.117187-.957031-4.117187-2.589843-5.425781 2.039062-1.636719 4.8125-1.9375 7.144531-.785156 2.332031 1.15625 3.808593 3.566406 3.808593 6.210937zm-.644531 4.371093v-.300781h.085938v-.0625h-.222657v.0625h.097657v.300781zm.433594 0v-.363281h-.066406l-.082031.261719-.078126-.261719h-.058593v.363281h.046875v-.273437l.074218.238281h.050782l.074218-.238281v.277344zm0 0" fill="#f79e1b"/></svg>