<svg viewBox="0 0 40 24" xmlns="http://www.w3.org/2000/svg"><path d="m0 0h40v24h-40z" fill="#ffc80b"/><path d="m7.671875 14.085938 1.203125-3.238282.394531 3.234375h1.273438l-.691407-4.753906h-1.550781l-1.027343 2.855469-1.03125-2.855469h-1.554688l-.6875 4.753906h1.273438l.390624-3.234375 1.207032 3.234375h.800781zm6.6875-3.539063 1.636719 3.539063-.648438 1.386718h1.414063l2.246093-4.925781h-1.453124l-.863282 2.472656-.875-2.472656zm21.640625 3.53125-1.488281-1.890625 1.355469-1.640625h-1.515626l-1.203124 1.546875v-3.15625h-1.320313v5.140625h1.320313v-1.789063l1.351562 1.789063zm-16.777344-.175781s.695313.257812 1.671875.257812c.980469 0 2.253907-.300781 2.253907-1.957031s-1.691407-1.714844-1.890626-1.714844c-.238281-.003906-.476562.042969-.695312.144531v-1.703124h-1.339844zm1.339844-.636719v-1.863281c.265625-.085938 1.234375-.324219 1.234375.882812 0 1.230469-.992187 1.042969-1.234375.976563zm3.304688-1.824219c1.921874-.558594 1.921874.113282 1.921874.203125v.121094c-1.558593.011719-2.484374.449219-2.484374 1.246094 0 .804687.863281 1.152343 2.007812 1.152343s1.726562-.257812 1.726562-.257812v-2.203125c0-.773437-.507812-1.265625-1.726562-1.265625s-1.75.28125-1.75.28125zm.671874 1.550782c0-.507813.984376-.542969 1.25-.542969v.90625c-.277343.03125-1.25.113281-1.25-.363281zm-13.265624-1.550782c1.925781-.558594 1.925781.113282 1.925781.203125v.121094c-1.558594.011719-2.488281.449219-2.488281 1.246094 0 .804687.867187 1.152343 2.007812 1.152343 1.144531 0 1.730469-.257812 1.730469-.257812v-2.203125c0-.773437-.507813-1.265625-1.730469-1.265625-1.21875 0-1.75.28125-1.75.28125zm.675781 1.550782c0-.507813.980469-.542969 1.25-.542969v.90625c-.28125.03125-1.25.113281-1.25-.363281zm18.054687 1.082031h1.324219v-2.234375c0-1.164063-.847656-1.410156-1.894531-1.410156-1.042969 0-1.886719.28125-1.886719.28125v3.367187h1.328125v-2.675781c1.019531-.296875 1.128906.1875 1.128906.421875zm0 0"/></svg>