<svg viewBox="0 0 40 24" xmlns="http://www.w3.org/2000/svg"><path d="m0 0h40v24h-40z" fill="#fff"/><g fill="#004097"><path d="m21.578125 6.273438c-.070313.085937-.101563.191406-.089844.300781s.066407.207031.148438.273437c.179687.144532.4375.117188.582031-.058594.609375-.671874 1.578125-.878906 2.410156-.515624 1.125.394531 1.28125 2.089843 1.289063 2.113281.007812.152343.109375.285156.253906.34375 1.113281.339843 1.875 1.367187 1.878906 2.53125 0 .144531-.015625.289062-.042969.429687-.023437.226563.128907.433594.351563.480469.847656.136719 1.441406.90625 1.359375 1.761719-.0625.980468-.78125 1.792968-1.75 1.976562-.191406.03125-.332031.195313-.328125.390625v1.582031h-14.933594v-5.925781c0-.105469-.042969-.203125-.117187-.277343-.074219-.074219-.175782-.117188-.28125-.117188h-1.4375l5.082031-5.289062 1.886719 1.882812c.164062.144531.410156.136719.566406-.019531.152344-.152344.15625-.398438.007812-.558594l-2.15625-2.148437c-.15625-.15625-.410156-.15625-.5625 0l-6.097656 6.285156c-.15625.101562-.21875.296875-.148437.46875.066406.171875.246093.273437.425781.246094h1.988281v5.949218c0 .214844.179688.390625.398438.390625h15.78125c.21875 0 .394531-.175781.394531-.390625v-1.71875c1.226562-.316406 2.082031-1.417968 2.089844-2.683594.082031-1.121093-.613282-2.15625-1.6875-2.5v-.191406c-.011719-1.398437-.863282-2.648437-2.160156-3.171875-.085938-.558593-.4375-2.109375-1.769532-2.582031-1.15625-.507812-2.503906-.207031-3.332031.742188zm0 0"/><path d="m15.039062 9.023438c-.214843.074218-.359374.277343-.359374.507812v2.660156c0 .195313.101562.375.273437.472656.167969.097657.378906.097657.546875 0 .167969-.097656.273438-.277343.273438-.472656v-1.1875l.351562.394532c.101562.117187.242188.1875.398438.195312.148437-.003906.292968-.070312.394531-.179688l.46875-.507812v1.285156c0 .300782.246093.546875.546875.546875.300781 0 .546875-.246093.546875-.546875v-2.660156c.011719-.230469-.125-.441406-.335938-.53125-.210937-.085938-.457031-.03125-.613281.136719l-.980469 1.109375-.914062-1.066406c-.148438-.171876-.386719-.234376-.597657-.15625zm4.148438.507812v2.683594c0 .300781.242188.542968.546875.542968.300781 0 .546875-.242187.546875-.542968v-2.683594c0-.300781-.246094-.542969-.546875-.542969-.304687 0-.546875.242188-.546875.542969zm5.433594 0v2.683594c0 .300781.246094.542968.546875.542968.304687 0 .550781-.242187.550781-.542968v-2.683594c0-.300781-.246094-.542969-.550781-.542969-.300781 0-.546875.242188-.546875.542969zm-3.246094-.523438c-.230469.066407-.390625.273438-.394531.515626v2.683593c0 .300781.242187.542969.546875.542969.300781 0 .546875-.242188.546875-.542969v-.921875l.878906 1.257813c.136719.195312.382813.277343.613281.203125.226563-.070313.378906-.28125.378906-.515625v-2.699219c0-.195312-.105468-.375-.273437-.472656s-.378906-.097656-.546875 0-.273438.277344-.273438.472656v.949219l-.878906-1.257813c-.132812-.191406-.371094-.277344-.597656-.214844zm-6.035156 7.222657c-.230469.085937-.445313-.101563-.582032-.273438-.082031-.171875-.261718-.277343-.453124-.265625-.191407.011719-.355469.140625-.414063.324219-.058594.179687 0 .378906.148437.5.363282.523437 1.023438.746094 1.625.550781.539063-.207031.898438-.71875.914063-1.292968-.035156-.515626-.398437-.945313-.898437-1.066407-.523438-.164062-.605469-.335937-.617188-.375-.015625-.035156-.082031-.292969.359375-.269531.152344.035156.292969.121094.394531.242188.171875.144531.417969.148437.59375.011718.175782-.136718.226563-.378906.125-.578125-.265625-.335937-.65625-.550781-1.085937-.601562-.414063-.007813-.8125.160156-1.09375.464843l-.050781.058594c-.195313.285156-.246094.640625-.144532.964844.230469.496094.6875.851562 1.226563.953125.152343.027344.253906.171875.226562.324219.015625.164062-.105469.308594-.273437.328125zm1.84375-2.933594c-.179688-.023437-.355469.058594-.453125.210937-.09375.152344-.09375.347657 0 .5.097656.152344.273437.234376.453125.210938h1.894531c.234375-.027344.410156-.226562.410156-.460938 0-.234374-.175781-.433593-.410156-.460937zm0 0"/><path d="m17.574219 13.855469v2.667969c0 .300781.246093.542968.546875.542968.300781 0 .546875-.242187.546875-.542968v-2.667969c0-.300781-.246094-.546875-.546875-.546875-.300782 0-.546875.246094-.546875.546875zm7.675781-.636719h-1.074219c-.300781 0-.546875.242188-.546875.542969v2.761719c0 .195312.105469.375.273438.472656.167968.097656.378906.097656.546875 0s.273437-.277344.273437-.472656v-.636719h.519532c.746093-.03125 1.347656-.617188 1.402343-1.359375-.03125-.742188-.652343-1.324219-1.394531-1.308594zm-.058594 1.578125h-.394531v-.648437h.414063s.339843.0625.339843.3125-.359375.332031-.359375.332031zm-3.9375-1.667969c-.804687 0-1.527344.480469-1.835937 1.222656-.308594.738282-.136719 1.589844.429687 2.152344.570313.566406 1.421875.734375 2.164063.425782.742187-.300782 1.226562-1.023438 1.226562-1.824219 0-1.089844-.886719-1.976563-1.984375-1.976563zm0 2.863282c-.460937.003906-.835937-.367188-.835937-.828126 0-.457031.375-.832031.835937-.832031.460938 0 .835938.375.835938.832031-.003906.460938-.378906.832032-.835938.828126zm0 0"/></g></svg>