<svg viewBox="0 0 40 24" xmlns="http://www.w3.org/2000/svg"><path d="m0 0h40v24h-40z" fill="#fff"/><path d="m27.9375 9.847656c-.238281-.011718-.476562.011719-.707031.070313-.175781.035156-.347657.117187-.53125.160156-.152344.023437-.304688.039063-.457031.046875.050781-.695312.085937-1.394531.140624-2.089844.03125-.1875-.019531-.378906-.132812-.53125-.117188-.152344-.289062-.25-.480469-.269531-.25-.019531-.503906-.019531-.753906 0v-.285156c.019531-.175781-.046875-.347657-.179687-.460938-.132813-.117187-.316407-.15625-.484376-.113281l-.496093.078125-4.9375.816406v4.933594c-.023438.214844-.070313.429687-.140625.632813-.058594.21875-.121094.441406-.183594.699218-.015625.027344-.015625.066406 0 .097656l2.644531-5.109374c.148438-.339844.523438-.523438.882813-.433594.355468.074218.605468.390625.59375.746094v6.761718c-.042969.390625-.371094.6875-.765625.6875-.398438 0-.730469-.300781-.765625-.6875v-3.484375h-.058594l-2.058594 3.902344c-.082031.152344-.164062.296875-.253906.4375-.1875.277344-.53125.40625-.855469.3125-.316406-.078125-.539062-.367187-.527343-.695313v-6h-.09375l-3.824219 7.171876c-.117188.265624-.371094.449218-.664063.46875-.289062.023437-.570312-.113282-.730468-.359376-.15625-.246093-.164063-.554687-.015626-.808593.425782-.769531.847657-1.546875 1.261719-2.328125l3.472657-6.597656-4.460938.695312c-.359375.0625-.65625.3125-.773438.65625v9.117188c.105469.292968.394532.476562.703126.457031h10.789062c.40625.039062.773438-.238281.847656-.640625l.042969-.160156h.777344c.210937.015624.414062-.089844.527343-.269532.089844-.144531.15625-.300781.191407-.46875.054687-.304687.078125-.625.113281-.941406.121094-1.125.242188-2.25.359375-3.378906-.003906-.035156.011719-.070313.035156-.097656.027344-.027344.0625-.042969.097657-.042969.183593 0 .355468-.0625.53125-.097657.46875-.074218.917968-.25 1.3125-.523437.410156-.277344.644531-.757813.605468-1.253906.042969-.386719-.21875-.742188-.597656-.820313zm-2.378906-1.8125c-.070313.46875-.101563.949219-.148438 1.394532-.085937.820312-.164062 1.644531-.246094 2.472656l-.253906 2.460937c-.078125.695313-.15625 1.394531-.234375 2.089844-.011719.140625-.089843.265625-.210937.339844s-.273438.082031-.402344.03125l.945312-9.585938c.136719.097657.265626.203125.386719.316407.132813.117187.195313.296874.164063.472656zm1.742187 3.484375c-.167969-.003906-.324219-.074219-.4375-.195312-.109375-.121094-.167969-.28125-.15625-.445313 0-.328125.269531-.59375.601563-.59375.332031 0 .605468.273438.605468.609375-.003906.332031-.277343.601563-.613281.597657zm.394531-.640625c-.003906.207032-.171874.375-.382812.375-.207031.003906-.378906-.167968-.378906-.375 0-.207031.171875-.375.378906-.375.210938 0 .382812.167969.382812.375zm0 0" fill="#26bcbc"/><path d="m12.558594 17.769531c-.242188-.070312-.4375-.257812-.519532-.5-.078124-.242187-.035156-.507812.117188-.710937.382812-.800782.796875-1.574219 1.207031-2.339844l4.058594-7.703125c.167969-.390625.617187-.578125 1.015625-.425781-.398438-.175782-.867188 0-1.050781.398437l-4.171875 7.777344c-.421875.792969-.84375 1.574219-1.253906 2.363281-.191407.292969-.160157.679688.074218.941406.234375.261719.613282.339844.933594.195313-.144531.039063-.292969.039063-.4375 0zm8.714844-9.28125c.144531-.28125.449218-.4375.761718-.398437-.324218-.0625-.652344.09375-.8125.382812-.570312 1.097656-1.488281 2.941406-2.058594 4.097656zm.707031 7.859375c-.421875.003906-.769531-.335937-.769531-.757812v-3.484375h-.085938.042969v3.53125c0 .425781.347656.769531.777343.769531.425782 0 .773438-.34375.773438-.769531v-.066407c.007812.207032-.074219.40625-.21875.550782-.148438.148437-.347656.230468-.554688.226562zm.71875-7.558594v.074219zm-4.75 7.972657c-.316407-.082031-.539063-.371094-.527344-.699219v-5.992188h-.085937v6.0625c.007812.328126.234374.613282.558593.695313.273438.074219.5625-.003906.761719-.207031-.199219.160156-.460938.210937-.707031.140625zm0 0" fill="#00aaa8"/></svg>