<svg viewBox="0 0 40 24" xmlns="http://www.w3.org/2000/svg"><path d="m0 0h40v24h-40z" fill="#fff"/><path d="m18.207031 19.804688c-.15625-.070313-.347656-.222657-.421875-.339844-.230468-.367188-4.484375-11.71875-4.484375-11.972656 0-.339844.167969-.683594.425781-.851563.199219-.132813 2.648438-1.105469 4.609376-1.828125 1.402343-.519531 1.632812-.359375 2.371093 1.636719.289063.777343.546875 1.339843.613281 1.339843.066407 0 .285157-.089843.492188-.195312.675781-.347656 1.546875-.640625 1.75-.589844.140625.039063.425781.445313.984375 1.421875.429687.753907.757813 1.410157.726563 1.460938-.035157.054687-.597657.09375-1.402344.09375h-1.347656l-.234376-.3125c-.261718-.347657-.71875-.601563-1.078124-.601563-.132813 0-.402344.085938-.605469.191406-.289063.148438-.414063.289063-.558594.636719-.171875.414063-.222656.457031-.648437.585938-.75.21875-.777344.285156-.746094 1.695312.015625.824219-.007813 1.222657-.078125 1.246094-.054688.019531-.414063-.519531-.796875-1.199219-.523438-.925781-.6875-1.289062-.644532-1.445312.074219-.261719.742188-.820313 2.011719-1.679688l1.011719-.683594-.214844-.5625-.308594-.816406c-.050781-.140625-.144531-.253906-.210937-.253906-.203125-.003906-4.496094 1.675781-4.496094 1.757812 0 .058594 2.917969 7.765626 3.40625 9 .027344.0625.09375.113282.148438.113282.097656 0 4.398437-1.632813 4.476562-1.699219.019531-.015625-.070312-.308594-.195312-.648437l-.230469-.621094-.585938.019531c-.503906.019531-2.160156.304687-2.519531.4375-.332031.125-.378906-.082031-.488281-2.070313-.066406-1.183593-.074219-2.011718-.027344-2.105468.367188-.691406 6.886719-1.09375 7.503906-.460938.132813.136719.175782.472656.265626 2.105469.074218 1.351563.082031 1.976563.015624 2.042969-.066406.066406-.289062.0625-.730468-.003906-.667969-.105469-2.027344-.136719-2.113282-.050782-.027343.027344.128907.5.34375 1.050782.21875.546874.398438 1.125.398438 1.277343 0 .382813-.222656.789063-.519531.945313-.457031.238281-5.261719 2.066406-5.421875 2.0625-.085938-.003906-.285156-.0625-.445313-.128906zm3.179688-1.933594c.472656-.183594.859375-.375.859375-.421875 0-.050781-.074219-.0625-.160156-.027344-.085938.035156-.484376.1875-.878907.335937-.699219.261719-1.019531.445313-.785156.445313.058594 0 .492187-.152344.964844-.332031zm2.039062-4.378906c.796875-.414063.824219-1.675782.046875-2.191407-.300781-.199219-.929687-.199219-1.304687-.003906s-.691407.851563-.609375 1.269531c.171875.855469 1.109375 1.324219 1.871094.925782zm-1.066406-.082032c-.695313-.3125-.863281-1.300781-.304687-1.804687.359374-.324219.664062-.398438 1.097656-.265625.433594.132812.738281.542968.75 1.007812.023437.796875-.832032 1.382813-1.542969 1.0625zm-2.164063-3.300781c-.066406-.171875.222657-.585937.523438-.75.3125-.171875.949219-.082031 1.214844.167969.179687.171875.296875.4375.199218.457031-.21875.042969-1.679687.265625-1.765624.265625-.0625.003906-.140626-.058594-.171876-.140625zm0 0" fill="#aab8c5"/><path d="m18.121094 19.667969c-.328125-.199219-.113282.320312-2.871094-6.976563-1.023438-2.703125-1.859375-5.035156-1.859375-5.1875 0-.457031.222656-.769531.695313-.972656.238281-.105469 1.46875-.585938 2.734374-1.070312 3.085938-1.1875 2.972657-1.214844 3.796876.945312.296874.773438.558593 1.429688.582031 1.453125.027343.023437.429687-.125.902343-.328125.910157-.398438 1.390626-.523438 1.558594-.40625.160156.109375 1.5625 2.605469 1.511719 2.6875-.027344.042969-.628906.078125-1.339844.078125h-1.292969l-.238281-.3125c-.324219-.429687-.90625-.648437-1.378906-.519531-.488281.132812-.664063.28125-.929687.792968-.199219.378907-.289063.457032-.640626.558594-.222656.0625-.496093.21875-.605468.347656-.191406.222657-.199219.28125-.144532 1.382813.046876.9375.035157 1.144531-.0625 1.113281-.148437-.050781-1.351562-2.164062-1.355468-2.375 0-.222656.894531-.996094 2.011718-1.742187.535157-.359375.972657-.703125.972657-.769531 0-.289063-.59375-1.675782-.714844-1.675782-.15625 0-4.445313 1.640625-4.5625 1.746094-.097656.085938 3.367187 9.214844 3.519531 9.277344.097656.039062 4.257813-1.519532 4.558594-1.707032.101562-.0625.078125-.191406-.128906-.730468-.140625-.359375-.3125-.675782-.382813-.703125-.164062-.0625-1.410156.117187-2.375.347656-.617187.144531-.785156.15625-.871093.0625-.117188-.125-.34375-3.710937-.25-3.953125.0625-.167969.691406-.359375 1.882812-.566406 1.238281-.214844 4.925781-.234375 5.332031-.027344.332031.167969.359375.316406.453125 2.59375l.066406 1.632812-.394531-.058593c-.71875-.113281-2.492187-.175781-2.542969-.09375-.023437.042969.132813.53125.347657 1.085937.621093 1.589844.539062 1.957032-.535157 2.40625-1.464843.617188-4.769531 1.839844-4.960937 1.839844-.113281 0-.332031-.078125-.488281-.175781zm3.234375-1.703125c.917969-.355469 1.066406-.445313.929687-.578125-.121094-.117188-2.027344.617187-2.027344.78125 0 .1875.171876.15625 1.097657-.203125zm2.007812-4.367188c.636719-.269531.949219-1.160156.625-1.789062-.355469-.691406-1.242187-.945313-1.894531-.539063-.394531.246094-.570312.601563-.570312 1.160157 0 .949218.941406 1.546874 1.839843 1.167968zm-1.050781-.285156c-.3125-.175781-.519531-.578125-.519531-1.007812 0-.257813.070312-.402344.308593-.644532.34375-.347656.773438-.410156 1.21875-.175781.335938.171875.585938.707031.511719 1.089844-.121093.652343-.957031 1.058593-1.519531.738281zm-2.054688-3.292969c0-.078125.117188-.265625.261719-.414062.355469-.355469.957031-.375 1.335938-.042969.335937.292969.234375.371094-.632813.496094-.910156.132812-.964844.132812-.964844-.039063zm0 0" fill="#90a3b4"/><path d="m18.296875 19.710938c-.15625-.070313-.347656-.21875-.421875-.339844-.191406-.292969-4.484375-11.644532-4.484375-11.855469 0-.304687.164063-.628906.398437-.78125.453126-.300781 5.128907-2.050781 5.480469-2.050781.5625 0 .753907.25 1.316407 1.734375.277343.726562.542968 1.371093.589843 1.429687.0625.082032.253907.03125.734375-.191406 1.019532-.46875 1.585938-.636719 1.730469-.511719.15625.128907 1.496094 2.492188 1.496094 2.636719 0 .078125-.355469.105469-1.277344.105469h-1.28125l-.308594-.359375c-.542969-.644532-1.359375-.714844-1.96875-.171875-.171875.152343-.347656.40625-.386719.566406-.0625.246094-.140624.308594-.566406.445313-.792968.257812-.839844.367187-.773437 1.699218.046875.875.035156 1.117188-.050781 1.089844-.140626-.046875-1.328126-2.074219-1.332032-2.277344-.007812-.199218.902344-.96875 2.027344-1.703125.496094-.328125.9375-.628906.984375-.664062.078125-.074219-.527344-1.777344-.667969-1.863281-.0625-.042969-4.128906 1.480468-4.542968 1.699218-.085938.046875-.15625.140625-.15625.210938 0 .15625 3.414062 9.109375 3.511718 9.207031.09375.097656 4.625-1.667969 4.6875-1.824219.023438-.070312-.066406-.417968-.203125-.773437l-.25-.644531-.660156.050781c-.363281.027343-1.105469.144531-1.65625.257812-.546875.113281-1.023437.183594-1.054687.152344-.066407-.070313-.210938-2.203125-.214844-3.242187-.003906-.894532-.050782-.851563 1.222656-1.113282 1.246094-.257812 3.226562-.402344 4.464844-.332031 1.3125.074219 1.703125.171875 1.757812.441406.101563.453125.242188 3.742188.164063 3.820313-.046875.046875-.277344.042968-.5625-.011719-.597657-.113281-2.351563-.121094-2.351563-.007813 0 .046876.183594.558594.40625 1.136719.722656 1.871094.761719 1.824219-2.574218 3.101563-1.367188.519531-2.589844.972656-2.710938 1.003906-.125.027344-.355469-.003906-.515625-.070312zm3.789063-1.984376c.25-.089843.359374-.4375.140624-.4375-.144531 0-1.804687.644532-1.949218.753907-.082032.066406-.085938.121093-.015625.210937.082031.097656.238281.066406.835937-.160156.410156-.152344.851563-.316406.988282-.367188zm1.667968-4.390624c.277344-.277344.332032-.402344.367188-.832032.035156-.410156.003906-.566406-.164063-.839844-.421875-.6875-1.390625-.851562-2-.332031-.722656.617188-.667969 1.648438.117188 2.195313.257812.179687.390625.207031.832031.175781.457031-.03125.5625-.078125.847656-.367187zm-1.589844-.210938c-.253906-.214844-.382812-.546875-.335937-.875.042969-.332031.253906-.617188.554687-.757812.367188-.175782.523438-.179688.855469-.007813.375.199219.542969.488281.542969.941406 0 .320313-.054688.453125-.265625.667969-.355469.359375-.949219.375-1.351563.03125zm-1.859374-3.046875c-.140626-.234375.464843-.738281.898437-.738281.351563 0 .789063.253906.753906.441406-.023437.109375-.160156.167969-.507812.210938-.261719.03125-.523438.070312-.78125.117187-.171875.035156-.332031.019531-.363281-.03125zm0 0" fill="#718a9f"/><path d="m18.167969 19.617188c-.292969-.160157-.179688.113281-2.660157-6.441407-1.320312-3.480469-2.058593-5.546875-2.050781-5.742187.011719-.558594.304688-.726563 3.050781-1.78125 1.390626-.535156 2.625-.96875 2.738282-.96875.320312 0 .695312.230468.820312.515625.0625.140625.320313.792969.566406 1.445312.246094.652344.484376 1.226563.527344 1.269531.046875.046876.449219-.082031.957032-.308593.480468-.210938 1.019531-.40625 1.203124-.429688l.324219-.042969.746094 1.300782c.414063.714844.738281 1.3125.722656 1.328125-.015625.011719-.589843.03125-1.277343.042969l-1.25.019531-.285157-.324219c-.367187-.421875-.582031-.523438-1.113281-.523438-.566406 0-1.019531.300782-1.277344.855469-.171875.367188-.234375.421875-.6875.554688-.671875.195312-.71875.308593-.691406 1.636719.011719.695312-.011719 1.0625-.066406 1.023437-.152344-.09375-1.1875-1.976563-1.1875-2.15625 0-.226563.75-.878906 1.964844-1.699219.558593-.375 1.015624-.734375 1.015624-.792968 0-.265626-.65625-1.796876-.769531-1.796876-.167969 0-4.566406 1.703126-4.671875 1.808594-.0625.066406 1.511719 4.34375 3.429688 9.3125.027344.0625.089844.109375.160156.113282.164062 0 4.578125-1.714844 4.679688-1.820313.097656-.09375-.347657-1.320313-.535157-1.476563-.132812-.113281-1.613281.078126-2.628906.335938-.324219.082031-.617187.113281-.660156.070312-.042969-.042968-.125-.933593-.183594-1.984374-.121094-2.105469-.144531-1.988282.457031-2.15625 1.269532-.351563 4.515625-.578126 5.992188-.417969.9375.101562.898437.019531 1.015625 2.164062.054687 1.023438.070312 1.890625.035156 1.933594-.03125.039063-.476563.03125-.984375-.023437-1.332031-.136719-1.804688-.125-1.871094.046874-.03125.078126.109375.582032.308594 1.117188.203125.539062.390625 1.070312.425781 1.179688.085938.300781-.191406.8125-.523437.96875-.789063.375-5.085938 1.980468-5.292969 1.976562-.164063-.011719-.324219-.058594-.46875-.132812zm3.171875-1.5625c.90625-.351563 1.144531-.503907 1.046875-.667969-.097657-.160157-.3125-.117188-1.226563.226562-.953125.363281-1.042968.421875-.964844.628907.078126.199218.179688.183593 1.144532-.1875zm2.3125-4.554688c.371094-.289062.625-.925781.542968-1.371094-.074218-.390625-.488281-.894531-.867187-1.050781-.363281-.152344-1.003906-.074219-1.335937.167969-.625.449218-.746094 1.488281-.234376 2.039062.144532.152344.382813.335938.53125.40625.375.175782 1 .085938 1.363282-.191406zm-1.335938-.28125c-.320312-.175781-.433594-.398438-.433594-.863281 0-.972657 1.304688-1.277344 1.765626-.414063.453124.847656-.480469 1.742188-1.332032 1.277344zm-1.96875-3.261719c0-.179687.265625-.410156.613282-.53125.234374-.082031.347656-.070312.621093.066407.625.3125.511719.394531-.714843.539062-.421876.050781-.519532.035156-.519532-.074219zm0 0" fill="#52708a"/><path d="m18.300781 19.617188c-.160156-.066407-.332031-.207032-.390625-.3125-.214844-.40625-4.429687-11.625-4.429687-11.789063 0-.304687.207031-.648437.46875-.789063.371093-.191406 4.925781-1.9375 5.109375-1.957031.703125-.074219.84375.089844 1.472656 1.734375.292969.773438.582031 1.4375.640625 1.472656.054687.035157.390625-.066406.746094-.230468.816406-.375 1.5625-.625 1.667969-.5625.085937.054687 1.460937 2.460937 1.460937 2.558594 0 .03125-.5625.054687-1.246094.054687h-1.246093l-.15625-.265625c-.175782-.300781-.808594-.648438-1.179688-.648438-.546875 0-1.085938.394532-1.398438 1.015626-.117187.238281-.242187.332031-.558593.421874-.222657.0625-.503907.226563-.621094.363282-.210937.242187-.214844.285156-.15625 1.285156.035156.636719.023437 1.015625-.027344.984375-.121093-.074219-1.183593-1.964844-1.183593-2.101563 0-.15625 1.109374-1.042968 2.191406-1.757812.488281-.316406.882812-.609375.882812-.644531 0-.167969-.652344-1.753907-.757812-1.839844-.183594-.152344-4.789063 1.644531-4.824219 1.878906-.03125.203125 3.359375 9.148438 3.53125 9.324219.097656.097656.546875-.046875 2.460937-.789062l2.34375-.910157-.007812-.304687c-.007812-.164063-.121094-.542969-.25-.839844l-.238281-.539062-.65625.050781c-.359375.027343-1.09375.140625-1.628907.253906-.539062.109375-1.003906.171875-1.039062.136719-.0625-.0625-.265625-3.636719-.214844-3.789063.078125-.242187 2.199219-.609375 3.992188-.695312 1.429687-.066407 3.03125.058593 3.214844.25.101562.109375.375 3.78125.285156 3.871093-.015625.019532-.273438-.003906-.570313-.054687-.816406-.132813-2.292969-.113281-2.347656.03125-.027344.066406.136719.601563.363281 1.191406.539063 1.410157.53125 1.722657-.050781 2.027344-.339844.175781-4.828125 1.910156-5.140625 1.984375-.125.03125-.355469 0-.511719-.070312zm3.785157-1.8125c.355468-.148438.472656-.472657.210937-.574219-.171875-.066407-2.105469.6875-2.167969.84375-.023437.066406.015625.183593.089844.257812.121094.121094.214844.105469.832031-.125.347657-.128906.695313-.261719 1.035157-.402343zm1.390624-4.136719c.453126-.21875.695313-.617188.738282-1.214844.042968-.644531-.203125-1.054687-.816406-1.363281-.5625-.28125-1.039063-.210938-1.519532.230468-.410156.375-.574218.8125-.492187 1.308594.15625.945313 1.203125 1.464844 2.089843 1.039063zm-1.277343-.605469c-.15625-.136719-.253907-.332031-.285157-.574219-.09375-.714843.671876-1.25 1.3125-.917969.347657.183594.464844.398438.464844.855469 0 .515625-.339844.84375-.867187.84375-.273438 0-.460938-.0625-.625-.207031zm-1.761719-3.113281c0-.214844.445312-.515625.761719-.515625.277343 0 .683593.210937.683593.355468 0 .039063-.261718.101563-.585937.136719-.320313.03125-.648437.082031-.722656.113281-.085938.03125-.136719 0-.136719-.089843zm0 0" fill="#294f70"/><path d="m18.257812 19.53125c-.289062-.167969-.175781.113281-2.644531-6.40625-1.121093-2.96875-2.042969-5.523438-2.042969-5.675781 0-.15625.070313-.367188.160157-.472657.136719-.164062 4.640625-1.972656 5.378906-2.160156.332031-.085937.730469.164063.902344.566406.085937.191407.347656.863282.589843 1.492188.421876 1.113281.441407 1.140625.699219 1.128906.148438-.003906.59375-.15625.996094-.339844 1.289063-.585937 1.164063-.632812 1.964844.777344l.695312 1.21875-1.140625.027344-1.132812.023438-.351563-.363282c-.789062-.820312-1.972656-.652344-2.480469.355469-.1875.375-.269531.449219-.628906.550781-.257812.070313-.503906.222656-.648437.398438-.230469.273437-.234375.300781-.171875 1.175781.035156.492187.042968.894531.015625.894531-.074219 0-1.050781-1.714844-1.050781-1.847656 0-.15625.980468-.945312 2.097656-1.691406.484375-.320313.902344-.621094.929687-.667969.074219-.117187-.664062-1.980469-.804687-2.035156-.101563-.039063-4.515625 1.605469-4.820313 1.796875-.070312.050781-.109375.128906-.113281.214844 0 .078124.734375 2.082031 1.636719 4.449218 2.035156 5.351563 1.878906 4.964844 2.015625 5.015625.097656.039063 4.519531-1.609375 4.816406-1.796875.167969-.105468.140625-.328125-.117188-.980468-.351562-.882813-.332031-.871094-1.375-.738282-.484374.058594-1.199218.1875-1.589843.28125-.496094.117188-.710938.136719-.734375.066406-.066406-.226562-.207032-3.671874-.152344-3.726562.117188-.117188 1.78125-.429688 2.859375-.539062 1.1875-.121094 3.648437-.074219 4.035156.078124.269531.109376.292969.273438.40625 2.613282l.0625 1.269531-.21875-.0625c-.117187-.035156-.773437-.089844-1.457031-.121094-1.089844-.046875-1.246094-.035156-1.292969.09375-.03125.082031.128907.632813.355469 1.226563.453125 1.167968.503906 1.542968.257812 1.835937-.152343.183594-4.871093 2.066407-5.421874 2.164063-.136719.023437-.351563-.019532-.480469-.089844zm3.171876-1.382812c.472656-.179688.910156-.371094.972656-.421876.15625-.128906.144531-.390624-.023438-.53125-.109375-.09375-.324218-.039062-1.195312.289063-1.058594.402344-1.203125.519531-1.074219.859375.078125.203125.390625.15625 1.324219-.199219zm2.25-4.507813c1.171874-.84375.601562-2.746094-.824219-2.746094-.800781 0-1.351563.425781-1.523438 1.171875-.144531.644532.253907 1.4375.863281 1.71875.394532.179688 1.132813.109375 1.484376-.140625zm-1.273438-.511719c-.511719-.285156-.589844-.902344-.167969-1.328125.441407-.445312 1.164063-.28125 1.355469.3125.238281.726563-.53125 1.386719-1.1875 1.015625zm-1.878906-3.230468c0-.308594.808594-.488282 1.128906-.25.15625.113281.125.132812-.320312.191406-.21875.023437-.433594.058594-.648438.105468-.089844.027344-.160156.003907-.160156-.046874zm0 0" fill="#012e56"/></svg>