<svg viewBox="0 0 40 24" xmlns="http://www.w3.org/2000/svg"><path d="m0 0h40v24h-40z" fill="#fff"/><path d="m12.0625 12.574219v.027343c0 .320313.136719.613282.410156.878907.285156.230469.59375.347656.925782.347656h.054687c.367187 0 .699219-.136719.992187-.414063.226563-.253906.34375-.527343.34375-.8125v-.027343c0-.351563-.140624-.65625-.425781-.914063-.140625-.121094-.300781-.210937-.476562-.269531-.136719-.042969-.28125-.066406-.421875-.070313h-.078125c-.226563 0-.457031.0625-.691407.191407-.082031.042969-.183593.125-.300781.238281-.144531.164062-.234375.3125-.265625.441406-.042968.105469-.066406.234375-.066406.382813m1.328125-1.898438h.070313c.421874 0 .835937.132813 1.234374.398438.183594.140625.308594.261719.382813.363281.273437.347656.410156.726562.410156 1.136719 0 .5-.199219.945312-.59375 1.335937-.210937.183594-.410156.3125-.601562.386719-.289063.117187-.566407.175781-.832031.175781h-.070313c-.429687 0-.84375-.132812-1.238281-.402344-.128906-.09375-.246094-.203124-.347656-.324218-.292969-.351563-.441407-.742188-.441407-1.171875 0-.472657.175781-.894531.53125-1.273438.183594-.171875.3125-.273437.394531-.3125.359376-.207031.726563-.3125 1.101563-.3125m3.222656 1.898438v.027343c0 .339844.152344.644532.457031.914063.273438.210937.566407.316406.878907.316406h.054687c.328125 0 .632813-.113281.910156-.34375.285157-.261719.425782-.558593.425782-.886719v-.027343c0-.335938-.136719-.632813-.402344-.886719-.183594-.15625-.355469-.253906-.511719-.292969-.132812-.046875-.273437-.070312-.414062-.070312h-.070313c-.320312 0-.617187.113281-.898437.335937-.285157.261719-.429688.5625-.429688.914063m-.367187-3.410157h.035156c.109375 0 .207031.054688.285156.160157.03125.046875.046875.121093.046875.222656v1.3125c0 .058594.042969.101563.128907.132813l.042968.003906c.035156 0 .132813-.039063.289063-.125.300781-.125.589843-.1875.875-.1875h.070312c.363281 0 .726563.101562 1.085938.304687.390625.238281.664062.566407.820312.980469.070313.191406.109375.394531.109375.601562v.019532c0 .449218-.171875.859375-.507812 1.234375-.1875.179687-.3125.28125-.375.308593-.347656.222657-.753906.34375-1.171875.339844-.398438 0-.789063-.105468-1.132813-.308594-.023437-.011718-.054687-.019531-.082031-.019531h-.011719c-.085937 0-.152344.058594-.195312.179688-.082032.101562-.179688.148437-.300782.148437-.117187 0-.21875-.054687-.300781-.164062-.023437-.046875-.035156-.09375-.039062-.144532v-4.695312c0-.109375.066406-.203125.195312-.277344.058594-.019531.101563-.027344.132813-.027344m4.515625 1.519532h.058593c.089844 0 .175782.039062.25.125.039063.050781.0625.109375.066407.175781v3.179687c0 .117188-.066407.210938-.207031.28125-.039063.015626-.082032.027344-.125.027344h-.03125c-.113282 0-.207032-.054687-.285157-.164062-.03125-.046875-.046875-.117188-.046875-.21875v-3.027344c0-.167969.054688-.277344.164063-.332031.046875-.03125.101562-.046875.15625-.046875m.015625-1.28125h.023437c.160157 0 .285157.074218.375.21875.03125.050781.046875.109375.046875.167968v.039063c0 .140625-.082031.253906-.246094.339844-.058593.023437-.121093.035156-.1875.035156-.179687 0-.316406-.082031-.402343-.25-.015625-.039063-.027344-.082031-.027344-.125v-.035156c0-.167969.097656-.289063.289063-.367188.042968-.011719.085937-.019531.128906-.023437" fill="#414142"/><path d="m23.449219 10.679688c.425781 0 .820312.113281 1.175781.335937.078125.0625.121094.152344.121094.253906 0 .109375-.0625.199219-.183594.269531-.046875.023438-.101562.039063-.160156.039063-.082032 0-.179688-.035156-.296875-.105469-.203125-.101562-.429688-.15625-.660157-.152344h-.023437c-.210937 0-.425781.054688-.652344.167969-.292969.164063-.496093.390625-.609375.683594-.046875.136719-.070312.273437-.070312.40625 0 .351563.148437.65625.441406.925781.183594.140625.367188.234375.546875.28125.128906.03125.242187.046875.34375.046875h.03125c.273437 0 .53125-.070312.769531-.214843.054688-.027344.117188-.042969.179688-.042969.109375 0 .203125.046875.289062.144531.035156.058594.054688.117188.054688.171875 0 .132813-.074219.238281-.222656.308594-.328126.183593-.6875.273437-1.085938.273437-.441406 0-.859375-.132812-1.25-.398437-.105469-.078125-.203125-.164063-.292969-.261719-.117187-.125-.195312-.226562-.230469-.304688-.175781-.277343-.269531-.601562-.269531-.933593 0-.410157.136719-.789063.417969-1.144531.046875-.0625.136719-.152344.269531-.269532.148438-.117187.285157-.203125.417969-.265625.296875-.140625.621094-.214843.949219-.214843m2.050781 0c.09375 0 .1875.042968.273438.125.035156.015624.066406.027343.097656.027343h.011718c.03125 0 .09375-.023437.191407-.0625.167969-.058593.34375-.089843.523437-.089843.335938 0 .648438.105468.941406.320312.046876.046875.070313.070312.070313.070312-.261719.25-.398437.371094-.410156.371094-.027344.015625-.058594.027344-.089844.027344-.042969 0-.101563-.027344-.179687-.074219-.109376-.050781-.226563-.074219-.347657-.074219-.203125 0-.382812.074219-.542969.226563-.128906.132813-.195312.292969-.195312.472656v2.085938c0 .140625-.042969.234375-.125.289062-.058594.050781-.128906.078125-.207031.078125h-.035157c-.046874 0-.097656-.011718-.140624-.03125-.074219-.039062-.136719-.105468-.167969-.183594-.015625-.046874-.023438-.101562-.019531-.152343v-3.058594c0-.132813.039062-.226563.113281-.277344.066406-.0625.152343-.09375.238281-.089843m2.75 1.890624c0 .171876.023438.273438.066406.304688.035156.03125.082032.046875.128906.046875.042969 0 .117188-.042969.226563-.128906.011719-.003907.554687-.355469 1.621094-1.058594.039062-.027344.058593-.070313.0625-.117187v-.023438c0-.042969-.027344-.082031-.082031-.117188-.21875-.105468-.421876-.15625-.617188-.15625h-.078125c-.316406 0-.617187.113282-.902344.335938-.285156.265625-.425781.570312-.425781.914062m1.363281-1.894531c.570313 0 1.074219.199219 1.503907.597657.15625.15625.234374.273437.234374.355468 0 .011719 0 .027344.003907.039063 0 .078125-.039063.15625-.117188.230469-.042969.03125-.707031.46875-1.996093 1.3125 0 0-.109376.074218-.324219.21875-.03125.027343-.046875.0625-.050781.101562v.023438c0 .046874.03125.085937.085937.121093.21875.101563.421875.152344.617187.152344h.078126c.308593 0 .601562-.105469.878906-.316406.148437-.140625.238281-.242188.265625-.304688.046875-.066406.089843-.160156.132812-.277343.027344-.121094.0625-.207032.113281-.253907.078126-.066406.160157-.101562.246094-.101562.160156 0 .269532.070312.332032.214843.015624.03125.019531.0625.019531.097657v.011719c0 .097656-.050781.253906-.148438.472656-.054687.117187-.148437.253906-.277343.40625-.132813.140625-.25.242187-.355469.3125-.171875.113281-.328125.195312-.460938.238281-.257812.097656-.503906.144531-.742187.144531h-.0625c-.417969 0-.816406-.121094-1.199219-.367187-.171875-.117188-.328125-.261719-.457031-.425781-.078125-.105469-.148438-.214844-.207032-.332032-.117187-.269531-.179687-.523437-.179687-.765625 0-.453125.164063-.867187.492187-1.238281.152344-.148438.265626-.246094.335938-.285156.363281-.25.796875-.382813 1.238281-.382813m2.757813 1.878907v.039062c0 .335938.144531.640625.4375.910156.277344.214844.574218.324219.882812.324219h.074219c.304687 0 .589844-.101563.859375-.308594.121094-.101562.207031-.191406.25-.261719.144531-.214843.21875-.4375.21875-.664062v-.039062c0-.335938-.144531-.636719-.4375-.90625-.28125-.21875-.578125-.328126-.890625-.328126h-.074219c-.300781 0-.585937.101563-.859375.308594-.117187.101563-.199219.191406-.246093.265625-.144532.210938-.214844.433594-.214844.660157m3.0625-3.398438h.027344c.125 0 .226562.0625.304687.191406.019531.050782.027344.089844.027344.117188v4.699218c0 .125-.074219.21875-.21875.289063-.050781.011719-.09375.019531-.132813.019531-.140625 0-.246094-.066406-.320312-.203125-.035156-.082031-.089844-.125-.167969-.125h-.007813c-.039062 0-.082031.015625-.136718.046875-.339844.1875-.6875.28125-1.042969.28125h-.058594c-.414062 0-.804687-.117187-1.179687-.355468-.1875-.121094-.355469-.277344-.488282-.460938-.242187-.3125-.371093-.699219-.371093-1.097656 0-.382813.128906-.746094.382812-1.089844.191407-.226562.363281-.378906.519531-.460938.152344-.105468.355469-.195312.613282-.265624.183594-.042969.371094-.066407.5625-.066407.378906 0 .746094.101563 1.105468.304688.03125.007812.054688.011719.070313.011719.078125 0 .132813-.039063.167969-.117188 0-.015625.003906-.03125.003906-.042969v-1.292969c0-.179687.070312-.296874.214844-.359374.039062-.011719.082031-.023438.125-.023438" fill="#189b9e"/><g fill="#414142"><path d="m4.980469 11.148438c-.050781 0-.101563-.011719-.144531-.039063-.125-.070313-.160157-.222656-.078126-.335937.371094-.53125.9375-.882813 1.589844-.996094.65625-.109375 1.332032.039062 1.878906.414062.058594.039063.09375.09375.105469.160156.011719.066407-.007812.132813-.050781.183594-.089844.109375-.25.132813-.371094.050782-.425781-.292969-.953125-.410157-1.464844-.324219-.5.082031-.949218.359375-1.242187.777343-.050781.070313-.132813.113282-.222656.109376"/><path d="m4.40625 10.503906c-.050781 0-.101562-.015625-.144531-.039062-.125-.074219-.160157-.226563-.078125-.339844.464844-.664062 1.167968-1.101562 1.988281-1.242188.816406-.136718 1.660156.046876 2.34375.519532.054687.035156.09375.09375.105469.160156.011718.0625-.007813.132812-.050782.183594-.09375.109375-.253906.128906-.371093.050781-.5625-.390625-1.257813-.542969-1.933594-.429687-.660156.105468-1.25.476562-1.636719 1.023437-.050781.070313-.132812.113281-.222656.113281m6.019531.570313c-.128906-.101563-.269531-.1875-.421875-.253907-.039062-.015624-.078125-.03125-.117187-.046874l-.039063-.011719c-.164062-.050781-.335937-.078125-.511718-.078125-.210938 0-.417969.035156-.617188.109375l-.019531.007812c-.027344.011719-.050781.023438-.074219.03125-.027344.011719-.050781.023438-.074219.039063l-.023437.011718c-.066406.035157-.128906.070313-.1875.113282-.039063.039062-.082032.070312-.128906.101562-.046876.035156-.085938.050782-.113282.050782h-.019531c-.03125 0-.070313-.015626-.113281-.050782-.046875-.03125-.089844-.0625-.128906-.101562-.066407-.046875-.136719-.089844-.210938-.128906-.023438-.011719-.046875-.023438-.074219-.035157-.023437-.007812-.046875-.019531-.074219-.03125-.007812 0-.015624-.003906-.019531-.007812-.199219-.074219-.40625-.109375-.617187-.109375-.175782 0-.347656.027344-.515625.078125l-.035157.011719c-.039062.015624-.078124.03125-.117187.046874-.152344.066407-.292969.152344-.421875.253907-.175781.167969-.28125.296875-.324219.390625-.117187.222656-.175781.40625-.175781.558594v2.023437c0 .089844.011719.160156.039062.210937.027344.035157.054688.066407.089844.09375.058594.042969.128906.070313.203125.074219h.011719c.046875-.003906.09375-.011719.136719-.03125.007812-.003906.019531-.007812.027343-.011719.0625-.039062.109376-.089843.144532-.152343.019531-.046875.03125-.105469.03125-.183594v-2.027344c.011718-.105469.058594-.21875.144531-.335937.015625-.019532.027344-.035156.042969-.054688.125-.140625.289062-.242187.472656-.289062.011719-.003906.023438-.007813.035156-.011719.015625 0 .035156-.003906.054688-.007813l.050781-.007812c.023437 0 .042969 0 .066406-.003906h.039063.003906c.035156 0 .066406 0 .101562.003906.011719 0 .019532.003906.027344.003906.023438.003906.046875.007813.066406.011719.03125.003906.058594.011719.085938.019531l.003906.003906c.167969.050782.320313.148438.453125.296876.105469.152343.160157.273437.160157.359374v2.039063c0 .082031.015624.148437.042968.203125.023438.039062.054688.074219.09375.105469.019532.015625.046875.027343.070313.039062.027343.011719.070312.023438.128906.03125h.019531c.042969-.003906.085938-.015625.125-.03125.027344-.011719.050782-.023437.074219-.039062.039063-.027344.070313-.0625.09375-.105469.027344-.054688.042969-.121094.042969-.203125v-2.039063c0-.085937.054687-.207031.160156-.359374.132812-.148438.28125-.246094.453125-.296876l.003906-.003906c.027344-.007812.054688-.015625.082031-.019531.023438-.003906.046876-.007813.070313-.011719.007813 0 .015625-.003906.027344-.003906.03125-.003906.066406-.003906.101562-.003906h.003907.039062c.023438.003906.042969.003906.066406.003906l.050782.007812c.015624.003907.035156.003907.054687.007813.011719.003906.023437.007813.035156.011719.023438.003906.046875.011718.070313.019531.003906 0 .011718.003906.015625.003906.144531.054688.273437.140625.386719.265625l.039062.050782c0 .003906.003906.003906.003906.003906.085938.117187.132813.230468.144532.335937v2.027344c0 .078125.007812.136719.03125.183594.039062.070312.085937.117187.140624.152343.050782.023438.109376.039063.164063.042969h.011719c.078125-.003906.148437-.03125.207031-.078125.03125-.023437.0625-.054687.085937-.089844.027344-.050781.042969-.121093.042969-.210937v-2.023437c0-.152344-.058593-.335938-.179687-.558594-.039063-.09375-.144532-.222656-.320313-.390625"/></g></svg>