<svg viewBox="0 0 40 24" xmlns="http://www.w3.org/2000/svg"><path d="m0 0h40v24h-40z" fill="#fff"/><path d="m8.609375 10.835938c-.425781.003906-.835937.179687-1.128906.492187-.292969-.3125-.699219-.488281-1.125-.492187-.867188 0-1.574219.707031-1.578125 1.582031v1.761719c-.050782.144531-.027344.300781.058594.425781.085937.121093.230468.195312.378906.195312.152344 0 .292968-.074219.378906-.199219s.105469-.285156.054688-.429687v-1.753906c0-.390625.3125-.707031.699218-.707031.382813 0 .699219.316406.699219.707031v1.855469c-.03125.128906 0 .261718.082031.367187.078125.09375.191406.152344.3125.160156.125.007813.246094-.039062.332032-.125.082031-.082031.125-.191406.125-.308593v-.007813c.011718-.027344.019531-.058594.019531-.085937v-1.855469c.011719-.378907.320312-.679688.699219-.683594.375 0 .683593.300781.699218.683594v1.855469c0 .015624 0 .035156.003906.050781v.042969c0 .238281.191407.433593.433594.433593.121094 0 .242188-.054687.324219-.148437s.117187-.214844.101563-.339844c.003906-.015625.003906-.027344.003906-.039062v-1.855469c-.003906-.875-.707032-1.582031-1.574219-1.582031zm10.394531 1.582031c0-.875-.703125-1.585938-1.570312-1.585938-.867188 0-1.570313.710938-1.570313 1.585938v1.855469c0 .015624.003907.027343.007813.039062-.003906.019531-.007813.035156-.007813.054688 0 .238281.195313.433593.433594.433593s.433594-.195312.433594-.433593l-.003907-.039063c.007813-.019531.007813-.035156.007813-.054687v-1.855469c0-.390625.316406-.707031.699219-.707031.386718 0 .703125.316406.703125.707031v1.855469c0 .03125.003906.058593.015625.085937v.011719c-.117188.144531-.125.351562-.019532.507812.105469.15625.300782.222656.480469.167969.179688-.054687.304688-.21875.308594-.40625.082031-.101563.113281-.238281.082031-.367187zm6.125-1.582031c-.230468 0-.417968.179687-.429687.40625l-.003907.015624v3.015626c0 .011718.003907.027343.007813.039062-.015625.125.019531.246094.101563.339844.078124.089844.191406.144531.308593.148437.121094.003907.234375-.042969.320313-.125.082031-.082031.128906-.191406.128906-.308593l-.003906-.042969c.003906-.015625.007812-.035157.007812-.050781v-3.015626c0-.023437-.003906-.046874-.011718-.070312-.039063-.203125-.21875-.351562-.425782-.351562zm0-.371094c.113282 0 .222656-.046875.304688-.125.125-.125.160156-.3125.09375-.472656-.066406-.164063-.222656-.269532-.398438-.269532-.242187 0-.433594.195313-.433594.433594s.191407.433594.433594.433594zm-1.730468-.867188c-.230469 0-.421876.1875-.429688.421875-.003906.015625-.007812.027344-.007812.042969v1.121094c-.328126-.226563-.714844-.347656-1.113282-.347656-.523437 0-1.027344.207031-1.394531.578124-.371094.375-.578125.878907-.582031 1.40625.003906 1.097657.890625 1.984376 1.976562 1.980469.996094 0 1.835938-.742187 1.960938-1.726562.015625-.03125.023437-.066407.023437-.101563v-2.941406c0-.117188-.046875-.226562-.128906-.308594-.078125-.078125-.1875-.125-.300781-.125zm-1.550782 4.335938c-.609375 0-1.105468-.496094-1.109375-1.113282 0-.617187.496094-1.113281 1.109375-1.117187.617188 0 1.113282.5 1.113282 1.117187 0 .292969-.121094.578126-.328126.789063-.207031.207031-.492187.324219-.785156.324219zm8.160156-4.335938c-.234374 0-.425781.1875-.433593.421875 0 .015625-.003907.027344-.003907.042969v1.121094c-.328124-.226563-.714843-.347656-1.113281-.347656-.523437 0-1.027343.207031-1.394531.578124-.371094.375-.582031.878907-.582031 1.40625 0 .527344.210937 1.03125.582031 1.402344.367188.371094.871094.582032 1.394531.578125.992188.003907 1.828125-.738281 1.957031-1.726562.015626-.03125.027344-.066407.027344-.101563v-2.910156c0-.003906 0-.003906-.003906-.007812.007812-.121094-.035156-.234376-.117188-.320313-.082031-.085937-.195312-.136719-.3125-.136719zm-1.550781 4.335938c-.617187 0-1.113281-.5-1.113281-1.113282 0-.617187.496094-1.117187 1.113281-1.117187.613281.003906 1.109375.5 1.109375 1.117187 0 .613282-.496094 1.113282-1.109375 1.113282zm-15.4375-3.097656c-.527343 0-1.027343.207031-1.398437.578124-.371094.375-.578125.878907-.578125 1.40625 0 1.09375.882812 1.980469 1.976562 1.980469 1.089844 0 1.972657-.886719 1.972657-1.980469 0-1.097656-.886719-1.988281-1.972657-1.984374zm0 3.097656c-.617187 0-1.113281-.5-1.113281-1.113282 0-.617187.496094-1.117187 1.113281-1.117187.613281.003906 1.109375.5 1.109375 1.117187 0 .613282-.496094 1.113282-1.109375 1.113282zm20.253907-3.097656c-.523438 0-1.027344.207031-1.394532.578124-.371094.375-.582031.878907-.582031 1.40625.003906 1.097657.886719 1.984376 1.976563 1.980469.523437 0 1.023437-.207031 1.394531-.578125.371093-.371094.578125-.878906.582031-1.402344-.003906-.527343-.210938-1.03125-.582031-1.40625-.371094-.371093-.871094-.578124-1.394531-.578124zm0 3.097656c-.617188 0-1.117188-.5-1.117188-1.113282 0-.617187.5-1.117187 1.117188-1.117187.613281 0 1.109374.5 1.109374 1.117187 0 .613282-.496093 1.113282-1.109374 1.113282zm0 0" fill="#40c2cb"/></svg>