<svg viewBox="0 0 40 24" xmlns="http://www.w3.org/2000/svg"><path d="m0 0h40v24h-40z" fill="#fff"/><path d="m19.179688 19.550781c-2.238282-.332031-4.210938-1.640625-5.390626-3.574219 0-.011718.71875-.019531 1.597657-.019531h1.601562v-2.007812c0-1.105469.007813-2.007813.019531-2.007813.007813 0 .753907.738282 1.652344 1.636719l1.636719 1.636719 1.636719-1.636719c.898437-.902344 1.640625-1.636719 1.652344-1.636719.011718 0 .019531.902344.019531 2.007813v2.007812h1.597656c.882813 0 1.601563.007813 1.601563.015625 0 .027344-.3125.488282-.460938.679688-1.214844 1.574218-2.992188 2.613281-4.957031 2.902344-.453125.066406-1.761719.0625-2.207031-.003907zm-6.207032-5.398437c-.207031-.695313-.308594-1.421875-.296875-2.148438 0-.707031.066407-1.261718.234375-1.910156.636719-2.460938 2.457032-4.441406 4.855469-5.289062.898437-.316407 1.707031-.4375 2.710937-.417969.851563.019531 1.457032.121093 2.222657.378906 2.675781.890625 4.644531 3.183594 5.117187 5.964844.082032.476562.109375.90625.09375 1.496093-.019531.726563-.085937 1.175782-.28125 1.878907l-.089844.316406h-2.296874v-6.410156l-4.945313 4.945312-4.945313-4.945312v6.410156h-2.300781zm0 0" fill="#fecbab"/><path d="m19.417969 19.585938c-2.042969-.246094-3.90625-1.300782-5.164063-2.929688-.152344-.195312-.464844-.65625-.464844-.683594 0-.007812.71875-.015625 1.597657-.015625h1.601562v-2.007812c0-1.105469.007813-2.007813.019531-2.007813.007813 0 .753907.738282 1.652344 1.636719l1.636719 1.636719 1.636719-1.636719c.898437-.902344 1.640625-1.636719 1.652344-1.636719.011718 0 .019531.902344.019531 2.007813v2.007812h1.597656c.882813 0 1.601563.003907 1.601563.011719 0 .019531-.117188.195312-.300782.460938-.546875.769531-1.359375 1.539062-2.144531 2.027343-.882813.546875-1.753906.878907-2.796875 1.070313-.265625.050781-.394531.058594-1.179688.0625-.484374.003906-.917968 0-.964843-.003906zm-6.355469-5.183594c-.03125-.050782-.167969-.554688-.222656-.828125-.125-.597657-.152344-.878907-.152344-1.570313s.027344-.972656.152344-1.574218c.222656-1.09375.742187-2.203126 1.46875-3.148438.234375-.304688.960937-1.03125 1.265625-1.265625.421875-.324219.875-.605469 1.351562-.839844.808594-.402343 1.488281-.609375 2.417969-.738281.429688-.058594 1.46875-.058594 1.90625 0 .910156.128906 1.621094.34375 2.417969.734375 1.328125.65625 2.4375 1.683594 3.1875 2.957031 1.070312 1.800782 1.339843 3.960938.757812 6l-.078125.277344-1.148437.007812-1.144531.007813v-6.410156l-4.945313 4.945312-4.933594-4.933593-.023437 6.382812-1.132813.007812c-.625.003907-1.136719-.003906-1.144531-.011718zm0 0" fill="#a3a3a3"/><path d="m19.316406 19.5625c-2.179687-.289062-4.128906-1.496094-5.351562-3.324219l-.179688-.269531 1.601563-.007812 1.601562-.003907v-4.027343l3.308594 3.308593 1.640625-1.644531 1.644531-1.640625v4.003906h3.226563l-.054688.09375c-.109375.179688-.460937.660157-.628906.859375-1.238281 1.464844-2.980469 2.414063-4.882812 2.652344-.378907.050781-1.550782.046875-1.925782 0zm-6.253906-5.164062c-.03125-.050782-.167969-.550782-.222656-.824219-.125-.597657-.152344-.882813-.152344-1.570313 0-.691406.027344-.976562.152344-1.574218.222656-1.09375.742187-2.203126 1.46875-3.148438.234375-.304688.960937-1.03125 1.265625-1.265625.421875-.324219.875-.605469 1.351562-.84375.808594-.398437 1.488281-.605469 2.417969-.734375.429688-.058594 1.46875-.058594 1.90625 0 .910156.128906 1.621094.34375 2.417969.734375 1.328125.65625 2.4375 1.683594 3.1875 2.957031 1.070312 1.800782 1.339843 3.960938.757812 6l-.078125.277344-1.148437.007812-1.144531.003907v-6.40625l-4.945313 4.945312-4.933594-4.933593-.023437 6.382812-1.132813.007812c-.625.003907-1.136719-.003906-1.144531-.011718zm0 0" fill="#fe9753"/><path d="m19.316406 19.5625c-2.179687-.289062-4.128906-1.496094-5.351562-3.324219l-.179688-.269531 1.601563-.007812 1.601562-.003907v-4.027343l3.308594 3.308593 1.640625-1.644531 1.644531-1.640625v4.003906h3.226563l-.054688.09375c-.109375.179688-.460937.660157-.628906.859375-1.238281 1.464844-2.980469 2.414063-4.882812 2.652344-.378907.050781-1.550782.046875-1.925782 0zm-6.351562-5.496094c-.207032-.738281-.273438-1.253906-.273438-2.0625 0-.640625.03125-.992187.144532-1.542968.664062-3.203126 3.296874-5.625 6.542968-6.019532.441406-.058594 1.390625-.058594 1.835938 0 2.4375.316406 4.488281 1.683594 5.710937 3.8125.90625 1.574219 1.203125 3.53125.816407 5.34375-.050782.246094-.152344.621094-.195313.734375l-.023437.0625h-2.28125v-6.382812l-2.460938 2.460937c-1.351562 1.351563-2.472656 2.460938-2.484375 2.460938-.015625 0-1.136719-1.113282-2.496094-2.472656l-2.472656-2.472657v6.40625h-2.269531zm0 0" fill="#fe883b"/><path d="m19.316406 19.5625c-2.179687-.289062-4.128906-1.496094-5.351562-3.324219l-.179688-.269531 1.601563-.007812 1.601562-.003907v-4.027343l3.308594 3.308593 1.640625-1.644531 1.644531-1.640625v4.003906h3.226563l-.054688.09375c-.109375.179688-.460937.660157-.628906.859375-1.238281 1.464844-2.980469 2.414063-4.882812 2.652344-.378907.050781-1.550782.046875-1.925782 0zm-6.273437-5.234375c-.105469-.28125-.265625-1.050781-.320313-1.546875-.042968-.378906-.039062-1.257812.011719-1.65625.210937-1.730469.957031-3.273438 2.167969-4.492188 1.230468-1.230468 2.773437-1.980468 4.515625-2.195312.40625-.046875 1.261719-.054688 1.660156-.011719 1.402344.15625 2.746094.6875 3.832031 1.523438 1.546875 1.1875 2.589844 2.921875 2.894532 4.8125.074218.453125.09375.714843.09375 1.242187.007812.707032-.089844 1.414063-.285157 2.09375l-.082031.285156-1.132812.003907-1.132813.007812v-3.199219c0-1.757812-.007813-3.195312-.019531-3.195312-.007813 0-1.125 1.109375-2.484375 2.464844l-2.464844 2.46875-2.46875-2.46875c-1.355469-1.355469-2.472656-2.464844-2.484375-2.464844-.007812 0-.015625 1.4375-.015625 3.195312v3.199219h-2.257813zm0 0" fill="#fe6500"/><path d="m19.316406 19.5625c-2.179687-.289062-4.128906-1.496094-5.351562-3.324219l-.179688-.269531 1.601563-.007812 1.601562-.003907v-4.027343l3.308594 3.308593 1.640625-1.644531 1.644531-1.640625v4.003906h3.226563l-.054688.09375c-.109375.179688-.460937.660157-.628906.859375-1.238281 1.464844-2.980469 2.414063-4.882812 2.652344-.378907.050781-1.550782.046875-1.925782 0zm0 0" fill="#757575"/><path d="m19.390625 19.566406c-1.984375-.242187-3.796875-1.253906-5.046875-2.816406-.152344-.1875-.53125-.726562-.53125-.753906 0-.007813.71875-.015625 1.59375-.019532l1.59375-.007812.007812-2.007812.003907-2.007813 3.285156 3.285156 3.273437-3.273437.011719 2.003906.011719 2 1.597656.011719 1.59375.011719-.167968.25c-.59375.882812-1.367188 1.636718-2.269532 2.207031-.351562.222656-1.082031.578125-1.472656.71875-.402344.144531-.964844.289062-1.402344.359375-.277344.046875-.457031.054687-1.078125.0625-.515625.003906-.820312-.003906-1.003906-.023438zm0 0" fill="#4b4b4b"/></svg>