<svg viewBox="0 0 40 24" xmlns="http://www.w3.org/2000/svg"><path d="m0 0h40v24h-40z" fill="#fff"/><path d="m8.132812 13.492188c0 1.066406.929688 1.8125 2.257813 1.8125 1.332031 0 2.261719-.746094 2.261719-1.8125 0-1.0625-.929688-1.808594-2.261719-1.808594-1.328125 0-2.257813.746094-2.257813 1.808594zm.925782 0c0-.628907.535156-1.050782 1.332031-1.050782.800781 0 1.335937.421875 1.335937 1.050782 0 .628906-.535156 1.054687-1.335937 1.054687-.796875 0-1.332031-.425781-1.332031-1.054687zm4.875-1.449219v-.269531h-.890625v3.4375h.898437v-1.828126c0-.316406.035156-.632812.46875-.789062.148438-.050781.304688-.074219.460938-.074219h.128906v-.835937s-.582031 0-1.066406.359375zm4.734375-1.535157v1.53125c-.351563-.226562-.84375-.359374-1.367188-.359374-1.328125 0-2.257812.742187-2.257812 1.808593 0 1.066407.929687 1.808594 2.257812 1.808594.523438 0 .992188-.113281 1.367188-.328125v.242188h.894531v-4.703126zm-2.699219 2.984376c0-.628907.535156-1.050782 1.335938-1.050782.792968 0 1.332031.421875 1.332031 1.050782 0 .628906-.539063 1.054687-1.335938 1.054687s-1.332031-.425781-1.332031-1.054687zm8.835938 0c0 1.082031.902343 1.808593 2.242187 1.808593.546875 0 1.042969-.09375 1.382813-.328125v.242188h.894531v-1.703125c0-1.09375-.90625-1.828125-2.257813-1.828125-1.332031 0-2.261718.742187-2.261718 1.808594zm.929687 0c0-.628907.535156-1.050782 1.332031-1.050782s1.332032.421875 1.332032 1.050782c0 .628906-.535157 1.050781-1.332032 1.050781s-1.332031-.421875-1.332031-1.050781zm-1.253906.34375c-.113281.554687-.496094.9375-.921875 1.171874-.390625.207032-.816406.292969-1.324219.292969-1.386719 0-2.253906-.828125-2.25-1.789062 0-1.082031.953125-1.835938 2.25-1.828125 1.726563.011718 2.242187 1.0625 2.28125 1.722656 0 0-3.3125.707031-3.359375.714844.230469.269531.605469.417968 1.078125.421875.5625.007812.976563-.210938 1.171875-.480469zm-3.550781-.433594 2.445312-.519532c-.195312-.25-.589844-.445312-1.140625-.449218-.757813.019531-1.269531.414062-1.304687.96875zm-14.042969 1.808594.867187.007812v-4.238281h-.894531v2.894531l-2.71875-2.898438h-.886719l.003906 4.246094h.894532v-2.835937zm0 0" fill="#0065a4"/><path d="m31.015625 10.625c-.21875-.789062-.578125-1.453125-1.015625-1.914062 2.945312-.664063 5.027344-.566407 5.320312.230468.496094 1.371094-2.21875 3.925782-4.628906 4.6875.496094-.625.675782-1.746094.324219-3.003906zm4.566406-.527344c.289063-.585937.355469-1.109375.195313-1.554687-.039063-.109375-.097656-.210938-.167969-.300781.8125.113281 1.539063 1.304687 1.3125 2.652343-.175781 1.035157-.578125 1.9375-1.019531 2.476563-.566406-.277344-1.757813-.34375-3.09375-.128906-.277344.039062-.550782.09375-.820313.164062 1.527344-.792969 3.007813-2.121094 3.59375-3.308594zm0 0" fill="#fff"/><g fill="#0065a4"><path d="m31.015625 10.625c.351563 1.257812.171875 2.378906-.324219 3.003906 2.410156-.761718 5.125-3.316406 4.628906-4.683594-.292968-.800781-2.375-.898437-5.320312-.234374.4375.460937.796875 1.125 1.015625 1.914062zm0 0"/><path d="m35.582031 10.097656c.289063-.585937.355469-1.109375.195313-1.554687-.039063-.109375-.097656-.210938-.167969-.300781.8125.113281 1.539063 1.304687 1.3125 2.652343-.175781 1.035157-.578125 1.9375-1.019531 2.476563-.566406-.277344-1.757813-.34375-3.09375-.128906-.277344.039062-.550782.09375-.820313.164062 1.527344-.792969 3.007813-2.121094 3.59375-3.308594zm0 0"/></g></svg>