<svg viewBox="0 0 40 24" xmlns="http://www.w3.org/2000/svg"><path d="m0 0h40v24h-40z" fill="#fff"/><path d="m27.824219 12c0 4.417969-3.503907 8-7.824219 8s-7.824219-3.582031-7.824219-8 3.503907-8 7.824219-8 7.824219 3.582031 7.824219 8zm0 0" fill="#378f43"/><path d="m20.089844 9.15625-1.867188 5.867188h-1.957031l1.867187-5.867188zm3.644531 0-1.867187 5.777344h-2.042969l1.863281-5.867188zm0 0" fill="#8bc249"/><path d="m14.398438 9.15625 1.867187 5.867188h1.957031l-1.777344-5.867188zm3.734374 0 1.867188 5.867188h2.042969l-1.867188-5.867188zm3.644532 0 1.867187 5.867188h2.042969l-1.863281-5.867188zm0 0" fill="#fff"/></svg>