<svg viewBox="0 0 40 24" xmlns="http://www.w3.org/2000/svg"><path d="m0 0h40v24h-40z" fill="#fff"/><path d="m17.652344 8.542969h-4.367188v.394531h4.300782zm-.1875 1.125h-6.890625v.394531h6.828125zm-.1875 1.125h-9.574219v.394531h9.511719zm1.246094-2.59375c.011718-.0625.089843-.136719.164062-.136719h3.792969c.0625 0 .097656.054688.085937.117188l-.3125 1.878906c-.007812.0625-.070312.105468-.132812.105468h-1.785156c-.042969 0-.078126.03125-.085938.074219l-.097656.582031c-.007813.042969.03125.074219.0625.074219h.84375c.042968 0 .070312.03125.0625.074219l-.316406 1.898438c-.007813.054687-.058594.09375-.101563.09375h-.863281c-.042969 0-.082032.035156-.089844.085937l-.101562.613281c-.007813.042969.019531.074219.050781.074219h1.847656c.074219 0 .109375.054687.101563.105469l-.324219 1.941406c-.011719.066406-.070313.113281-.136719.117188h-3.824219c-.0625 0-.105469-.0625-.09375-.136719zm4.488281.011719c.011719-.074219.078125-.148438.152343-.148438h3.847657c.074219 0 .117187.054688.109375.117188l-.304688 1.816406c-.015625.078125-.082031.132812-.160156.136718h-1.730469c-.070312-.003906-.128906.046876-.136719.113282l-.105468.628906c-.007813.050781.015625.09375.09375.09375h.808594c.054687 0 .109374.050781.101562.105469l-.3125 1.886719c-.015625.070312-.078125.117187-.148438.117187h-.800781c-.054687 0-.121093.074219-.128906.136719l-.421875 2.535156c-.015625.09375-.078125.148438-.164062.148438h-1.859376c-.054687 0-.109374-.0625-.09375-.136719zm4.652343 7.6875c-.039062 0-.074218-.015626-.097656-.046876-.023437-.027343-.035156-.0625-.027344-.101562l.90625-5.449219c.011719-.074219-.042968-.125-.117187-.125h-1.070313c-.0625 0-.125-.085937-.113281-.148437l.308594-1.859375c.007813-.0625.046875-.101563.113281-.101563h4.574219c.074219 0 .128906.039063.117187.125l-.304687 1.835938c-.015625.085937-.089844.148437-.175781.148437h-1.066406c-.074219 0-.136719.050781-.152344.144531l-.90625 5.441407c-.019532.078125-.089844.136719-.171875.136719zm0 0" fill="#23509f"/></svg>