<svg viewBox="0 0 40 24" xmlns="http://www.w3.org/2000/svg"><path d="m0 0h40v24h-40z" fill="#fff"/><path d="m13.125 10.992188c-1.222656 0-1.53125-1.109376-1.53125-2.480469 0-1.371094.300781-2.46875 1.585938-2.46875 1.28125 0 1.53125 1.109375 1.53125 2.46875s-.300782 2.480469-1.582032 2.480469zm0-4.644532c-.859375.003906-1.152344.8125-1.152344 2.203125s.292969 2.164063 1.179688 2.164063c.886718 0 1.183594-.832032 1.183594-2.164063s-.308594-2.199219-1.183594-2.199219zm2.398438-.195312h.335937v.714844c.179687-.5.652344-.832032 1.183594-.828126.339843-.023437.667969.113282.894531.363282.230469.257812.332031.601562.28125.9375v3.550781h-.339844v-3.40625c0-.84375-.34375-1.132813-.925781-1.132813-.707031 0-1.109375.652344-1.109375 1.503907v3.035156h-.339844zm3.671874-1.730469h.339844v6.46875h-.339844zm1.335938 0h.339844v.921875h-.339844zm0 1.730469h.339844v4.738281h-.339844zm1.304688 0h.335937v.714844c.179687-.5.652344-.832032 1.183594-.828126.339843-.019531.667969.113282.894531.363282.230469.253906.332031.601562.28125.9375v3.550781h-.339844v-3.40625c0-.84375-.34375-1.132813-.925781-1.132813-.707031 0-1.109375.652344-1.109375 1.503907v3.035156h-.339844zm3.894531 2.34375c0 .761718 0 2.191406 1.09375 2.191406.976562 0 1.136719-.992188 1.136719-1.351562h.339843c.039063.417968-.09375.832031-.367187 1.148437-.273438.3125-.664063.5-1.078125.507813-1.199219 0-1.5-.992188-1.5-2.597657 0-1.449219.503906-2.347656 1.558593-2.347656 1.054688 0 1.449219.921875 1.449219 2.457031zm2.261719-.304688c0-.855468-.132813-1.839844-1.089844-1.839844-.960938 0-1.171875 1.222657-1.171875 1.835938zm-17.128907 7.054688c0 .738281 0 1.863281.921875 1.863281.710938 0 .8125-.757813.8125-1.125h.738282c.023437.449219-.136719.882813-.4375 1.210937-.300782.324219-.722657.507813-1.164063.511719-1.167969 0-1.65625-.824219-1.65625-2.488281 0-1.214844.230469-2.601562 1.699219-2.601562 1.472656 0 1.613281 1.28125 1.613281 2.324218v.304688zm1.726563-.597656v-.25c0-.542969-.164063-1.1875-.832032-1.1875-.785156 0-.875.976562-.875 1.300781v.179687zm1.847656-1.320313h-.699219v-.597656h.699219v-.574219c0-.734375.3125-1.109375 1.035156-1.109375h.542969v.648437h-.347656c-.316407 0-.476563.128907-.476563.460938v.574219h.816406v.597656h-.824218v4.257813h-.746094zm2.320312-2.007813h.746094v1.410157h.832032v.597656h-.832032v3.113281c0 .390625.09375.546875.492188.546875.109375.007813.222656.007813.332031 0v.648438c-.199219.039062-.402344.054687-.609375.050781-.769531 0-.957031-.324219-.957031-.960938v-3.398437h-.695313v-.597656h.695313zm2.101563 1.410157h.707031v.597656c.15625-.4375.570313-.730469 1.035156-.722656 1.132813 0 1.558594 1.019531 1.558594 2.464843 0 1.105469-.320312 2.644532-1.558594 2.644532-.433593.003906-.824218-.253906-.996093-.648438v2.144532h-.746094zm1.667969 4.328125c.695312 0 .875-.742188.875-1.996094 0-1.066406-.179688-1.8125-.878906-1.8125-.828126 0-.957032.796875-.957032 1.902344-.007812.945312.152344 1.90625.957032 1.90625zm3.960937-4.453125c1.378907 0 1.714844 1.191406 1.714844 2.554687 0 1.367188-.34375 2.554688-1.714844 2.554688-1.375 0-1.71875-1.1875-1.71875-2.554688 0-1.363281.34375-2.554687 1.71875-2.554687zm.929688 2.554687c0-1.050781-.152344-1.949218-.949219-1.949218-.800781 0-.921875.902343-.921875 1.949218s.152344 1.949219.921875 1.949219c.765625 0 .949219-.902344.949219-1.949219zm3.597656-1.007812c0-.617188-.160156-.949219-.703125-.949219-.203125-.023437-.410156.042969-.558594.1875-.148437.144531-.226562.347656-.214844.554687 0 .570313.589844.648438 1.175782.878907.589844.226562 1.171875.40625 1.171875 1.363281.027343.417969-.125.832031-.421875 1.125s-.707032.4375-1.121094.394531c-.460938.0625-.921875-.101562-1.242188-.441406-.324218-.339844-.46875-.816406-.390624-1.28125h.734374c0 .59375.160157 1.125.886719 1.125.214844.015625.425781-.066406.574219-.21875.152344-.15625.230469-.371094.21875-.585937 0-.648438-.589844-.785157-1.167969-.988282-.582031-.203125-1.152343-.363281-1.152343-1.371094 0-.902343.695312-1.339843 1.519531-1.339843 1.386719 0 1.445312.976562 1.453125 1.546875zm0 0" fill="#231f20"/></svg>