<svg viewBox="0 0 40 24" xmlns="http://www.w3.org/2000/svg"><path d="m0 0h40v24h-40z" fill="#fff"/><path d="m15.871094 9.429688h-1.875c-.128906 0-.238282.089843-.257813.214843l-.757812 4.753907c-.007813.042968.003906.089843.035156.125.03125.035156.074219.054687.117187.050781h.894532c.128906.003906.238281-.089844.257812-.214844l.203125-1.28125c.019531-.125.128907-.214844.253907-.214844h.59375c1.234374 0 1.949218-.59375 2.132812-1.761719.082031-.511718.003906-.914062-.242188-1.195312-.265624-.308594-.734374-.472656-1.367187-.472656zm.214844 1.734374c-.101563.664063-.613282.664063-1.113282.664063h-.28125l.199219-1.242187c.011719-.074219.074219-.128907.152344-.125h.128906c.335937 0 .65625 0 .820313.191406.101562.113281.132812.285156.09375.515625zm5.390624-.019531h-.898437c-.078125-.003906-.140625.054688-.15625.128907l-.039063.25-.058593-.09375c-.195313-.277344-.628907-.371094-1.0625-.371094-.988281 0-1.839844.742187-2.003907 1.785156-.082031.519531.039063 1.015625.339844 1.363281.273438.320313.664063.453125 1.128906.453125.800782 0 1.246094-.507812 1.246094-.507812l-.039062.246094c-.003906.042968.007812.089843.035156.125.03125.03125.074219.050781.121094.050781h.808594c.125.003906.234374-.089844.257812-.214844l.484375-3.039063c.007813-.042968-.003906-.089843-.035156-.125-.027344-.035156-.070313-.050781-.117188-.050781zm-1.25 1.726563c-.089843.507812-.496093.847656-1.015624.847656-.261719 0-.46875-.085938-.601563-.242188-.136719-.152343-.183594-.375-.144531-.621093.082031-.503907.492187-.859375 1.007812-.859375.253906 0 .460938.085937.597656.242187.136719.160157.191407.382813.152344.628907zm6.03125-1.726563h-.902343c-.085938 0-.167969.039063-.214844.113281l-1.246094 1.8125-.523437-1.742187c-.035156-.105469-.136719-.179687-.25-.179687h-.886719c-.105469 0-.179687.105468-.148437.207031l.996093 2.882812-.933593 1.300781c-.035157.046876-.039063.109376-.011719.164063.027343.050781.082031.082031.140625.082031h.902344c.082031 0 .164062-.039062.214843-.109375l2.992188-4.285156c.074219-.101563 0-.242187-.128907-.242187zm0 0" fill="#253b80"/><path d="m29.246094 9.429688h-1.875c-.128906 0-.238282.089843-.257813.214843l-.757812 4.753907c-.007813.042968.003906.089843.035156.125.03125.035156.074219.054687.117187.050781h.964844c.089844.003906.164063-.0625.179688-.148438l.214844-1.347656c.019531-.125.128906-.21875.253906-.21875h.59375c1.234375 0 1.945312-.589844 2.132812-1.761719.082032-.511718.003906-.914062-.242187-1.195312-.265625-.308594-.738281-.472656-1.363281-.472656zm.214844 1.734374c-.101563.664063-.613282.664063-1.113282.664063h-.28125l.199219-1.242187c.011719-.074219.078125-.128907.152344-.125h.128906c.339844 0 .660156 0 .824219.191406.097656.113281.128906.285156.089844.515625zm5.390624-.019531h-.898437c-.074219-.003906-.140625.054688-.152344.128907l-.042969.25-.0625-.09375c-.195312-.277344-.628906-.371094-1.0625-.371094-.992187 0-1.839843.742187-2.003906 1.785156-.085937.519531.03125 1.015625.332032 1.363281.273437.320313.664062.453125 1.128906.453125.796875 0 1.242187-.507812 1.242187-.507812l-.039062.246094c-.007813.042968.003906.089843.035156.125.03125.035156.074219.054687.117187.050781h.808594c.128906 0 .234375-.089844.257813-.214844l.484375-3.039063c.007812-.042968-.007813-.089843-.039063-.125-.027343-.03125-.070312-.050781-.117187-.050781zm-1.25 1.726563c-.089843.507812-.496093.847656-1.015624.847656-.257813 0-.46875-.085938-.601563-.242188-.132813-.152343-.183594-.375-.140625-.621093.074219-.5.503906-.863281 1.003906-.859375.257813 0 .464844.085937.601563.242187.136719.160157.191406.382813.152343.628907zm2.308594-3.3125-.769531 4.839844c-.007813.042968.007813.089843.035156.125.03125.035156.074219.054687.117188.050781h.777343c.125.003906.234376-.089844.257813-.214844l.757813-4.753906c.007812-.042969-.007813-.089844-.035157-.125-.03125-.03125-.074219-.050781-.117187-.050781h-.867188c-.078125 0-.140625.054687-.15625.128906zm0 0" fill="#179bd7"/><path d="m5.191406 15.5.144532-.902344-.320313-.003906h-1.523437l1.058593-6.644531c.007813-.042969.042969-.070313.085938-.070313h2.570312c.859375 0 1.445313.171875 1.753907.519532.144531.164062.238281.332031.28125.519531.046874.195312.046874.429687.003906.71875l-.003906.019531v.183594l.144531.082031c.125.0625.21875.136719.292969.21875.125.136719.203124.316406.238281.523437.039062.21875.023437.472657-.03125.761719-.066407.335938-.171875.625-.316407.867188-.128906.214843-.296874.398437-.5.542969-.207031.140624-.433593.242187-.675781.300781-.246093.066406-.53125.097656-.84375.097656h-.199219c-.144531 0-.28125.050781-.390624.144531-.109376.09375-.179688.222656-.203126.359375l-.015624.082031-.25 1.585938-.011719.058594c-.003907.019531-.007813.03125-.011719.035156-.007812.007812-.019531.011719-.027344.007812h-1.25zm0 0" fill="#253b80"/><path d="m9.519531 9.675781c-.007812.050781-.015625.101563-.027343.152344-.339844 1.71875-1.5 2.3125-2.980469 2.3125h-.753907c-.179687 0-.332031.128906-.363281.308594l-.386719 2.421875-.109374.6875c-.019532.113281.074218.21875.191406.21875h1.339844c.15625 0 .289062-.113282.316406-.265625l.015625-.070313.25-1.578125.015625-.085937c.027344-.15625.160156-.269532.316406-.269532h.203125c1.296875 0 2.3125-.523437 2.609375-2.027343.125-.628907.0625-1.152344-.269531-1.523438-.101563-.113281-.226563-.210937-.367188-.277343zm0 0" fill="#179bd7"/><path d="m9.164062 9.539062c-.109374-.03125-.21875-.058593-.328124-.074218-.222657-.03125-.445313-.050782-.667969-.046875h-2.015625c-.15625 0-.289063.109375-.316406.265625l-.429688 2.683594-.011719.078124c.023438-.179687.179688-.308593.359375-.308593h.753906c1.484376 0 2.640626-.597657 2.980469-2.316407.011719-.050781.019531-.101562.023438-.152343-.085938-.046875-.179688-.085938-.277344-.117188l-.074219-.023437zm0 0" fill="#222d65"/><path d="m5.835938 9.6875c.023437-.15625.15625-.269531.316406-.269531h2.015625c.238281 0 .457031.015625.660156.046875.113281.019531.222656.042968.332031.074218l.074219.023438c.097656.03125.191406.070312.277344.113281.101562-.632812 0-1.066406-.347657-1.460937-.378906-.429688-1.066406-.613282-1.957031-.613282h-2.570312c-.179688-.003906-.332031.128907-.363281.304688l-1.070313 6.710938c-.007813.0625.007813.128906.050781.175781.042969.050781.101563.078125.167969.078125h1.585937l.398438-2.5zm0 0" fill="#253b80"/></svg>