<svg viewBox="0 0 40 24" xmlns="http://www.w3.org/2000/svg"><path d="m0 0h40v24h-40z" fill="#fff"/><path d="m16.707031 18.867188c-.277343-.144532-.632812-.433594-.796875-.644532-.273437-.355468-.292968-.582031-.292968-3.65625 0-3.09375.015624-3.300781.300781-3.671875.621093-.824219.960937-.886719 4.632812-.886719 3.753907 0 4.089844.070313 4.640625.980469.269532.453125.292969.726563.292969 3.578125 0 3.554688-.070313 3.820313-1.132813 4.289063-.539062.234375-.980468.265625-3.875.265625-2.90625.003906-3.324218-.023438-3.769531-.253906zm-.914062-8.761719c-.121094-.308594.183593-1.789063.492187-2.371094.40625-.777344 1.367188-1.667969 2.234375-2.074219.953125-.449218 2.6875-.488281 3.773438-.085937 1.527343.570312 2.757812 2.164062 2.933593 3.800781.097657.914062-.0625 1.027344-.898437.648438-.480469-.21875-.671875-.40625-.796875-.777344-.09375-.265625-.421875-.738282-.734375-1.050782-1.609375-1.601562-4.382813-1.050781-5.289063 1.050782-.3125.726562-1.527343 1.332031-1.714843.859375zm0 0" fill="#e8a1aa"/><path d="m16.851562 18.738281c-.277343-.132812-.652343-.457031-.832031-.71875-.316406-.457031-.332031-.597656-.332031-3.332031 0-3.398438.101562-3.800781 1.078125-4.253906.558594-.261719.882813-.289063 3.796875-.289063 3.5 0 3.859375.074219 4.476562.886719.28125.375.300782.582031.300782 3.535156 0 2.949219-.019532 3.160156-.300782 3.53125-.617187.816406-.976562.886719-4.488281.886719-2.75 0-3.261719-.03125-3.699219-.246094zm-.78125-8.691406c-.167968-.164063-.09375-1.109375.140626-1.769531.300781-.851563 1.355468-1.976563 2.292968-2.445313 1-.503906 2.851563-.542969 3.878906-.085937 1.457032.648437 2.507813 2.027344 2.691407 3.53125.074219.609375.050781.726562-.144531.726562-.492188 0-1.003907-.359375-1.285157-.902344-.832031-1.605468-2.40625-2.316406-4.074219-1.847656-.921874.257813-1.875 1.078125-2.167968 1.867188-.125.332031-.355469.574218-.714844.753906-.289062.140625-.566406.21875-.617188.171875zm0 0" fill="#e07885"/><path d="m17.359375 18.863281c-1.488281-.371093-1.597656-.671875-1.597656-4.296875 0-4.453125-.113281-4.351562 4.789062-4.351562 4.847657 0 4.714844-.121094 4.714844 4.351562 0 4.410156.078125 4.335938-4.425781 4.375-1.675782.015625-3.242188-.019531-3.480469-.078125zm-1.332031-9.574219c.261718-2.136718 2.148437-3.785156 4.347656-3.800781.519531 0 1.277344.101563 1.679688.230469.902343.292969 2.066406 1.269531 2.472656 2.085938.355468.707031.597656 1.828124.445312 2.0625-.195312.308593-.914062-.222657-1.445312-1.070313-.878906-1.402344-2.421875-2.023437-4.007813-1.613281-.773437.203125-1.847656 1.121094-2.140625 1.832031-.144531.34375-.398437.640625-.664062.773437-.707032.355469-.785156.296876-.6875-.5zm0 0" fill="#dc5c6c"/><path d="m16.847656 18.597656c-.910156-.4375-1.011718-.847656-1.011718-4.03125 0-4.332031-.058594-4.28125 4.683593-4.28125 4.800781 0 4.675781-.113281 4.675781 4.28125 0 4.394532.125 4.277344-4.675781 4.277344-2.71875 0-3.234375-.03125-3.667969-.246094zm-.691406-9.40625c.132812-1.371094 1.148438-2.675781 2.5625-3.304687.96875-.429688 2.738281-.421875 3.664062.019531.847657.402344 1.773438 1.300781 2.15625 2.09375.359376.734375.550782 1.863281.320313 1.863281-.367187 0-.878906-.335937-1.039063-.679687-.535156-1.164063-1.574218-1.980469-2.792968-2.199219-.734375-.128906-1.871094.15625-2.578125.648437-.320313.226563-.785157.757813-1.035157 1.183594-.429687.738282-.773437 1.046875-1.152343 1.046875-.121094 0-.152344-.207031-.105469-.671875zm0 0" fill="#d63247"/><path d="m16.765625 18.441406c-.761719-.449218-.859375-.898437-.859375-3.945312 0-4.167969-.113281-4.070313 4.644531-4.070313 3.679688 0 3.996094.066407 4.363281.917969.296876.679688.296876 5.761719 0 6.445312-.367187.851563-.683593.914063-4.390624.914063-2.984376 0-3.355469-.027344-3.757813-.261719zm-.558594-9.242187c.238281-1.335938 1.089844-2.480469 2.296875-3.09375.644532-.328125.910156-.378907 2.046875-.378907 1.519531 0 1.941407.164063 3.011719 1.167969.445312.417969.792969.914063.980469 1.394531.359375.929688.382812 1.5.058593 1.378907-.125-.042969-.285156-.082031-.355468-.082031-.070313 0-.25-.269532-.398438-.597657-1.269531-2.773437-5.457031-2.78125-6.652344-.015625-.191406.441406-.574218.753906-.921874.753906-.109376 0-.128907-.179687-.066407-.527343zm0 0" fill="#d71027"/><path d="m17.3125 18.53125c-.554688-.136719-1.042969-.675781-1.195312-1.320312-.234376-.96875-.167969-4.828126.09375-5.570313.367187-1.042969.5-1.074219 4.453124-1.074219 3.332032 0 3.398438.007813 3.6875.316406.164063.171876.371094.453126.460938.621094.214844.398438.222656 5.59375.011719 6.179688-.277344.769531-.730469.871094-4.09375.914062-1.65625.019532-3.191407-.007812-3.417969-.066406zm-.96875-9.085938c-.113281-.175781.425781-1.613281.761719-2.023437.375-.460937 1.015625-.96875 1.628906-1.289063.390625-.203124.8125-.265624 1.816406-.265624 1.15625 0 1.378907.042968 1.957031.375.359376.203124.855469.582031 1.101563.839843.480469.5 1.078125 1.730469 1.078125 2.21875 0 .460938-.523438.113281-.726562-.484375-.214844-.632812-1.488282-1.71875-2.246094-1.914062-1.914063-.5-3.75.265625-4.574219 1.90625-.304687.609375-.644531.878906-.796875.636718zm0 0" fill="#e00018"/><path d="m17.734375 18.207031c-.167969-.238281-.304687-.496093-.304687-.578125 0-.082031-.195313-.140625-.433594-.132812-.300782.011718-.4375.085937-.4375.25 0 .160156.085937.210937.289062.15625.199219-.050782.292969-.003906.292969.148437 0 .121094.113281.285157.253906.363281.238281.132813.238281.140626 0 .144532-.425781.007812-1.128906-.722656-1.273437-1.328125-.074219-.308594-.136719-1.542969-.136719-2.746094-.007813-2.542969.1875-3.367187.875-3.710937.566406-.285157.980469-.265626.953125.039062-.011719.132812.078125.246094.199219.246094.121093 0 .207031-.113282.195312-.246094-.015625-.226562.210938-.246094 2.914063-.246094 2.859375 0 2.941406.007813 3.230468.316406.164063.171876.371094.453126.460938.621094.214844.398438.222656 5.59375.011719 6.179688-.277344.765625-.746094.875-3.933594.914062l-2.851563.039063zm6.332031-.164062c.046875-.125-.605468-.179688-2.597656-.207031-1.464844-.023438-2.710938-.019532-2.777344.003906-.0625.027344 0 .136718.144532.246094.351562.257812 5.140624.222656 5.230468-.042969zm-7.21875-1.441407c0-.449218-.207031-.765624-.417968-.644531-.207032.125-.207032.71875 0 1.09375.128906.230469.1875.25.289062.09375.070312-.105469.125-.351562.125-.546875h.003906zm6.96875.566407c0-.070313-.066406-.167969-.144531-.21875-.082031-.046875-.144531.011719-.144531.132812 0 .121094.0625.21875.144531.21875.078125 0 .144531-.058593.144531-.132812zm.453125-1.171875c-.121093-.113282-.164062-.097656-.164062.0625 0 .277344.195312.464844.269531.257812.027344-.089844-.019531-.230468-.105469-.320312zm-.570312-.40625c-.136719-.132813-.171875-.09375-.171875.167968 0 .261719.035156.300782.171875.167969.136719-.128906.136719-.203125 0-.335937zm.511719-1.6875c-.03125-.253906-.058594-.082032-.058594.382812 0 .460938.023437.667969.058594.457032.03125-.277344.03125-.5625 0-.839844zm-.226563-.949219c.1875-.523437.335937-.53125.628906-.035156l.226563.382812-.085938-.570312c-.09375-.621094-.390625-1.539063-.546875-1.695313-.054687-.050781-.101562.097656-.101562.328125 0 .574219-.261719 1.269531-.519531 1.363281-.28125.101563-.265626.644532.019531.644532.125 0 .292969-.1875.378906-.417969zm-7.109375-1.613281c.242188-.523438.144531-.636719-.230469-.273438-.238281.230469-.316406.761719-.113281.761719.0625 0 .214844-.21875.34375-.488281zm7.015625.207031c0-.113281-.148437-.230469-.328125-.253906-.316406-.042969-.453125.226562-.226562.449219.171874.160156.550781.027343.550781-.195313zm-.722656-.707031c.050781-.082032-.765625-.132813-2.171875-.132813-1.242188 0-2.257813.046875-2.257813.105469 0 .160156 4.328125.1875 4.429688.027344zm-6.820313-1.386719c-.117187-.183594.414063-1.609375.757813-2.03125.375-.464844 1.015625-.96875 1.632812-1.289063.390625-.203124.808594-.265624 1.8125-.265624 1.15625 0 1.382813.042968 1.957031.371093.753907.433594 1.46875 1.140625 1.714844 1.699219.140625.320312.132813.382812-.046875.382812-.238281 0-.289062.21875-.078125.347657.074219.042969.183594.003906.242188-.089844.128906-.199219.320312.199219.335937.695313.007813.273437-.03125.300781-.265625.179687-.148437-.078125-.347656-.347656-.4375-.597656-.089844-.246094-.300781-.597657-.472656-.773438-.308594-.3125-.519531-1.105469-.253906-.949219.316406.191407.101562-.203124-.222656-.410156-.425782-.269531-.570313-.289062-.421876-.058594.058594.09375.113282.3125.121094.488282.011719.285156-.011718.292968-.226562.105468-.582032-.507812-2.40625-.660156-3.355469-.277343-.296875.121093-.710937.21875-.925781.21875-.292969 0-.367188.058593-.316406.246093.035156.132813-.046876.359376-.183594.496094-.234375.234375-.253906.238282-.34375.011719-.128906-.328125-.410156-.046875-.464844.46875-.035156.320313-.015625.347656.105469.144531.28125-.480468.382812-.234375.113281.277344-.296875.558594-.636719.828125-.777344.609375zm2.875-2.886719c.339844-.179687.359375-.40625.039063-.46875-.160157-.027344-.285157.0625-.335938.246094-.042969.164062-.136719.292969-.207031.292969s-.125.109375-.121094.246093c.003906.214844.027344.21875.183594.035157.097656-.117188.296875-.273438.441406-.351563zm2.273438-.269531c0-.035156-.066406-.101563-.148438-.152344-.078125-.046875-.144531-.019531-.144531.0625s.066406.148438.144531.148438c.082032 0 .144532-.027344.144532-.058594zm0 0" fill="#de0018"/></svg>