<svg viewBox="0 0 40 24" xmlns="http://www.w3.org/2000/svg"><path d="m0 0h40v24h-40z" fill="#fff"/><path d="m34.320312 12.007812c-.117187-.042968-.242187-.066406-.367187-.074218-.210937-.019532-.421875-.027344-.632813-.027344-.375 0-.636718.007812-.785156.023438-.09375.007812-.1875.027343-.277344.066406-.046874.027344-.082031.066406-.101562.113281-.027344.070313-.039062.144531-.035156.21875 0 .082031.011718.148437.039062.207031.027344.046875.066406.085938.117188.117188l.042968.011718c.039063.011719.085938.019532.148438.027344.1875.023438.503906.035156.945312.035156.25 0 .449219-.007812.597657-.019531.152343-.019531.261719-.039062.332031-.074219.054688-.019531.101562-.058593.132812-.109374.03125-.0625.046876-.132813.046876-.207032.003906-.066406-.015626-.136718-.046876-.195312-.039062-.050782-.09375-.09375-.15625-.113282zm-6.660156-1.953124c.015625-.019532.039063-.03125.0625-.03125h.457032c.027343 0 .050781.011718.070312.03125.019531.015624.027344.042968.027344.070312v.160156c.0625-.0625.136718-.117187.21875-.164062.097656-.054688.226562-.09375.382812-.109375.125-.015625.25-.023438.378906-.023438.082032-.003906.171876-.003906.273438-.003906.289062 0 .507812.015625.65625.050781.160156.039063.296875.109375.402344.207032.109375.101562.195312.234374.25.394531.046875.152343.074218.335937.078125.558593v.320313c0 .023437-.011719.050781-.03125.070313-.015625.019531-.039063.03125-.066407.03125h-.464843c-.027344 0-.050781-.011719-.070313-.03125-.015625-.019532-.027344-.046876-.027344-.074219v-.21875c0-.15625-.007812-.277344-.03125-.363281v-.003907c-.011718-.0625-.042968-.121093-.085937-.167969-.0625-.054687-.140625-.089843-.222656-.105468-.144531-.03125-.292969-.042969-.441407-.042969-.078124 0-.148437.003906-.21875.003906-.148437.007813-.296874.023438-.441406.054688-.078125.015625-.148437.039062-.207031.066406-.097656.035156-.171875.109375-.210937.203125-.039063.082031-.070313.195312-.089844.335938-.023438.171874-.03125.34375-.03125.515624v1.425782c0 .027344-.007813.054687-.027344.074218-.015625.019532-.042969.027344-.070312.027344h-.457032c-.023437 0-.046875-.007812-.0625-.027344-.019531-.019531-.03125-.046874-.027344-.074218v-3.089844c0-.027344.007813-.054688.027344-.070312zm-3.507812-1.65625c.367187 0 .667968.011718.90625.027343-1 .03125-1.996094.164063-2.972656.402344-1.386719.347656-2.136719.863281-2.242188 1.546875-.027344.179688.085938.398438.339844.648438.121094.117187.410156.355468.863281.707031.40625.316406.695313.574219.867187.773437.261719.296875.378907.574219.355469.835938-.089843 1-1.226562 1.597656-3.414062 1.789062-1.082031.097656-2.171875.09375-3.253907-.007812.867188.003906 1.738282-.058594 2.597657-.183594 1.757812-.253906 2.699219-.714844 2.816406-1.378906.03125-.15625-.078125-.347656-.324219-.585938-.269531-.238281-.542968-.46875-.824218-.691406-.375-.304688-.644532-.566406-.8125-.78125-.234376-.308594-.332032-.597656-.289063-.863281.128906-.828125.792969-1.433594 1.996094-1.808594.058593-.019531.121093-.035156.1875-.058594.875-.246093 1.945312-.371093 3.203125-.371093zm.050781 2.257812c-.113281.015625-.226563.058594-.320313.132812h-.003906c-.0625.058594-.113281.128907-.140625.210938-.03125.082031-.050781.171875-.0625.257812h2.507813c-.007813-.085937-.023438-.167968-.050782-.25-.027343-.078124-.074218-.148437-.136718-.203124-.082032-.070313-.207032-.117188-.371094-.148438-.25-.035156-.503906-.050781-.757812-.042969-.289063 0-.511719.011719-.664063.042969zm-.003906-.644531c.226562-.019531.457031-.03125.683593-.027344.246094 0 .464844.007813.648438.019531.1875.015625.335938.035156.449219.066406.414062.089844.738281.429688.832031.871094.039062.1875.0625.464844.070312.835938 0 .027344-.011718.054687-.03125.074218-.015624.019532-.042968.03125-.066406.027344h-3.128906c.007812.144532.027344.261719.050781.359375.023438.097657.066407.191407.128907.265625.042968.042969.089843.078125.144531.101563.070312.035156.144531.054687.226562.070312h-.003906c.101563.015625.222656.03125.371094.042969.171875.003906.355469.007812.554687.007812.324219 0 .558594-.015624.703125-.046874.0625-.011719.121094-.03125.175781-.0625.042969-.019532.082032-.050782.117188-.085938.019531-.03125.039062-.0625.046875-.101562.015625-.058594.027344-.117188.03125-.175782.003906-.027344.015625-.050781.03125-.066406.019531-.019531.042969-.027344.066406-.027344h.480469c.023438 0 .046875.011719.0625.03125.019531.019532.03125.042969.03125.070313-.003906.203125-.042969.375-.109375.515625s-.171875.261718-.304687.347656c-.125.078125-.300782.136719-.519532.179688-.25.039062-.507812.054687-.761718.050781-.480469 0-.851563-.019531-1.117188-.058594-.265625-.042969-.46875-.113281-.609375-.222656-.175781-.140625-.304687-.328125-.367187-.542969-.074219-.234375-.113282-.515625-.113282-.851562 0-.242188.015625-.449219.046875-.621094.035157-.1875.085938-.339844.152344-.464844.117187-.230469.320313-.40625.5625-.488281.121094-.042969.277344-.074219.464844-.09375zm8.324219.644531c-.042969.007812-.085938.019531-.125.035156-.050782.019532-.089844.058594-.117188.105469-.03125.066406-.046875.136719-.042969.210937v.042969c0 .03125-.007812.054688-.023437.074219-.019532.019531-.042969.027344-.066406.027344h-.480469c-.023438 0-.042969-.007813-.058594-.027344-.019531-.015625-.03125-.039062-.03125-.0625l-.007813-.148438c0-.175781.03125-.328124.097657-.457031.066406-.125.167969-.230469.296875-.292969.128906-.066406.300781-.113281.519531-.144531.269531-.03125.535156-.046875.804687-.042969.238282 0 .449219.003907.640626.019532.179687.011718.328124.027344.441406.054687.234375.054688.421875.152344.558594.300781h-.003907c.117188.125.191407.269532.226563.4375.015625.09375.027344.199219.035156.320313.007812.132813.011719.289063.011719.476563v1.632812c0 .023438-.007813.050781-.027344.070312-.015625.019532-.042969.03125-.066406.03125h-.460938c-.023437-.003906-.046875-.015624-.066406-.03125-.015625-.023437-.027344-.046874-.023437-.074218l.003906-.113282c-.089844.082032-.195313.144532-.3125.179688-.121094.03125-.242188.050781-.363282.058594-.164062.011718-.351562.015625-.566406.015625-.195312 0-.410156 0-.648437-.007813-.140625-.003906-.28125-.015625-.421875-.027344-.09375-.011718-.1875-.035156-.277344-.066406-.078125-.027344-.148438-.066406-.210938-.117187-.113281-.082031-.199218-.195313-.25-.324219-.046874-.160156-.066406-.324219-.0625-.492188 0-.253906.03125-.453124.097657-.597656.039062-.074218.085937-.144531.144531-.199218.0625-.058594.128906-.101563.207031-.132813v-.003906c.054688-.023438.113281-.042969.175781-.050781.105469-.023438.238282-.039063.386719-.050782.148438-.007812.335938-.015625.558594-.015625.300781 0 .546875.007813.742187.015625.199219.011719.347657.027344.445313.042969.097656.023437.191406.058594.273437.109375.023438.019531.050782.039062.078126.0625v-.125c0-.132812-.011719-.242188-.03125-.332031-.015626-.070313-.046876-.136719-.085938-.199219-.035156-.042969-.078125-.082031-.128906-.109375-.058594-.035156-.121094-.058594-.1875-.074219h-.003906c-.101563-.019531-.207032-.035156-.3125-.039062-.160157-.011719-.320313-.015625-.480469-.015625-.246094 0-.445313.007812-.601563.019531zm0 0" fill="#f3661b"/><path d="m12.6875 12.003906c-.121094-.039062-.242188-.0625-.367188-.070312-.210937-.019532-.421874-.027344-.636718-.027344-.378906 0-.636719.007812-.78125.023438-.074219.007812-.132813.015624-.183594.027343-.035156.007813-.066406.019531-.097656.035157-.042969.027343-.078125.070312-.097656.117187-.027344.066406-.039063.140625-.035157.214844 0 .082031.011719.152343.039063.203125.027344.050781.070312.089844.121094.113281l.039062.011719c.046875.015625.097656.023437.148438.027344.1875.023437.5.035156.941406.035156.25 0 .449218-.007813.597656-.019532.113281-.007812.226562-.03125.332031-.070312.058594-.019531.105469-.058594.136719-.109375.027344-.0625.042969-.132813.039062-.203125.003907-.066406-.011718-.132812-.046874-.191406-.039063-.054688-.089844-.09375-.148438-.117188zm-1.035156-2.003906c.238281 0 .449218.007812.640625.019531.148437.007813.296875.027344.441406.054688.238281.054687.425781.152343.558594.296875.113281.125.1875.269531.21875.433594.019531.089843.03125.195312.039062.3125.007813.132812.011719.289062.011719.472656v1.609375c.003906.027343-.007812.054687-.03125.070312-.015625.019531-.039062.03125-.0625.03125h-.457031c-.023438 0-.050781-.011719-.070313-.03125-.015625-.019531-.027344-.046875-.027344-.074219l.007813-.109374c-.09375.082031-.195313.144531-.3125.179687-.117187.027344-.238281.046875-.363281.054687-.164063.011719-.355469.015626-.566406.015626-.195313 0-.410157 0-.644532-.007813-.140625-.003906-.28125-.011719-.421875-.027344h-.003906c-.09375-.011719-.183594-.035156-.273437-.066406-.078126-.027344-.152344-.066406-.214844-.117187-.113282-.078126-.199219-.1875-.246094-.316407-.050781-.15625-.070312-.320312-.066406-.484375 0-.25.035156-.449218.101562-.589844.035156-.074218.082032-.144531.140625-.199218.0625-.054688.132813-.097656.207031-.128906v-.003907c.058594-.023437.117188-.042969.175782-.054687.109375-.019532.238281-.035156.390625-.046875.1875-.007813.371093-.015625.558593-.011719.296876 0 .542969.003906.742188.011719.199219.015625.347656.027343.441406.042969.101563.023437.191406.058593.273438.109374.027344.019532.050781.039063.074218.058594v-.125c0-.125-.007812-.234375-.03125-.324218-.011718-.070313-.039062-.136719-.082031-.195313-.035156-.046875-.078125-.082031-.125-.109375-.058593-.035156-.125-.058594-.191406-.074219-.105469-.019531-.210937-.03125-.316406-.039062-.160157-.011719-.320313-.015625-.480469-.015625-.242188 0-.445312.007812-.601562.023437l-.199219.027344c-.039063.007813-.082031.019531-.121094.035156-.050781.019531-.089844.058594-.117187.105469-.03125.0625-.046876.136719-.042969.207031v.042969c0 .027344-.007813.054688-.027344.074219-.015625.015625-.042969.027343-.066406.027343h-.476563c-.023437 0-.046875-.011718-.0625-.027343-.019531-.019531-.027344-.039063-.03125-.0625l-.007812-.144531c0-.175782.035156-.328126.097656-.453126.066406-.125.171875-.230468.296875-.289062.128906-.0625.300781-.109375.519531-.144531.269532-.03125.535156-.046875.804688-.042969zm-4.390625.628906c-.269531-.003906-.539063.007813-.804688.035156-.164062.023438-.285156.058594-.363281.113282-.09375.074218-.160156.175781-.195312.289062-.042969.136719-.066407.328125-.066407.578125 0 .292969.023438.511719.074219.652344.039062.121094.117188.226563.222656.289063.074219.042968.191406.074218.34375.097656.164063.019531.371094.03125.625.03125.339844 0 .59375-.011719.753906-.035156.152344-.019532.269532-.058594.351563-.113282.097656-.070312.167969-.171875.199219-.289062.046875-.136719.070312-.335938.070312-.589844 0-.289062-.023437-.503906-.074218-.644531-.019532-.058594-.050782-.117188-.089844-.167969-.039063-.042969-.082032-.082031-.132813-.113281-.101562-.054688-.214843-.085938-.328125-.097657-.195312-.023437-.390625-.039062-.585937-.035156zm-2.035157-.550781c.015626-.019531.042969-.03125.070313-.03125h.453125c.023438 0 .046875.011719.066406.03125.015625.019531.027344.042969.027344.070313v.148437c.015625-.019531.035156-.039063.054688-.054687.082031-.0625.171874-.109376.273437-.144532.128906-.035156.261719-.058594.390625-.066406.199219-.015625.394531-.023438.59375-.019531.386719 0 .6875.011719.898438.042969.210937.03125.386718.089843.527343.175781.105469.066406.195313.144531.273438.238281.074219.09375.132812.199219.175781.316406.074219.214844.113281.511719.113281.890625 0 .238281-.015625.445313-.050781.617188-.027344.160156-.082031.316406-.164062.457031-.132813.226562-.34375.398438-.597657.480469-.160156.042969-.324219.070312-.488281.082031-.425781.035156-.855469.035156-1.28125.003906-.128906-.007812-.253906-.027344-.378906-.0625s-.242188-.101562-.339844-.191406v1.238281c0 .023438-.011719.050781-.027344.070313-.015625.019531-.039062.027344-.066406.027344h-.453125c-.027344 0-.054687-.007813-.070313-.027344-.019531-.019532-.027343-.046875-.027343-.070313v-4.152343c0-.027344.007812-.050782.027343-.070313zm9.464844.019531 1.347656 2.558594 1.242188-2.554688c.015625-.03125.050781-.054687.085938-.054687h.535156c.035156 0 .066406.019531.082031.046875.019531.035156.019531.070312.003906.097656l-1.410156 2.839844v.003906c-.121094.25-.253906.496094-.402344.730469-.09375.140625-.210937.265625-.34375.367187-.117187.085938-.25.148438-.390625.179688-.1875.035156-.378906.050781-.570312.050781-.105469 0-.191406-.003906-.265625-.007812-.023438 0-.046875-.011719-.0625-.027344-.019531-.019531-.027344-.046875-.027344-.074219v-.441406c0-.027344.007813-.054688.03125-.074219.019531-.015625.046875-.023437.074219-.023437.191406.023437.382812.019531.570312-.015625.078125-.011719.15625-.035157.226563-.074219v-.003906c.0625-.042969.121093-.09375.164062-.160156.039063-.050782.078125-.109376.113281-.167969-.03125-.003907-.058593-.023438-.074218-.046875l-1.628906-3.046875c-.019532-.03125-.019532-.070313 0-.105469.015624-.027344.046874-.046875.082031-.046875h.535156c.035156 0 .066406.019531.082031.050781zm0 0" fill="#2f689d"/></svg>