<svg viewBox="0 0 40 24" xmlns="http://www.w3.org/2000/svg"><path d="m0 0h40v24h-40z" fill="#fff"/><path d="m16.734375 12.640625v1.90625c.019531.332031-.210937.621094-.53125.667969h-1.9375c-.378906.039062-.753906-.09375-1.027344-.363282-.277343-.269531-.425781-.644531-.410156-1.03125-.019531-.507812-.003906-1.019531.042969-1.527343.09375-.621094.597656-1.09375 1.214844-1.128907h.855468c.074219.011719.15625-.019531.203125-.078124.050781-.0625.066407-.148438.039063-.222657.019531-.0625.011718-.128906-.019532-.1875-.03125-.054687-.082031-.097656-.144531-.113281h-1.277343c-.273438 0-.332032-.058594-.332032-.34375v-.816406c-.007812-.058594.003906-.117188.039063-.167969.03125-.046875.082031-.078125.140625-.089844h1.714844c.394531-.011719.777343.152344 1.039062.445313.261719.296875.386719.699218.339844 1.097656.058594.667969.050781 1.3125.050781 1.953125zm-2.382813.984375c-.007812.132812.089844.25.222657.261719h.4375c.070312.007812.136719-.019531.1875-.066407.050781-.050781.074219-.121093.070312-.191406v-.828125c0-.21875-.113281-.265625-.515625-.265625s-.382812.074219-.402344.273438zm6.875-2.003906v2.0625c.03125.386718-.09375.769531-.34375 1.070312-.246093.292969-.601562.476563-.984374.507813h-1.757813c-.246094 0-.300781-.054688-.300781-.308594v-.925781c-.011719-.0625.003906-.128906.046875-.179688.039062-.046875.097656-.078125.160156-.078125h1.433594c.070312.007813.140625-.015625.1875-.0625.050781-.046875.078125-.117187.074219-.1875.003906-.0625-.019532-.125-.0625-.175781-.039063-.046875-.097657-.078125-.160157-.082031h-.71875c-.765625.027343-1.40625-.582031-1.4375-1.363281v-2.429688c-.019531-.128906.0625-.25.1875-.273438h.960938c.246093 0 .300781.074219.300781.332032v1.910156c0 .328125.074219.394531.398438.394531h.035156c.445312 0 .480468-.035156.480468-.484375v-1.878906c-.050781-.097656-.035156-.214844.039063-.296875.070313-.082031.183594-.109375.28125-.070313h.871094c.082031-.015624.167969.011719.230469.074219.058593.058594.085937.148438.070312.234375.007812.792969.007812 1.480469.007812 2.210938zm-11.382812 1.871094v1.421874c0 .339844-.042969.375-.371094.375h-.847656c-.074219.019532-.148438-.003906-.203125-.058593-.050781-.054688-.074219-.132813-.054687-.207031v-5.554688c-.019532-.109375.050781-.210938.15625-.234375h2.488281c.636719.015625 1.144531.535156 1.164062 1.179687.042969.609376.042969 1.21875 0 1.828126 0 .703124-.554687 1.273437-1.242187 1.277343h-1.089844zm0-1.527344h.617188c.125-.003906.226562-.101563.230468-.226563v-.800781c.011719-.128906-.074218-.242188-.199218-.257812h-.632813v1.277343zm0 0" fill="#22346c"/><path d="m27.332031 9.46875c.605469-.496094 1.484375-.464844 2.054688.074219.261719-.148438.539062-.273438.824219-.375.441406-.109375.910156-.003907 1.265624.28125.355469.289062.566407.726562.570313 1.1875v4.277343c0 .265626-.0625.332032-.320313.332032h-.828124c-.082032.019531-.171876-.007813-.234376-.070313-.058593-.0625-.085937-.152343-.066406-.238281v-3.847656c.019532-.148438-.039062-.296875-.15625-.394532-.113281-.09375-.269531-.125-.410156-.074218-.207031.023437-.363281.210937-.351562.425781v3.964844c.023437.121093-.058594.238281-.179688.261719h-1.027344c-.0625.011718-.128906-.007813-.175781-.050782-.050781-.042968-.078125-.109375-.074219-.175781v-3.984375c.039063-.167969-.050781-.339844-.207031-.40625-.167969-.042969-.34375-.042969-.511719 0-.140625.074219-.21875.234375-.183594.390625v3.824219c0 .351562-.042968.402344-.402343.402344h-.71875c-.257813 0-.300781-.058594-.300781-.320313v-5.484375c0-.308594.042968-.34375.328124-.34375h.785157c.089843-.007812.179687.027344.242187.09375s.089844.15625.078125.25zm-3.894531 1.203125h-.554688c-.082031.023437-.167968 0-.230468-.058594-.058594-.0625-.085938-.152343-.0625-.234375v-.910156c-.023438-.125.058594-.242188.179687-.265625h.070313c.519531 0 .996094-.28125 1.25-.734375.109375-.164062.25-.308594.414062-.417969.175782-.117187.304688 0 .316406.199219v.929688h.503907c.082031-.015626.167969.011718.230469.074218.058593.0625.085937.152344.070312.238282v.894531c.019531.085937-.003906.175781-.066406.238281s-.148438.089844-.234375.070312h-.472657v4.277344c0 .308594-.050781.351563-.339843.359375h-.78125c-.085938.027344-.175781 0-.238281-.0625-.0625-.066406-.085938-.15625-.0625-.242187.007812-1.375.007812-4.246094.007812-4.347656zm0 0" fill="#24b8eb"/></svg>