<svg viewBox="0 0 40 24" xmlns="http://www.w3.org/2000/svg"><path d="m0 0h40v24h-40z" fill="#fff"/><path d="m3.628906 17.664062c-.039062-.097656-.050781-1.050781-.03125-2.121093l.039063-1.945313 11.324219-.066406 11.328124-.066406.800782-1.574219.796875-1.574219-.785157-1.605468c-.46875-.953126-.753906-1.6875-.703124-1.820313.074218-.195313.585937-.21875 5.003906-.21875 3.996094 0 4.945312.035156 5.070312.183594.105469.132812.140625 1.703125.113282 5.550781l-.035157 5.363281-16.429687.035157c-13.378906.027343-16.441406 0-16.496094-.140626zm26.859375-1.972656c0-.070312-.058593-.164062-.132812-.207031-.074219-.046875-.132813.007813-.132813.125 0 .113281.058594.210937.132813.210937.070312 0 .132812-.054687.132812-.128906zm1.300781-3.738281c.039063-.125-.179687-.167969-.824218-.167969-.753906 0-.875-.035156-.875-.242187 0-.132813.273437-.511719.609375-.839844.976562-.957031 1.210937-1.632813.785156-2.246094-.113281-.160156-.40625-.332031-.65625-.378906-.5625-.105469-1.40625.15625-1.40625.433594 0 .144531.070313.179687.234375.109375.71875-.296875 1.273438-.222656 1.5.203125.21875.417969-.152344 1.117187-1.160156 2.171875-.722656.753906-.859375.960937-.703125 1.066406.292969.191406 2.425781.097656 2.496093-.109375zm2.3125.066406c.011719-.101562.027344-.203125.046876-.300781.015624-.074219.039062-.210938.050781-.304688s.109375-.167968.222656-.167968c.265625 0 .253906-.265625-.023437-.46875-.175782-.132813-.222657-.410156-.234376-1.363282-.007812-1.101562-.03125-1.195312-.289062-1.234374-.21875-.03125-.464844.242187-1.183594 1.300781-.550781.8125-.875 1.421875-.828125 1.546875.054688.148437.3125.21875.914063.246094.722656.035156.847656.078124.882812.308593.070313.449219.144532.605469.289063.605469.074219 0 .144531-.074219.152343-.167969zm-1.746093-1.351562c0-.292969.964843-1.707031 1.167969-1.707031.132812 0 .167968.21875.136718.90625l-.039062.910156-.632813.039062c-.476562.03125-.632812-.007812-.632812-.148437zm-26.167969 1.699219c-.046875-.050782-.085938-.949219-.085938-2.003907 0-2.144531-.035156-2.074219 1.023438-2.074219 1.34375 0 2.097656.882813 1.632812 1.914063-.183593.402344-.59375.667969-1.191406.765625-.433594.074219-.46875.117188-.507812.613281-.027344.292969-.109375.609375-.183594.703125-.152344.183594-.539062.230469-.6875.082032zm1.570312-2.410157c.113282-.113281.207032-.253906.207032-.308593 0-.199219-.328125-.417969-.625-.417969-.246094 0-.308594.070312-.308594.378906 0 .597656.324219.753906.726562.347656zm1.546876 2.238281c-.203126-.378906-.179688-2.65625.027343-2.785156.09375-.058594 1.027344-.125 2.082031-.144531 2.566407-.054687 2.675782.035156 1.679688 1.417969-.628906.875-.625.917968.136719.992187.328125.035157.398437.101563.398437.378907 0 .332031-.011718.335937-1.132812.335937-1.070313 0-1.132813-.015625-1.175782-.304687-.023437-.183594.167969-.597657.5-1.078126.300782-.429687.542969-.816406.542969-.859374 0-.164063-1.089843-.214844-1.546875-.074219-.566406.175781-.769531.585937-.679687 1.390625.03125.304687.003906.652344-.0625.773437-.167969.296875-.601563.273438-.769531-.042969zm5.050781-.109374c-.429688-.390626-.636719-1.175782-.476563-1.820313.257813-1.039063 1.609375-1.402344 2.367188-.636719.324218.328125.390625.496094.355468.910156l-.039062.503907-.789062.070312c-.449219.035157-.8125.136719-.84375.230469-.0625.195312.390624.3125 1.027343.269531.363281-.023437.472657.023438.515625.230469.074219.375-.335937.613281-1.066406.613281-.507812 0-.722656-.074219-1.050781-.371093zm1.273437-1.914063c-.046875-.074219-.195312-.136719-.332031-.136719-.140625 0-.289063.0625-.335937.136719-.046876.078125.09375.132813.335937.132813s.378906-.054688.332031-.132813zm1.488282 2.195313c-.046876-.050782-.089844-1.011719-.089844-2.136719 0-1.738281.03125-2.0625.210937-2.128907.113281-.046874.324219-.019531.464844.054688.238281.128906.257813.300781.257813 2.058594 0 1.3125-.050782 1.96875-.160157 2.082031-.171875.175781-.542969.210937-.683593.070313zm1.941406-.089844c-.625-.351563-.886719-1.0625-.699219-1.90625.160156-.71875.660156-1.140625 1.351563-1.140625.660156 0 .984374.164062 1.246093.640625.203125.363281.203125.363281.136719.03125-.097656-.480469.101562-.726563.5-.625.261719.066406.367188.21875.488281.707031.175781.699219.25.679687.542969-.125.160156-.4375.285156-.574219.546875-.605469.402344-.046875.585937.140625.742187.757813.144532.554687.351563.570312.460938.03125.105469-.519531.347656-.8125.671875-.8125.398437 0 .410156.261719.054687 1.597656-.378906 1.433594-.519531 1.65625-1 1.601563-.289062-.035157-.382812-.160157-.597656-.832032l-.253906-.792968-.28125.792968c-.230469.664063-.332031.796875-.621094.832032-.449218.050781-.570312-.117188-.894531-1.25-.152344-.519532-.277344-.816407-.28125-.667969-.019531.445312-.285156.601562-1.03125.601562s-.964844.136719-.648437.402344c.132812.109375.398437.136719.800781.074219.328125-.050782.601562-.0625.601562-.027344s.03125.152344.074219.261719c.203125.539062-1.175781.867187-1.910156.453125zm.96875-2.105469c-.046875-.074219-.199219-.136719-.339844-.136719-.144531 0-.261719.0625-.261719.136719 0 .070313.15625.132813.34375.132813.191407 0 .304688-.058594.257813-.132813zm0 0" fill="#9ec7b7"/><path d="m3.761719 17.527344c-.039063-.097656-.050781-.988282-.03125-1.984375l.039062-1.808594 11.257813-.066406 11.261718-.066407 1.671876-3.289062-.804688-1.625c-.445312-.890625-.773438-1.679688-.730469-1.75.050781-.078125 2.046875-.128906 5.070313-.128906h4.992187l-.070312 10.828125-16.292969.03125c-13.300781.027343-16.3125.003906-16.363281-.140625zm5.402343-1.238282c-.132812-.160156-.128906-.242187.003907-.40625.203125-.246093.558593-.019531.441406.28125-.039063.105469-.015625.191407.058594.191407.144531 0 .132812-1.148438-.011719-1.296875-.050781-.050782-.089844.042968-.089844.210937 0 .214844-.066406.285157-.234375.253907-.160156-.03125-.21875-.148438-.1875-.363282.027344-.199218-.011719-.28125-.101562-.222656-.15625.097656-.203125 1.316406-.054688 1.464844.179688.179687.335938.082031.175781-.113282zm6.398438.144532c0-.03125-.035156-.152344-.082031-.269532-.0625-.167968-.125-.183593-.265625-.066406-.210938.179688-.125.394532.15625.394532.105468 0 .191406-.027344.191406-.058594zm7.285156-.148438c.105469-.285156-.074218-.4375-.226562-.195312-.164063.261718-.160156.402344.007812.402344.078125 0 .175782-.09375.21875-.207032zm3.910156-.207031c0-.140625-.089843-.257813-.199218-.257813-.199219 0-.28125.410157-.117188.578126.140625.140624.316406-.039063.316406-.320313zm1.066407 0c0-.140625-.089844-.257813-.199219-.257813-.199219 0-.28125.410157-.117188.578126.140626.140624.316407-.039063.316407-.320313zm1.023437.042969c-.015625-.25.039063-.371094.175782-.371094.121093 0 .195312.121094.1875.308594-.003907.167968.054687.285156.132812.257812.085938-.035156.136719-.117187.132812-.207031-.015624-.21875-.03125-.441406-.042968-.660156-.023438-.457031-.039063-.476563-.152344-.191407-.152344.382813-.472656.308594-.425781-.101562.019531-.167969-.023438-.257812-.097657-.210938-.171874.105469-.179687 1.546876-.011718 1.546876.070312 0 .117187-.167969.101562-.371094zm-18.214844.175781c0-.03125-.0625-.097656-.136718-.140625-.070313-.046875-.132813-.019531-.132813.058594s.0625.140625.132813.140625c.074218 0 .136718-.027344.136718-.058594zm.53125-.335937c0-.21875-.0625-.433594-.140624-.484376-.207032-.128906-.234376-.046874-.160157.441407.082031.546875.300781.578125.300781.042969zm5.597657.269531c0-.070313-.058594-.164063-.132813-.210938-.074218-.042969-.132812.011719-.132812.128907 0 .113281.058594.207031.132812.207031.070313.003906.132813-.054688.132813-.125zm.640625-.230469c.019531-.152344-.054688-.347656-.167969-.445312-.179687-.148438-.207031-.109376-.207031.324218 0 .535156.300781.628906.375.121094zm4.625-.117188c0-.402343-.023438-.4375-.160156-.25-.089844.121094-.253907.183594-.367188.140626-.128906-.050782-.207031-.007813-.207031.113281 0 .105469.082031.160156.179687.125.097656-.039063.253906.023437.347656.136719.09375.113281.179688.207031.1875.207031.011719 0 .019532-.210938.019532-.472657zm8.816406.226563c-.121094-.132813-.222656-.367187-.222656-.519531 0-.164063-.109375-.304688-.265625-.347656-.230469-.0625-.265625-.003907-.265625.398437 0 .390625.039062.453125.246094.386719.144531-.046875.320312.007812.417968.125.089844.113281.199219.203125.238282.203125.039062 0-.027344-.109375-.148438-.246094zm-17.148438-.222656c0-.246094-.070312-.335938-.265624-.335938-.257813 0-.375.382813-.175782.582031.199219.203126.441406.070313.441406-.246093zm5.402344-.726563c-.183594-.183594-.203125-.136718-.199218.460938l.007812.667968.195312-.460937c.179688-.410156.175782-.484375-.003906-.667969zm1.433594.660156c.039062-.148437.015625-.238281-.050781-.195312-.066407.042969-.121094.164062-.121094.269531 0 .277344.089844.238281.171875-.074219zm-2.515625-.089843c.128906-.332031-.011719-.378907-.179687-.058594-.082032.15625-.09375.28125-.027344.28125.070312 0 .160156-.097656.207031-.222656zm1.8125-.046875c-.078125-.148438-.171875-.269532-.210937-.269532-.035157 0 0 .121094.078124.269532.078126.148437.171876.269531.207032.269531.039062 0 .003906-.121094-.074219-.269531zm-7.863281-.148438c0-.074218-.0625-.097656-.132813-.054687-.074219.046875-.132812.144531-.132812.21875s.058593.097656.132812.050781c.074219-.042969.132813-.140625.132813-.214844zm4.058594-.53125c-.042969-.070312-.167969-.125-.277344-.125-.140625 0-.175782.078125-.113282.273438.046876.152344.011719.378906-.074218.503906-.089844.125-.003906.058594.1875-.148438.195312-.210937.320312-.4375.277344-.503906zm6.867187.402344c0-.269531-.191406-.351562-.324219-.136719-.105468.171875.0625.5625.207032.472657.066406-.039063.117187-.191407.117187-.335938zm.714844.210938c.042969-.109376.019531-.203126-.050781-.203126-.070313 0-.128907.09375-.128907.203126 0 .109374.023438.203124.050781.203124.03125 0 .089844-.09375.128907-.203124zm.621093-.066407c-.003906-.078125-.066406-.136719-.140624-.136719-.078126 0-.105469.0625-.0625.136719.046874.074219.109374.132813.144531.132813.03125 0 .058593-.058594.058593-.132813zm3.039063-.304687c-.023437-.164063-.101563-.300782-.175781-.300782-.074219 0-.152344.136719-.175782.300782-.027343.210937.027344.304687.175782.304687.152344 0 .207031-.09375.175781-.304687zm-1.082031-.125c-.042969-.109375-.074219-.074219-.082032.082031-.007812.140625.023438.21875.070313.175781.042969-.042968.046875-.160156.011719-.257812zm5.636718-3.132813c0-.242187-.542968-.398437-.988281-.285156-.351562.089844-.742187-.015625-.742187-.195313 0-.066406.242187-.34375.539062-.617187 1.109375-1.039063 1.386719-2.054687.707032-2.59375-.457032-.363281-1.367188-.375-1.796876-.019531-.4375.355468-.226562.492187.429688.277344.566406-.191407.839844-.117188 1.097656.292968.234375.378906-.046875.9375-.984375 1.933594-1.285156 1.371094-1.269531 1.40625.496094 1.40625 1.007813 0 1.242187-.039062 1.242187-.199219zm2.375-.214843c.027344-.179688.171876-.425782.324219-.546876l.28125-.21875-.292969-.183593c-.261718-.164063-.289062-.292969-.289062-1.429688 0-.992187-.039062-1.265625-.199219-1.328125-.113281-.042968-.289062-.007812-.394531.082032-.371094.3125-1.804688 2.542968-1.804688 2.8125 0 .242187.097657.277343.898438.3125.78125.035156.90625.074218.941406.308593.078125.488281.160156.628907.328125.574219.089844-.03125.183594-.203125.207031-.382812zm-1.707031-1.152344c0-.328125.796875-1.527344 1.011719-1.527344.238281 0 .261719 1.351562.027344 1.585938-.253906.257812-1.039063.210937-1.039063-.058594zm-26.191406 1.535156c-.039063-.101562-.054687-.96875-.035156-1.925781l.039062-1.742188.835938-.039062c.773437-.039063.867187-.011719 1.234375.359375.527344.535156.53125 1.109375.003906 1.640625-.242188.246093-.527344.394531-.765625.394531-.558594.003906-.6875.144531-.734375.808594-.03125.445312-.101562.613281-.277344.644531-.125.023437-.261718-.039063-.300781-.140625zm1.636719-2.222656c.214844-.285156.210937-.371094-.050782-.636719-.121093-.121094-.371093-.199219-.566406-.175781-.273437.03125-.359375.125-.394531.421875-.066406.613281.0625.804687.480469.699219.199218-.046876.4375-.1875.53125-.308594zm1.445312 2.175781c-.042968-.117187-.082031-.753906-.082031-1.417969 0-.96875.042969-1.21875.210937-1.28125.113282-.046875.269532-.019531.34375.054688.089844.089844.253907.089844.503907-.003906.390625-.148438.808593-.0625.808593.164062 0 .078125-.222656.246094-.5.375-.480468.230469-.5.269531-.535156.976562-.046875 1.078126-.132812 1.34375-.417968 1.34375-.136719 0-.285157-.09375-.332032-.210937zm2.011719.027344c-.042969-.113281.210937-.609375.585937-1.152344.691407-.996094.691407-1.035156-.078124-1.109375-.25-.027344-.402344-.117188-.402344-.242188 0-.160156.203125-.203124 1-.203124 1.246094 0 1.285156.113281.464844 1.25-.332032.464843-.570313.902343-.527344.976562.042968.070312.320312.128906.613281.128906.4375 0 .527344.042969.492187.234375-.039062.195313-.21875.242188-1.058593.273438-.796875.03125-1.035157-.003907-1.09375-.15625zm2.960937-.207031c-.324218-.332032-.386718-.503907-.386718-1.066407 0-.527343.074218-.761719.34375-1.085937.296875-.355469.433594-.414063.988281-.414063.539063 0 .691406.058594.921875.355469.15625.199219.277344.550781.277344.804688 0 .453124 0 .453124-.65625.453124-.777344 0-1.078125.097657-1.078125.347657 0 .300781.511719.488281 1.078125.390625.460937-.078125.523437-.058594.523437.175781 0 .328125-.246093.429687-1.023437.429687-.484375 0-.671875-.074218-.988282-.390624zm1.402344-1.609376c.128906-.210937-.308594-.453124-.65625-.363281-.515625.128907-.425781.480469.125.480469.25 0 .488282-.050781.53125-.117188zm1.5 1.917969c-.136718-.140625-.113281-3.921875.027344-4.011719.066406-.039062.21875-.035156.339844.007813.1875.074219.207031.34375.175781 2.050781-.03125 1.648438-.070313 1.972656-.242187 2.007813-.113282.019531-.25-.003907-.300782-.054688zm1.660156-.257812c-.484374-.410157-.617187-.933594-.425781-1.660157.179688-.667968.5625-.957031 1.277344-.957031.675781 0 1.140625.4375 1.171875 1.097657l.023438.449218-.824219.066406c-.449219.039063-.867188.113282-.917969.167969-.054688.054688.011719.226563.152344.382813.210937.234375.355468.269531.816406.207031.605469-.085937.832031.070313.566406.390625-.277344.339844-1.371094.253906-1.839844-.144531zm1.289063-1.777344c-.054687-.28125-.582031-.386719-.847656-.164063-.28125.238282-.109375.398438.421875.398438.375 0 .460937-.046875.425781-.234375zm1.714844 2.019531c-.03125-.058594-.21875-.671875-.417969-1.367187-.359375-1.277344-.332031-1.621094.121094-1.445313.230468.089844.253906.136719.472656 1.011719.175781.683594.28125.621094.59375-.359375.207031-.644531.265625-.710938.582031-.671875.292969.035156.378907.152344.558594.753906.117187.390625.269531.710938.339844.703125.066406-.003906.191406-.269531.273437-.59375.183594-.730468.277344-.890625.527344-.890625.34375 0 .347656.34375.003906 1.53125-.390625 1.367188-.421875 1.425781-.738281 1.425781-.328125 0-.480469-.214843-.695313-.992187-.097656-.359375-.234374-.664063-.300781-.671875-.0625-.007812-.207031.289062-.3125.65625-.105469.371094-.253906.75-.328125.839844-.152344.1875-.589844.230468-.679687.070312zm0 0" fill="#8ab7a4"/><path d="m3.761719 17.527344c-.039063-.097656-.050781-.988282-.03125-1.984375l.039062-1.808594 11.261719-.035156 11.265625-.035157.828125-1.679687.832031-1.683594-.804687-1.617187c-.441406-.890625-.765625-1.675782-.726563-1.746094.050781-.078125 2.046875-.128906 5.070313-.128906h4.992187l-.035156 5.414062-.035156 5.410156-16.292969.035157c-13.300781.027343-16.3125.003906-16.363281-.140625zm6.035156-1.203125c.074219-.09375.097656-.4375.050781-.773438-.078125-.585937-.097656-.605469-.550781-.605469s-.464844.011719-.507813.585938c-.019531.324219-.007812.671875.03125.773438.085938.234374.800782.246093.976563.019531zm-.632813-.316407c0-.234374.289063-.195312.371094.054688.027344.089844-.042968.160156-.160156.160156s-.210938-.097656-.210938-.214844zm0-.726562c0-.074219.0625-.136719.132813-.136719.074219 0 .136719.0625.136719.136719s-.0625.132812-.136719.132812c-.070313 0-.132813-.058593-.132813-.132812zm2.109376.765625c.046874-.414063-.167969-.765625-.464844-.765625-.136719 0-.175782.113281-.132813.386719.050781.328125.019531.375-.191406.320312-.164063-.042969-.253906.003907-.253906.128907 0 .300781.15625.390624.597656.347656.332031-.035156.410156-.109375.445313-.417969zm2.566406.0625c-.078125-.148437-.105469-.367187-.0625-.484375.058594-.148438 0-.210938-.199219-.210938-.195313 0-.28125-.082031-.28125-.277343 0-.148438-.042969-.246094-.101563-.214844-.175781.113281-.023437 1.460937.160157 1.390625.089843-.035156.25-.015625.347656.050781.257813.15625.308594.066407.136719-.253906zm1.957031.238281c-.300781-.179687-.296875-.339844.03125-.761718.40625-.519532.34375-.710938-.230469-.703126-.40625.003907-.457031.027344-.269531.140626.300781.175781.292969.378906-.03125.796874-.394531.507813-.335937.671876.230469.667969.40625-.003906.457031-.03125.269531-.140625zm1.613281-.089844c.121094-.21875.144532-.21875.382813 0 .359375.328126.679687.3125.386719-.015624-.21875-.246094-.179688-.691407.0625-.691407.066406 0 .117187-.0625.117187-.136719 0-.234374-.390625-.144531-.558594.132813-.164062.261719-.167969.261719-.457031-.015625-.308594-.289062-.621094-.242188-.5.078125.042969.109375-.042969.222656-.207031.273437-.269531.085938-.363281.339844-.1875.519532.183593.183594.835937.085937.960937-.144532zm4.019532.027344c.152343-.183594.191406-.183594.394531 0 .121093.113282.414062.207032.644531.207032h.421875v-.808594c0-.765625-.144531-1.046875-.3125-.605469-.042969.113281-.179687.203125-.304687.203125s-.335938.097656-.46875.222656c-.230469.207032-.261719.207032-.507813-.015625-.542969-.5-1.402344.238281-.933594.804688.210938.257812.851563.253906 1.066407-.007813zm-.796876-.1875c-.097656-.183594-.082031-.292968.058594-.410156.234375-.199219.46875-.070312.46875.257812 0 .351563-.367187.453126-.527344.152344zm1.40625.011719c-.132812-.21875.074219-.574219.304688-.53125.28125.054687.277344.5625-.003906.617187-.121094.023438-.257813-.015624-.300782-.085937zm4.769532.167969c.136718-.359375.089844-.59375-.121094-.59375-.113281 0-.261719-.152344-.332031-.335938-.066407-.183594-.1875-.335937-.261719-.335937-.179688 0-.175781.03125.078125.816406.214844.660156.484375.851563.636719.449219zm1.144531-.308594c.074219-.289062.226563-.597656.335937-.6875.171876-.144531.199219-.074219.199219.527344v.699218l.5-.042968.5-.039063.015625-.71875c.015625-.828125-.074218-.902343-.9375-.769531-.472656.070312-.597656.148438-.667968.417969-.109376.445312-.445313.417969-.5-.039063-.023438-.222656-.132813-.386718-.273438-.414062-.359375-.070313-.328125.726562.03125.820312.179688.046875.265625.183594.265625.417969 0 .550781.371094.429687.53125-.171875zm.894531.167969c-.105468-.109375.015625-.316407.183594-.316407.066406 0 .125.089844.125.199219 0 .207031-.15625.269531-.308594.117188zm.042969-.855469c0-.074219.058594-.136719.132813-.136719.074218 0 .132812.0625.132812.136719s-.058594.132812-.132812.132812c-.074219 0-.132813-.058593-.132813-.132812zm2.265625 1.117188c0-.050782-.121094-.222657-.269531-.382813-.261719-.277344-.25-.734375.015625-.734375.066406 0 .121094-.097656.121094-.21875 0-.175781-.039063-.1875-.199219-.050781-.113281.09375-.34375.128906-.535157.078125-.324218-.082032-.332031-.0625-.332031.589844 0 .6875.085938.804687.371094.515624.128906-.128906.210937-.113281.390625.066407.234375.234375.4375.300781.4375.136719zm-18.894531-.816407c.09375.03125.1875.21875.210937.414063.050782.421875.289063.488281.289063.082031 0-.460937-.25-.796875-.597657-.796875-.382812 0-.617187.371094-.507812.800781.074219.289063.089844.28125.257812-.125.097657-.238281.253907-.40625.347657-.375zm6.921875.40625c.027344-.222656.125-.371093.242187-.371093.121094 0 .21875.148437.242188.371093.046875.410157.21875.484375.347656.148438.101563-.269531-.253906-.855469-.519531-.855469-.101563 0-.246094-.105469-.320313-.234375-.195312-.351563-.3125-.125-.332031.632813-.019531.726562.265625.980468.339844.308593zm4.398437 0c.027344-.222656.125-.371093.242188-.371093.121093 0 .21875.148437.242187.371093.058594.488281.292969.476563.292969-.019531 0-.460938-.273437-.726562-.695313-.664062-.246093.035156-.3125.136718-.347656.546874-.046875.574219.203125.699219.265625.136719zm1.441407-.035156c0-.222656-.058594-.402344-.132813-.402344s-.132813.179688-.132813.402344.058594.402344.132813.402344.132813-.179688.132813-.402344zm6.796874-3.964844c0-.242187-.542968-.398437-.988281-.285156-.351562.089844-.742187-.015625-.742187-.195313 0-.066406.242187-.34375.539062-.617187 1.109375-1.039063 1.386719-2.054687.707032-2.59375-.457032-.363281-1.367188-.375-1.796876-.019531-.4375.355468-.226562.492187.429688.277344.566406-.191407.839844-.117188 1.097656.292968.234375.378906-.046875.9375-.984375 1.933594-1.285156 1.371094-1.269531 1.40625.496094 1.40625 1.007813 0 1.242187-.039062 1.242187-.199219zm2.375-.214843c.027344-.179688.171876-.425782.324219-.546876l.28125-.21875-.292969-.183593c-.261718-.164063-.289062-.292969-.289062-1.429688 0-.992187-.039062-1.265625-.199219-1.328125-.113281-.042968-.289062-.007812-.394531.082032-.371094.3125-1.804688 2.542968-1.804688 2.8125 0 .242187.097657.277343.898438.3125.78125.035156.90625.074218.941406.308593.078125.488281.160156.628907.328125.574219.089844-.03125.183594-.203125.207031-.382812zm-1.707031-1.152344c0-.328125.796875-1.527344 1.011719-1.527344.238281 0 .261719 1.351562.027344 1.585938-.253906.257812-1.039063.210937-1.039063-.058594zm-26.089843 1.605468c-.121094-.046874-.164063-.542968-.164063-1.851562 0-1.941406.003906-1.953125.777344-1.953125.808593.003906 1.367187.269531 1.566406.75.355469.855469-.183594 1.566406-1.277344 1.699219-.289062.035156-.339843.113281-.375.601562-.042969.578125-.234375.859375-.527343.753906zm1.492187-2.179687c.300781-.339844.226563-.691406-.203125-.9375-.542969-.304687-.789062-.125-.789062.585937 0 .578126.019531.609376.378906.609376.210937 0 .484375-.117188.613281-.257813zm1.632813 2.1875c-.050782-.050781-.089844-.683594-.089844-1.40625v-1.3125l.429687.007813c.242188 0 .601563-.042969.800781-.09375.316407-.085938.367188-.058594.367188.1875 0 .1875-.085938.285156-.246094.285156-.460937 0-.75.507812-.820312 1.449218-.0625.8125-.210938 1.117188-.441406.882813zm2.074218 0c-.285156-.117187-.1875-.390625.433594-1.242187.328125-.453126.597656-.878907.597656-.949219 0-.070313-.222656-.144531-.5-.167969-.335937-.027344-.5-.105469-.5-.242188 0-.160156.1875-.203124.867188-.203124 1.09375 0 1.152344.179687.410156 1.25-.296875.429687-.542969.851562-.542969.941406 0 .101562.203125.164062.527344.164062.554687 0 .832031.21875.523437.414063-.195312.125-1.53125.148437-1.816406.035156zm2.914063-.257813c-1.019531-.863281-.507813-2.613281.765625-2.613281.429687 0 .59375.078125.878906.421875.230469.273438.339844.546875.3125.773438-.039062.328125-.09375.355468-.894531.417968-.910157.070313-1.097657.230469-.726563.605469.171875.171875.375.214844.808594.164063.640625-.070313.878906.113281.5.394531-.410156.300781-1.1875.222656-1.644531-.164063zm1.25-1.738281c0-.195312-.101563-.28125-.382813-.3125-.445312-.054687-.6875.136719-.566406.445313.125.339844.949219.222656.949219-.132813zm1.566406 1.988281c-.121094-.046874-.167969-.558593-.167969-1.9375 0-1.59375.035156-1.886718.214844-1.957031.363281-.140625.449219.234375.449219 1.988281.003906 1.707032-.085938 2.054688-.496094 1.90625zm1.800781-.113281c-.480468-.265625-.632812-.589843-.632812-1.339843 0-.511719.070312-.695313.386718-1.015626.773438-.78125 2.082032-.304687 1.984376.71875-.039063.433594-.042969.433594-.875.472657-.71875.035156-.832032.078125-.832032.296875 0 .347656.441406.566406 1.03125.515625.316406-.027344.5.019531.539063.140625.140625.425781-.945313.570312-1.601563.210937zm1.066406-1.699219c.351563-.351562-.417968-.691406-.886718-.390624-.101563.066406-.148438.214843-.105469.335937.097656.253906.761719.289063.992187.054687zm1.796876 1.746094c-.199219-.242187-.730469-2.390625-.644532-2.609375.140625-.371093.460938-.011719.636719.71875.101563.414063.246094.777344.324219.800781.074218.027344.238281-.320312.363281-.765624.34375-1.253907.78125-1.25 1.152344.015624.109375.371094.261719.675782.335937.675782.070313 0 .222656-.304688.332032-.675782.222656-.757812.464843-1.082031.660156-.882812.144531.148438-.460938 2.445312-.71875 2.722656-.292969.3125-.601563.019532-.839844-.804687-.128906-.441407-.296875-.792969-.367188-.785157-.074218.011719-.253906.394532-.402343.851563-.265625.839844-.546875 1.085937-.832031.738281zm0 0" fill="#ea5e5e"/><path d="m3.789062 17.613281c-.132812-.136719-.105468-3.785156.03125-3.871093.066407-.039063 5.207032-.074219 11.429688-.078126l11.316406-.003906.761719-1.542968c.417969-.851563.761719-1.667969.761719-1.816407 0-.148437-.332032-.914062-.742188-1.699219-.421875-.816406-.691406-1.476562-.625-1.542968s2.242188-.105469 4.839844-.085938l4.722656.035156v3.332032c0 1.828125.046875 3.328125.105469 3.328125.054687 0 .085937.890625.066406 1.984375l-.039062 1.980468-16.269531.035157c-8.945313.019531-16.308594-.007813-16.359376-.054688zm6.007813-1.289062c.074219-.09375.097656-.4375.050781-.773438-.078125-.585937-.097656-.605469-.550781-.605469s-.464844.011719-.507813.585938c-.019531.324219-.007812.671875.03125.773438.085938.234374.800782.246093.976563.019531zm-.632813-.316407c0-.234374.289063-.195312.371094.054688.027344.089844-.042968.160156-.160156.160156s-.210938-.097656-.210938-.214844zm0-.726562c0-.074219.0625-.136719.132813-.136719.074219 0 .136719.0625.136719.136719s-.0625.132812-.136719.132812c-.070313 0-.132813-.058593-.132813-.132812zm2.109376.765625c.046874-.414063-.167969-.765625-.464844-.765625-.136719 0-.175782.113281-.132813.386719.050781.328125.019531.375-.191406.320312-.164063-.042969-.253906.003907-.253906.128907 0 .300781.15625.390624.597656.347656.332031-.035156.410156-.109375.445313-.417969zm2.566406.0625c-.078125-.148437-.105469-.367187-.0625-.484375.058594-.148438 0-.210938-.199219-.210938-.195313 0-.28125-.082031-.28125-.277343 0-.148438-.042969-.246094-.101563-.214844-.175781.113281-.023437 1.460937.160157 1.390625.089843-.035156.25-.015625.347656.050781.257813.15625.308594.066407.136719-.253906zm1.957031.238281c-.300781-.179687-.296875-.339844.03125-.761718.40625-.519532.34375-.710938-.230469-.703126-.40625.003907-.457031.027344-.269531.140626.300781.175781.292969.378906-.03125.796874-.394531.507813-.335937.671876.230469.667969.40625-.003906.457031-.03125.269531-.140625zm1.613281-.089844c.121094-.21875.144532-.21875.382813 0 .359375.328126.679687.3125.386719-.015624-.21875-.246094-.179688-.691407.0625-.691407.066406 0 .117187-.0625.117187-.136719 0-.234374-.390625-.144531-.558594.132813-.164062.261719-.167969.261719-.457031-.015625-.308594-.289062-.621094-.242188-.5.078125.042969.109375-.042969.222656-.207031.273437-.269531.085938-.363281.339844-.1875.519532.183593.183594.835937.085937.960937-.144532zm4.019532.027344c.152343-.183594.191406-.183594.394531 0 .121093.113282.414062.207032.644531.207032h.421875v-.808594c0-.765625-.144531-1.046875-.3125-.605469-.042969.113281-.179687.203125-.304687.203125s-.335938.097656-.46875.222656c-.230469.207032-.261719.207032-.507813-.015625-.542969-.5-1.402344.238281-.933594.804688.210938.257812.851563.253906 1.066407-.007813zm-.796876-.1875c-.097656-.183594-.082031-.292968.058594-.410156.234375-.199219.46875-.070312.46875.257812 0 .351563-.367187.453126-.527344.152344zm1.40625.011719c-.132812-.21875.074219-.574219.304688-.53125.28125.054687.277344.5625-.003906.617187-.121094.023438-.257813-.015624-.300782-.085937zm4.769532.167969c.136718-.359375.089844-.59375-.121094-.59375-.113281 0-.261719-.152344-.332031-.335938-.066407-.183594-.1875-.335937-.261719-.335937-.179688 0-.175781.03125.078125.816406.214844.660156.484375.851563.636719.449219zm1.144531-.308594c.074219-.289062.226563-.597656.335937-.6875.171876-.144531.199219-.074219.199219.527344v.699218l.5-.042968.5-.039063.015625-.71875c.015625-.828125-.074218-.902343-.9375-.769531-.472656.070312-.597656.148438-.667968.417969-.109376.445312-.445313.417969-.5-.039063-.023438-.222656-.132813-.386718-.273438-.414062-.359375-.070313-.328125.726562.03125.820312.179688.046875.265625.183594.265625.417969 0 .550781.371094.429687.53125-.171875zm.894531.167969c-.105468-.109375.015625-.316407.183594-.316407.066406 0 .125.089844.125.199219 0 .207031-.15625.269531-.308594.117188zm.042969-.855469c0-.074219.058594-.136719.132813-.136719.074218 0 .132812.0625.132812.136719s-.058594.132812-.132812.132812c-.074219 0-.132813-.058593-.132813-.132812zm2.265625 1.117188c0-.050782-.121094-.222657-.269531-.382813-.261719-.277344-.25-.734375.015625-.734375.066406 0 .121094-.097656.121094-.21875 0-.175781-.039063-.1875-.199219-.050781-.113281.09375-.34375.128906-.535157.078125-.324218-.082032-.332031-.0625-.332031.589844 0 .6875.085938.804687.371094.515624.128906-.128906.210937-.113281.390625.066407.234375.234375.4375.300781.4375.136719zm-18.894531-.816407c.09375.03125.1875.21875.210937.414063.050782.421875.289063.488281.289063.082031 0-.460937-.25-.796875-.597657-.796875-.382812 0-.617187.371094-.507812.800781.074219.289063.089844.28125.257812-.125.097657-.238281.253907-.40625.347657-.375zm6.921875.40625c.027344-.222656.125-.371093.242187-.371093.121094 0 .21875.148437.242188.371093.046875.410157.21875.484375.347656.148438.101563-.269531-.253906-.855469-.519531-.855469-.101563 0-.246094-.105469-.320313-.234375-.195312-.351563-.3125-.125-.332031.632813-.019531.726562.265625.980468.339844.308593zm4.398437 0c.027344-.222656.125-.371093.242188-.371093.121093 0 .21875.148437.242187.371093.058594.488281.292969.476563.292969-.019531 0-.460938-.273437-.726562-.695313-.664062-.246093.035156-.3125.136718-.347656.546874-.046875.574219.203125.699219.265625.136719zm1.441407-.035156c0-.222656-.058594-.402344-.132813-.402344s-.132813.179688-.132813.402344.058594.402344.132813.402344.132813-.179688.132813-.402344zm6.851562-3.578125c.128906-.046875.210938-.238281.210938-.472656 0-.375.023437-.386719.660156-.386719.609375 0 .660156.023437.699218.355469.085938.734375.914063.765625 1.019532.035156.027344-.171875.164062-.398438.300781-.496094.328125-.230468.324219-.523437-.011719-.734375-.230468-.144531-.265625-.3125-.265625-1.265625 0-1.402344-.050781-1.527344-.613281-1.527344-.34375 0-.503906.085938-.683594.371094-.128906.203125-.53125.792969-.894531 1.3125-.363281.515625-.695313 1.152344-.734375 1.410156-.070312.429688-.121094.476563-.574219.511719-.277343.023438-.5-.007812-.5-.074219 0-.0625.246094-.351562.542969-.644531.671875-.65625.925781-1.125.921875-1.703125-.007813-1.078125-1.214844-1.640625-2.355469-1.09375-.558594.265625-.6875.527344-.398437.820313.183593.1875.28125.191406.742187.039062.6875-.230469.945313-.121093.945313.394531 0 .324219-.203125.625-.996094 1.464844-1.4375 1.515625-1.359375 1.765625.546875 1.765625.675781 0 1.324219-.035156 1.4375-.082031zm.878906-1.929688c0-.070312.148438-.296874.328125-.503906l.328125-.375.003906.503906c.007813.449219-.03125.503907-.328124.503907-.183594 0-.332032-.058594-.332032-.128907zm-26.355468 1.78125c-.121094-.046874-.164063-.542968-.164063-1.851562 0-1.941406.003906-1.953125.777344-1.953125.808593.003906 1.367187.269531 1.566406.75.355469.855469-.183594 1.566406-1.277344 1.699219-.289062.035156-.339843.113281-.375.601562-.042969.578125-.234375.859375-.527343.753906zm1.492187-2.179687c.300781-.339844.226563-.691406-.203125-.9375-.542969-.304687-.789062-.125-.789062.585937 0 .578126.019531.609376.378906.609376.210937 0 .484375-.117188.613281-.257813zm1.632813 2.1875c-.050782-.050781-.089844-.683594-.089844-1.40625v-1.3125l.429687.007813c.242188 0 .601563-.042969.800781-.09375.316407-.085938.367188-.058594.367188.1875 0 .1875-.085938.285156-.246094.285156-.460937 0-.75.507812-.820312 1.449218-.0625.8125-.210938 1.117188-.441406.882813zm2.074218 0c-.285156-.117187-.1875-.390625.433594-1.242187.328125-.453126.597656-.878907.597656-.949219 0-.070313-.222656-.144531-.5-.167969-.335937-.027344-.5-.105469-.5-.242188 0-.160156.1875-.203124.867188-.203124 1.09375 0 1.152344.179687.410156 1.25-.296875.429687-.542969.851562-.542969.941406 0 .101562.203125.164062.527344.164062.554687 0 .832031.21875.523437.414063-.195312.125-1.53125.148437-1.816406.035156zm2.914063-.257813c-1.019531-.863281-.507813-2.613281.765625-2.613281.429687 0 .59375.078125.878906.421875.230469.273438.339844.546875.3125.773438-.039062.328125-.09375.355468-.894531.417968-.910157.070313-1.097657.230469-.726563.605469.171875.171875.375.214844.808594.164063.640625-.070313.878906.113281.5.394531-.410156.300781-1.1875.222656-1.644531-.164063zm1.25-1.738281c0-.195312-.101563-.28125-.382813-.3125-.445312-.054687-.6875.136719-.566406.445313.125.339844.949219.222656.949219-.132813zm1.566406 1.988281c-.121094-.046874-.167969-.558593-.167969-1.9375 0-1.59375.035156-1.886718.214844-1.957031.363281-.140625.449219.234375.449219 1.988281.003906 1.707032-.085938 2.054688-.496094 1.90625zm1.800781-.113281c-.480468-.265625-.632812-.589843-.632812-1.339843 0-.511719.070312-.695313.386718-1.015626.773438-.78125 2.082032-.304687 1.984376.71875-.039063.433594-.042969.433594-.875.472657-.71875.035156-.832032.078125-.832032.296875 0 .347656.441406.566406 1.03125.515625.316406-.027344.5.019531.539063.140625.140625.425781-.945313.570312-1.601563.210937zm1.066406-1.699219c.351563-.351562-.417968-.691406-.886718-.390624-.101563.066406-.148438.214843-.105469.335937.097656.253906.761719.289063.992187.054687zm1.796876 1.746094c-.199219-.242187-.730469-2.390625-.644532-2.609375.140625-.371093.460938-.011719.636719.71875.101563.414063.246094.777344.324219.800781.074218.027344.238281-.320312.363281-.765624.34375-1.253907.78125-1.25 1.152344.015624.109375.371094.261719.675782.335937.675782.070313 0 .222656-.304688.332032-.675782.222656-.757812.464843-1.082031.660156-.882812.144531.148438-.460938 2.445312-.71875 2.722656-.292969.3125-.601563.019532-.839844-.804687-.128906-.441407-.296875-.792969-.367188-.785157-.074218.011719-.253906.394532-.402343.851563-.265625.839844-.546875 1.085937-.832031.738281zm0 0" fill="#67a38c"/><path d="m3.835938 15.683594v-1.882813h11.09375c6.101562-.003906 11.21875-.035156 11.367187-.078125.300781-.082031 1.792969-2.933594 1.792969-3.421875 0-.152343-.332032-.914062-.742188-1.699219-.421875-.816406-.691406-1.476562-.625-1.542968s2.242188-.105469 4.839844-.085938l4.722656.035156.03125 5.28125.03125 5.277344h-32.511718zm6 .738281c.148437-.183594.191406-.183594.390624 0 .296876.269531.789063.257813 1.09375-.019531.144532-.132813.242188-.160156.242188-.066406 0 .324218.386719.140624.425781-.203126.054688-.472656.375-.585937.375-.132812 0 .414062.210938.570312.472657.351562.136718-.113281.195312-.117187.195312-.011718 0 .082031.132812.140625.300781.132812.164063-.011718.402344.027344.53125.082032.164063.070312.234375.039062.234375-.109376 0-.113281-.066406-.246093-.140625-.292968-.082031-.054688-.105469-.257813-.054687-.488282.074218-.339843.046875-.394531-.160156-.359374-.167969.03125-.257813-.050782-.289063-.257813-.023437-.167969-.128906-.304687-.230469-.304687-.140625 0-.195312.1875-.203125.707031l-.011719.707031-.183593-.429688c-.101563-.234374-.304688-.464843-.453125-.511718-.335938-.105469-.808594.140625-.808594.425781 0 .160156-.085938.121094-.335938-.148437-.386718-.421876-.621093-.398438-.730468.066406-.050782.210937-.171875.328125-.335938.328125-.210937 0-.261718-.09375-.261718-.464844 0-.382813-.0625-.492187-.351563-.59375-.617187-.222656-.78125-.050781-.78125.828125 0 .433594.039063.832031.089844.878906.164062.167969.808593.09375.980469-.113281zm6.257812.003906c.003906-.113281-.085938-.203125-.199219-.203125-.273437 0-.25-.222656.078125-.753906.332032-.542969.25-.726562-.328125-.726562-.570312 0-.695312.140624-.355469.398437.273438.210937.273438.210937-.074218.703125-.191406.269531-.308594.558594-.257813.636719.140625.234375 1.136719.183593 1.136719-.054688zm1.335938-.003906c.152343-.183594.195312-.183594.398437.003906.167969.152344.375.1875.773437.121094.457032-.074219.550782-.144531.585938-.429687.054688-.464844.371094-.5625.371094-.117188 0 .386719.226562.589844.425781.386719.089844-.09375.261719-.066407.523437.085937.359376.203125.414063.203125.777344-.003906.335938-.195312.414063-.199219.550782-.035156.183593.226562.867187.257812.996093.046875.050781-.078125.226563-.109375.390625-.070313.253906.066406.316406.011719.386719-.335937.097656-.5.398437-.457031.457031.066406.058594.480469.347656.378906.398438-.136719.054687-.5625-.378906-.953125-.871094-.78125-.207031.074219-.394531.269532-.449219.464844-.074219.269531-.09375.222656-.105469-.230469-.011718-.566406-.226562-.882812-.402343-.59375-.054688.082031-.328125.273438-.609375.417969-.460938.234375-.542969.242188-.734375.066406-.296875-.273437-.578125-.253906-.855469.054688-.226562.253906-.242188.253906-.71875-.074219-.265625-.183594-.53125-.402344-.582031-.492187-.183594-.296876-.402344.121093-.421875.800781-.023438.695312-.257813.875-.539063.410156-.117187-.195313-.097656-.28125.113281-.4375.191407-.148437.21875-.234375.105469-.347656-.113281-.117188-.238281-.097657-.492187.070312-.3125.207031-.367188.207031-.667969.007813-.359375-.238282-.605469-.164063-.605469.171875 0 .121093-.097656.328125-.21875.460937-.179687.199219-.1875.28125-.050781.449219.21875.265625.855469.261719 1.070313 0zm3.289062-.285156c-.1875-.191407-.082031-.453125.183594-.453125.1875 0 .261718.074218.234375.226562-.046875.246094-.277344.371094-.417969.226563zm1.460938-.003907c-.160157-.164062-.089844-.449218.113281-.449218.109375 0 .199219.121094.199219.269531 0 .269531-.140626.351563-.3125.179687zm4.710937.089844c.09375-.394531.398437-.519531.398437-.164062 0 .308594.328126.628906.523438.507812.074219-.046875.171875-.292968.21875-.550781.109375-.574219.324219-.75.324219-.261719 0 .753906.453125 1.070313 1.0625.742188.191406-.105469.234375-.261719.195312-.773438l-.050781-.730468c-.011719-.179688-.472656-.253907-1.039062-.171876-.457032.070313-.613282.164063-.710938.417969-.136719.363281-.390625.304688-.390625-.09375 0-.136719-.0625-.289062-.136719-.339843-.195312-.121094-.527344.191406-.527344.492187 0 .359375-.195312.3125-.375-.082031-.15625-.34375-.351562-.433594-.480468-.222656-.074219.125.285156 1.179687.5 1.46875.179687.242187.402344.136718.488281-.238282zm4.335937.257813c.050782-.078125-.042968-.289063-.207031-.464844-.292969-.3125-.289062-.445313.03125-.894531.242188-.34375.015625-.460938-.3125-.164063-.207031.183594-.304687.210938-.347656.089844-.0625-.179687-.429687-.238281-.441406-.070313-.101563 1.40625-.03125 1.691407.335937 1.382813.183594-.152344.25-.148437.4375.042969.257813.261718.382813.28125.503906.078125zm-6.101562-.46875c.019531-.21875-.023438-.484375-.097656-.597657-.121094-.179687-.152344-.179687-.265625 0-.152344.234376-.179688.855469-.046875.992188.179687.179688.375-.007812.410156-.394531zm-.101562-1.132813c0-.074218-.058594-.136718-.132813-.136718s-.132813.0625-.132813.136718c0 .074219.058594.132813.132813.132813s.132813-.058594.132813-.132813zm6.855468-2.503906c.125-.046875.210938-.238281.210938-.472656 0-.375.019531-.386719.65625-.386719.609375 0 .660156.023437.699218.355469.085938.734375.914063.765625 1.019532.035156.027344-.171875.164062-.398438.300781-.496094.328125-.230468.324219-.523437-.011719-.734375-.230468-.144531-.265625-.3125-.265625-1.265625 0-1.402344-.050781-1.527344-.613281-1.527344-.34375 0-.503906.085938-.683594.371094-.128906.203125-.53125.792969-.894531 1.3125-.363281.515625-.695313 1.152344-.734375 1.410156-.070312.429688-.121094.476563-.574219.511719-.277343.023438-.5-.007812-.5-.074219 0-.0625.246094-.351562.542969-.644531.671875-.65625.925781-1.125.921875-1.703125-.007813-1.078125-1.214844-1.640625-2.355469-1.09375-.558594.265625-.6875.527344-.398437.820313.183593.1875.28125.191406.742187.039062.6875-.230469.945313-.121093.945313.394531 0 .324219-.203125.625-.996094 1.464844-1.4375 1.515625-1.359375 1.765625.546875 1.765625.675781 0 1.324219-.035156 1.441406-.082031zm.875-1.929688c0-.070312.148438-.296874.328125-.503906l.332031-.375.003907.503906c.003906.449219-.035157.503907-.332031.503907-.183594 0-.332032-.058594-.332032-.128907zm-17.816406 1.726563c-.578125-.164063-.839844-.585937-.839844-1.351563 0-.894531.425782-1.382812 1.199219-1.382812.652344 0 1.066406.386719 1.066406 1.003906 0 .441406-.1875.535156-1.078125.535156-.5625 0-.65625.039063-.65625.265626 0 .410156.558594.710937 1.121094.601562.304688-.054688.480469-.039062.480469.050781 0 .292969-.703125.441407-1.292969.277344zm.890625-1.839844c0-.519531-.53125-.722656-.996094-.382812-.402343.300781-.164062.625.460938.625.429687 0 .535156-.050781.535156-.242188zm-9.46875 1.722657c-.007813-.5625-.007813-1.121094-.007813-1.683594 0-.851563.003907-1.605469.007813-1.679688.003906-.074218.371094-.136718.8125-.136718.679687 0 .859375.054687 1.132813.332031.207031.207031.328124.484375.328124.746093 0 .515626-.519531 1.074219-1.003906 1.074219-.644531 0-.863281.222657-.863281.878907 0 .445312-.050781.601562-.199219.601562-.109375 0-.203125-.058594-.207031-.132812zm1.574219-1.910157c.089844-.078125.167968-.3125.167968-.523437 0-.445313-.363281-.699219-.90625-.636719-.3125.035156-.367187.109375-.402343.558594-.054688.648437.171875.941406.628906.828125.1875-.050782.417969-.152344.511719-.226563zm1.589844 1.957031c-.148438-.152343-.105469-2.445312.046874-2.539062.078126-.050781.222657-.019531.324219.066406.144531.121094.265625.101563.535157-.074218.246093-.164063.390624-.191407.492187-.089844.183594.1875.027344.4375-.277344.4375-.433593 0-.664062.429687-.703125 1.335937-.039062.789063-.1875 1.097657-.417968.863281zm1.984374-.03125c-.039062-.066406.230469-.550781.597657-1.078124.367187-.53125.632812-1.023438.589843-1.09375-.042968-.074219-.316406-.132813-.605468-.132813-.289063 0-.523438-.058594-.523438-.132813 0-.078124.398438-.136718.929688-.136718.679687 0 .933594.050781.933594.175781 0 .097656-.269532.550781-.597657 1.007813-.796875 1.101562-.796875 1.121093.121094 1.15625.210937.007812.410156.089843.441406.183593.042969.125-.1875.167969-.878906.167969-.511719 0-.96875-.050781-1.007813-.117188zm5.765626-.015624c-.023438-.070313-.027344-.953126-.003907-1.957032.03125-1.34375.082031-1.8125.199219-1.773437.113281.035156.171875.628906.195312 1.957031.03125 1.589844.007813 1.90625-.152343 1.90625-.105469 0-.214844-.058594-.238281-.132812zm1.570312-.273438c-.394531-.476562-.445312-.988281-.160156-1.667969.453125-1.09375 2.210937-.769531 2.210937.410157 0 .355468-.230469.453124-1.070312.453124-.800781 0-.957031.210938-.46875.636719.3125.269531.460937.308594.90625.230469.414062-.070312.515625-.050781.46875.09375-.035157.117188-.320313.195312-.796875.222656-.683594.035156-.761719.007813-1.089844-.378906zm1.449219-1.539062c0-.355469-.632813-.59375-.921875-.347657-.117188.097657-.210938.292969-.210938.433594 0 .222656.082032.253906.566406.21875.460938-.03125.566407-.089844.566407-.304687zm1.535156 1.382812c-.109375-.425781-.222656-.851562-.339844-1.273438-.242187-.871093-.242187-.882812.039063-.828124.160156.03125.292968.292968.433594.839843.109374.4375.261718.816407.339843.839844.078125.027344.257813-.332031.402344-.792969.203125-.667968.316406-.855468.550781-.886718.242188-.035157.3125.050781.4375.539062.300782 1.210938.5625 1.5.726563.8125.28125-1.179688.363281-1.378906.5625-1.378906.246093 0 .207031.296875-.230469 1.78125-.238281.804687-.3125.921875-.5625.886718-.230469-.035156-.339844-.222656-.542969-.953124-.351562-1.238282-.4375-1.210938-.898437.304687-.136719.449219-.261719.617187-.480469.648437-.242187.035157-.316406-.054687-.4375-.539062zm0 0" fill="#498c70"/><path d="m3.921875 16.457031c-.144531-1.859375-.113281-2.480469.125-2.574219.113281-.042968 5.226563-.085937 11.359375-.089843l11.152344-.007813.769531-1.636718c.421875-.902344.769531-1.75.765625-1.882813-.003906-.128906-.335938-.878906-.746094-1.664063-.421875-.816406-.691406-1.476562-.625-1.542968s2.242188-.105469 4.839844-.085938l4.722656.035156.035156 3.183594c.03125 2.691406.007813 3.214844-.164062 3.386719-.132812.132813-.148438.21875-.054688.25.167969.058594.1875.378906.144532 2.359375l-.027344 1.378906h-32.210938zm5.800781.15625c.203125-.109375.351563-.109375.574219.011719.210937.113281.515625.128906 1.015625.046875.65625-.105469.722656-.148437.789062-.519531l.074219-.402344.09375.445312c.085938.429688.109375.445313.726563.421876.347656-.011719.734375.019531.851562.070312.3125.128906.445313-.164062.246094-.539062-.136719-.253907-.136719-.363282-.003906-.519532.199218-.246094.078125-.484375-.253906-.484375-.132813 0-.273438-.125-.3125-.277343-.097657-.378907-.546876-.285157-.605469.121093-.03125.238281-.097657.289063-.265625.214844-.320313-.144531-.984375-.089844-1.09375.089844-.066406.105469-.195313.082031-.441406-.082031-.417969-.273438-.714844-.191407-.773438.21875-.027344.164062-.125.328124-.226562.359374-.136719.046876-.160157-.035156-.09375-.34375.074218-.332031.03125-.449218-.214844-.621093-.359375-.253907-.792969-.277344-1.015625-.054688-.089844.089844-.160157.5-.160157.914063 0 1.015625.359376 1.324218 1.089844.929687zm7.734375-.011719c.140625-.070312.328125-.054687.480469.039063.171875.109375.40625.117187.769531.03125.429688-.101563.527344-.183594.5625-.488281.050781-.453125.289063-.34375.289063.128906 0 .3125.042968.339844.398437.265625.214844-.042969.429688-.019531.472657.050781.117187.195313.640624.160156.9375-.058594.226562-.167968.289062-.167968.476562.007813.171875.152344.402344.179687 1.035156.105469.785156-.089844.8125-.105469.8125-.480469 0-.210937.0625-.382813.132813-.382813.074219 0 .132812.175782.132812.390626 0 .375.027344.390624.601563.390624h.597656v-.996093c0-.90625-.023438-.996094-.265625-.996094-.203125 0-.265625.089844-.265625.390625 0 .390625-.003906.390625-.386719.199219-.277343-.136719-.476562-.15625-.71875-.0625-.292969.113281-.347656.085937-.417969-.199219-.085937-.34375-.605468-.480469-.613281-.160156-.003906.089844-.207031.261718-.453125.378906-.398437.1875-.492187.191406-.824218.015625-.332032-.175781-.417969-.175781-.742188.015625-.328125.1875-.410156.191406-.769531.007812-.222657-.113281-.40625-.289062-.40625-.394531 0-.300781-.503907-.226562-.601563.085938-.058594.183593-.160156.25-.292968.199219-.117188-.042969-.351563.011718-.523438.128906-.28125.1875-.34375.1875-.628906 0-.359375-.238282-.75-.144532-.753906.179687-.007813.28125-.3125.695313-.511719.695313-.210938 0-.191407-.105469.128906-.628906.371094-.609376.171875-.882813-.601563-.824219-.613281.042969-.808593.378906-.339843.589843l.28125.128907-.277344.351562c-.269531.347657-.359375.789063-.191406.957031.121093.125 2.210937.070313 2.476562-.0625zm.859375-.46875c-.160156-.164062-.089844-.449218.109375-.449218.113281 0 .203125.121094.203125.269531 0 .269531-.144531.351563-.3125.179687zm2.445313-.179687c0-.074219.058593-.132813.132812-.132813s.132813.058594.132813.132813-.058594.132813-.132813.132813-.132812-.058594-.132812-.132813zm1.464843 0c0-.074219.0625-.132813.140626-.132813.078124 0 .105468.058594.058593.132813s-.109375.132813-.140625.132813-.058594-.058594-.058594-.132813zm4.773438.363281.140625-.296875.089844.292969c.046875.164062.167969.328125.273437.367188.183594.070312.289063-.015626.652344-.523438.183594-.261719.191406-.257812.195312.097656.003907.28125.085938.386719.347657.453125.1875.046875.476562.023438.640625-.050781.167968-.074219.453125-.109375.640625-.070312.191406.035156.382812 0 .433593-.082032.058594-.097656.191407-.078125.410157.066406.574219.382813.804687-.039062.3125-.566406-.277344-.300781-.273438-.4375.046875-.886718.222656-.316407-.050782-.636719-.335938-.394532-.109375.089844-.359375.121094-.605468.070313-.277344-.054688-.417969-.03125-.417969.070312 0 .097657-.121094.078125-.332031-.0625-.433594-.289062-1.378907-.144531-1.699219.257813-.183594.230468-.230469.246094-.234375.070312-.007813-.5625-.710938-.617187-.882813-.070312l-.089843.289062-.136719-.300781c-.183594-.417969-.625-.40625-.625.015625s.367187 1.460938.558593 1.578125c.21875.136719.453126.011719.617188-.324219zm2.390625-2.609375c-.15625-.03125-.3125-.03125-.46875 0-.128906.035157-.023437.0625.234375.0625s.363281-.027343.234375-.0625zm1.933594.007813c-.089844-.039063-.269531-.039063-.398438-.007813-.132812.035157-.058593.066407.164063.066407.21875.003906.324218-.023438.234375-.058594zm3.660156.003906c-.042969-.042969-.160156-.046875-.257813-.007812-.105468.042968-.074218.074218.082032.078124.140625.007813.21875-.023437.175781-.070312zm-3.105469-1.34375c.125-.046875.210938-.238281.210938-.472656 0-.375.019531-.386719.65625-.386719.609375 0 .660156.023437.699218.355469.085938.734375.914063.765625 1.019532.035156.027344-.171875.164062-.398438.300781-.496094.328125-.230468.324219-.523437-.011719-.734375-.230468-.144531-.265625-.3125-.265625-1.265625 0-1.402344-.050781-1.527344-.613281-1.527344-.34375 0-.503906.085938-.683594.371094-.128906.203125-.53125.792969-.894531 1.3125-.363281.515625-.695313 1.152344-.734375 1.410156-.070312.429688-.121094.476563-.574219.511719-.277343.023438-.5-.007812-.5-.074219 0-.0625.246094-.351562.542969-.644531.671875-.65625.925781-1.125.921875-1.703125-.007813-1.078125-1.214844-1.640625-2.355469-1.09375-.558594.265625-.6875.527344-.398437.820313.183593.1875.28125.191406.742187.039062.6875-.230469.945313-.121093.945313.394531 0 .324219-.203125.625-.996094 1.464844-1.4375 1.515625-1.359375 1.765625.546875 1.765625.675781 0 1.324219-.035156 1.441406-.082031zm.875-1.929688c0-.070312.148438-.296874.328125-.503906l.332031-.375.003907.503906c.003906.449219-.035157.503907-.332031.503907-.183594 0-.332032-.058594-.332032-.128907zm-17.859375 1.625c-.457031-.125-.828125-.890624-.730469-1.496093.1875-1.136719 1.519532-1.472657 2.011719-.511719.226563.445312.167969.78125-.140625.78125-.148437 0-.179687-.097656-.125-.375.054688-.269531 0-.441406-.199218-.621094-.527344-.480468-1.410157.105469-1.085938.71875.09375.171875.09375.289063.003906.34375-.210937.132813-.152344.542969.109375.785156.148438.136719.476563.222657.835938.226563.429687 0 .535156.035156.386719.132813-.222657.144531-.570313.148437-1.066407.015624zm4.445313-.015624c-.898438-.367188-.960938-2.007813-.089844-2.40625.472656-.21875.761719-.1875 1.160156.128906.390625.308594.472656.890625.144532 1.019531-.285157.109375-.398438-.042969-.203126-.277344.207032-.253906-.011718-.699219-.398437-.820312-.542969-.175781-1.246094.660156-.792969.941406.085938.054687.058594.160156-.066406.285156-.15625.164063-.167969.265625-.046875.496094.21875.421875.371094.492187 1.046875.496094.4375.003906.546875.039062.398438.136719-.242188.15625-.761719.15625-1.152344 0zm-12.972656-1.671876v-1.691406h.769531c1.007812 0 1.363281.242188 1.363281.929688 0 .632812-.320312.949218-1.0625 1.050781-.605469.082031-.835938.359375-.777344.929687.023438.195313-.035156.382813-.125.414063-.128906.046875-.167968-.335937-.167968-1.632813zm1.570312-.152343c.609375-.433594.167969-1.40625-.640625-1.40625-.5 0-.738281.4375-.609375 1.132812.082031.433594.132812.480469.523438.480469.234374 0 .5625-.09375.726562-.207031zm1.628906.605469c0-1.1875.003906-1.210938.277344-1.0625.195312.105468.246094.214843.171875.375-.054687.121093-.125.601562-.15625 1.0625-.078125 1.28125-.292969 1.003906-.292969-.371094zm1.996094 1.136718c0-.046875.304688-.503906.675781-1.019531.539063-.75.644531-.972656.519531-1.128906-.125-.148438-.113281-.207031.050782-.269531.226562-.085938.488281.023437.488281.207031 0 .058593-.273437.484375-.609375.945312-.335938.457031-.578125.914063-.539062 1.015625.039062.097656.324218.203125.640624.230469.421876.039063.335938.058594-.324218.078125-.496094.011719-.902344-.015625-.902344-.058594zm5.734375-1.722656c0-1.128906.050781-1.828125.132813-1.828125.082031 0 .132812.648437.132812 1.679687 0 .925782.003906 1.726563.007812 1.78125.007813.050782-.054687.117188-.132812.144532-.097656.03125-.144531-.535156-.144531-1.777344zm4.75 1.703125c-.15625-.265625-.632813-2.222656-.558594-2.296875.132813-.128906.316407.25.414063.847656.179687 1.109375.492187 1.308594.738281.472656.089844-.296874.1875-.511718.21875-.480468s-.039063.394531-.15625.808594c-.199219.675781-.472656.953124-.65625.648437zm1.71875-.664063c-.328125-1.167968-.320313-1.15625-.609375-1.078124-.308594.082031-.347656-.144532-.085938-.507813.226563-.3125.339844-.160156.632813.871094.160156.5625.269531.738281.464844.738281.203125 0 .289062-.164062.433593-.839844.097657-.460937.234376-.839844.300782-.839844.1875 0 .136718.382813-.191406 1.410157-.390626 1.238281-.652344 1.304687-.945313.246093zm-13.269531-1.65625c.261718-.167968.402344-.167968.402344 0 0 .074219-.136719.132813-.300782.132813-.242187-.003906-.261718-.027344-.101562-.132813zm0 0" fill="#f30a0a"/><path d="m3.921875 16.457031c-.046875-.609375-.085937-1.425781-.085937-1.8125 0-.621093.035156-.710937.296874-.765625.503907-.109375 31.792969-.175781 31.960938-.070312.175781.109375.195312.382812.152344 2.378906l-.027344 1.378906h-32.210938zm5.800781.15625c.203125-.109375.351563-.109375.574219.011719.210937.113281.515625.128906 1.015625.046875.65625-.105469.722656-.148437.789062-.519531l.074219-.402344.09375.445312c.085938.429688.109375.445313.726563.421876.347656-.011719.734375.019531.851562.070312.3125.128906.445313-.164062.246094-.539062-.136719-.253907-.136719-.363282-.003906-.519532.199218-.246094.078125-.484375-.253906-.484375-.132813 0-.273438-.125-.3125-.277343-.097657-.378907-.546876-.285157-.605469.121093-.03125.238281-.097657.289063-.265625.214844-.320313-.144531-.984375-.089844-1.09375.089844-.066406.105469-.195313.082031-.441406-.082031-.417969-.273438-.714844-.191407-.773438.21875-.027344.164062-.125.328124-.226562.359374-.136719.046876-.160157-.035156-.09375-.34375.074218-.332031.03125-.449218-.214844-.621093-.359375-.253907-.792969-.277344-1.015625-.054688-.089844.089844-.160157.5-.160157.914063 0 1.015625.359376 1.324218 1.089844.929687zm7.734375-.011719c.140625-.070312.328125-.054687.480469.039063.171875.109375.40625.117187.769531.03125.429688-.101563.527344-.183594.5625-.488281.050781-.453125.289063-.34375.289063.128906 0 .3125.042968.339844.398437.265625.214844-.042969.429688-.019531.472657.050781.117187.195313.640624.160156.9375-.058594.226562-.167968.289062-.167968.476562.007813.171875.152344.402344.179687 1.035156.105469.785156-.089844.8125-.105469.8125-.480469 0-.210937.0625-.382813.132813-.382813.074219 0 .132812.175782.132812.390626 0 .375.027344.390624.601563.390624h.597656v-.996093c0-.90625-.023438-.996094-.265625-.996094-.203125 0-.265625.089844-.265625.390625 0 .390625-.003906.390625-.386719.199219-.277343-.136719-.476562-.15625-.71875-.0625-.292969.113281-.347656.085937-.417969-.199219-.085937-.34375-.605468-.480469-.613281-.160156-.003906.089844-.207031.261718-.453125.378906-.398437.1875-.492187.191406-.824218.015625-.332032-.175781-.417969-.175781-.742188.015625-.328125.1875-.410156.191406-.769531.007812-.222657-.113281-.40625-.289062-.40625-.394531 0-.300781-.503907-.226562-.601563.085938-.058594.183593-.160156.25-.292968.199219-.117188-.042969-.351563.011718-.523438.128906-.28125.1875-.34375.1875-.628906 0-.359375-.238282-.75-.144532-.753906.179687-.007813.28125-.3125.695313-.511719.695313-.210938 0-.191407-.105469.128906-.628906.371094-.609376.171875-.882813-.601563-.824219-.613281.042969-.808593.378906-.339843.589843l.28125.128907-.277344.351562c-.269531.347657-.359375.789063-.191406.957031.121093.125 2.210937.070313 2.476562-.0625zm.859375-.46875c-.160156-.164062-.089844-.449218.109375-.449218.113281 0 .203125.121094.203125.269531 0 .269531-.144531.351563-.3125.179687zm2.445313-.179687c0-.074219.058593-.132813.132812-.132813s.132813.058594.132813.132813-.058594.132813-.132813.132813-.132812-.058594-.132812-.132813zm1.464843 0c0-.074219.0625-.132813.140626-.132813.078124 0 .105468.058594.058593.132813s-.109375.132813-.140625.132813-.058594-.058594-.058594-.132813zm4.773438.363281.140625-.296875.089844.292969c.046875.164062.167969.328125.273437.367188.183594.070312.289063-.015626.652344-.523438.183594-.261719.191406-.257812.195312.097656.003907.28125.085938.386719.347657.453125.1875.046875.476562.023438.640625-.050781.167968-.074219.453125-.109375.640625-.070312.191406.035156.382812 0 .433593-.082032.058594-.097656.191407-.078125.410157.066406.574219.382813.804687-.039062.3125-.566406-.277344-.300781-.273438-.4375.046875-.886718.222656-.316407-.050782-.636719-.335938-.394532-.109375.089844-.359375.121094-.605468.070313-.277344-.054688-.417969-.03125-.417969.070312 0 .097657-.121094.078125-.332031-.0625-.433594-.289062-1.378907-.144531-1.699219.257813-.183594.230468-.230469.246094-.234375.070312-.007813-.5625-.710938-.617187-.882813-.070312l-.089843.289062-.136719-.300781c-.183594-.417969-.625-.40625-.625.015625s.367187 1.460938.558593 1.578125c.21875.136719.453126.011719.617188-.324219zm-12.105469-4.246094c-.457031-.125-.828125-.890624-.730469-1.496093.1875-1.136719 1.519532-1.472657 2.011719-.511719.226563.445312.167969.78125-.140625.78125-.148437 0-.179687-.097656-.125-.375.050782-.269531 0-.441406-.199218-.621094-.527344-.480468-1.410157.105469-1.085938.71875.09375.171875.09375.289063.003906.34375-.210937.132813-.15625.542969.109375.785156.148438.136719.476563.222657.835938.226563.429687 0 .535156.035156.386719.132813-.222657.144531-.570313.148437-1.066407.015624zm4.445313-.015624c-.898438-.367188-.960938-2.007813-.089844-2.40625.472656-.21875.761719-.1875 1.160156.128906.390625.308594.472656.890625.144532 1.019531-.285157.109375-.398438-.042969-.203126-.277344.207032-.253906-.011718-.699219-.398437-.820312-.542969-.175781-1.246094.660156-.792969.941406.085938.054687.058594.160156-.066406.285156-.15625.164063-.167969.265625-.046875.496094.21875.421875.371094.492187 1.046875.496094.4375.003906.546875.039062.398438.136719-.242188.15625-.765626.15625-1.152344 0zm-12.972656-1.671876v-1.691406h.769531c1.007812 0 1.363281.242188 1.363281.929688 0 .632812-.320312.949218-1.0625 1.050781-.605469.082031-.835938.359375-.777344.929687.023438.195313-.035156.382813-.125.414063-.128906.046875-.167968-.335937-.167968-1.632813zm1.570312-.152343c.609375-.433594.167969-1.40625-.640625-1.40625-.5 0-.738281.4375-.609375 1.132812.082031.433594.132812.480469.523438.480469.234374 0 .5625-.09375.726562-.207031zm1.628906.605469c0-1.1875.003906-1.210938.277344-1.0625.195312.105468.246094.214843.171875.375-.054687.121093-.125.601562-.15625 1.0625-.078125 1.28125-.292969 1.003906-.292969-.371094zm1.996094 1.136718c0-.046875.304688-.503906.675781-1.019531.539063-.75.644531-.972656.519531-1.128906-.125-.148438-.113281-.207031.050782-.269531.226562-.085938.488281.023437.488281.207031 0 .058593-.273437.484375-.609375.945312-.335938.457031-.578125.914063-.539062 1.015625.039062.097656.324218.203125.640624.230469.421876.039063.335938.058594-.324218.078125-.496094.011719-.902344-.015625-.902344-.058594zm5.734375-1.722656c0-1.128906.050781-1.828125.132813-1.828125.082031 0 .132812.648437.132812 1.679687 0 .925782.003906 1.726563.007812 1.78125.007813.050782-.054687.117188-.132812.144532-.097656.03125-.144531-.535156-.144531-1.777344zm4.75 1.703125c-.15625-.265625-.632813-2.222656-.558594-2.296875.132813-.128906.316407.25.414063.847656.179687 1.109375.492187 1.308594.738281.472656.089844-.296874.1875-.511718.21875-.480468s-.039063.394531-.15625.808594c-.199219.675781-.472656.953124-.65625.648437zm1.71875-.664063c-.328125-1.167968-.320313-1.15625-.609375-1.078124-.308594.082031-.347656-.144532-.085938-.507813.226563-.3125.339844-.160156.632813.871094.160156.5625.269531.738281.464844.738281.203125 0 .289062-.164062.433593-.839844.097657-.460937.234376-.839844.300782-.839844.1875 0 .136718.382813-.191406 1.410157-.390626 1.238281-.652344 1.304687-.945313.246093zm-13.269531-1.65625c.261718-.167968.402344-.167968.402344 0 0 .074219-.136719.132813-.300782.132813-.242187-.003906-.261718-.027344-.101562-.132813zm0 0" fill="#0f6d4a"/></svg>