<svg viewBox="0 0 40 24" xmlns="http://www.w3.org/2000/svg"><path d="m0 0h40v24h-40z" fill="#fff"/><path d="m25.996094 8.066406-3.34375-3.265625h-4.851563l-3.394531 3.320313v3.421875l.539062.484375-.539062.480468v3.425782l3.339844 3.265625h4.960937l3.289063-3.210938v-3.53125l-.488282-.429687.484376-.429688v-3.53125zm-5.769532 10.117188-3.988281-3.960938.429688-.429687 1.078125 1.015625h4.960937l1.078125-1.070313.484375.484375zm-1.777343-6.15625 1.777343-1.769532 1.832032 1.769532-1.832032 1.765625zm5.335937-1.765625-1.132812-1.070313h-4.851563l-1.128906 1.121094-.433594-.480469 3.988281-3.960937 4.042969 3.960937zm0 0" fill="#e32728"/></svg>