<svg viewBox="0 0 40 24" xmlns="http://www.w3.org/2000/svg"><path d="m0 0h40v24h-40z" fill="#fff"/><path d="m19.105469 9.730469c-.101563.792969-.199219 1.617187-.3125 2.441406-.121094.925781-.238281 1.851563-.386719 2.769531-.113281.667969-.585938.960938-1.234375.816406-.53125-.121093-.742187-.417968-.683594-.957031.042969-.414062.089844-.828125.136719-1.242187.027344-.21875.101562-.449219-.253906-.480469-.4375-.042969-.601563.035156-.664063.386719-.066406.382812-.136719.773437-.15625 1.164062-.050781 1.035156-1.046875 1.1875-1.757812 1.074219-.207031-.03125-.195313-.203125-.175781-.34375.039062-.367187.097656-.730469.144531-1.09375l.601562-4.519531c.0625-.472656.28125-.824219.757813-.996094.640625-.230469 1.160156.109375 1.140625.804688-.019531.539062-.132813 1.070312-.203125 1.605468-.035156.242188-.070313.484375-.097656.726563-.023438.210937-.011719.390625.277343.417969.40625.039062.574219-.027344.621094-.328126.074219-.460937.121094-.925781.183594-1.382812.042969-.316406.101562-.632812.144531-.945312.058594-.445313.351562-.703126.746094-.835938.691406-.230469 1.164062.140625 1.171875.917969zm-5.519531.9375c-.019532.675781-.222657 1.535156-1.132813 2.0625-.199219.117187-.101563.25-.03125.367187.1875.320313.40625.621094.582031.945313.234375.425781.175782.859375-.066406 1.261719-.347656.578124-.980469.609374-1.375.066406-.335938-.457032-.628906-.945313-.945312-1.414063-.035157-.050781-.117188-.109375-.167969-.101562-.050781.007812-.113281.089843-.125.148437-.066407.339844-.109375.679688-.179688 1.015625-.113281.558594-.242187.667969-.777343.707031-.917969.070313-.964844.019532-.828126-.871093l.605469-3.929688c.238281-1.570312 1.574219-2.53125 3.164063-2.277343.9375.148437 1.285156.621093 1.277344 2.019531zm-1.824219-.175781c.042969-.25.035156-.496094-.257813-.601563-.222656-.078125-.457031.121094-.558594.460937-.015624.046876-.023437.09375-.03125.140626-.054687.410156-.109374.820312-.160156 1.230468-.011718.117188-.019531.246094.003906.359375.070313.292969.441407.398438.632813.164063.117187-.140625.191406-.339844.222656-.523438.074219-.40625.101563-.820312.148438-1.230468zm8.785156 5.234374c-.394531 0-.792969-.003906-1.191406 0-.296875.007813-.398438-.132812-.355469-.40625.101562-.65625.203125-1.308593.304688-1.964843.140624-.871094.273437-1.742188.425781-2.609375.269531-1.5625 2.054687-2.304688 3.15625-1.988282.984375.28125 1.511719 1.144532 1.171875 2.089844-.148438.410156-.523438.765625-.574219 1.175782-.054687.402343.230469.835937.261719 1.265624.09375 1.324219-.964844 2.421876-2.300782 2.4375-.300781.003907-.597656.003907-.898437.003907zm1.445313-2.714843c-.011719-.359375-.089844-.542969-.269532-.535157-.179687.003907-.355468.101563-.523437.179688-.054688.027344-.09375.117188-.105469.183594-.085938.476562-.1875.953125-.230469 1.4375-.027343.332031.328125.511718.621094.324218.128906-.085937.265625-.238281.296875-.386718.101562-.421875.152344-.859375.210938-1.203125zm.433593-2.640625c.015625-.414063-.226562-.605469-.5625-.457032-.140625.0625-.300781.207032-.339843.34375-.105469.375-.164063.765626-.226563 1.152344-.039063.25.128906.363282.351563.375.269531.015625.496093-.101562.566406-.375.089844-.359375.148437-.722656.210937-1.039062zm0 0" fill="#0068b3"/><path d="m28.527344 8.898438-3.90625 2.988281 3.152344 3.703125 3.828124-3.050782zm0 0" fill="#cf3138"/></svg>