<svg viewBox="0 0 40 24" xmlns="http://www.w3.org/2000/svg"><path d="m0 0h40v24h-40z" fill="#fff"/><path d="m30.707031 15.101562 1.644531-6.097656 1.648438 3.144532zm0 0" fill="#097a44"/><path d="m29.683594 15.117188 1.648437-6.085938 1.648438 3.140625zm0 0" fill="#f46f20"/><path d="m21.375 8.875c-.339844-.332031-.808594-.5-1.285156-.460938h-2.46875l-1.605469 5.601563h1.441406l.542969-1.902344h1.011719c.550781.023438 1.09375-.121093 1.566406-.410156.464844-.34375.792969-.847656.921875-1.414063.207031-.460937.160156-.996093-.125-1.414062zm-2.644531.773438h.921875c.164062-.019532.324218.023437.453125.121093.09375.089844.058593.289063 0 .4375-.046875.203125-.160157.382813-.328125.507813-.171875.113281-.371094.171875-.574219.164062h-.851563zm-6.851563-.117188c-.019531-.175781-.078125-.347656-.164062-.5-.109375-.191406-.277344-.34375-.476563-.4375-.285156-.109375-.585937-.160156-.890625-.148438h-2.699218l-1.648438 5.554688h1.425781l.59375-2.074219h1.027344c.386719 0 .476563.082031.496094.105469.015625.027344.070312.125 0 .535156l-.132813.496094c-.046875.15625-.074218.320312-.089844.484375v.453125h1.472657l.097656-.355469-.089844-.0625s-.058593-.042969-.050781-.167969c.023438-.15625.058594-.308593.109375-.460937l.082031-.34375c.109375-.292969.136719-.605469.082032-.914063-.039063-.128906-.113282-.246093-.214844-.335937.21875-.105469.410156-.257813.5625-.445313.199218-.242187.347656-.523437.433594-.824218.058593-.179688.085937-.367188.074218-.558594zm-1.53125.683594c-.046875.222656-.203125.40625-.410156.492187-.171875.058594-.347656.082031-.527344.074219h-1.054687l.3125-1.09375h1.179687c.148438-.011719.296875.015625.433594.074219.042969 0 .175781.058593.066406.410156zm4.035156 1.785156c-.046874.195312-.132812.382812-.246093.550781-.160157.234375-.433594.367188-.714844.355469-.28125 0-.296875-.117188-.3125-.164062-.015625-.148438.007813-.292969.054687-.429688l.734376-2.558594h-1.390626l-.710937 2.46875c-.121094.347656-.164063.71875-.121094 1.085938.066407.34375.328125.75 1.160157.75.203124 0 .40625-.027344.601562-.082032.171875-.058593.339844-.140624.492188-.238281l-.066407.246094h1.335938l1.210937-4.222656h-1.351562zm10.648438.90625.519531-1.796875c.199219-.679687-.058593-.992187-.304687-1.140625-.347656-.1875-.734375-.28125-1.128906-.273438-.597657-.027343-1.1875.171876-1.644532.558594-.261718.253906-.457031.5625-.570312.90625l-.074219.214844h1.328125v-.089844c.046875-.113281.117188-.21875.203125-.304687.132813-.101563.296875-.152344.460937-.140625.132813-.011719.261719.011718.378907.066406v.148438c0 .046874 0 .121093-.203125.1875-.128906.042968-.261719.070312-.398438.082031l-.359375.042969c-.355469.03125-.703125.121093-1.03125.261718-.46875.222656-.816406.640625-.945312 1.144532-.132813.335937-.082031.71875.140625 1.003906.234375.253906.574218.386718.921875.363281.304687 0 .605469-.070313.878906-.207031l.328125-.1875v.269531h1.410156l.105469-.394531-.105469-.058594c-.011718-.058594-.011718-.121094 0-.179688 0-.207031.058594-.355468.089844-.476562zm-2.402344-.082031c.039063-.148438.140625-.269531.277344-.332031.152344-.0625.308594-.101563.46875-.121094l.242188-.042969.246093-.054687v.054687c-.058593.253906-.207031.472656-.421875.617187-.175781.109376-.382812.167969-.589844.175782-.078124.003906-.152343-.019532-.207031-.066406-.027343-.074219-.03125-.15625-.015625-.230469zm6.511719-3.03125-1.390625 2.46875v-2.46875h-1.480469l.320313 4.222656-.101563.15625c-.046875.082031-.109375.152344-.1875.207031-.0625.035156-.128906.054688-.199219.066406h-.558593l-.320313 1.125h.683594c.375.03125.75-.066406 1.0625-.277343.398438-.429688.75-.902344 1.042969-1.410157l2.613281-4.113281zm0 0" fill="#302f82"/></svg>