<svg viewBox="0 0 40 24" xmlns="http://www.w3.org/2000/svg"><path d="m0 0h40v24h-40z" fill="#fff"/><path d="m20.222656 4.941406c-.050781.4375-.027344.90625.097656 1.285156.171876.507813.410157.878907 1.277344 2 .921875 1.179688 1.214844 1.609376 1.433594 2.222657.179688.503906.183594.792969.105469 1.246093.804687.152344 2.125.578126 3.007812 1.101563.820313.5 1.417969 1.148437 1.636719 1.773437.128906.375.121094.949219-.015625 1.308594-.128906.34375-.324219.660156-.578125.925782-1.058594 1.148437-3.152344 1.972656-5.679688 2.234374-.558593.058594-1.925781.097657-2.394531.070313-3.375-.191406-6.085937-1.347656-6.859375-2.914063-.320312-.652343-.3125-1.214843.027344-1.859374.277344-.53125 1.042969-1.1875 1.941406-1.667969.863282-.414063 1.675782-.722657 2.546875-.964844.042969.5625 1.152344 1.90625 1.515625 2.382813.800782 1.039062 1.117188 1.53125 1.34375 1.925781.136719.238281.210938.390625.171875.84375 0 0 .308594-.277344.425781-.511719.148438-.300781.203126-.609375.175782-1.003906-.035156-.476563-.117188-.769532-.347656-1.234375-.222657-.453125-.542969-.910157-1.152344-1.648438-.859375-1.046875-1.179688-1.621093-1.308594-2.363281-.144531-.828125.089844-1.707031.570312-2.136719.105469-.09375.273438-.183593.273438-.183593s-.015625.214843-.015625.457031c0 .511719.058594.777343.257813 1.167969.246093.484374.585937.9375 1.632812 2.171874.925781 1.089844 1.214844 1.644532 1.214844 2.335938v.332031s.246094-.183593.359375-.351562c.355469-.539063.414062-1.375.140625-2.117188-.1875-.507812-.492188-.96875-1.386719-2.085937-.914063-1.136719-1.296875-2.046875-1.296875-2.804688 0-.757812.164062-1.484375.878906-1.9375zm0 0" fill="#fe001e"/></svg>