<svg viewBox="0 0 40 24" xmlns="http://www.w3.org/2000/svg"><path d="m0 0h40v24h-40z" fill="#fff"/><path d="m8 14.574219 1.367188-1.027344c.960937.839844 1.628906.960937 2.1875.960937.640624 0 1.238281-.136718 1.316406-.5.0625-.289062-.179688-.523437-.726563-.652343-.574219-.125-1.148437-.265625-1.71875-.414063-1.574219-.417968-2.023437-1.335937-2.023437-2.164062 0-1.136719 1.058594-2.3125 2.984375-2.3125 1.980469 0 3.136719 1.140625 3.136719 1.140625l-1.292969.972656c-.609375-.53125-1.394531-.628906-1.828125-.628906-.441406 0-.898438.125-.972656.441406-.066407.308594.214843.546875.707031.683594.554687.144531 1.066406.277343 1.84375.503906 1.160156.332031 1.960937.839844 1.960937 2.015625 0 1.613281-1.425781 2.449219-3.34375 2.449219-1.910156 0-3.207031-1-3.597656-1.464844m7.515625-7.667969h.445313v10.59375h-.445313zm1.492187 8.917969v-7.25h5.765626v1.660156h-3.742188v1.15625h2.648438v1.597657h-2.648438v1.167968h3.84375v1.667969zm6.628907-8.917969h.445312v10.59375h-.445312zm1.492187 8.917969v-7.246094h4.234375c1.214844 0 2.203125.714844 2.203125 1.835938 0 .886719-.542968 1.40625-1.035156 1.601562 0 0-.03125.007813-.082031.011719.027343 0 .054687.007812.082031.011719.855469.273437 1.46875.894531 1.46875 1.835937 0 1.199219-1.003906 1.949219-2.242188 1.949219zm2.035156-1.609375h1.976563c.351563 0 .632813-.285156.632813-.660156s-.28125-.660156-.632813-.660156h-1.976563zm0-2.859375h1.613282c.375 0 .671875-.296875.671875-.632813 0-.339843-.296875-.636718-.671875-.636718h-1.613282z"/></svg>