<svg viewBox="0 0 40 24" xmlns="http://www.w3.org/2000/svg"><path d="m0 0h40v24h-40z" fill="#008357"/><path d="m26.039062 18.777344c-.074218.285156-.296874.503906-.582031.574218h-3.089843v.617188h-4.511719v-.585938h-3.367188c-.121093-.035156-.234375-.097656-.328125-.183593-.125-.128907-.207031-.292969-.230468-.472657l-1.417969-13.871093c.03125-.285157.222656-.527344.496093-.617188l13.792969-.039062c.269531.046875.5.226562.605469.480469.027344.117187.027344.242187 0 .359374zm0 0" fill="#fff"/><path d="m25.296875 9.207031c-1.304687.550781-2.289063 1.664063-2.671875 3.023438h-3.730469c.042969-.171875.09375-.34375.152344-.511719.4375-1.347656 1.210937-2.566406 2.242187-3.542969.90625-.890625 1.960938-1.625 3.109376-2.167969.199218-.082031.398437-.15625.601562-.214843.097656 0 .183594-.058594.296875-.074219z" fill="#ed1c2e"/><path d="m24.128906 5.792969c-.75.339843-1.449218.78125-2.082031 1.304687-.710937.554688-1.359375 1.183594-1.933594 1.878906h-5.121093v-3.199218zm0 0" fill="#f58220"/><path d="m21.703125 12.519531c-.117187.878907-.246094 1.753907-.40625 2.625h-1.199219c-.128906-.871093-.265625-1.746093-.386718-2.609375h.800781c.105469.648438.183593 1.304688.304687 1.9375.121094-.640625.191406-1.304687.304688-1.953125.183594-.011719.367187-.011719.550781 0zm-5.488281.535157h-.613282v.457031h.613282v.558593h-.613282v.523438h.613282v.542969h-1.414063v-2.625h1.445313v.550781zm3.335937.007812h-.621093v.457031h.613281v.558594h-.613281v.523437h.613281v.542969h-1.4375v-2.632812h1.445312zm3.792969 0h-.625v.457031h.617188v.558594h-.617188v.523437h.617188v.542969h-1.441407v-2.632812h1.449219zm-6.816406-.550781h.800781v2.089843h.582031v.542969h-1.382812zm7.871094.289062c.140624-.234375.394531-.371093.664062-.359375.464844 0 .554688.335938.554688 1v1.695313h-.800782v-1.640625c0-.230469 0-.390625-.191406-.390625s-.226562.183593-.226562.496093v1.535157h-.796876v-2.640625h.796876zm-1.261719 3.199219c.085937 0 .160156 0 .160156-.113281 0-.109375-.074219-.09375-.144531-.09375h-.136719v.207031zm-.121094.375h-.105469v-.671875h.257813c.160156 0 .238281.066406.238281.191406.003906.050781-.011719.097657-.046875.132813-.035156.03125-.078125.050781-.128906.050781l.195312.296875h-.121093l-.175782-.285156h-.121094v.285156zm.121094.152344c.199219.003906.378906-.113282.457031-.296875.078125-.179688.035156-.390625-.101562-.53125-.140626-.144531-.351563-.1875-.53125-.109375-.183594.074218-.304688.253906-.304688.449218-.003906.132813.046875.257813.136719.351563.09375.09375.21875.140625.351562.136719zm-.59375-.527344c-.003907-.238281.140625-.457031.359375-.550781.222656-.097657.476562-.046875.648437.121093.171875.167969.222657.425782.132813.644532-.089844.222656-.308594.367187-.546875.371094-.15625 0-.308594-.058594-.417969-.171876-.113281-.109374-.175781-.257812-.175781-.414062zm0 0" fill="#008357"/><path d="m18.113281 19.695312v-1.253906c.046875-1 .117188-2.035156.261719-3.015625h3.824219c-.136719 1.414063-.128907 2.839844-.128907 4.269531h-4zm0 0" fill="#ed1c2e"/></svg>