<svg viewBox="0 0 40 24" xmlns="http://www.w3.org/2000/svg"><path d="m0 0h40v24h-40z" fill="#fff"/><path d="m17.570312 6.339844c.324219 1.664062.675782 2.28125 2.894532 4.496094 1.863281 1.867187 3.175781 3.417968 3.140625 4.8125-.015625.664062-.703125 1.550781-1.09375 1.9375-.359375-1.585938-1.144531-2.550782-2.851563-4.257813-1.707031-1.707031-2.890625-2.503906-3.167968-3.820313-.277344-1.3125.277343-2.289062 1.078124-3.167968" fill="#3bab48"/><path d="m19.910156 4c.320313 1.667969.675782 2.285156 2.890625 4.5 1.863281 1.867188 3.175781 3.417969 3.144531 4.8125-.015624.664062-.707031 1.546875-1.097656 1.9375-.359375-1.585938-1.144531-2.550781-2.851562-4.257812-1.707032-1.707032-2.890625-2.507813-3.167969-3.820313-.273437-1.3125.277344-2.292969 1.082031-3.171875" fill="#85bf43"/><path d="m15.234375 8.675781c.320313 1.667969.675781 2.28125 2.890625 4.5 1.867188 1.863281 3.175781 3.414063 3.144531 4.808594-.015625.664063-.707031 1.550781-1.09375 1.9375-.363281-1.585937-1.144531-2.550781-2.851562-4.257813-1.707031-1.707031-2.894531-2.503906-3.167969-3.816406-.277344-1.3125.273438-2.292968 1.078125-3.171875" fill="#0a8a44"/></svg>