<svg viewBox="0 0 40 24" xmlns="http://www.w3.org/2000/svg"><path d="m0 0h40v24h-40z" fill="#fff"/><path d="m18.140625 6.652344c.273437-.046875.550781-.085938.828125-.117188.332031-.035156.664062-.050781 1-.050781.515625 0 .960938.0625 1.339844.1875.375.121094.683594.300781.921875.53125.210937.207031.375.453125.488281.726563.117188.28125.171875.605468.171875.972656 0 .441406-.078125.832031-.238281 1.164062-.152344.324219-.375.609375-.652344.835938-.277344.226562-.605469.394531-.984375.507812-.378906.109375-.792969.164063-1.242187.164063-.40625 0-.746094-.027344-1.023438-.089844v3.683594h-.609375zm.609375 4.296875c.144531.042969.308594.070312.492188.089843.179687.015626.375.023438.582031.023438.777343 0 1.378906-.179688 1.804687-.535156.429688-.359375.640625-.882813.640625-1.574219 0-.332031-.054687-.621094-.167969-.867187-.105468-.242188-.269531-.449219-.476562-.609376-.207031-.15625-.453125-.277343-.738281-.359374-.308594-.082032-.628907-.125-.945313-.121094-.277344 0-.515625.011718-.714844.03125-.160156.015625-.320312.039062-.476562.070312zm8.984375 2.761719c0 .246093.003906.496093.011719.742187.007812.246094.035156.484375.078125.714844h-.570313l-.089844-.867188h-.027343c-.085938.128907-.183594.246094-.296875.355469-.121094.121094-.261719.230469-.421875.328125-.167969.101563-.351563.179687-.542969.234375-.21875.0625-.441406.09375-.667969.089844-.300781 0-.566406-.046875-.796875-.148438-.226562-.097656-.414062-.222656-.5625-.382812-.144531-.15625-.257812-.339844-.328125-.542969-.074219-.195313-.109375-.402344-.109375-.613281 0-.722656.308594-1.28125.925782-1.675782.617187-.390624 1.546874-.578124 2.789062-.5625v-.164062c0-.164062-.015625-.347656-.046875-.558594-.027344-.207031-.097656-.410156-.199219-.59375-.105468-.1875-.257812-.34375-.464844-.472656-.207031-.128906-.488281-.191406-.84375-.191406-.265624 0-.53125.039062-.796874.121094-.253907.078124-.496094.191406-.71875.335937l-.191407-.445313c.257813-.179687.546875-.316406.851563-.402343.300781-.082031.609375-.121094.921875-.121094.429687 0 .78125.070313 1.054687.214844.273438.148437.484375.335937.640625.5625.15625.234375.265625.5.316407.777343.058593.285157.085937.566407.085937.847657zm-.609375-1.828126c-.328125-.007812-.671875.003907-1.03125.039063-.335938.027344-.671875.105469-.988281.222656-.304688.113281-.554688.28125-.75.503907-.199219.222656-.300781.515624-.300781.882812 0 .433594.125.753906.375.960938.25.203124.53125.304687.84375.304687.25 0 .472656-.035156.671874-.101563.1875-.0625.363282-.15625.519532-.273437.273437-.21875.480468-.507813.59375-.839844.042968-.171875.066406-.292969.066406-.371093zm1.796875-2.851562 1.582031 3.988281c.085938.222657.167969.449219.246094.683594s.144531.449219.207031.648437h.023438c.070312-.210937.140625-.425781.207031-.632812.078125-.238281.164062-.476562.261719-.726562l1.476562-3.960938h.644531l-1.796874 4.5c-.167969.433594-.335938.867188-.511719 1.296875-.160157.390625-.324219.738281-.488281 1.050781-.164063.308594-.328126.585938-.496094.824219-.164063.230469-.351563.441406-.566406.625-.238282.214844-.460938.371094-.664063.46875s-.339844.160156-.410156.183594l-.207031-.496094c.15625-.070313.328124-.160156.519531-.269531.191406-.109375.375-.257813.554687-.433594.15625-.15625.328125-.355469.515625-.609375.183594-.25.347657-.554687.496094-.914063.050781-.136718.078125-.226562.078125-.269531 0-.058593-.027344-.148437-.078125-.265625l-2.238281-5.691406zm0 0" fill-rule="evenodd"/><path d="m14.402344 7.96875c-.003906-.046875-.039063-.078125-.082032-.082031-.035156 0-.792968-.058594-.792968-.058594s-.523438-.535156-.589844-.589844c-.054688-.058593-.167969-.046875-.210938-.03125-.007812 0-.113281.035157-.296874.09375-.179688-.527343-.488282-1.003906-1.035157-1.003906h-.050781c-.148438-.203125-.34375-.296875-.507812-.296875-1.273438 0-1.882813 1.628906-2.074219 2.453125-.496094.15625-.851563.265625-.890625.28125-.277344.085937-.285156.09375-.320313.359375-.027343.203125-.75 5.917969-.75 5.917969l5.628907 1.078125 3.050781-.671875c0-.007813-1.070313-7.398438-1.074219-7.449219zm-2.285156-.582031c-.160157.050781-.316407.101562-.472657.152343v-.105468c0-.320313-.042969-.582032-.113281-.789063.28125.042969.464844.367188.585938.742188zm-.941407-.671875c.078125.203125.128907.484375.128907.875v.058594c-.3125.101562-.644532.203124-.984376.3125.191407-.746094.550782-1.109376.855469-1.246094zm-.375-.367188c.058594 0 .117188.019532.164063.058594-.410156.195312-.84375.6875-1.027344 1.675781-.269531.085938-.53125.167969-.78125.246094.214844-.75.730469-1.980469 1.644531-1.980469zm0 0" fill="#95bf47"/><path d="m14.320312 7.878906c-.035156 0-.792968-.054687-.792968-.054687s-.523438-.535157-.589844-.59375c-.019531-.023438-.046875-.035157-.078125-.035157l-.421875 8.894532 3.050781-.675782s-1.070312-7.398437-1.078125-7.445312c-.011718-.046875-.046875-.078125-.089844-.089844zm0 0" fill="#5e8e3e"/><path d="m11.394531 9.601562-.375 1.144532s-.332031-.183594-.734375-.183594c-.597656 0-.625.382812-.625.476562 0 .523438 1.332032.726563 1.332032 1.949219 0 .960938-.59375 1.582031-1.402344 1.582031-.96875 0-1.457032-.613281-1.457032-.613281l.261719-.875s.507813.445313.933594.445313c.28125 0 .394531-.222656.394531-.390625 0-.679688-1.089844-.707031-1.089844-1.828125 0-.941406.660157-1.851563 1.996094-1.851563.511719-.007812.765625.144531.765625.144531zm0 0" fill="#fff"/></svg>