<svg viewBox="0 0 40 24" xmlns="http://www.w3.org/2000/svg"><path d="m0 0h40v24h-40z" fill="#eb6f93"/><g fill="#fff"><path d="m13.589844 16.589844h-1.003906c.003906.816406-.382813 1.589844-1.035157 2.078125l-.398437.300781 1.539062 2.105469h1.265625l-1.417969-1.941407c.675782-.671874 1.054688-1.589843 1.050782-2.542968zm-3.589844 0h1.027344v4.484375h-1.027344zm4.253906 0h.96875v4.484375h-.96875zm9.464844 1.296875c-.371094 0-.722656.113281-.957031.433593v-.347656h-.917969v3.101563h.933594v-1.628907c0-.46875.3125-.699218.691406-.699218.40625 0 .640625.242187.640625.695312v1.636719h.921875v-1.976563c0-.722656-.570312-1.214843-1.3125-1.214843zm-5.566406.085937v.199219c-.269532-.1875-.59375-.285156-.921875-.285156-.898438 0-1.628907.734375-1.628907 1.636719 0 .902343.726563 1.636718 1.628907 1.636718.328125 0 .652343-.097656.921875-.285156v.199219h.921875v-3.101563zm-.84375 2.347656c-.464844 0-.835938-.359374-.835938-.796874s.371094-.796876.835938-.796876.835937.359376.835937.796876-.371093.796874-.835937.796874zm3.199218-1.945312v-.402344h-.949218v3.101563h.953125v-1.449219c0-.484375.527343-.75.890625-.75h.007812v-.902344c-.371094 0-.71875.164063-.902344.402344zm7.398438-.402344v.199219c-.269531-.1875-.589844-.285156-.917969-.285156-.902343 0-1.632812.734375-1.632812 1.636719 0 .902343.730469 1.632812 1.632812 1.636718.328125 0 .648438-.097656.917969-.285156v.199219h.921875v-3.101563zm-.84375 2.347656c-.464844 0-.835938-.359374-.835938-.796874s.371094-.796876.835938-.796876.839844.359376.839844.796876c.003906.4375-.375.796874-.839844.796874zm2.75-.34375c-.3125.011719-.558594.265626-.558594.582032 0 .3125.246094.570312.558594.582031.316406-.011719.5625-.269531.5625-.582031 0-.316406-.246094-.570313-.5625-.582032zm-11.175781-8.445312c.238281.238281.242187.625.011719.867188l-.046876.046874c-.234374.242188-.617187.246094-.859374.011719l-1.351563-1.347656c-.371094-.378906-.421875-.839844-.1875-1.085937l.046875-.050782c.195312-.203125.515625-.222656.734375-.046875.105469.082031.257813.0625.34375-.042969.082031-.105468.0625-.257812-.042969-.34375-.414062-.332031-1.015625-.289062-1.382812.09375l-.050782.050782c-.4375.453125-.347656 1.21875.195313 1.769531l1.355469 1.355469c.207031.203125.488281.3125.777344.308594.292968-.003907.566406-.121094.769531-.332032l.046875-.050781c.417968-.4375.40625-1.125-.019532-1.550781-.046874-.046875-.109374-.070313-.171874-.070313-.066407 0-.128907.027344-.171876.074219-.09375.09375-.09375.25.003907.34375zm-.808594-7.3125.550781 4.582031c.015625.132813.136719.230469.273438.214844.132812-.019531.226562-.140625.210937-.273437l-.554687-4.597657-.007813-.03125c-.09375-.378906.140625-.808593.457031-.875.175782-.039062.355469-.003906.507813.097657.148437.097656.253906.253906.289063.433593l.960937 4.144531c.03125.132813.160156.210938.292969.179688.128906-.03125.210937-.160156.179687-.289062l-.960937-4.140626c-.058594-.300781-.238282-.566406-.496094-.738281s-.574219-.230469-.875-.167969c-.589844.128907-.976562.824219-.828125 1.460938zm0 0"/><path d="m22.90625 9.605469 1.09375-5.496094c.125-.59375-.222656-1.183594-.800781-1.359375-.644531-.167969-1.300781.21875-1.46875.863281l-1.210938 4.179688c-.035156.128906.035157.261719.164063.300781s.265625-.035156.304687-.164062l1.210938-4.1875c.097656-.382813.484375-.617188.871093-.519532.324219.097656.527344.441406.453126.785156l-1.09375 5.5c-.019532.085938.007812.175782.074218.238282.066406.058594.160156.078125.242188.046875.085937-.027344.144531-.101563.160156-.191407zm-2.75 5.292969c-1.734375 0-3.179688-1.28125-3.179688-3.105469 0-.132813-.109374-.242188-.246093-.242188-.132813 0-.242188.109375-.242188.242188 0 2.109375 1.679688 3.59375 3.664063 3.59375.136718 0 .246094-.109375.246094-.246094 0-.0625-.027344-.125-.070313-.171875-.046875-.046875-.109375-.070312-.175781-.070312zm-.859375-4.285157c-.039063.136719-.121094.257813-.238281.339844l-.050782.035156c-.136718.089844-.300781.121094-.457031.09375-.160156-.03125-.300781-.125-.390625-.257812l-1.0625-1.597657c-.289062-.441406-.25-.910156.027344-1.101562l.050781-.035156c.359375-.210938.664063-.050782.976563.410156l.886718 1.332031c.035157.054688.09375.089844.15625.105469.0625.011719.128907-.003906.179688-.039062.113281-.074219.144531-.226563.066406-.339844l-.886718-1.335938c-.441407-.644531-.984376-.929687-1.632813-.546875l-.070313.042969c-.519531.363281-.582031 1.128906-.160156 1.78125l1.066406 1.597656c.160157.242188.414063.40625.699219.464844.285157.054688.578125-.007812.820313-.167969l.054687-.039062c.210938-.144531.363281-.363281.433594-.609375.035156-.128906-.039063-.265625-.167969-.300782-.128906-.035156-.265625.039063-.300781.167969zm0 0"/><path d="m20.90625 11.425781c-.503906.285157-.820312.820313-.859375 1.628907-.003906.132812.097656.25.230469.253906.136718.007812.25-.097656.257812-.230469.035156-.734375.316406-1.128906.773438-1.300781.246094-.09375.511718-.113282.746094-.089844.03125.003906.050781.007812.058593.007812.316407.0625.410157-.40625.097657-.476562l-1.867188-.421875c-.875-.242187-1.007812-.566406-.84375-1.113281.070312-.234375.210938-.355469.429688-.40625.144531-.03125.304687-.027344.457031 0 .042969.007812.074219.015625.089843.019531l2.835938.667969c.019531.003906.035156.007812.054688.015625.046874.023437.09375.058593.140624.109375.191407.203125.296876.589844.242188 1.222656-.183594 2.226562-1.210938 3.605469-3.648438 3.585938-.132812 0-.246093.105468-.246093.242187 0 .132813.105469.246094.242187.246094 2.738282.023437 3.933594-1.582031 4.136719-4.03125.066406-.761719-.078125-1.285157-.371094-1.601563-.160156-.171875-.332031-.25-.460937-.269531l-2.804688-.660156c-.042968-.011719-.085937-.023438-.128906-.03125-.210938-.039063-.433594-.035157-.644531.007812-.378907.085938-.667969.328125-.789063.746094-.234375.785156.015625 1.402344 1.191406 1.726563zm0 0"/></g></svg>