<svg viewBox="0 0 40 24" xmlns="http://www.w3.org/2000/svg"><path d="m0 0h40v24h-40z" fill="#fff"/><path d="m10.785156 12.121094-.753906-1.617188-1.054688.417969.074219.148437c-.359375.011719-.710937.140626-.992187.371094-.597656.5-.699219 1.378906-.234375 2 .753906.9375 2.070312.378906 2.070312.742188 0 .363281-.691406-.089844-.691406-.089844l-.859375.378906.699219 1.617188.933593-.398438-.089843-.199218c.4375-.007813.859375-.132813 1.226562-.367188.398438-.417969.515625-1.03125.296875-1.5625-.445312-1.292969-2.378906-.640625-2.140625-1.171875.089844-.210937.535157.164063.535157.164063zm.058594-1.75s.753906 2.847656.851562 3.242187c.046876.339844.234376.644531.523438.839844.285156.195313.644531.261719.980469.183594.511719-.109375.640625-.339844.640625-.339844l.039062.101563 1.601563-.457032-.382813-1.277344h-.21875l-.75-3.152343-1.433594.363281s.65625 2.492188.699219 2.722656c.078125.355469-.3125.40625-.40625.074219-.089843-.335937-.699219-2.714844-.699219-2.714844l-1.445312.378907zm4.222656-1.15625.070313 1.484375h.34375l.191406 3.242187 1.453125-.144531s-.175781-2.609375-.183594-2.875c-.007812-.269531.386719-.328125.402344-.0625.011719.269531.179688 2.886719.179688 2.886719l1.503906-.109375s-.203125-2.902344-.230469-3.367188c.011719-.324219-.113281-.636719-.339844-.867187-.226562-.230469-.539062-.359375-.867187-.359375-.300782.003906-.59375.082031-.859375.230469v-.125l-1.660157.066406zm0 0"/><path d="m18.871094 8.546875c-.363282-.308594-.589844-.75-.625-1.222656-.03125-.476563.128906-.945313.445312-1.300781-.101562-.28125.015625-.59375.277344-.742188.28125-.148438.632812-.074219.828125.179688.691406-.070313 1.375.207031 1.820313.742187l.835937-.386719c.574219-.25.925781.453125.402344.742188l-1.628907.816406.398438.050781c.316406 1.402344.390625 2.847657.21875 4.273438 0 0 .695312 0 .695312-.59375-.03125-.378907-.210937-.726563-.5-.972657l1.328126-.917968c.660156.492187 1.066406 1.253906 1.113281 2.078125 0 1.570312-1.734375 1.988281-1.734375 1.988281.457031.660156.851562 1.363281 1.183594 2.097656l.46875-.171875s.121093 1.1875.121093 1.425781c0 .378907.308594.289063.5625 0 .375-.472656 1.507813-.925781 1.882813-.15625.121094.3125.097656.664063-.058594.960938s-.433594.515625-.761719.597656c-.5625.121094-1.132812.195313-1.710937.222656-.125.089844 0 .394532 0 .394532l-.984375.4375c-.21875-.101563-.390625-.28125-.476563-.503906-.179687-.402344.203125-.824219 0-1.136719s-.820312-1.296875-.820312-1.296875l.257812-.113282c-.324218-.738281-.734375-1.4375-1.226562-2.078124-.257813.609374-.578125 1.191406-.957032 1.730468l.347657.3125s-.949219.742188-1.0625.808594-.308594.355469.058593.355469c.4375-.019531.871094.121093 1.210938.390625.324219.285156.40625.753906.203125 1.132812-.210937.375-.648437.566406-1.066406.457032-.722657-.21875-1.324219-.71875-1.671875-1.386719-.105469-.269531-.371094 0-.445313.109375l-.863281-.613282c-.039062-.277343.054688-.550781.253906-.742187.316406-.269531.699219-.269531.820313-.503906.121093-.238281.671875-1.417969.671875-1.417969l.230468.148438c1.011719-1.773438 1.390626-3.832032 1.085938-5.847657h-.753906v-.539062l-.390625.199219zm12.933594 4.851563.664062-1.640626-1.039062-.445312-.054688.164062c-.257812-.265624-.601562-.4375-.96875-.488281-.785156-.066406-1.488281.480469-1.613281 1.246094-.171875 1.15625 1.183593 1.71875.914062 1.988281-.273437.265625-.421875-.550781-.421875-.550781l-.875-.332031-.667968 1.625.945312.371094.085938-.210938c.308593.304688.699218.515625 1.121093.609375.578125-.015625 1.09375-.363281 1.332031-.890625.609376-1.207031-1.234374-2.113281-.671874-2.320312.21875-.082032.257812.488281.257812.488281l1 .386719zm0 0"/><path d="m25.269531 9.496094s-.75 2.839844-.902343 3.226562c-.132813.320313-.125.679688.027343.992188.152344.3125.433594.542968.769531.640625.242188.105469.515626.105469.753907 0v.105469l1.625.398437.316406-1.289063-.179687-.121093.933593-3.105469-1.503906-.386719s-.703125 2.484375-.753906 2.707031c-.113281.339844-.484375.191407-.390625-.132812.089844-.328125.75-2.671875.75-2.671875zm0 0"/><path d="m9.925781 10.859375.519531 1.136719-.585937.265625s-.550781-.371094-.808594-.058594c-.074219.089844-.105469.203125-.085937.316406.019531.113281.085937.210938.183594.269531.324218.214844 2.074218-.140624 2.117187 1.300782.046875 1.4375-1.808594 1.117187-1.808594 1.117187l.113281.3125-.414062.199219-.449219-1.125.503907-.1875c.351562.238281.871093.328125.96875-.09375.101562-.425781-.285157-.550781-.691407-.519531-.390625.082031-.800781-.003907-1.125-.238281-.320312-.234376-.523437-.597657-.554687-.996094-.035156-.679688.550781-1.347656 1.679687-1.191406l-.105469-.296876.550782-.210937zm1.234375-.316406.941406-.246094s.558594 2.085937.664063 2.507813c.050781.160156.1875.28125.355469.3125.167968.035156.339844-.027344.449218-.15625.109376-.132813.140626-.3125.074219-.46875-.148437-.578126-.609375-2.4375-.609375-2.4375l.941406-.246094.753907 3.128906h.253906l.242187.800781-1.136718.3125-.113282-.273437c-.207031.355468-.574218.589844-.988281.628906-.503906.027344-.945312-.328125-1.023437-.820312-.164063-.558594-.804688-3.035157-.804688-3.035157zm20.953125 1.378906-.449219 1.15625-.601562-.222656s-.121094-.644531-.527344-.605469c-.117187.007812-.222656.066406-.289062.160156-.070313.09375-.09375.210938-.066406.320313.074218.378906 1.558593 1.359375.550781 2.394531-1.011719 1.039062-2.0625-.457031-2.0625-.457031l-.144531.296875-.429688-.148438.46875-1.152344.511719.210938c.074219.414062.375.84375.75.613281.378906-.230469.199219-.585937-.105469-.851562-.332031-.214844-.558594-.5625-.617188-.957031-.054687-.390626.0625-.789063.324219-1.085938.460938-.503906 1.363281-.5625 2.042969.34375l.117188-.265625.535156.234375zm-6.683593-2.121094.941406.25s-.574219 2.078125-.699219 2.5c-.035156.164063.023437.332031.152344.441407.128906.109374.304687.140624.464843.082031.15625-.054688.273438-.195313.300782-.359375.15625-.578125.707031-2.417969.707031-2.417969l.910156.246094-.949219 3.078125.21875.132812-.203124.816406-1.144532-.289062.058594-.296875c-.34375.195313-.761719.21875-1.128906.066406-.445313-.222656-.652344-.75-.472656-1.214843.140624-.566407.84375-3.027344.84375-3.027344zm-10.089844-.335937 1.195312-.058594v.28125c.308594-.214844.660156-.351562 1.03125-.398438.507813.035157.90625.441407.925782.941407.0625.347656.234374 3.175781.234374 3.175781l-1.015624.074219s-.15625-2.328125-.171876-2.621094c.019532-.167969-.058593-.335937-.203124-.425781-.144532-.089844-.332032-.089844-.476563 0-.144531.09375-.222656.257812-.203125.425781 0 .699219.144531 2.679687.144531 2.679687l-.917969.074219-.183593-3.191406h-.34375zm0 0" fill="#3ba658"/><path d="m18.914062 8.234375c-.273437-.28125-.425781-.664063-.417968-1.058594.007812-.394531.175781-.769531.464844-1.039062 0 0-.152344-.445313.113281-.585938.230469-.113281.511719-.023437.632812.207031.65625-.265624 1.445313.296876 1.851563.824219l.984375-.476562c.289062-.140625.394531.148437.144531.246093-.246094.09375-3.765625 1.882813-3.765625 1.882813zm0 0" fill="#c9222e"/><path d="m19.53125 8.25 1.222656-.601562.699219.074218c.246094 1.421875.261719 2.871094.054687 4.296875 0 0 1.164063.058594 1.292969-.675781.050781-.417969-.085937-.835938-.375-1.140625l.871094-.609375c.507813.421875.820313 1.027344.875 1.683594-.023437 1.644531-1.914063 1.847656-1.914063 1.847656.570313.71875 1.039063 1.507812 1.402344 2.351562l-1.007812.414063c-.375-.90625-.90625-1.734375-1.574219-2.449219-.308594.695313-.671875 1.367188-1.078125 2.011719l-.867188-.625c1.136719-1.871094 1.539063-4.097656 1.136719-6.25h-.675781l-.039062-.335937zm0 0" fill="#f3d835"/><path d="m22.574219 16.179688 1.582031-.621094s.089844 1.105468.105469 1.246094c0 .28125.472656.605468.886719.082031.414062-.527344 1.296874-.742188 1.507812-.378907.457031.820313-.558594 1.484376-1.828125 1.414063-.925781-.058594-.710937.550781-.710937.550781l-.628907.273438c-.238281-.140625-.355469-.421875-.28125-.6875.113281-.527344 0-.742188 0-.800782 0-.0625-.609375-1.078124-.609375-1.078124zm-3.765625-1.289063 1.34375 1s-.753906.636719-.890625.742187c-.292969.230469-.253907.703126.292969.742188 1.136718 0 1.507812.742188 1.117187 1.238281-.394531.496094-.695313.296875-1.070313.125-.566406-.253906-1.015624-.714843-1.265624-1.28125-.042969-.074219-.113282-.125-.195313-.140625-.085937-.011718-.171875.011719-.234375.066406l-.1875.132813-.535156-.40625s-.105469-.3125.371094-.566406c.472656-.25.503906-.167969.75-.527344.25-.355469.503906-1.097656.503906-1.097656zm0 0" fill="#c9222e"/></svg>