<svg viewBox="0 0 40 24" xmlns="http://www.w3.org/2000/svg" xmlns:xlink="http://www.w3.org/1999/xlink"><radialGradient id="a" cx=".22336" cy=".0883" gradientTransform="matrix(3.597656 0 0 3.596044 9.746094 10.170828)" gradientUnits="userSpaceOnUse" r="1.13243"><stop offset="0" stop-color="#fc0"/><stop offset=".09" stop-color="#ffc800"/><stop offset=".17" stop-color="#ffbd00"/><stop offset=".25" stop-color="#ffab00"/><stop offset=".33" stop-color="#ff9100"/><stop offset=".4" stop-color="#ff7000"/><stop offset=".48" stop-color="#ff4700"/><stop offset=".55" stop-color="#ff1800"/><stop offset=".58" stop-color="#f00"/><stop offset="1" stop-color="#f00"/></radialGradient><radialGradient id="b" cx=".02395" cy=".14599" gradientTransform="matrix(2.679688 0 0 2.680795 8.03125 10.337016)" gradientUnits="userSpaceOnUse" r="1.39402"><stop offset="0" stop-color="#00b4e6"/><stop offset=".2" stop-color="#00b0e3"/><stop offset=".39" stop-color="#01a5db"/><stop offset=".57" stop-color="#0292cd"/><stop offset=".75" stop-color="#0377ba"/><stop offset=".93" stop-color="#0455a1"/><stop offset="1" stop-color="#054696"/></radialGradient><path d="m0 0h40v24h-40z"/><path d="m14.542969 13.996094c-.007813.125-.070313.242187-.175781.3125l-3.382813 1.996094c-.109375.058593-.238281.058593-.347656 0l-3.382813-1.996094c-.101562-.070313-.167968-.1875-.171875-.3125v-3.996094c.003907-.121094.070313-.238281.171875-.308594l3.382813-1.996094c.109375-.058593.238281-.058593.347656 0l3.382813 1.996094c.105468.070313.167968.183594.175781.308594zm18.777343-3.707032h-3.03125v.738282h1.085938v3.164062h.859375v-3.164062h1.085937zm-13.757812 0h-3.03125v.738282h1.089844v3.164062h.855468v-3.164062h1.085938zm8.765625-.125c-.953125 0-1.484375.625-1.484375 1.523438v2.503906h.847656v-2.523437c0-.390625.230469-.691407.648438-.691407.417968 0 .640625.355469.640625.691407v2.523437h.847656v-2.503906c0-.898438-.546875-1.519531-1.5-1.519531zm-3.199219.125h.851563v3.902344h-.851563zm-2.871094 1.546876.027344.171874.792969 2.183594h.347656l1.085938-3.902344h-.839844l-.515625 2.050782-.03125.21875-.042969-.21875-.6875-2.050782h-.277343l-.691407 2.050782-.039062.21875-.03125-.21875-.515625-2.050782h-.839844l1.085938 3.902344h.34375l.796874-2.183594.027344-.171874zm0 0" fill="#fff"/><path d="m12.574219 12.011719-.882813 1.320312-.453125-.707031.523438-.796875c.097656-.144531.304687-.53125.0625-1.066406-.171875-.386719-.554688-.640625-.980469-.640625s-.808594.253906-.984375.640625c-.167969.335937-.148437.734375.058594 1.050781.207031.308594.289062.433594.53125.800781l.390625.578125.59375.921875c.058594.089844.15625.148438.261718.152344.160157 0 .253907-.144531.265626-.160156l1.382812-2.09375zm-1.738281.03125s-.230469-.355469-.378907-.609375c-.039062-.066406-.058593-.144532-.058593-.21875 0-.246094.199218-.449219.441406-.449219.238281 0 .4375.203125.4375.449219 0 .078125-.019532.152344-.058594.21875-.148438.25-.375.609375-.375.609375zm0 0" fill="url(#a)"/><path d="m9.988281 13.289062-.863281-1.242187s-.234375-.359375-.382812-.609375c-.039063-.070312-.058594-.148438-.058594-.226562 0-.242188.195312-.445313.4375-.445313h.003906c.039062 0 .082031.007813.125.019531l.304688-.574218c-.535157-.238282-1.167969.007812-1.410157.550781-.171875.335937-.148437.734375.058594 1.050781l1.515625 2.292969c.011719.023437.109375.167969.269531.167969.109375-.007813.207031-.070313.265625-.164063l.457032-.710937-.394532-.59375zm0 0" fill="url(#b)"/></svg>