<svg viewBox="0 0 40 24" xmlns="http://www.w3.org/2000/svg"><path d="m0 0h40v24h-40z" fill="#fff"/><path d="m13.101562 5.199219h5.480469c.765625 0 1.242188.617187 1.0625 1.375l-2.550781 10.839843c-.183594.753907-.949219 1.371094-1.714844 1.371094h-5.480468c-.761719 0-1.238282-.617187-1.0625-1.371094l2.554687-10.835937c.179687-.761719.945313-1.378906 1.710937-1.378906" fill="#e21836"/><path d="m18.125 5.199219h6.304688c.761718 0 .417968.617187.238281 1.375l-2.550781 10.839843c-.179688.753907-.125 1.371094-.890626 1.371094h-6.300781c-.769531 0-1.242187-.617187-1.0625-1.371094l2.550781-10.835937c.183594-.761719.945313-1.378906 1.710938-1.378906" fill="#00447c"/><path d="m24.179688 5.199219h5.480468c.765625 0 1.242188.617187 1.0625 1.375l-2.550781 10.839843c-.183594.753907-.949219 1.371094-1.714844 1.371094h-5.476562c-.769531 0-1.242188-.617187-1.0625-1.371094l2.550781-10.835937c.179688-.761719.941406-1.378906 1.710938-1.378906" fill="#007b84"/><path d="m14.53125 8.671875c-.5625.007813-.730469 0-.78125-.011719-.023438.097656-.402344 1.832032-.402344 1.832032-.082031.351562-.140625.601562-.34375.765624-.113281.089844-.257812.140626-.40625.136719-.25 0-.394531-.121093-.417968-.355469l-.007813-.078124.078125-.472657s.398438-1.582031.46875-1.792969c.003906-.007812.007812-.015624.007812-.023437-.777343.007813-.914062 0-.925781-.011719-.003906.015625-.023437.117188-.023437.117188l-.40625 1.78125-.035156.152344-.070313.492187c0 .148437.03125.265625.089844.367187.183593.320313.714843.371094 1.015625.371094.382812 0 .746094-.082031.992187-.230468.425781-.25.535157-.636719.632813-.980469l.046875-.175781s.410156-1.644532.480469-1.859376c.003906-.011718.003906-.015624.007812-.023437zm1.398438 1.324219c-.097657 0-.277344.027344-.441407.105468-.058593.027344-.113281.0625-.175781.097657l.054688-.191407-.027344-.03125c-.347656.070313-.425782.078126-.742188.125l-.027344.015626c-.035156.304687-.070312.53125-.207031 1.128906-.050781.222656-.105469.441406-.160156.660156l.015625.03125c.234375-.015625.472656-.019531.707031-.015625l.023438-.023437c.035156-.183594.042969-.226563.121093-.597657.039063-.171875.117188-.558593.15625-.695312.070313-.035157.140626-.066407.207032-.066407.15625 0 .140625.136719.132812.191407-.007812.09375-.066406.394531-.125.652343l-.039062.164063c-.027344.125-.058594.242187-.085938.363281l.011719.023438c.324219-.015625.421875-.015625.695313-.011719l.03125-.023437c.050781-.285157.066406-.363282.152343-.777344l.046875-.191406c.085938-.375.128906-.5625.0625-.71875-.066406-.171876-.234375-.214844-.386718-.214844zm1.5625.394531c-.167969.03125-.277344.050781-.386719.066406s-.210938.03125-.378907.054688l-.023437.023437c-.019531.121094-.03125.226563-.050781.347656-.023438.128907-.050782.273438-.101563.484376-.015625.09375-.042969.183593-.078125.273437-.019531.054687-.042968.109375-.085937.265625l.011719.015625.007812.015625c.15625-.007812.253906-.015625.359375-.015625.105469-.003906.210937 0 .378906 0l.03125-.023437c.023438-.140626.027344-.179688.039063-.25.015625-.074219.042968-.175782.101562-.453126.03125-.125.0625-.253906.09375-.386718.03125-.132813.0625-.261719.09375-.390625l-.003906-.015625zm.003906-.53125c-.152344-.089844-.425782-.058594-.609375.066406-.183594.121094-.207031.296875-.050781.386719.152343.089844.425781.0625.609374-.0625.183594-.125.207032-.296875.050782-.386719zm.941406 2.105469c.316406 0 .636719-.085938.878906-.339844.1875-.207031.273438-.515625.304688-.640625.09375-.421875.019531-.617187-.074219-.734375-.144531-.183594-.398437-.242188-.660156-.242188-.160157 0-.535157.015626-.828125.285157-.210938.195312-.308594.457031-.367188.707031-.0625.257812-.128906.71875.300782.890625.132812.058594.324218.074219.445312.074219zm-.023438-.945313c.070313-.316406.15625-.582031.375-.582031.171876 0 .183594.199219.109376.515625-.015626.070313-.078126.335937-.160157.445313-.058593.082031-.128906.132812-.207031.132812-.023438 0-.160156 0-.160156-.199219-.003906-.101562.015625-.203125.042968-.3125zm1.992188.902344.023438-.023437c.035156-.183594.042968-.226563.117187-.597657.039063-.171875.121094-.558593.15625-.695312.074219-.035157.140625-.066407.210937-.066407.15625 0 .136719.136719.132813.191407-.007813.09375-.066406.394531-.125.652343l-.039063.164063c-.027343.125-.058593.242187-.085937.363281l.011719.023438c.230468-.011719.460937-.015625.695312-.011719l.03125-.023437c.050782-.285157.0625-.363282.152344-.777344l.042969-.191406c.089843-.375.132812-.5625.066406-.71875-.070313-.171876-.234375-.214844-.386719-.214844-.152344.003906-.304687.039062-.441406.105468-.058594.027344-.117188.0625-.171875.097657l.046875-.191407-.027344-.03125c-.34375.070313-.421875.078126-.742187.125l-.023438.015626c-.039062.304687-.070312.53125-.207031 1.128906-.050781.21875-.105469.441406-.160156.660156l.015625.03125c.234375-.015625.472656-.019531.707031-.015625zm2.375.011719c.019531-.097656.140625-.675782.140625-.675782s.101563-.429687.109375-.445312c0 0 .03125-.042969.0625-.058594h.050781c.445313 0 .953125 0 1.351563-.289062.269531-.199219.453125-.492188.535156-.847656.023438-.085938.039062-.191407.039062-.296876 0-.132812-.027343-.269531-.109374-.375-.199219-.28125-.605469-.285156-1.070313-.289062l-.230469.003906c-.59375.007813-.832031.003906-.933594-.007812-.007812.042968-.023437.121094-.023437.121094l-.210937.980468-.535157 2.179688c.519531-.007813.734375-.007813.824219 0zm.394531-1.738282.226563-.972656.007812-.046875v-.039062l.09375.007812.476563.042969c.1875.070312.261719.25.210937.488281-.050781.21875-.191406.402344-.375.488281-.152344.074219-.335937.082032-.527344.082032h-.125zm1.414063.84375c-.0625.253907-.128906.714844.296875.878907.136719.058593.257812.074219.382812.070312.132813-.007812.253907-.074219.363281-.167969l-.027343.117188.019531.023438c.242188-.011719.488281-.015626.734375-.011719l.03125-.019531c.046875-.285157.09375-.558594.21875-1.101563.0625-.257813.125-.515625.1875-.773437l-.011719-.027344c-.34375.0625-.433594.078125-.765625.125l-.023437.019531-.011719.074219c-.054687-.089844-.140625-.160156-.242187-.195313-.144532-.054687-.492188.015625-.789063.285157-.207031.191406-.308594.453124-.363281.703124zm.722656.015626c.070312-.3125.15625-.574219.375-.574219.140625 0 .210938.125.199219.339843-.015625.054688-.027344.109376-.042969.175782-.019531.09375-.042969.183594-.066406.277344-.019532.054687-.046875.109374-.082032.160156-.054687.078125-.191406.128906-.269531.128906-.019531 0-.15625 0-.160156-.199219 0-.097656.019531-.199219.046875-.308593zm3.769531-1.03125-.027343-.027344c-.339844.066406-.402344.078125-.714844.121094l-.023438.023437-.003906.011719v-.003906c-.230469.53125-.226562.414062-.414062.832031 0-.015625 0-.027344-.003907-.050781l-.046875-.90625-.027344-.027344c-.359374.066406-.367187.078125-.695312.121094l-.027344.023437c-.003906.007813-.003906.019531-.003906.035156v.003907c.042969.207031.03125.160156.074219.488281.019531.160156.042969.324219.0625.484375.035156.265625.050781.394531.09375.800781-.222657.363281-.277344.5-.492188.820313l.003907.003906-.152344.234375c-.015625.023437-.03125.042969-.054688.050781-.03125.011719-.066406.015625-.097656.011719h-.085938l-.121093.410156.425781.007813c.25-.003907.40625-.117188.492188-.273438l.265624-.453125h-.003906l.027344-.03125c.179688-.386719 1.550781-2.710937 1.550781-2.710937zm-4.492187 5.363281h-.183594l.667969-2.1875h.222656l.070313-.222657.007812.25c-.007812.152344.113281.289063.4375.269532h.375l.128906-.421875h-.140625c-.082031 0-.117187-.019531-.113281-.0625l-.007812-.257813h-.691407v.003906c-.226562.003907-.894531.019532-1.03125.054688-.164062.042969-.335937.164062-.335937.164062l.070312-.222656h-.648437l-.136719.445313-.675781 2.222656h-.132813l-.128906.417969h1.292969l-.046875.136718h.636718l.042969-.136718h.179688zm-.53125-1.742188c-.105469.027344-.296875.113281-.296875.113281l.171875-.558593h.515625l-.125.410156s-.160157.007813-.265625.035156zm.011718.800781s-.164062.019532-.269531.042969c-.105469.03125-.300781.128907-.300781.128907l.175781-.582032h.519531zm-.289062.949219h-.515625l.148437-.492187h.515626zm1.242188-1.359375h.746093l-.109375.34375h-.753906l-.113281.375h.660156l-.5.695313c-.023437.039062-.058594.066406-.101563.085937-.039062.023438-.085937.035156-.132812.035156h-.183594l-.125.410157h.480469c.246094 0 .394531-.109375.503906-.257813l.34375-.464844.070313.472657c.015625.089843.082031.140625.125.160156.046875.023437.097656.0625.167968.070313.074219.003906.128907.003906.164063.003906h.234375l.144531-.457032h-.09375c-.054687 0-.144531-.007812-.160156-.027343s-.015625-.050781-.023437-.097657l-.078126-.472656h-.304687l.136719-.15625h.75l.117187-.375h-.699219l.109376-.34375h.695312l.128906-.421875h-2.070312zm-6.289063 1.453125.175781-.574219h.714844l.128906-.421874h-.714844l.109376-.351563h.699218l.128906-.414063h-1.75l-.125.414063h.394532l-.105469.351563h-.398437l-.128907.429687h.394531l-.230468.757813c-.03125.101562.015625.140624.042968.183593.03125.046875.0625.078125.128907.09375.070312.015625.117187.023438.183593.023438h.804688l.144531-.46875-.359375.046875c-.066406 0-.257812-.007813-.238281-.070313zm.082031-2.738281-.179687.324219c-.039063.070312-.074219.113281-.105469.132812-.027344.019531-.082031.027344-.160156.027344h-.097656l-.125.414063h.3125c.152343 0 .269531-.054688.324218-.082032.058594-.03125.074219-.015625.121094-.058594l.105469-.089843h.980469l.128906-.433594h-.71875l.125-.234375zm1.445313 2.746094c-.015625-.023438-.003907-.066406.023437-.152344l.265625-.875h.953125c.140625-.003906.238282-.003906.304688-.007812.070312-.007813.144531-.035157.230468-.078126.082032-.046874.128907-.09375.164063-.152343.042969-.054688.109375-.179688.164063-.367188l.335937-1.109375-.988281.003906s-.304688.046876-.4375.09375c-.132813.054688-.328125.207032-.328125.207032l.089843-.304688h-.609374l-.855469 2.804688c-.03125.109375-.050781.1875-.054688.234375-.003906.054687.0625.101562.105469.140625.054688.039062.128906.035156.203125.039062s.183594.007813.332031.007813h.46875l.144532-.480469-.417969.039062c-.039063.003907-.070313-.015624-.09375-.042968zm.460937-1.621094h1l-.0625.199219c-.007812.003906-.03125-.011719-.132812 0h-.863282zm.203125-.660156h1.007813l-.074219.238281s-.472656-.007813-.550781.007813c-.335938.058593-.53125.234374-.53125.234374zm.757813 1.515625c-.007813.027343-.019532.046875-.039063.0625-.019531.011719-.054687.019531-.101562.019531h-.144531l.007812-.242188h-.59375l-.023438 1.175782c0 .082031.007813.132812.070313.171875.0625.050781.257813.054687.515625.054687h.371094l.136718-.4375-.324218.015625-.109375.007813c-.015625-.007813-.03125-.015625-.042969-.027344-.011719-.015625-.035156-.007812-.03125-.089844v-.300781l.339844-.015625c.183594 0 .261718-.058594.328125-.113281.0625-.054688.085937-.117188.109375-.199219l.054687-.269531h-.464843zm0 0" fill="#fefefe"/></svg>