<svg viewBox="0 0 40 24" xmlns="http://www.w3.org/2000/svg"><path d="m0 0h40v24h-40z" fill="#fff"/><path d="m19.835938 8.925781c.515624 0 1.035156-.015625 1.550781.007813.453125.011718.898437.109375 1.3125.292968.835937.386719 1.113281 1.453126.707031 2.167969-.152344.285157-.132812.382813.09375.609375.722656.695313.855469 1.773438.289062 2.53125-.367187.488282-.898437.734375-1.484374.847656-.332032.0625-.671876.097657-1.003907.125-.277343.023438-.453125-.140624-.574219-.363281-.078124-.144531-.148437-.296875-.210937-.449219-.097656-.222656-.007813-.371093.246094-.371093.433593 0 .863281 0 1.289062-.0625.113281-.023438.21875-.054688.324219-.105469.285156-.125.46875-.335938.480469-.652344.015625-.328125-.15625-.5625-.429688-.722656-.269531-.152344-.566406-.1875-.863281-.195312-.503906-.015626-1.011719-.023438-1.511719-.015626-.375.007813-.625-.152343-.765625-.488281-.042968-.09375-.082031-.183593-.125-.28125-.113281-.253906-.03125-.386719.246094-.394531h.585938c.503906-.003906 1.011718-.011719 1.515624-.027344.171876-.003906.339844-.050781.492188-.132812.398438-.210938.417969-.699219.050781-.953125-.289062-.195313-.628906-.203125-.960937-.203125-.753906-.011719-1.503906-.011719-2.257813 0-.316406 0-.535156-.140625-.671875-.414063-.070312-.136719-.132812-.277343-.1875-.421875-.085937-.203125.003906-.335937.222656-.335937.554688-.007813 1.097657 0 1.640626.007812 0-.007812 0-.007812 0 0zm-.675782 6.527344c-.476562.019531-.777344-.195313-.96875-.617187-.59375-1.289063-1.195312-2.578126-1.789062-3.871094-.015625-.027344-.023438-.046875-.035156-.074219-.058594-.105469-.101563-.226563-.253907-.226563-.148437 0-.199219.121094-.25.230469-.601562 1.296875-1.214843 2.59375-1.808593 3.898438-.304688.675781-.742188.6875-1.25.652343-.1875-.015624-.292969-.175781-.25-.355468.015624-.066406.035156-.132813.066406-.191406l2.523437-5.445313c.210938-.457031.570313-.617187 1.050781-.597656.433594.023437.722657.21875.898438.601562.835938 1.8125 1.675781 3.625 2.515625 5.433594.03125.066406.058594.128906.074219.191406.039062.195313-.074219.347657-.277344.371094-.085938.007813-.167969 0-.246094 0zm-10.746094.007813c-.480468.007812-.785156-.199219-.96875-.597657-.835937-1.800781-1.667968-3.59375-2.503906-5.398437-.027344-.0625-.054687-.125-.078125-.1875-.0625-.203125.015625-.367188.226563-.402344.347656-.054688.6875-.039062.976562.207031.113282.097657.191406.207031.253906.335938.59375 1.289062 1.195313 2.578125 1.789063 3.867187.0625.132813.105469.304688.28125.308594.183594.007812.226563-.167969.289063-.300781.59375-1.28125 1.195312-2.566407 1.789062-3.855469.269531-.582031.757812-.644531 1.230469-.574219.242187.035157.320312.238281.199219.492188-.179688.390625-.359376.785156-.542969 1.175781-.667969 1.429688-1.332031 2.855469-1.988281 4.285156-.199219.441406-.507813.664063-.953126.644532zm18.183594-3.253907v-2.816406c0-.316406.148438-.449219.457032-.464844.53125-.027343.660156.125.652343.636719-.015625 1.425781-.007812 2.847656-.007812 4.269531 0 .402344.15625.5625.558593.5625.445313 0 .898438.007813 1.34375 0 .207032-.003906.410157.070313.566407.210938.195312.179687.335937.414062.480469.644531.082031.140625.011718.25-.15625.28125-.042969.003906-.09375 0-.136719 0h-3.257813c-.347656 0-.507812-.15625-.507812-.5.007812-.945312.007812-1.886719.007812-2.824219zm4.507813 0v-2.816406c0-.332031.140625-.449219.476562-.472656.558594-.035157.640625.195312.632813.640625-.011719 1.421875-.003906 2.84375-.003906 4.269531 0 .410156.148437.558594.570312.558594h1.34375c.210938 0 .394531.070312.542969.210937.199219.183594.339843.414063.484375.644532.082031.132812.019531.246093-.136719.273437-.046875.007813-.105469.007813-.15625.007813h-3.257813c-.347656 0-.503906-.15625-.503906-.5.007813-.9375.007813-1.878907.007813-2.816407zm-20.445313 3.253907c-.445312.046874-.621094-.175782-.402344-.632813.839844-1.792969 1.675782-3.59375 2.503907-5.390625.246093-.539062.753906-.644531 1.234375-.554688.234375.042969.296875.246094.179687.507813-.269531.585937-.542969 1.171875-.820312 1.757813-.566407 1.21875-1.132813 2.441406-1.699219 3.667968-.1875.433594-.5.671875-.996094.644532zm13.933594-3.238282v-2.820312c0-.335938.144531-.476563.480469-.476563h.226562c.222657.007813.382813.15625.40625.363281.003907.050782 0 .105469 0 .15625v5.515626c0 .4375-.128906.5625-.558593.5625h-.085938c-.289062 0-.460938-.167969-.460938-.457032-.007812-.945312-.007812-1.898437-.007812-2.84375zm0 0" fill="#01b0ef"/></svg>