<svg viewBox="0 0 40 24" xmlns="http://www.w3.org/2000/svg"><path d="m0 0h40v24h-40z" fill="#005b9b"/><path d="m13.90625 13.699219c2.882812-1.1875 6.867188-2.378907 12.121094-1.1875l.082031-1.363281c-5.589844-.59375-9.574219 1.191406-12.203125 2.464843zm0 0" fill="#fbaa28"/><path d="m8.738281 14.636719h2.710938v.847656h-1.691407v.765625h1.691407v.765625h-1.691407v.765625h1.691407v.761719h-2.710938zm3.390625-.257813h1.015625v4.25h-1.015625zm4.320313 3.910156c-.339844.257813-.847657.425782-1.269531.425782-1.015626 0-1.527344-.765625-1.527344-1.445313 0-.847656.679687-1.613281 1.527344-1.613281 1.101562 0 1.441406.765625 1.441406 1.785156h-1.949219c0 .253906.167969.59375.675781.59375.339844 0 .507813-.085937.761719-.253906zm-.675781-1.527343c0-.257813-.171876-.597657-.511719-.597657-.335938 0-.507813.257813-.589844.597657zm3.8125 1.613281c-.253907.171875-.679688.253906-1.015626.253906-.933593 0-1.527343-.507812-1.527343-1.445312 0-.933594.679687-1.613282 1.609375-1.613282.339844 0 .761718.085938.933594.253907l-.339844.679687c-.167969-.082031-.339844-.082031-.421875-.082031-.511719 0-.847657.253906-.847657.761719 0 .425781.335938.765625.761719.765625.167969 0 .339844-.085938.507813-.167969zm.339843-2.636719h.421875v-.933593h.933594v.933593h.761719v.683594h-.761719v1.019531c0 .253906.082031.339844.253906.339844.167969 0 .253906-.085938.339844-.171875l.253906.679687c-.253906.171876-.59375.257813-.933594.257813-.761718 0-.847656-.511719-.847656-1.191406v-1.105469h-.421875zm2.710938 0h1.015625v.425781c.171875-.253906.339844-.507812.679687-.507812h.335938l-.167969 1.019531c-.085938 0-.167969-.085937-.339844-.085937-.335937 0-.59375.253906-.59375.339844v1.613281h-1.015625zm3.8125-.082031c1.015625 0 1.609375.679688 1.609375 1.527344 0 .851562-.507813 1.53125-1.609375 1.53125-1.015625 0-1.609375-.679688-1.609375-1.53125 0-.847656.507812-1.527344 1.609375-1.527344zm0 2.292969c.507812 0 .59375-.425781.59375-.765625s-.171875-.761719-.59375-.761719c-.507813 0-.59375.421875-.59375.761719s.085937.765625.59375.765625zm2.117187-2.210938h1.019532v.339844c.253906-.253906.59375-.421875.929687-.421875.59375 0 .933594.339844.933594 1.105469v1.867187h-1.015625v-1.699218c0-.253907-.085938-.425782-.339844-.425782-.171875 0-.425781.171875-.507812.257813v1.867187h-1.019532zm-11.777344-5.863281 1.269532-4.082031h1.101562l-1.269531 4.082031zm-.421874-4.082031-1.019532 1.703125c-.253906.425781-.421875.679687-.507812.933594v-1.105469l-.085938-1.613281h-1.863281v.085937c.507813 0 .761719.253906.847656.761719l.339844 3.230468h1.101563l2.289062-4.078124h-1.101562v.085937zm8.558593 4.082031v-.59375h-1.355469l-.257812.59375h-1.183594l2.203125-4.078125h1.441407l.335937 4.078125zm-.171875-2.464844v-.933594c-.082031.167969-.339844.847657-.507812 1.101563l-.421875.9375h.929687zm-4.40625 2.550782c-.761718 0-1.269531-.257813-1.695312-.511719l.507812-.765625c.339844.171875.59375.425781 1.1875.425781.171875 0 .339844-.085937.507813-.253906.171875-.253907 0-.425781-.421875-.679688l-.253906-.171875c-.679688-.425781-.933594-.847656-.59375-1.613281.167968-.425781.675781-.851563 1.523437-.851563.59375 0 1.101563.253907 1.441406.511719l-.59375.847657c-.335937-.253907-.59375-.339844-.847656-.339844s-.421875.085937-.507813.171875c-.082031.253906 0 .425781.339844.59375l.253906.171875c.761719.507812 1.015626 1.019531.761719 1.445312-.335937.847656-.929687 1.019532-1.609375 1.019532zm0 0" fill="#fff"/></svg>