<svg viewBox="0 0 40 24" xmlns="http://www.w3.org/2000/svg"><path d="m0 0h40v24h-40z" fill="#fff"/><path d="m25.042969 9.441406h-1.542969v-.832031l.003906-.160156c0-1.921875-1.5625-3.476563-3.488281-3.476563-.925781 0-1.8125.367188-2.464844 1.019532-.65625.648437-1.023437 1.535156-1.023437 2.457031l.003906.03125h-.003906v.964843h-1.542969c-.511719 0-1.015625.25-.90625.839844l1.140625 5.105469c.101562.433594.417969.730469.933594.730469h7.726562c.515625 0 .832032-.296875.933594-.730469l1.144531-5.105469c.105469-.589844-.394531-.839844-.910156-.839844zm-3.523438 2.148438c0 .066406 0 .125-.132812.125h-.703125c-.078125 0-.109375.015625-.109375.09375v2.414062c0 .125-.074219.15625-.246094.15625h-.695313c-.191406 0-.246093-.015625-.246093-.15625v-2.414062c0-.078125-.03125-.09375-.109375-.09375h-.648438c-.136718 0-.136718-.054688-.136718-.125v-.59375c0-.117188.085937-.132813.222656-.132813h2.585937c.132813 0 .21875.015625.21875.132813zm.742188-2.148438h-4.492188v-1.0625h.003907v-.03125c0-1.238281 1.003906-2.238281 2.242187-2.238281 1.242187 0 2.246094 1.003906 2.246094 2.238281zm-3.207031 8.324219c0 .761719-.617188 1.378906-1.382813 1.378906-.757813 0-1.378906-.617187-1.378906-1.378906-.019531-.503906.242187-.976563.675781-1.230469.433594-.257812.972656-.257812 1.410156 0 .433594.253906.691406.726563.675782 1.230469zm4.6875 0c-.003907.761719-.621094 1.378906-1.382813 1.378906s-1.378906-.613281-1.382813-1.375c0-.761719.621094-1.378906 1.382813-1.378906.761719-.003906 1.378906.613281 1.382813 1.375zm0 0" fill="#69d720"/></svg>